<?xml version="1.0" encoding="utf-8"?>
<!-- Generator: Adobe Illustrator 16.0.3, SVG Export Plug-In . SVG Version: 6.00 Build 0)  -->
<!DOCTYPE svg PUBLIC "-//W3C//DTD SVG 1.1//EN" "http://www.w3.org/Graphics/SVG/1.1/DTD/svg11.dtd">
<svg version="1.1" id="Layer_1" xmlns="http://www.w3.org/2000/svg" xmlns:xlink="http://www.w3.org/1999/xlink" x="0px" y="0px"
	 width="1627px" height="1186px" viewBox="0 0 1627 1186" enable-background="new 0 0 1627 1186" xml:space="preserve">
<path fill-rule="evenodd" clip-rule="evenodd" fill="#303F9F" d="M40.774,828.291c-8.127-27.33-21.621-57.262-26.838-85.273
	c-2.811-15.102-7.557-30.523-9.35-45.783c-2.146-18.275-3.467-36.607-3.969-54.988c-1.25-46.047,2.596-91.664,12.277-136.728
	c20.924-97.34,65.172-182.682,132.348-256.086c45.482-49.697,98.34-89.814,158.326-120.492c8.393-4.292,16.982-8.201,25.498-12.257
	c1.262-0.601,2.527-1.358,3.996-1.125c0.477,1.286-0.053,2.352-0.287,3.414c-6.557,29.453-9.422,59.309-9.877,89.434
	c-0.244,16.158,0.283,32.29,1.471,48.394c0.826,11.161,2.053,22.286,3.434,33.398c3.014,24.329,7.686,48.345,13.258,72.188
	c3.092,13.234,6.672,26.351,10.521,39.396c3.172,10.74,6.523,21.418,10.07,32.031c4.764,14.252,9.943,28.363,15.484,42.329
	c9.256,23.333,19.34,46.301,30.236,68.917c21.461,44.55,45.852,87.45,72.398,129.149c12.449,19.553,25.666,38.596,38.432,57.934
	c36.396,55.125,70.387,111.664,100.562,170.457c16.871,32.863,32.42,66.334,46.416,100.52c6.905,16.863,13.359,33.908,19.316,51.133
	c4.284,12.387,8.308,24.863,12.098,37.42c8.463,28.057-26.33,29.719-24.501,45.299C673.608,1149.838,44.698,841.477,40.774,828.291z
	"/>
<path fill-rule="evenodd" clip-rule="evenodd" fill="#FFC107" d="M1306.478,180.478c-1.941,1.056-3.588,0.908-5.153,1.087
	c-29.811,3.446-58.811,10.464-87.288,19.785c-15.961,5.228-31.629,11.246-47.034,17.927c-10.999,4.768-21.848,9.876-32.555,15.299
	c-16.567,8.389-32.885,17.224-48.678,26.977c-14.022,8.655-27.811,17.662-41.301,27.14c-11.521,8.094-22.864,16.417-33.968,25.06
	c-17.408,13.551-34.283,27.756-50.689,42.516c-56.754,51.051-107.251,107.81-153.414,168.495
	c-20.611,27.095-41.27,54.149-62.853,80.485c-34.566,42.176-70.759,82.885-109.39,121.396
	c-22.193,22.127-45.098,43.477-68.951,63.812c-12.164,10.373-24.51,20.529-37.143,30.324c-10.865,8.426-21.959,16.549-33.158,24.531
	c-23.215,16.561-47.346,31.635-72.148,45.66c-13.373,7.561-27.08,14.465-40.932,21.111c-16.596,7.963-33.502,15.164-50.73,21.602
	c-43.145,16.131-87.537,27.295-133.307,32.76C98.923,978.252,2.073,670.934,2.073,670.934s5.811-4.293,14.699-11.092
	c11.938-9.133,23.598-18.609,35.012-28.385c19.066-16.328,37.516-33.32,55.371-50.965c35.174-34.758,67.84-71.753,98.662-110.397
	c14.455-18.12,28.178-36.8,42.326-55.154c40.326-52.313,82.775-102.816,128.59-150.438c25.611-26.624,52.225-52.192,80.014-76.526
	c13.711-12.005,27.74-23.644,42.096-34.866c10.33-8.073,20.822-15.931,31.471-23.591c23.789-17.107,48.307-33.081,73.814-47.5
	c13.643-7.708,27.529-14.983,41.669-21.772c11.684-5.606,23.475-10.965,35.455-15.872c25.171-10.312,50.892-19.019,77.238-25.849
	C816.69,3.444,875.768-2.537,935.784,1.535c72.764,4.933,141.75,23.935,207.059,56.288
	c59.332,29.386,111.816,68.125,157.553,116.009C1302.365,175.898,1304.255,178.046,1306.478,180.478z"/>
<path fill-rule="evenodd" clip-rule="evenodd" fill="#C5CAE9" d="M1626.61,1154.248c-2.182-0.35-3.396-1.473-4.743-2.287
	c-25.708-15.479-52.95-27.641-81.194-37.652c-15.831-5.615-31.911-10.42-48.188-14.541c-11.625-2.941-23.334-5.527-35.123-7.773
	c-18.24-3.477-36.555-6.449-55.021-8.377c-16.387-1.711-32.808-3.002-49.276-3.74c-14.062-0.627-28.132-0.971-42.198-0.908
	c-22.062,0.1-44.1,1.035-66.105,2.697c-76.119,5.752-150.773,19.846-224.392,39.689c-32.871,8.863-65.753,17.668-98.927,25.332
	c-53.132,12.273-106.654,22.402-160.764,29.297c-31.088,3.959-62.268,6.871-93.572,8.404c-15.972,0.777-31.945,1.281-47.932,1.318
	c-13.748,0.037-27.494-0.316-41.238-0.832c-28.49-1.07-56.811-3.875-85.016-7.922c-15.207-2.182-30.275-5.09-45.301-8.287
	c-18.002-3.832-35.789-8.461-53.361-13.885c-44.014-13.584-85.982-31.865-125.557-55.496
	c-85.484-51.043-152.117-120.332-200.09-207.512C36.134,832.754,15.097,769.82,5.284,703.162
	c-1.371-9.326-3.211-32.229-3.211-32.229s1.85,1.172,2.777,1.736c25.793,15.656,53.51,27.584,81.898,37.68
	c15.227,5.412,30.678,10.09,46.311,14.131c10.832,2.799,21.764,5.207,32.73,7.469c24.01,4.951,48.256,8.227,72.625,10.598
	c13.529,1.316,27.102,2.137,40.691,2.676c11.189,0.443,22.379,0.691,33.568,0.738c15.029,0.062,30.053-0.318,45.062-1.086
	c25.066-1.279,50.057-3.465,74.973-6.527c49.078-6.037,97.539-15.371,145.549-27.137c22.514-5.52,44.787-11.926,67.201-17.814
	c63.882-16.787,128.342-30.84,193.709-40.559c36.536-5.434,73.227-9.422,110.093-11.715c18.19-1.129,36.406-1.775,54.63-1.891
	c13.107-0.082,26.217,0.105,39.324,0.551c29.287,0.984,58.456,3.311,87.455,7.479c15.516,2.229,30.95,4.951,46.295,8.215
	c12.675,2.697,25.283,5.658,37.769,9.092c26.228,7.209,51.907,16.029,76.94,26.717c55.293,23.609,105.722,54.963,150.752,94.848
	c54.594,48.355,97.609,105.541,129.557,171.045c29.023,59.51,46.912,122.244,53.872,188.092
	C1626.157,1148.109,1626.338,1150.963,1626.61,1154.248z"/>
</svg>
