<?xml version="1.0" encoding="utf-8"?>
<!-- Generator: Adobe Illustrator 16.0.3, SVG Export Plug-In . SVG Version: 6.00 Build 0)  -->
<!DOCTYPE svg PUBLIC "-//W3C//DTD SVG 1.1//EN" "http://www.w3.org/Graphics/SVG/1.1/DTD/svg11.dtd">
<svg version="1.1" id="Layer_1" xmlns="http://www.w3.org/2000/svg" xmlns:xlink="http://www.w3.org/1999/xlink" x="0px" y="0px"
	 width="1899px" height="1164px" viewBox="0 0 1899 1164" enable-background="new 0 0 1899 1164" xml:space="preserve">
<g id="Layer_2">
</g>
<g id="Map">
	<g id="XMLID_1_">
		<g>
			<path fill="#EBE7C3" d="M1853.717,182.881l-0.809,1.18c-1.07,11.18-6.881,19.19-15.9,25.641c-4.729,3.381-8.5,8.131-12.57,12.381
				c-2.211,2.318-2.43,5.51-3.02,8.479c-2.021,10.16-4.041,20.32-5.971,30.5c-0.23,1.22-0.66,2.18-1.539,2.99l-0.551,0.08
				c-0.541-1.28-1.592-2.51-3.4-3.642c-0.812-0.51-1.07-1.92-1.539-2.938c-7.229-15.439-12.182-31.689-17.021-47.979
				c-3.08-10.358-6.318-20.67-9.479-31.01l-2.08-0.01c5.351-6.11,9.549-12.99,13.529-20.01c8.318-14.69,10.42-30.91,11.09-47.46
				c0.42-10.28,2.109-20.33,5.881-30.03c3.609-9.29,10.629-14.5,19.601-17.4c6.381-2.06,14.221-0.01,19.459,10.93
				c3.989,8.32,5.801,17.4,8.989,26c3.34,8.98,6.461,18.03,11.98,26.021c1.561,2.26,3.41,3.91,6.041,4.44
				c8.146,1.648,10.469,3.81,11.938,11.26c2.279,0.96,4.549,1.64,6.529,2.811c5.01,2.96,5.461,6.721,1.521,10.95
				c-0.8,0.87-1.578,1.78-2.511,2.49c-3.969,3.04-7.989,6.01-11.979,9.021c-6.33,4.75-12.461,9.892-19.592,13.302
				C1859.867,182.041,1856.887,184.331,1853.717,182.881z"/>
			<path fill="#E9E4BB" d="M1824.518,310.9c5.392,4.15,6.859,8.86,5.431,15.16c-1.119,4.96-0.777,10.16-4.351,14.63l-0.688-0.648
				c-7.761-6.892-15.949-13.33-22.472-21.75c-4.106,1.05-8.209,2.09-12.311,3.13c-14.6,3.729-29.15,7.43-43.709,11.109
				c-3.141,0.789-6.33,1.351-9.5,2.011l-1.182,0.06c-0.141-2.52-0.199-5.04-0.221-7.56c-0.068-8.511-0.142-16.98-0.771-25.41
				l1.17-0.08c1.949,0.26,3.729-0.33,5.5-1c6.199-2.33,12.34-5.3,18.521-7.1c0.027-0.012,0.062-0.021,0.091-0.03
				c11.34-3.28,22.118-8.03,33.397-11.34c4.801-1.41,9.141-4.54,14.479-4.03l1.489,0.51c-1.141,3.48-1.881,7.03-3.147,10.431
				c-1.881,5.039,0.219,8.041,3.709,10.489C1815.037,303.041,1819.646,307.15,1824.518,310.9z"/>
			<path fill="#E1DBA4" d="M1824.908,340.041l0.688,0.648c-1.58,1.98-3.09,2.852-5.188,3.34c-6.621,1.54-13.172,3.25-19.643,5.182
				l-0.351-1.17c-4.312-8.11-6.974-16.881-10-25.49l-0.291-1.13c4.101-1.04,8.199-2.08,12.312-3.13
				C1808.957,326.711,1817.146,333.15,1824.908,340.041z"/>
			<path fill="#E1DBA4" d="M1813.357,264.131c1.358,3.21-0.562,6.75-2.107,9.84c-0.75,1.5-1.342,3.04-1.852,4.59l-1.49-0.51
				c-5.34-0.51-9.682,2.62-14.479,4.03c-11.278,3.31-22.061,8.06-33.397,11.34c-0.029,0.01-0.062,0.02-0.09,0.03l-0.271-0.9
				c-1.041-7.97-1.34-15.96-1.291-24c0.08-13.2,1.818-26.32,1.859-39.49c0.021-6.64,1.84-11.49,7.688-14.47
				c9.73-4.96,8.58-8.21,3.959-17.01c-0.77-1.46-1.969-2.682-2.969-4.021l-2.031-0.028c3.701-3.98,6.802-8.53,10.58-12.422
				c0.812-0.84,1.601-1.688,2.371-2.56l2.08,0.01c3.16,10.34,6.396,20.65,9.479,31.011c4.84,16.289,9.788,32.539,17.021,47.979
				c0.469,1.021,0.729,2.43,1.539,2.94C1811.768,261.621,1812.818,262.851,1813.357,264.131z"/>
			<path fill="#D6CE83" d="M1800.418,348.041l0.35,1.17c-17.92,5.35-35.188,12.39-51.41,22.229c-1.051,0.642-1.858,1.312-2.471,2.08
				l-0.469-0.479c-4.25-4.49-5.141-10.5-6.91-16.03c-2.34-7.28-3.371-14.83-3.771-22.41l1.183-0.06c3.17-0.66,6.358-1.222,9.5-2.012
				c14.562-3.68,29.108-7.38,43.711-11.108l0.289,1.13C1793.447,331.16,1796.107,339.931,1800.418,348.041z"/>
			<path fill="#F4F2DE" d="M1773.918,378.041l0.27,0.63c-4.16,5.13-10.26,7.25-15.739,10.42c-5.459,3.16-11.148,5.8-17.052,7.87
				c-2.039,0.71-4.1,1.39-6.147,2.068l-0.328-0.988c-0.08-0.17-0.239-0.34-0.229-0.5c0.709-11.79,0.723-11.79-10.271-15.5
				c-3.489-1.182-7.012-2.28-10.489-3.521c-1.462-0.52-3.291-0.58-3.921-2.13c-0.2-0.47-0.28-1.07-0.211-1.86
				c0.142-1.561-1.629-2.358-3.369-2.521c-2.51-0.22-5-0.92-7.5-0.91c-6.051,0-11.067-0.89-14.721-6.92
				c-2.41-3.99-5.66-7.649-8.83-12.141c-5.312,0-10.853,1.909-16.432,3.091c-27.369,5.81-54.681,11.898-82,17.909
				c-13.511,2.979-27,6-40.5,9c-3.408,0.761-5.812,0.689-6.209-3.979c-0.171-2.09-0.312-5.04-2.791-6.521l-0.892-0.771
				c0.25-0.28,0.49-0.57,0.74-0.86c5.67-6.66,10.92-13.68,17.15-19.869c4.26-4.239,8.5-8.5,12.59-12.591
				c-0.893-4.04-3.801-6.39-5.66-9.358c-3.879-6.19-3.33-10.051,3.1-12.971c8.83-4.011,18.371-5.301,27.961-6.061
				c2.24-0.17,4.683,0.27,5.9,2.061c1.559,2.289,3.549,2,5.6,1.899c5-0.25,10.07-0.24,14.99-1.05
				c11.359-1.891,17.75-5.021,20.439-18.43c2-9.94,3.107-20.052,5.141-29.972c2.809-13.72,7.438-26.84,16.979-37.46
				c11.802-13.148,27.949-16.35,44.449-17.97c6.301-0.62,12.611-1.07,18.933-1.479l0.061,0.9c5.33,23.66,10.109,47.47,16.189,70.94
				c1.987,7.688,3.051,15.398,3.631,23.13c0.629,8.43,0.696,16.898,0.771,25.41c0.021,2.52,0.079,5.04,0.221,7.56
				c0.399,7.58,1.432,15.13,3.771,22.41c1.771,5.53,2.658,11.54,6.908,16.03l0.471,0.479c-0.789,0.98-1.25,2.12-1.479,3.57
				c0.979,1.42,2.479,1.42,4.011,1.46c6.528,0.17,13.067,0.05,19.471-1.15C1770.867,377.041,1772.277,377.601,1773.918,378.041z"/>
			<path fill="#DFD99E" d="M1771.887,197.581c4.621,8.8,5.771,12.05-3.959,17.01c-5.85,2.979-7.67,7.83-7.688,14.47
				c-0.041,13.17-1.779,26.29-1.859,39.49c-0.051,8.04,0.25,16.03,1.291,24l0.271,0.9c-6.182,1.8-12.319,4.77-18.521,7.1
				c-1.771,0.67-3.551,1.26-5.5,1l-1.17,0.08c-0.58-7.73-1.644-15.44-3.631-23.13c-6.08-23.472-10.859-47.28-16.188-70.94
				l-0.062-0.9c7.68-0.5,15.381-0.97,23.051-1.67c10.688-0.97,21.17-3.08,28.97-11.46l2.03,0.03
				C1769.918,194.9,1771.117,196.121,1771.887,197.581z"/>
			<path fill="#CCC164" d="M1697.088,472.811l-0.66,0.721c-0.871,1.24-0.91,2.38-0.621,4.021c1.531,8.49,6.66,14.38,13.111,19.49
				c3.059,2.42,6.27,4.729,8.93,7.56c2.57,2.73,0.851,6.271-2.92,6.94c-3.18,0.568-6.35,1.271-9.5,1.988
				c-5.68,1.312-7.24,0.642-9.49-4.511c-2.729-6.27-4.391-12.859-6.067-19.479c-2.938-11.58-5.729-23.182-7.438-35.012l-0.312-1.329
				c5.657-1.329,11.278-2.829,16.828-4.609c2.579-0.83,3.771-1.852,2.489-4.562c-2.698-5.698-2.5-6.21,3.5-7.938
				c0.91-0.26,1.709-0.71,2.521-0.96c3.75-1.17,4.33-3,2-6.12c-1.34-1.79-3.09-3.569-2.99-5.97c0.271-7.011-3.391-11.28-9.58-13.4
				c-2.91-1-3.149-3.41-2.819-5.08c2.131-10.91,5.932-21.05,15.358-28.02l0.58-0.15c0.631,1.55,2.461,1.61,3.92,2.13
				c3.48,1.24,7,2.34,10.49,3.521c10.99,3.71,10.98,3.71,10.271,15.5c-0.012,0.16,0.147,0.33,0.229,0.5l0.33,0.99
				c-4.209,1.407-8.391,2.89-12.359,4.948c-0.02,0.011-0.041,0.021-0.069,0.021l0.108,0.54c1.33,7.5,2.881,14.96,3.941,22.5
				c1.328,9.49,1.68,18.949-0.354,28.51c-2.66,12.59-12.351,17.36-24.107,18.83C1700.438,474.631,1698.438,474.171,1697.088,472.811
				z"/>
			<path fill="#D7CE85" d="M1671.078,480.44c-0.451,1.22-0.91,2.439-1.33,3.689c-4.471,13.479-7.854,27.39-1.32,41.39l-0.02,0.86
				c-4.33-0.12-8.65-0.24-12.98-0.36l-0.461,0.521c-2.5-2.222-5.139-4.28-8.029-6.021l-1.16-0.47c0.9,0,1.013-0.819,1.144-1.53
				c0.817-4.47,0.33-9,0.567-13.489c0.109-1.92-0.67-3.358-2.079-3.938c-8.828-3.62-16.302-9.779-25.052-13.38
				c-0.971-0.399-1.68-0.79-2.16-1.189c-1.25-1.029-1.051-2.141-0.221-3.681l-0.539-0.312c-1.461-1.37-3.278-1.021-5-0.988
				c-10.938,0.17-21.817,0.771-32.5,3.46c-7.438,1.858-13.698,5.561-18.989,11.02l-0.841,0.15c-0.801-4.852-2.698-9.4-5.659-13.642
				h-2l2-1c1.329-1.488,2.858-2.181,4.973-2.608c22.039-4.49,44.011-9.262,66.021-13.88c16.149-3.392,32.33-6.65,48.49-10.021
				c2.739-0.569,5.471-1.181,8.188-1.819l0.312,1.329c1.709,11.83,4.5,23.432,7.438,35.012c1.68,6.618,3.34,13.21,6.067,19.479
				c2.25,5.15,3.812,5.82,9.49,4.511c3.15-0.72,6.32-1.42,9.5-1.988l1.5,0.479c0.43,8.3-1.18,16.239-3.979,24.01
				c-1.5,4.13-4.357,3.729-7.521,2.479c-3.76-1.489-6.91-3.979-9.979-6.521c-9.119-7.528-16.039-16.05-16.229-28.96
				c-0.109-7.778-1.688-15.71-6.291-22.5L1671.078,480.44z"/>
			<path fill="#DFD99E" d="M1710.008,376.391l-0.58,0.15c-9.43,6.97-13.229,17.108-15.358,28.02c-0.33,1.67-0.093,4.08,2.817,5.08
				c6.191,2.12,9.853,6.392,9.58,13.4c-0.1,2.398,1.65,4.18,2.99,5.97c2.33,3.12,1.75,4.95-2,6.12c-0.812,0.25-1.609,0.7-2.521,0.96
				c-6,1.729-6.198,2.24-3.5,7.938c1.279,2.71,0.09,3.729-2.487,4.562c-5.554,1.78-11.173,3.28-16.83,4.61
				c-2.724,0.64-5.449,1.25-8.188,1.817c-16.16,3.37-32.341,6.63-48.49,10.021c-22.01,4.619-43.979,9.39-66.021,13.88
				c-2.11,0.43-3.641,1.12-4.971,2.608l-2,1c-1.271,1.182-2.562,1.979-4.5,2.062c-8.013,0.34-16,0.938-24,1.438
				c-2.131,0.131-3.16-0.648-3.57-2.988c-1.299-7.37-2.891-14.69-4.448-22.012c-0.472-2.221-0.791-4.601-2.98-6h-1l0.5-1
				c0.4-5.119-2.617-9.619-2.879-14.5c-0.541-10.229-1.932-20.358-3.279-30.471c-0.562-4.188,0.08-8.989-3.342-12.52l-2.188-0.353
				c9.379-7.438,17.84-16.13,25.799-25.42l0.893,0.771c2.479,1.479,2.619,4.43,2.789,6.52c0.397,4.67,2.801,4.74,6.211,3.98
				c13.5-3,26.99-6.021,40.5-9c27.318-6.012,54.631-12.102,82-17.91c5.58-1.182,11.119-3.09,16.43-3.09
				c3.17,4.488,6.42,8.148,8.83,12.14c3.65,6.03,8.67,6.92,14.721,6.92c2.5-0.01,4.99,0.69,7.5,0.91
				c1.74,0.16,3.51,0.96,3.369,2.521C1709.727,375.32,1709.807,375.921,1710.008,376.391z"/>
			<path fill="#CABF5E" d="M1534.797,701.291c-4.219,0.907-8.59,0.26-12.859,0.607c-16.66,1.34-33.25,2.893-48.979,9.119
				c-5.354,2.12-10.701,4.37-14.48,9c-1.211,1.49-2.608,1.95-4.08,2.051c-1.606,0.119-3.311-0.188-4.938-0.04
				c-8.17,0.739-16.34,1.603-24.5,2.473c-4.301,0.46-8.602,0.92-12.9,1.39l-0.1-0.89c-1.051-3.24-0.771-6.091,1.979-8.53
				c2.289-2.029,4.158-4.562,6.55-6.43c18.102-14.133,36.682-27.553,55.893-40.16c6.312-4.143,13.33-7.631,18.049-13.893
				c3.451-4.567,7.144-9.107,6.021-15.479l-0.171-1.489c1.562-0.171,3.109-0.351,4.671-0.53c13.352-1.55,26.647-3.448,40-4.948
				c20.897-2.352,41.682-5.5,62.5-8.489c25-3.58,49.858-7.859,74.489-13.521c6.183-1.42,12.062-4.107,18.488-4.521l1.771-0.229
				c-0.449,2.051-1.391,4.12-2.853,6.183c-4.42,6.25-9.616,11.868-16.907,15.079c-3.021,1.329-5.48,8.858-3.959,12.448
				c1.641,3.84,4.856,3.66,8.469,3.143c2.41-0.353,4.688-1.04,6.961-1.7c2.17-0.641,4.15-2.54,6.5-1.853
				c3.039,0.91,5.41,3.103,7.49,5.45c1.879,2.13,1.869,3.66-1.451,4.54c-5.639,1.489-11.529,1.819-17.029,3.909
				c-3.51,1.341-7.199,2.2-10.01,5c-2.131,2.12-2.16,3.95,0,6.04c2.891,2.801,5.771,5.591,8.051,8.971
				c5.229,7.763,3.42,12.159-2.91,16.189c-6.801,4.319-13.439,9-19.75,14.16c-4.301,3.51-8.26,7.229-11.279,11.72
				c-5.771,8.58-12.84,16-21.229,21.71c-1.24,0.851-2.461,1.721-3.67,2.601l-0.682-1.868c-2.648-4.689-6.933-7.75-11.013-11
				c-10.469-8.329-22.18-13.859-35.479-16.041c-9.051-1.488-17.698,1.159-26.5,2.102c-10.43,1.12-17.84-2.95-20-11.562
				L1534.797,701.291z"/>
			<path fill="#F4F2DE" d="M1673.797,576.49l-0.639,1.189c2.379,1.19,4.469,3.021,6.736,4.391
				c5.461,3.279,10.842,6.739,15.989,10.489c5.271,3.841,7.472,8.91,6.312,14.221l-1.771,0.229
				c-6.432,0.41-12.312,3.101-18.489,4.521c-24.632,5.659-49.488,9.939-74.488,13.521c-20.82,2.99-41.603,6.141-62.5,8.49
				c-13.353,1.5-26.65,3.396-40,4.947c-1.562,0.183-3.109,0.359-4.67,0.529c-19.271,2.221-38.554,4.32-57.82,6.48
				c-1.76,0.197-3.449-0.07-5-0.99l-1.699-0.22c0.439-0.37,0.859-0.771,1.279-1.212c13.479-14.381,26.82-28.938,42.92-40.568
				l0.689-1.34c5.77,2.857,12.948,3.938,21.811,2.89c11.051-1.31,21.041-5.357,31.07-9.857c5.119-2.291,8.41-5.672,10.891-10.199
				c7.449-13.67,13.029-28.03,15.311-43.78c9.603-1.489,17.828-5.18,24.812-12.1c7.58-7.5,11.108-16.79,13.858-26.61
				c0.771-2.76,2.021-5.54,1.609-8.46l0.93-0.021c4.802-0.279,9.021,3.551,13.933,2.25c0.791-2.789,1.062-5.479,2.567-7.75
				l0.763-1.011c0.479,0.399,1.188,0.79,2.157,1.189c8.75,3.601,16.224,9.76,25.054,13.38c1.407,0.58,2.188,2.021,2.078,3.938
				c-0.238,4.49,0.25,9.021-0.568,13.49c-0.131,0.71-0.237,1.529-1.141,1.529l1.157,0.471c2.894,1.739,5.531,3.8,8.031,6.021
				c4.229,3.76,8.078,7.96,12.189,11.778c8.119,7.54,11,18.479,11.229,29.7C1678.467,571.61,1675.707,573.86,1673.797,576.49z"/>
			<path fill="#D7CE85" d="M1535.688,1049.689l-0.239-0.229c-3.642-3.99-7.039-8.21-9.438-13.03c-3.621-7.28-3.818-15.14-2.49-22.96
				c1.271-7.46-0.619-13.32-7.067-17.51c-2.302-1.5-4.58-3.021-6-5.25c0-0.58-0.131-0.99,0.021-1.24
				c4.479-7.562,4.12-8.97-4.039-12.45c-3.871-1.647-7.9-3.067-11.99-3.979c-8.312-1.854-15.24-5.7-21.051-12.012
				c-4.42-4.812-9.959-8.172-15.859-11.199c-9.68-4.96-21.83-3.42-29.607,4.601c-5.41,5.58-10.688,11.33-16.893,16.12
				c-1.02,0.79-2.289,0.479-3.068,1.42l-0.551,0.13c-0.5-4.238-4.432-6.39-6.609-9.521c-2.68-3.84-6.229-7.149-8.799-11.143
				c-3.729-5.817-10.223-5.18-15.58-6.237c-8.49-1.671-17.271-3.649-25.92-2.553c-10.012,1.28-20.11-0.21-30.053,1.673
				c-0.488,0.101-1.229-0.103-1.93,0l-0.041-0.353c-3.84-5.83-8.148-11.43-11.271-17.62c-0.473-0.92-0.959-1.63-1.512-2.21
				l0.779-0.17c6.34-2.08,12.979-1.818,19.5-2.45c25.319-2.447,50.659-4.688,75.979-7.1c1.631-0.15,3.221-0.729,4.449,0.149
				c0.408,0.289,0.771,0.729,1.09,1.391c0.291,0.6,1.029,0.96,1.449,1.521c6.342,8.328,15.461,6.618,24.012,6.431
				c9.84-0.229,19.66-1.021,29.5-1.42c17.83-0.729,35.66-1.37,53.488-2c2.75-0.103,5.352,0.08,8.062,1.357
				c4.3,2.052,6.761,0.393,6.859-4.38c0.067-3.16-0.781-6.318-0.871-9.5c-0.142-4.529,2.08-5.8,5.938-3.479
				c3.271,1.971,6.103,4.17,8.433,6.79c2.979,3.369,5.129,7.449,6.317,12.641c4.039,17.568,9.011,35.101,18.879,50.46
				c7.013,10.91,14.853,21.271,20.353,33.09c1.302,2.771,2.552,5.59,3.49,8.5c4.021,12.5,10.789,23.42,19.051,33.471
				c7.397,9.012,11.738,19.579,14.84,30.552c2.729,9.67,5.66,19.278,6.851,29.431c1.551,13.399-4.119,24.021-10.799,34.47
				c-1.933,3-7.611,3.512-11.392,1.521c-7.603-4.01-13.603-9.551-16.569-17.949c-1.029-2.938-3.011-5.57-3.84-8.54
				c-0.972-3.431-3.132-2.688-5.062-1.86c-1.17,0.5-2.27,1.08-3.539,1.422c-7.84,2.101-9.721,1.328-11.949-6.052
				c-2.141-7.05-6.279-13.04-9.641-19.43c-1.49-2.841-3.229-5.5-4.551-8.49c-1.799-4.061-4.959-7.141-9.859-7.561
				c-9.77-0.841-16.221-8.859-14.391-18.471C1533.127,1055.48,1533.396,1052.12,1535.688,1049.689z"/>
			<path fill="#E3DEAC" d="M1627.938,738.501l0.683,1.869c-3.609,2.659-7.103,5.438-10.688,8.107
				c-2.541,1.893-2.541,4.08-0.979,6.513c1.41,2.188,1.119,4.237,0.028,6.521c-3.028,6.29-6.852,12.109-7.858,19.438
				c-0.449,3.262-3.959,6.472-6.75,8.961c-9.779,8.761-19.42,18.078-31.539,23.301c-7.592,3.279-13.301,7.818-17.86,14.29
				c-0.351,0.489-0.67,0.979-0.988,1.479h-0.531c-1.777-0.5-2.148-2.211-3-3.5c-4.27-6.461-9.037-12.54-13.92-18.561
				c-6.488-7.99-13.658-15.353-20.607-22.9c-11.65-12.67-23.893-24.77-36.473-36.52c-1.117-1.04-2.209-1.933-3.988-2.07
				c-8.439-0.63-14.512-5.601-19.971-11.46c-1.541-1.648-1.631-4.229-0.852-5.891c0.791-1.671,1.012-3.472,1.819-5.079l-0.062-0.932
				c1.473-0.102,2.871-0.562,4.08-2.052c3.78-4.63,9.131-6.88,14.479-9c15.729-6.229,32.317-7.778,48.979-9.12
				c4.271-0.35,8.643,0.303,12.86-0.606l0.147,0.71c2.16,8.607,9.568,12.68,20,11.56c8.802-0.938,17.449-3.59,26.5-2.1
				c13.302,2.18,25.013,7.71,35.479,16.04C1621.008,730.751,1625.287,733.811,1627.938,738.501z"/>
			<path fill="#E9E5BD" d="M1560.107,496.171l0.84-0.149c5.291-5.461,11.553-9.16,18.99-11.021c10.682-2.69,21.562-3.29,32.5-3.46
				c1.721-0.03,3.539-0.381,5,0.988l0.539,0.312c-0.828,1.54-1.029,2.649,0.221,3.681l-0.76,1.011
				c-1.511,2.271-1.779,4.959-2.568,7.75c-4.91,1.301-9.131-2.529-13.932-2.25l-0.931,0.021c0.41,2.92-0.84,5.7-1.61,8.46
				c-2.75,9.82-6.277,19.11-13.857,26.61c-6.98,6.92-15.211,10.607-24.812,12.1c-2.279,15.75-7.857,30.11-15.309,43.78
				c-2.48,4.527-5.771,7.909-10.893,10.197c-10.027,4.5-20.021,8.553-31.068,9.859c-8.859,1.051-16.039-0.029-21.812-2.89
				c-9.34-4.61-15.01-13.854-18.188-26.16c-1.65-6.391-1.709-12.99-2.5-19.49l-0.102-1.52c5.959-0.49,8.352-3.87,8.069-10.98
				c-0.271-6.83,1.938-12.869,5.539-18.489c4.108-6.431,9.069-12.101,17.01-13.358c3.644-0.58,6.131-2.03,8.521-4.602
				c3.132-3.358,4.921-7.409,6.398-11.561c3.92-10.97,5.359-22.35,5.07-33.979c-0.051-2.101-0.58-4.391,1.479-6h1
				c2.189,1.399,2.512,3.779,2.98,6c1.561,7.319,3.15,14.642,4.449,22.012c0.41,2.34,1.438,3.119,3.567,2.988
				c8-0.5,15.99-1.101,24-1.438c1.938-0.08,3.229-0.88,4.5-2.062h2C1557.408,486.771,1559.307,491.32,1560.107,496.171z"/>
			<path fill="#F4F2DE" d="M1551.447,828.98h0.529c-2.828,4.5-4.229,9.289-3.148,15.021c1.551,8.17,1.141,16.397-2.908,23.96
				c-4.781,8.93-4.643,18.01-2.102,27.55c1.279,4.8,2.859,9.79,1.629,14.96l-1.078,0.811c-2.33-2.618-5.16-4.817-8.432-6.788
				c-3.859-2.319-6.08-1.052-5.938,3.479c0.09,3.182,0.938,6.341,0.869,9.5c-0.103,4.771-2.562,6.432-6.858,4.38
				c-2.712-1.278-5.312-1.46-8.062-1.357c-17.828,0.63-35.658,1.271-53.488,2c-9.84,0.397-19.66,1.188-29.5,1.42
				c-8.551,0.188-17.67,1.898-24.012-6.432c-0.42-0.561-1.158-0.92-1.447-1.521c-0.32-0.66-0.682-1.103-1.092-1.392l0.061-0.102
				c0.25-1.398,2.23-1.818,1.99-3.5c-1.41-10.101,1.051-21.188-7.471-29.521c-0.84-0.818-1.439-1.932-2.01-2.979
				c-1.842-3.398-2.461-6.54-0.721-10.58c1.659-3.88,4.188-6.8,6.879-9.59c-1.06-5.34-3.068-10.01-4.64-14.83
				c-12.062-36.979-24.03-73.979-36.03-110.97l-0.16-1.439c1.721-0.188,3.44-0.369,5.16-0.561c14.2-1.54,28.391-3.091,42.59-4.61
				c4.301-0.47,8.602-0.93,12.899-1.39c8.16-0.87,16.33-1.73,24.5-2.471c1.631-0.149,3.33,0.158,4.938,0.04l0.062,0.931
				c-0.812,1.608-1.028,3.409-1.819,5.079c-0.779,1.66-0.688,4.24,0.852,5.891c5.459,5.859,11.529,10.83,19.971,11.46
				c1.779,0.143,2.871,1.03,3.988,2.07c12.58,11.75,24.82,23.85,36.473,36.52c6.949,7.553,14.119,14.91,20.607,22.9
				c4.881,6.021,9.65,12.1,13.92,18.561C1549.297,826.771,1549.668,828.48,1551.447,828.98z"/>
			<path fill="#E7E2B5" d="M1509.568,439.531c0.26,4.881,3.279,9.381,2.879,14.5l-0.5,1c-2.062,1.608-1.527,3.898-1.479,6
				c0.289,11.631-1.149,23.011-5.069,33.979c-1.479,4.15-3.271,8.2-6.398,11.561c-2.391,2.569-4.881,4.021-8.52,4.602
				c-7.939,1.26-12.898,6.93-17.012,13.359c-3.601,5.619-5.812,11.659-5.539,18.488c0.278,7.11-2.109,10.49-8.068,10.98
				c-1.029,0.09-2.16,0.09-3.4,0.01c-2-0.13-4.221,0.181-5.959-0.58c-9.25-4.029-18.291-1.949-27.562-0.04
				c-7.021,1.46-14.229,2.32-21.472,2.13c-4.299-0.107-7.817-0.979-10.16-5.42c-1.709-3.25-4.896-5.699-7.327-8.59
				c-2.552-3.029-5.16-3.33-8.013-0.49l-0.629,0.301c-0.961-1.858-1.729-3.551-1.961-5.788c-1.311-13.021-2.99-26-4.391-39.013
				c-1.91-17.647-3.449-35.35-5.619-52.979c-1.141-9.34-0.891-18.91-3.9-28l-0.106-1.37c11.526-0.899,23.067-1.76,34.606-2.54
				c2.951-0.2,5.99-0.689,8.939-0.391c2.689,0.271,5.318,1.221,7.711,3.648c1.891,1.92,5.459,2.34,8.35,3.11
				c15.021,4.02,29.881,2.27,44.471-2.021c14.15-4.158,26.359-11.119,37.32-19.79l2.188,0.353c3.422,3.529,2.778,8.33,3.342,12.52
				C1507.637,419.171,1509.027,429.301,1509.568,439.531z"/>
			<path fill="#EAE6BF" d="M1269.188,670.551c-1.5-2.5-1.061-5.3-1.229-7.96c5.896-1.83,11.77-1.479,17.52-2.05
				c17.83-1.771,35.66-3.381,53.49-5.03c16.33-1.521,32.67-2.979,49-4.51c13.83-1.303,27.67-2.562,41.479-4.07
				c2.278-0.25,4.399-1.069,6.312-2.64l1.699,0.22c1.551,0.92,3.238,1.188,5,0.99c19.27-2.16,38.551-4.263,57.818-6.48l0.17,1.49
				c1.121,6.37-2.568,10.91-6.021,15.479c-4.721,6.263-11.739,9.75-18.051,13.893c-19.209,12.607-37.789,26.028-55.892,40.16
				c-2.391,1.868-4.262,4.396-6.551,6.43c-2.75,2.438-3.026,5.29-1.979,8.53l0.1,0.89c-14.199,1.521-28.389,3.07-42.59,4.61
				c-1.719,0.188-3.439,0.369-5.16,0.56c-27.438,2.973-54.889,5.961-82.33,8.933c-2.709,0.29-5.41,0.59-8.119,0.88
				c-24.948,2.721-49.909,5.438-74.87,8.068c-1.986,0.21-4.188,0.512-6.5-0.79v-0.159c0.5-3.778,3.053-6.642,4.479-10
				c5.92-13.881,10.711-28.091,14.381-42.648c1.379-5.46,2.601-10.971,3.65-16.521l0.986,0.183c10.461-0.603,20.684-2.859,31-4.45
				c7.184-1.101,14.461-1.55,21.489-3.55L1269.188,670.551z"/>
			<path fill="#E1DBA4" d="M1480.646,601.171l-0.688,1.34c-16.103,11.63-29.438,26.188-42.92,40.569
				c-0.42,0.438-0.843,0.841-1.279,1.211c-1.91,1.567-4.03,2.39-6.312,2.64c-13.812,1.511-27.648,2.771-41.479,4.07
				c-16.33,1.527-32.67,2.987-49,4.51c-17.83,1.649-35.66,3.261-53.49,5.03c-5.75,0.567-11.62,0.22-17.52,2.05
				c0.17,2.66-0.271,5.46,1.229,7.96l-0.711,0.45c-7.028,2-14.309,2.447-21.489,3.55c-10.316,1.591-20.539,3.851-31,4.45
				l-0.986-0.183c0.188-0.938,0.357-1.87,0.527-2.811c1.131-6.29,3.618-12.011,8.42-16.552c1.358-1.278,3.262-2.261,3.83-5.438
				c-2.357-1.67-4.357-3.601-6.119-5.729l0.828-0.279c3.053-4.789,8.383-6.103,13.092-8.853c4.488,4.12,8.119,9.103,13.672,11.44
				c2.078-1.562,2.619-3.222,1.799-5.62c-1.09-3.2-1.719-6.57-2.529-9.86l0.469-0.107c0.66-0.34,1.32-0.933,2-0.96
				c7.07-0.302,11.515-4.972,15.98-9.552c4.34-4.459,6.609-9.641,5.01-15.988l0.051-1.143c1.039,0.053,2.189,0.07,3.449,0.062
				c6.34-0.04,12.76-0.421,18.971-1.57c5.66-1.05,11.144-3.26,15.521-7.357c1.438-1.343,2.969-2.882,4.99-2.423
				c4.979,1.132,7.447-1.38,9.02-5.567l1.359-1.039c3.881,6.17,7.221,6.238,12.141,0.55c0.529-0.601,0.699-1.45,1.07-1.95
				c5.488-7.278,8.02-16.188,13.27-23.659c3.189-4.521,5.449-9.091,12.17-8c1.539,0.25,3.359-0.779,4.974-1.421
				c3.479-1.38,8.41-9.81,6.799-12.858c-0.14-0.271-0.279-0.54-0.42-0.812l0.631-0.3c2.851-2.84,5.459-2.54,8.01,0.489
				c2.433,2.891,5.619,5.341,7.33,8.591c2.34,4.438,5.859,5.31,10.16,5.42c7.24,0.188,14.449-0.67,21.469-2.13
				c9.271-1.91,18.312-3.99,27.562,0.04c1.737,0.76,3.959,0.448,5.959,0.579c1.239,0.08,2.37,0.08,3.397-0.011l0.103,1.521
				c0.791,6.5,0.852,13.1,2.5,19.489C1465.637,587.32,1471.307,596.561,1480.646,601.171z"/>
			<path fill="#E1DBA4" d="M1427.877,355.061c0.631,2.25-0.439,4.53-1.9,6.49c-3.779,5.1-8.879,8.8-13.52,12.979
				c-12.1,10.881-15.18,22.33-9.379,35.172l-0.17,1.538c-2.951-0.3-5.99,0.189-8.941,0.392c-11.539,0.779-23.08,1.64-34.609,2.54
				c-12.131,0.93-24.25,1.91-36.381,2.88c-9.5,0.761-18.959,1.97-28.5,1.979l-1.199-0.791c3.763-5.778,6.513-12.021,8.98-18.288
				c4.689-11.87,8.52-24.23,6.209-37.41c-1.66-9.521-5.43-18.36-9.59-26.95c-4.42-9.13-5.4-18.11-1.43-27.55
				c0.866-2.08,1.729-4.29,1.938-6.5c0.271-2.82,0.91-5.54-0.77-8.57c-2.99-5.41-0.82-11,4.897-14.95
				c1.299,0.34,2.65,0.62,3.949,1.04c7.131,2.29,12.41,0.94,15.871-5.09c1.639-2.86,2.18-6.54,2.559-9.93
				c0.762-6.802,0.684-13.711,1.691-20.472c0.969-6.5,1.288-7.021,7.879-6.448c7.641,0.67,14.6,3.71,20.381,8.578
				c2.771,2.342,5.379,3.012,8.619,2.86c5.25-0.26,9.75,1.63,12.35,6.08c1.58,2.69,2.941,5.67,3.724,8.9
				c3.026,12.46,1.696,24.52-3.66,35.97c-4.131,8.811-4.07,17.148,0.606,25.53c2.861,5.118,6.441,5.63,11,2.04
				c3.062-2.4,5.353-5.41,7.441-8.562c7.489-11.3,12.021-11.399,19.01,0.04C1421.797,329.801,1424.408,342.61,1427.877,355.061z"/>
			<path fill="#EBE7C3" d="M1305.697,924.141c0.553,0.58,1.041,1.29,1.512,2.21c3.121,6.19,7.43,11.79,11.27,17.62l0.041,0.351
				c-0.18,0.029-0.356,0.069-0.541,0.149c-9.639,4.312-15.356,3.87-21.315-3.641c-4.031-5.09-8.094-4.602-13.191-3.409
				c-3.459,0.8-6.719,1.989-9.879,3.409l-0.61-1.359c0.342-65.83,0.672-131.649,1-197.479l-0.119-1.118
				c2.711-0.29,5.41-0.591,8.119-0.882c27.44-2.97,54.893-5.959,82.33-8.931l0.159,1.44c12,36.987,23.972,73.987,36.031,110.97
				c1.567,4.82,3.58,9.49,4.64,14.83c-2.688,2.79-5.22,5.71-6.88,9.59c-1.739,4.04-1.12,7.181,0.722,10.58
				c0.567,1.051,1.17,2.16,2.01,2.979c8.521,8.33,6.061,19.42,7.471,29.521c0.238,1.681-1.74,2.101-1.99,3.5l-0.061,0.101
				c-1.229-0.88-2.818-0.3-4.449-0.147c-25.32,2.407-50.66,4.647-75.98,7.101c-6.52,0.63-13.157,0.37-19.5,2.45L1305.697,924.141z"
				/>
			<path fill="#D7CE85" d="M1325.338,589.471l-1.361,1.04c-1.565,4.188-4.038,6.7-9.02,5.569c-2.021-0.46-3.549,1.08-4.99,2.421
				c-4.379,4.1-9.858,6.31-15.52,7.357c-6.213,1.149-12.633,1.529-18.974,1.569c-1.26,0.01-2.409-0.01-3.446-0.062
				c-9.439-0.432-10.439-3.479-7.603-14.368c2.142-8.23,6.369-15.48,10.16-22.933c0.859-1.71,1.539-3.24,1.369-5.051
				c-0.609-6.51-1.379-13-1.971-19.5c-1.529-17.159-2.972-34.33-4.521-51.489c-1.619-18.011-3.549-35.979-4.817-54.011
				c-0.302-4.229-2.148-8.739,0.327-12.989l0.173-0.78c3.077,1.182,6.397,2.052,9.827,2.791c6.24,1.341,10.5-0.609,14.712-5.829
				c1.301-1.61,2.489-3.271,3.59-4.972l1.198,0.79c9.541-0.011,19-1.221,28.5-1.979c12.132-0.97,24.25-1.95,36.382-2.88l0.108,1.37
				c3.011,9.09,2.761,18.659,3.9,28c2.17,17.63,3.711,35.329,5.618,52.979c1.398,13.011,3.08,25.99,4.392,39.011
				c0.229,2.239,1,3.932,1.961,5.789c0.14,0.271,0.279,0.54,0.42,0.812c1.609,3.05-3.319,11.479-6.801,12.858
				c-1.608,0.642-3.431,1.672-4.971,1.422c-6.722-1.093-8.98,3.479-12.172,8c-5.25,7.47-7.777,16.38-13.271,23.657
				c-0.369,0.5-0.539,1.354-1.07,1.95C1332.557,595.711,1329.217,595.641,1325.338,589.471z"/>
			<path fill="#E1DBA4" d="M1321.627,198.07c7.24-0.79,14.291,0.79,21.35,2.439c2.354,0.55,3.24,1.92,3.58,4.21
				c-1.52,0.94-2.959,2.13-4.6,2.8c-15.932,6.562-32.521,10.9-49.5,13.4c-8.521,1.25-17.129,1.89-25.473,4.17
				c-7.576,2.07-13.566,5.648-15.107,14.45c-0.699,3.988-2.359,7.688-3.98,11.42l-0.907-0.4c-0.521-1.729-1.642-3.109-2.173-4.95
				c-2.157-7.38-4.788-10.71-14.309-11.738c-11.4-1.24-22.521-4.392-33.531-7.771c-12.448-3.83-25.16-6.89-37.41-11.25
				c-2.17-0.78-4.26-1.55-6.368-2.18c8.909-4.19,20.172-9.24,28.812-14.08c8.129-4.57,17.068-7.03,26.318-9.62
				c2.041,6.66,7.602,7.33,13.141,6.46c6.781-1.07,12.971-0.09,18.479,3.68c16.312,11.16,32.44,9.312,49.104,0.591
				c7.857-4.109,15.779-8.561,24.92-9.671c6.57-0.79,7.511-0.079,7.511,6.53L1321.627,198.07z"/>
			<path fill="#F7F6E8" d="M1248.518,635.12c0.812,3.29,1.439,6.659,2.529,9.857c0.82,2.4,0.281,4.062-1.799,5.62
				c-5.553-2.34-9.184-7.318-13.67-11.438c-4.713,2.75-10.041,4.061-13.094,8.851l-0.828,0.28c-5.262-6.37-8.25-14.461-11.672-22.28
				c-5.101-11.67-12.761-20.88-25.021-25.45c-4.021-1.5-3.979-4.96-4.369-8.06c-0.34-2.603-0.211-5.44,0.49-7.96
				c1.369-4.911,3.279-9.683,4.959-14.48c-4.271-4.107-9.029-7.1-14.92-7.26c-0.301-0.62-0.529-0.93-0.631-1.29
				c-3.119-10.95-7.908-20.41-19.972-24.09c-2.92-0.89-5.229-3.17-7.079-5.87c-5.697-8.33-8.578-17.6-9.392-27.529
				c-0.319-3.921-1.119-8.301,0.021-11.811c0.061-0.189,0.131-0.38,0.211-0.57c1.84-4.59,4.408-9.1,7.607-13.188
				c5.512-7.03,7.021-14.96,3.03-23.562c6.97-4.33,13.609-9.14,19.049-15.369c7.451-8.551,9.511-16.851,6-25.479
				c-2.278-5.61-6.239-10.71-10.09-14.66l1.111-0.34c0.66-0.34,1.315-0.932,2-0.96c18.485-0.893,37-1.61,55.485-2.59
				c8.16-0.432,16.384-0.172,24.5-1.45l1.111-0.22c0.979,4.979,2.32,9.858,3.82,14.738c2.959,9.69,9.34,14.683,17.229,17.69
				l-0.17,0.78c-2.479,4.25-0.631,8.76-0.33,12.987c1.271,18.03,3.199,36,4.82,54.013c1.549,17.159,2.988,34.33,4.52,51.487
				c0.59,6.5,1.359,12.99,1.974,19.5c0.17,1.812-0.515,3.343-1.371,5.053c-3.789,7.447-8.021,14.697-10.16,22.931
				c-2.84,10.89-1.84,13.939,7.6,14.369l-0.049,1.141c1.601,6.353-0.67,11.53-5.01,15.99c-4.471,4.579-8.91,9.25-15.979,9.55
				c-0.681,0.029-1.341,0.62-2,0.96L1248.518,635.12z"/>
			<path fill="#C9BE5A" d="M1223.938,932.341l-0.448-0.37c-1-0.33-2.013-0.979-3-0.949c-10.672,0.261-21.328,0.771-32,0.909
				c-12.488,0.17-24.988,0.04-37.619,0.04c-1.062-5.101,0.067-10.08,1.17-14.99c2.279-10.188,7.25-19.27,11.881-28.539
				c8.49-16.988,9.857-34.021-2.521-49.881c-0.021-0.028-0.041-0.05-0.062-0.08c-5.34-6.909-4.5-13.71-1.852-21
				c0.053-0.147-0.039-0.35,0.012-0.487c7.91-21.239,17.897-41.513,28.541-61.472c1.396-2.631,1.84-5.988,4.447-7.37
				c2.312,1.302,4.512,1,6.5,0.791c24.961-2.632,49.922-5.352,74.868-8.069l0.121,1.12c-0.33,65.83-0.66,131.647-1,197.479
				l0.609,1.359c-3.643,1.62-7.143,3.561-10.65,5.57c-10.92,6.25-22.92,8.561-35.41,9.92c-0.309,0.027-0.606,0.067-0.92,0.107
				l-0.119-0.96c-1.5-3-3.276-5.897-4.446-9.021C1220.027,941.031,1220.857,935.9,1223.938,932.341z"/>
			<path fill="#E7E2B5" d="M1247.488,295.131c3.567-0.05,6.078,3.029,5.449,6.41c-0.892,4.8-2.892,9.3-6.062,12.91
				c-2.182,2.479-2.932,5.158-3.379,8.1c-3.24,21.3-2.91,42.63-0.531,63.99c0.271,2.448,0.66,4.88,1.131,7.278l-1.11,0.222
				c-8.117,1.278-16.34,1.02-24.5,1.448c-18.486,0.979-37,1.7-55.486,2.591c-0.684,0.029-1.342,0.619-2,0.961l-1.111,0.34
				c-7.649-7.84-14.129-16.66-21.959-23.881c3.229-8.619,2.779-16.471-1.93-23.959l-2.881-0.12c0.92-0.24,1.85-0.57,2.777-0.99
				c-1.39-1.34-1.066-2.74-1.771-3.96c-10.07-17.38-25.012-29.98-40.66-41.87c-2.449-1.86-4.879-3.85-5.858-6.59
				c-3.171-8.859-5.761-17.899-3.08-27.45c0.569-2.06,0.438-3.55-0.898-5.59c-4.369-6.67-2.92-12.26,0.971-17.85
				c1.779-2.552,4.32-4.802,6.97-6.45c2.893-1.812,3.473-3.99,3.514-7.11c0.1-9-0.701-18.02,0.42-27l0.197-0.859
				c0.393,0.08,0.819,0.119,1.303,0.119c9.197,0.012,18.14-1.119,26.986-3.311c3.58-0.899,6.371-0.24,7.961,3.07
				c2.182,4.56,6.463,6.119,10.529,5.76c3.87-0.351,7.319,0.3,10.721,1.33c2.108,0.63,4.199,1.398,6.369,2.18
				c12.25,4.36,24.961,7.42,37.41,11.25c11.01,3.38,22.131,6.53,33.53,7.771c9.521,1.028,12.148,4.358,14.31,11.738
				c0.53,1.842,1.649,3.222,2.172,4.95l0.908,0.4c-1.421,3.26-2.81,6.55-3.486,10.08c-0.312,1.6-1.371,3.21-2.461,4.479
				c-6.189,7.23-5.724,15.312-2.869,23.5C1240.338,292.65,1242.967,295.19,1247.488,295.131z"/>
			<path fill="#F4F2DE" d="M1226.488,955.471l0.119,0.96c-5.142,0.61-10.41,1.74-15.631,2.46c-3.238,0.45-6.47,0.021-9.55,1.979
				c-3.36,2.143-6.53,4.553-6.26,8.58c0.26,3.99,3.719,5.973,7.289,7.593c4.062,1.84,8.521,2.737,12.147,5.777
				c1.529,1.271,3.13,1.939,2.859,4.143c-0.25,2-1.521,3.061-3.469,3.54c-1.381,0.328-2.643,1.147-4.021,1.43
				c-7.621,1.562-8.201,2.351-7,10.03c0.103,0.647,0.011,1.33,0.011,2l0.028,0.391c-0.35,0.021-0.709,0.102-1.02,0.149
				c-12.209,1.88-24.379,1.829-36.5-0.562c-5.199-1.029-10.34-2.779-11.92-8.5c-2.842-10.25-10.053-12.83-20.131-8.601
				c-3.988,1.66-7.789,3.87-12.439,4.261c-7.57,0.619-15,0.039-22.51-0.57c-9.301-0.75-18.301-3.027-27.34-5l0.35-1.567
				c0-0.5,0.211-1.189-0.029-1.471c-7.479-8.312-6.121-17.58-2.951-27.021c1.714-5.101,1.621-10.199,1.054-15.51
				c-1.75-16.261-8.039-31.12-14.263-45.91c-2.631-6.26-4.52-12.199-4.407-19.069c0.17-10.648,0.17-21.311,0.147-32h0.949
				c9-0.329,18-0.688,27-0.988c25.49-0.852,50.99-1.682,76.49-2.512c1.856-0.061,3.77,0.312,5.5-0.75l0.34-0.25
				c0.02,0.029,0.041,0.052,0.061,0.08c12.379,15.859,11.013,32.892,2.521,49.88c-4.631,9.271-9.603,18.353-11.881,28.54
				c-1.103,4.91-2.23,9.892-1.17,14.989c12.631,0,25.131,0.131,37.619-0.04c10.67-0.14,21.327-0.649,32-0.909
				c0.987-0.029,2,0.62,3,0.95l0.448,0.369c-3.08,3.561-3.91,8.688-1.897,14.109C1223.207,949.57,1224.988,952.471,1226.488,955.471
				z"/>
			<path fill="#FCFBF5" d="M1014.828,529.48l-0.32-0.461c-0.07-1.6-1.65-1.949-2.541-2.409c-5.639-2.931-10.229-6.641-13.938-11.021
				c-5-5.89-8.382-12.99-10.511-21.062l-0.069-1.301c2.028-0.119,4.069-0.09,6.069-0.107c42.66-0.33,85.32-0.48,127.98-0.512
				c3.869-0.011,7.58-2.318,11.5-0.58l1.08,0.182c-1.144,3.51-0.344,7.89-0.021,11.81c0.812,9.933,3.689,19.2,9.392,27.53
				c1.852,2.7,4.157,4.98,7.077,5.87c12.062,3.68,16.854,13.14,19.974,24.09c0.1,0.36,0.33,0.67,0.631,1.29
				c5.889,0.16,10.646,3.15,14.92,7.26c-1.682,4.802-3.59,9.57-4.961,14.48c-0.699,2.52-0.83,5.356-0.49,7.96
				c0.394,3.1,0.353,6.56,4.371,8.06c12.26,4.57,19.92,13.78,25.021,25.45c3.42,7.819,6.407,15.91,11.67,22.28
				c1.76,2.13,3.76,4.06,6.119,5.729c-0.568,3.182-2.472,4.159-3.83,5.439c-4.802,4.54-7.289,10.26-8.42,16.55
				c-0.171,0.939-0.341,1.87-0.529,2.812c-1.051,5.551-2.271,11.062-3.65,16.521l-1.358-0.34c-4.617-0.65-8.568,2.31-13,2.438
				c-3.34,0.103-6.578,1.989-10,0.562l-0.197-0.051c0.09-0.29,0.139-0.609,0.147-0.949c0.119-3.801,2.312-6.971,2.921-10.521
				c0.459-2.688,3.141-4.938,1.631-7.979l-0.109-0.602c-1.432,0.278-2.932,0.038-4.391,0.091c-21.5,0.681-42.99,1.311-64.49,2.021
				c-18.17,0.609-36.33,1.271-54.49,2.011c-14.34,0.579-28.67,1.312-43,1.979l-1.357,0.029c-0.041-2.183-0.069-4.353-0.143-6.529
				c-0.188-5.511-0.379-11.021-0.561-16.53c-0.328-9.318-0.648-18.641-0.931-27.96c-0.7-23.33-1.5-46.66-1.87-70
				c-0.08-4.88-0.658-8.31-5.58-10.608c-5.011-2.342-6.591-7.459-5.351-12.329C1010.217,536.181,1011.287,531.82,1014.828,529.48z"
				/>
			<path fill="#D8D089" d="M1186.787,697.949l0.197,0.053c3.424,1.43,6.66-0.46,10-0.562c4.434-0.13,8.383-3.09,13-2.438l1.36,0.34
				c-3.67,14.561-8.461,28.771-14.381,42.648c-1.43,3.358-3.979,6.222-4.479,10v0.159c-2.607,1.38-3.049,4.739-4.447,7.369
				c-10.643,19.96-20.629,40.23-28.539,61.472c-0.053,0.142,0.039,0.341-0.014,0.488c-2.646,7.29-3.486,14.091,1.854,21l-0.34,0.25
				c-1.73,1.062-3.643,0.69-5.5,0.75c-25.5,0.83-51,1.66-76.49,2.512c-9,0.302-18,0.659-27,0.988h-0.951
				c-0.02-7.869-0.049-15.77-0.049-23.699c-5.149-0.277-10.069-0.578-15-0.771c-1.688-0.069-3.791,0.17-4.399-1.561
				c-0.41-1.189-1.011-1.899-1.729-2.319l1.629-0.142c0.75-0.869,0.9-1.869,1.041-3c2.49-19.932,4.17-39.858,3.039-60
				c-0.85-15.271-2.6-30.289-6.938-45.028c-1.351-4.58-4.107-8.7-4.562-13.472c-0.289-2.972-0.379-5.959-0.439-8.959l1.359-0.029
				c14.33-0.671,28.66-1.4,43-1.979c18.16-0.74,36.32-1.398,54.49-2.011c21.5-0.71,42.99-1.34,64.49-2.021
				c1.459-0.05,2.959,0.189,4.391-0.09l0.109,0.603c1.51,3.04-1.172,5.29-1.631,7.979c-0.609,3.552-2.802,6.722-2.923,10.521
				C1186.928,697.341,1186.877,697.66,1186.787,697.949z"/>
			<path fill="#F4F2DE" d="M1169.977,414.041c3.513,8.63,1.451,16.93-6,25.479c-5.438,6.23-12.079,11.04-19.049,15.37
				c3.99,8.601,2.48,16.53-3.03,23.562c-3.199,4.09-5.771,8.6-7.607,13.188c-0.08,0.188-0.15,0.38-0.209,0.57l-1.08-0.182
				c-3.92-1.739-7.631,0.569-11.5,0.58c-42.66,0.029-85.319,0.181-127.979,0.51c-2,0.021-4.041-0.01-6.068,0.109
				c-2.109,0.131-4.211,0.431-6.24,1.12l-0.188-0.819c-0.341-5.671-0.351-11.38-1.07-16.989c-1.43-11.221-4.209-22.199-7.5-32.989
				c-4.42-14.49-9.5-28.75-15.879-42.53c-1.568-3.39-3.738-5.979-6.459-7.919l0.408-0.562c3.86-1.778,5.69-5.13,6.461-9.01
				c1.789-8.97,2.932-17.96,3.278-27.05l1.761,0.06c17.682,0.03,35.33-0.81,53-1.448c23.149-0.852,46.319-1.41,69.489-2.04
				c14.66-0.392,29.32-0.671,43.99-1.012c1.562-0.04,3.09-0.22,4.621-0.62l2.879,0.12c4.711,7.49,5.16,15.341,1.931,23.96
				c7.829,7.222,14.312,16.04,21.961,23.881C1163.738,403.331,1167.697,408.431,1169.977,414.041z"/>
			<path fill="#DBD390" d="M1154.518,147.03l-0.52,1.54c-6.562,3.74-13.521,6.66-19.57,11.41c-9.881,7.75-19.42,15.91-28.871,24.15
				c-5.817,5.09-11.139,10.79-14.959,18.229c1.959,0.972,2.619,2.852,5.101,3.342l-0.197,0.858c-1.121,8.98-0.32,18-0.42,27
				c-0.041,3.12-0.621,5.3-3.515,7.11c-2.646,1.648-5.188,3.898-6.969,6.45c-3.891,5.59-5.34,11.18-0.971,17.85
				c1.34,2.04,1.471,3.53,0.9,5.59c-2.683,9.55-0.093,18.59,3.078,27.45c0.979,2.74,3.409,4.729,5.858,6.59
				c15.65,11.89,30.59,24.49,40.66,41.87c0.701,1.22,0.381,2.62,1.771,3.96c-0.931,0.42-1.857,0.75-2.777,0.99
				c-1.529,0.398-3.062,0.578-4.619,0.619c-14.67,0.341-29.33,0.619-43.99,1.011c-23.17,0.63-46.34,1.188-69.49,2.04
				c-17.67,0.64-35.319,1.479-53,1.449l-1.76-0.061c0.18-4.45,0.16-8.93-0.07-13.439c-1.118-21.801-1.18-43.659-1.659-65.489
				c-0.05-2.642,0.352-5.29-2.488-7.03c-2.721-1.68-2.91-4.729-2.932-7.47c-0.027-3.16,0.143-6.45,1-9.472
				c0.961-3.318,1.858-6.63,2.33-9.988c0.393-2.801,0.489-5.63,0.062-8.53c-1.262-8.68-2.75-17.32-3.961-26
				c-3.72-26.66-7.55-53.3-10.839-80.01c-0.631-5.08-2.67-10.19-1.183-15.48l0.051-1.33c17.98,0.61,35.959,0.722,53.949,0.96
				c4.433,0.062,5.854-3.688,8.91-5.29c2.052-1.08,3.631-3.188,6.08-3.84l1,0.08c-0.278,3.12,1.189,6.3,0.631,9.45
				c-0.18,1.021,1.57,1.57,2.851,2.04c13.473,4.99,27.24,8.71,41.521,10.43c3.729,0.45,7.879,0.41,10.892-1.2
				c8.147-4.328,14.641-1.18,21.078,3.23c5.922,4.05,11.229,8.9,17.489,12.53c8.201,4.75,16.381,5.97,24.461,0.33
				c2.5-1.75,4.851-1.44,7.039-0.79C1142.627,142.011,1148.816,143.881,1154.518,147.03z"/>
			<path fill="#DCD596" d="M1071.477,982.49c0.24,0.279,0.031,0.973,0.031,1.473l-0.35,1.568c-1.361-0.291-2.723-0.579-4.094-0.858
				c-7.209-1.46-10.97,0.699-14.64,6.238c-6.42,9.722-9.78,10.239-20.451,4.62c-1.75-0.921-3.565-1.671-4.946-3.091
				c-1.433-1.479-2.933-1.141-4.521-0.479c-3.74,1.55-6.951,3.909-9.451,7.04c-2.447,3.068-3.049,6.369-0.6,10
				c2.141,3.159,2.09,7.079-0.102,9.84c-2.438,3.08-5.382,5.851-8.761,8.239c-7.18,5.068-15.621,6.489-23.541,9.489
				c-18.356,6.972-33.5,19.021-48.04,31.881c-11.26,9.971-17.59,23.341-25.039,35.971c-4.028,6.83-4.479,13.147-0.08,20.107
				c2.689,4.239,2.222,9.353,1.779,14.433c-0.63,7.21-2.83,15,4.23,20.739c-1.4,1.959-2.723,2.851-4.86,3.341
				c-8.819,2.02-17.5,0.868-26-1.184c-23.79-5.729-40.479-19.6-47.99-43.42c-1.87-5.938-1.97-12.26-4.92-18.04
				c-6.96-13.607-11.979-28.43-25.08-37.979c-0.75-0.552-1.107-1.7-1.63-2.381c-7.37-9.603-10.82-21-14.76-32.132
				c-1.23-3.479-3.05-5.631-6.09-7.511c-11.82-7.33-19.57-17.3-19.53-31.938c0.021-6.19-2.92-10.44-11-8.474
				c-5.69,1.382-11.32,3.04-17.01,4.45c-3.55,0.88-7.15,1.74-9.521-2.46c-1.479-2.62-4-1.67-5.93-0.91
				c-1.689,0.66-3.07,2.19-4.53,3.4c-9.398,7.75-16.21,17.82-23.95,27.03c-4.817,5.737-5.688,6.25-12.05,2.947
				c-15.43-8.011-27.5-19.907-37.95-33.527c-6.979-9.091-11.857-19.062-12.739-30.94c-0.448-6.068-2.898-11.857-6.709-17.08
				c-4.949-6.789-11.42-11.68-18.109-16.409c-9.46-6.697-18.94-13.789-24.2-24.159c-4.09-8.062-8.97-14.528-16.778-18.852
				l-2.699-0.107c1.487-0.119,2.897-0.739,4.17-2.409c0.85-1.11,1.38,0,2.029,0.05c6,0.45,12,0.979,18,1.47
				c14.328,1.171,28.658,2.302,42.988,3.511c17.34,1.461,34.66,3.029,52,4.461c5.812,0.488,11.65,0.709,17.49,1.052
				c0.398-2.013,0.83-3.5,0.979-5.021c2.2-21.33,4.37-42.66,6.521-63.989c1.85-18.329,3.66-36.671,5.51-55
				c2.15-21.329,4.58-42.642,6.4-64c0.688-8.062,1.77-16.091,2.58-24.148l1.51,0.16c36.17,3.738,72.35,7.47,108.49,11.198
				c0,6.472,0.18,12.642-0.051,18.802c-0.319,8.84-0.989,17.659-1.439,26.5c-0.7,13.488-1.07,27.01-2.13,40.479
				c-0.51,6.369,3.68,9.182,7.67,11.92c14.81,10.182,31.76,15.229,48.938,19.58c26.439,6.71,53.399,10.039,80.489,12.479
				c17.802,1.6,35.621,2.71,53.49,3.04c4.01,0.067,8,0.35,12,0.47c1.281,0.04,2.43,0.12,3.371,0.66
				c0.719,0.42,1.317,1.13,1.729,2.318c0.609,1.729,2.709,1.488,4.4,1.562c4.93,0.188,9.85,0.49,15,0.771
				c0,7.932,0.029,15.83,0.049,23.698c0.021,10.69,0.021,21.353-0.146,32c-0.111,6.87,1.776,12.812,4.405,19.07
				c6.224,14.79,12.515,29.648,14.265,45.91c0.565,5.31,0.658,10.409-1.053,15.51C1065.357,964.91,1063.998,974.181,1071.477,982.49
				z"/>
			<path fill="#EBE7C3" d="M1035.588,751.49c1.129,20.143-0.551,40.069-3.041,60c-0.139,1.132-0.289,2.132-1.039,3l-1.631,0.143
				c-0.938-0.54-2.09-0.62-3.369-0.66c-4-0.119-7.99-0.399-12-0.47c-17.871-0.33-35.69-1.439-53.49-3.04
				c-27.09-2.439-54.05-5.771-80.49-12.479c-17.18-4.351-34.13-9.398-48.938-19.58c-3.989-2.738-8.181-5.55-7.67-11.92
				c1.061-13.471,1.431-26.988,2.13-40.479c0.45-8.841,1.12-17.66,1.439-26.5c0.229-6.16,0.051-12.33,0.051-18.803
				c-36.142-3.729-72.32-7.459-108.49-11.197l-1.51-0.16c0.488-4.932,0.88-9.869,1.01-14.84l0.101-1.25
				c10.29,0.777,20.642,1.119,30.87,2.04c22.649,2.039,45.33,3.01,68.021,4.229c18.148,0.979,36.318,1.449,54.488,2.062
				c31.989,1.062,63.989,1.062,95.989,0.852c18-0.11,36-0.931,53.99-1.431l0.939-0.029c0.182,5.51,0.369,11.02,0.561,16.529
				c0.07,2.181,0.101,4.351,0.142,6.527c0.062,3,0.149,5.99,0.438,8.962c0.449,4.771,3.211,8.891,4.562,13.471
				C1032.988,721.199,1034.738,736.221,1035.588,751.49z"/>
			<path fill="#CCC164" d="M1022.947,660.971l-0.938,0.03c-17.989,0.5-35.989,1.317-53.989,1.43c-32,0.21-64,0.21-95.989-0.851
				c-18.172-0.609-36.343-1.079-54.49-2.062c-22.69-1.22-45.37-2.188-68.021-4.229l0.029-0.79c1.16-13.16,2.38-26.32,3.49-39.49
				c1.54-18.33,3.061-36.66,4.489-54.989c1.079-13.83,1.92-27.671,3.039-41.5c0.149-1.858,0.312-3.721,0.472-5.58l1.01,0.08
				c13.66,0.34,27.32,0.721,40.99,0.989c18.83,0.38,37.659,0.681,56.489,1.011c18.83,0.34,37.671,0.71,56.5,0.989
				c25.159,0.38,50.318,0.681,75.489,1.011c2.062,0.029,4.143,0.17,6-1l0.512-0.431c3.709,4.38,8.301,8.09,13.938,11.021
				c0.892,0.46,2.47,0.812,2.539,2.41l0.32,0.46c-3.539,2.34-4.609,6.699-5.609,10.59c-1.239,4.87,0.341,9.989,5.351,12.33
				c4.92,2.302,5.5,5.729,5.58,10.609c0.369,23.341,1.17,46.67,1.869,70C1022.297,642.33,1022.617,651.65,1022.947,660.971z"/>
			<path fill="#BFB23D" d="M981.207,494.351c2.029-0.688,4.131-0.989,6.24-1.119l0.067,1.301c2.13,8.068,5.511,15.171,10.511,21.061
				l-0.511,0.431c-1.856,1.172-3.938,1.029-6,1c-25.17-0.328-50.331-0.631-75.489-1.011c-18.829-0.279-37.672-0.647-56.5-0.989
				c-18.829-0.328-37.659-0.631-56.489-1.011c-13.67-0.27-27.33-0.647-40.99-0.989l-1.01-0.078
				c1.107-13.143,2.35-26.271,3.489-39.41c0.141-1.67,0.021-3.37,0.021-5.25c-13.82-1.11-27.17-2.062-40.5-3.29
				c-9.51-0.87-19.04-2.04-28.521-2.66l0.021-0.8c1.17-12.83,2.4-25.66,3.49-38.5c1.58-18.69,3.05-37.41,4.619-56.11l1.391,0.12
				c8.17,0.67,16.33,1.37,24.5,1.99c11.5,0.868,22.99,1.729,34.5,2.5c13.49,0.89,26.99,1.63,40.49,2.52
				c11.5,0.771,22.989,1.71,34.5,2.48c13.489,0.89,26.989,1.738,40.489,2.479c5.811,0.32,11.471,0.85,17.028,2.939
				c7.511,2.811,15.021,6.681,23.49,3.141c0.989-0.41,2.33-0.2,3.47-0.03c6.98,1.04,13.812,2.771,20.5,5
				c2.262,0.75,4.29,1.75,6.09,3.04c2.722,1.94,4.892,4.53,6.459,7.92c6.379,13.779,11.459,28.04,15.879,42.529
				c3.291,10.79,6.07,21.771,7.5,32.99c0.724,5.608,0.73,11.318,1.07,16.989L981.207,494.351z"/>
			<path fill="#C9BE5A" d="M960.188,343.041c0.23,4.51,0.25,8.988,0.07,13.438c-0.35,9.09-1.49,18.08-3.281,27.05
				c-0.77,3.881-2.6,7.23-6.459,9.012l-0.409,0.56c-1.8-1.29-3.831-2.29-6.091-3.04c-6.688-2.229-13.52-3.96-20.5-5
				c-1.14-0.17-2.479-0.38-3.47,0.03c-8.47,3.54-15.979-0.33-23.489-3.14c-5.561-2.092-11.221-2.62-17.03-2.94
				c-13.5-0.74-27-1.59-40.488-2.479c-11.512-0.771-23-1.711-34.5-2.479c-13.5-0.89-27-1.63-40.49-2.521
				c-11.51-0.771-23-1.631-34.5-2.5c-8.17-0.619-16.33-1.319-24.5-1.989l-1.391-0.12c0.131-1.63,0.261-3.25,0.399-4.88
				c1.629-19.33,3.319-38.66,4.989-57.99c0.79-9.13,1.58-18.25,2.38-27.38c0.54-6.21,1.08-12.41,1.631-18.61
				c0.649-7.358,1.89-14.77,2.159-22.04l0.83,0.04c21.67,0.66,43.33,1.312,64.989,2c14.841,0.472,29.659,1.03,44.5,1.49
				c22.83,0.7,45.659,1.37,68.489,2c14.33,0.39,28.659,0.62,42.989,1.03c6.17,0.18,12.341,0.64,18.5,0.979l0.92,0.03
				c-0.469,3.36-1.368,6.67-2.33,9.99c-0.856,3.02-1.026,6.31-1,9.47c0.021,2.74,0.212,5.79,2.935,7.47
				c2.84,1.74,2.438,4.392,2.486,7.03C959.008,299.381,959.066,321.24,960.188,343.041z"/>
			<path fill="#D8D089" d="M956.498,235.061c0.43,2.9,0.33,5.73-0.062,8.53l-0.92-0.03c-6.16-0.34-12.33-0.8-18.5-0.979
				c-14.33-0.41-28.66-0.642-42.988-1.03c-22.829-0.63-45.659-1.3-68.489-2c-14.84-0.46-29.66-1.021-44.5-1.49
				c-21.66-0.688-43.32-1.34-64.99-2l-0.83-0.04c0.011-0.16,0.011-0.31,0.021-0.47c0.521-15.9,2.619-31.63,3.439-47.479
				c0.74-14.529,2.561-29,3.87-43.5c1.32-14.671,1.99-29.391,4-44l0.109-1.119c16.778,1.648,33.58,3.25,50.391,4.568
				c15.979,1.262,31.99,2.062,47.99,3.05c16.16,1.012,32.317,2.07,48.489,2.979c8.658,0.479,17.328,0.74,26,1.01
				c12.328,0.38,24.671,0.57,36.988,1.04c1.353,0.05,2.7,0.102,4.051,0.141l-0.051,1.329c-1.488,5.29,0.551,10.4,1.183,15.479
				c3.289,26.71,7.118,53.35,10.84,80.01C953.748,217.74,955.238,226.381,956.498,235.061z"/>
			<path fill="#E7E2B5" d="M764.547,468.281c0,1.881,0.12,3.579-0.021,5.25c-1.141,13.141-2.38,26.271-3.488,39.409
				c-0.16,1.859-0.32,3.722-0.472,5.579c-1.119,13.83-1.961,27.671-3.04,41.5c-1.431,18.33-2.948,36.66-4.488,54.99
				c-1.11,13.17-2.33,26.33-3.49,39.49l-0.03,0.79c-10.229-0.921-20.58-1.262-30.869-2.04c-1.2-0.08-2.398-0.183-3.601-0.28
				c-23.84-2.05-47.681-4.12-71.479-6.51c-22.529-2.271-45.021-4.78-67.489-7.512c-16.87-2.052-33.66-4.722-50.511-6.908
				c-9.75-1.271-19.479-2.62-29.211-4.04c0.75-4.83,1.472-9.66,2.182-14.5c4.488-30.802,8.59-61.671,13.068-92.472
				c3.659-25.188,7.631-50.341,11.472-75.5l0.26-1.75c1.069,0.149,2.141,0.302,3.21,0.439c18.49,2.42,37,4.66,55.511,6.91
				c22.8,2.76,45.63,5.271,68.5,7.35c14.979,1.36,29.949,2.87,44.971,3.852c9.479,0.619,19.011,1.791,28.521,2.66
				C737.377,466.221,750.727,467.171,764.547,468.281z"/>
			<path fill="#DFD99E" d="M726.658,99.451l-0.11,1.118c-2.01,14.61-2.68,29.33-4,44c-1.31,14.5-3.13,28.972-3.87,43.5
				c-0.819,15.852-2.92,31.58-3.438,47.48c-0.011,0.16-0.011,0.31-0.021,0.47c-0.271,7.271-1.51,14.68-2.159,22.04
				c-0.551,6.2-1.091,12.4-1.631,18.61l-1.38-0.12c-13.41-2.312-27-2.92-40.5-4.46c-14.81-1.682-29.67-2.94-44.479-4.562
				c-19.011-2.068-38.021-4.18-56.989-6.52c-16.03-1.97-32.011-4.25-48-6.47c-11.182-1.54-22.352-3.2-33.7-4.842
				c-2.771,1.99-2.102,5.62-2.62,8.392c-0.51,2.688-1.01,5.39-1.5,8.09l-0.68-0.13c-4.45-1.852-8.341,1.12-12.472,1.688
				c-13.971,1.95-27.851,4.41-42.021,2.312c-6.52-0.96-10.729-3.892-11.37-9.01c-0.489-3.9-1.31-7.69-2.17-11.48
				c-3.55-15.54-7.89-30.87-12.71-46.32c-5.12,1.33-9.91,2.7-14.75,3.79c-5.77,1.29-5.99,0.79-5.57-4.97
				c0.37-5.14,1.711-11.14-0.34-15.29c-2.56-5.17-0.399-7.92,1.98-11.16c2.369-3.22,5.58-5.83,7.857-9.1
				c3.04-4.36,2.381-7.54-1.947-9.39c-1.521-0.65-3.041-1.182-3.962-2.562c-7.898-11.85-16.198-23.46-22.88-36.06
				c-0.931-1.771-2.699-3.98-1.608-6.42c2.22-4.95,0.52-9.75-0.58-14.49c-1.79-7.76-5.432-15.17-3.5-23.53
				c0.68-2.92,0.6-6,1.08-8.979c1.04-6.49,0.96-13.16,2.979-19.5l0.16-0.78c12.261,2.54,24.511,5.07,36.83,7.3
				c20.51,3.73,40.938,7.98,61.51,11.41c35.261,5.87,70.55,11.648,105.95,16.7c26.811,3.83,53.67,7.318,80.53,10.729
				c25.909,3.29,51.97,5.54,77.97,8.11C723.917,99.19,725.288,99.32,726.658,99.451z"/>
			<path fill="#C8BD58" d="M718.646,653.251l-0.1,1.25c-0.13,4.97-0.521,9.909-1.01,14.84c-0.812,8.061-1.893,16.09-2.58,24.149
				c-1.82,21.357-4.25,42.67-6.4,64c-1.85,18.328-3.66,36.67-5.51,55c-2.15,21.328-4.32,42.658-6.521,63.987
				c-0.147,1.521-0.578,3.013-0.979,5.021c-5.84-0.341-11.681-0.562-17.49-1.053c-17.34-1.431-34.66-3-52-4.459
				c-14.33-1.211-28.66-2.341-42.99-3.512c-6-0.488-12-1.02-18-1.47c-0.647-0.05-1.18-1.16-2.027-0.05
				c-1.271,1.67-2.682,2.29-4.172,2.409c-2.351,0.198-4.879-0.812-7.301-0.829c-7.209-0.07-14.357,0.829-21.51,1.856
				c-4.939,0.723-9.979,0.75-14.979,1.08c-5.512,0.36-10.66-0.71-15.53-3.447c-2.41-1.353-5.25-2.66-7.93-0.989
				c-2.95,1.85-2.23,5.18-1.95,7.93c0.35,3.399,1.028,6.812,2.45,9.91c-0.711,1.75-2.131,1.62-3.54,1.6
				c-10.312-0.119-20.512-0.67-30.57-1.93l0.07-0.57c2.25-15.317,4.54-30.64,6.607-45.979c2.91-21.562,6.722-42.99,9.853-64.521
				c4.487-30.8,8.59-61.67,13.079-92.47c2.771-19.021,5.851-38,8.738-57.01c9.73,1.42,19.461,2.77,29.211,4.04
				c16.852,2.188,33.642,4.857,50.512,6.909c22.47,2.729,44.96,5.239,67.488,7.511c23.8,2.39,47.642,4.46,71.479,6.51
				C716.248,653.07,717.447,653.171,718.646,653.251z"/>
			<path fill="#D7CE85" d="M710.047,276.551l1.38,0.12c-0.8,9.13-1.59,18.25-2.38,27.38c-1.67,19.33-3.359,38.66-4.99,57.99
				c-0.14,1.63-0.27,3.25-0.398,4.88c-1.569,18.7-3.041,37.42-4.619,56.108c-1.092,12.842-2.32,25.672-3.49,38.5l-0.021,0.802
				c-15.021-0.98-29.988-2.49-44.971-3.853c-22.87-2.079-45.7-4.59-68.5-7.35c-18.51-2.25-37.02-4.49-55.51-6.91
				c-1.069-0.14-2.14-0.29-3.21-0.438c-6.74-0.962-13.471-2.11-20.25-2.853c-8.05-0.88-16.01-2.55-24.01-3.897
				c-7.83-1.32-15.67-2.65-23.49-4.021c-0.87-0.149-1.67-0.64-2.51-0.979h-0.54c1.56-15.16,5.237-29.962,7.8-44.95
				c2.52-14.7,5.55-29.352,8.21-44.04c4.63-25.61,8.989-51.271,13.71-76.86c0.49-2.7,0.99-5.397,1.5-8.09
				c0.52-2.771-0.15-6.4,2.62-8.39c11.35,1.64,22.521,3.3,33.7,4.84c15.988,2.22,31.97,4.5,48,6.47
				c18.97,2.34,37.979,4.45,56.988,6.521c14.812,1.619,29.67,2.881,44.479,4.561C683.047,273.631,696.637,274.24,710.047,276.551z"
				/>
			<path fill="#F4F2DE" d="M452.538,432.031h0.54c0.84,0.341,1.64,0.829,2.51,0.979c7.82,1.37,15.66,2.7,23.49,4.021
				c8,1.351,15.96,3.021,24.01,3.898c6.78,0.74,13.51,1.891,20.25,2.852l-0.26,1.75c-3.84,25.159-7.812,50.311-11.473,75.5
				c-4.479,30.801-8.579,61.671-13.067,92.471c-0.71,4.84-1.433,9.67-2.183,14.5c-13.947-2.03-27.867-4.223-41.77-6.521
				c-22.351-3.699-44.67-7.608-67-11.479c-22.931-3.973-45.79-8.341-68.49-13.49l-1.21-0.229c0.73-3.922,1.48-7.842,2.24-11.762
				c6.06-31.021,12.41-61.979,18.438-93c7.779-39.971,15.359-79.979,23.029-119.979l0.24-1.221
				c19.54,3.859,39.188,7.029,58.77,10.609c10.723,1.96,21.65,2.73,32.473,4.15c2.238,0.29,4.56,0.56,6.5,1.96l0.76,0.04
				C457.777,402.07,454.097,416.871,452.538,432.031z"/>
			<path fill="#F8F7EA" d="M309.107,640.541c0.069-1.54,1.21-3,1.489-4.53c2.45-13.239,4.8-26.5,7.29-39.729l1.21,0.229
				c22.7,5.149,45.562,9.521,68.49,13.49c22.33,3.868,44.65,7.777,67,11.479c13.9,2.3,27.82,4.489,41.771,6.521
				c-2.891,19.01-5.971,37.987-8.74,57.01c-4.488,30.8-8.59,61.67-13.078,92.47c-3.131,21.53-6.94,42.961-9.852,64.521
				c-2.07,15.34-4.358,30.657-6.608,45.979l-0.07,0.57c-15.819-1.979-31.34-5.729-46.53-12.33
				c-39.55-17.189-78.93-34.7-117.33-54.319c-15.13-7.721-30.06-15.779-43.69-26.21c-0.44-0.341-0.9-0.671-1.36-0.989l2.01-0.211
				c1-1,1.98-2.021,3-3c6.15-5.938,8.95-12.721,4.95-20.979c-1.23-2.55-1.04-5.12-0.38-7.5c2.92-10.38,8.021-19.7,15.5-27.45
				c4.78-4.949,9.14-10.199,13.47-15.529c1.41-1.737,1.72-3.13,0.48-5.051c-4.76-7.279-6.81-15.529-7.94-23.988
				c-0.31-2.421-1.2-4.642-2.59-6.211l0.51-0.277c1.82-1.86,1.51-4.223,1.49-6.5c-0.11-13.812,2.23-27.262,5.7-40.729
				c7.82,1.109,15.31,2.17,22.8,3.239L309.107,640.541z"/>
			<path fill="#C2B647" d="M481.578,266.051l0.68,0.13c-4.72,25.59-9.08,51.25-13.71,76.86c-2.66,14.688-5.689,29.34-8.21,44.04
				l-0.76-0.04c-1.94-1.4-4.262-1.67-6.5-1.96c-10.82-1.42-21.75-2.19-32.473-4.15c-19.579-3.58-39.229-6.75-58.77-10.61
				c-1.92-0.368-3.851-0.76-5.771-1.148c-24.37-4.99-48.729-10.04-72.958-15.65c-8.07-1.87-16.13-3.779-24.19-5.699l0.19-0.779
				c1.45-7.812,2.12-15.73,3.92-23.51c5.37-23.23,14.76-44.932,24.71-66.41c1.59-3.44,2.82-5.631-0.54-8.67
				c-2.26-2.052-3.58-5.132-5.26-7.65c8.32-13.41,16.44-26.61,24.682-39.73c4.34-6.908,8.238-14,5.897-22.479
				c-1.3-4.67-3.069-9.51-7.6-11.65l0.18-0.37c0.5-1.67,1.19-3.31,1.48-5.01c3.698-21.819,7.358-43.648,11.02-65.49
				c3.181-18.988,6.33-37.988,9.5-56.988l0.16-0.812c10.858,2.05,21.681,4.29,32.5,6.53l-0.16,0.78
				c-2.021,6.34-1.938,13.01-2.979,19.5c-0.479,2.979-0.399,6.06-1.079,8.979c-1.932,8.36,1.71,15.771,3.5,23.53
				c1.1,4.74,2.8,9.54,0.579,14.49c-1.091,2.438,0.681,4.648,1.608,6.42c6.683,12.6,14.98,24.21,22.881,36.06
				c0.92,1.38,2.439,1.91,3.96,2.562c4.329,1.85,4.989,5.028,1.95,9.39c-2.279,3.271-5.49,5.88-7.858,9.1
				c-2.382,3.24-4.541,5.99-1.98,11.16c2.05,4.149,0.71,10.149,0.341,15.29c-0.421,5.76-0.2,6.26,5.569,4.97
				c4.84-1.09,9.63-2.46,14.75-3.789c4.82,15.449,9.16,30.779,12.71,46.319c0.86,3.79,1.68,7.58,2.17,11.48
				c0.641,5.12,4.851,8.05,11.37,9.01c14.17,2.1,28.05-0.36,42.021-2.312C473.238,267.171,477.127,264.201,481.578,266.051z"/>
			<path fill="#E1DBA4" d="M361.837,370.32l-0.24,1.222c-7.67,40-15.25,80.01-23.029,119.979c-6.028,31.021-12.38,61.979-18.438,93
				c-0.76,3.92-1.51,7.84-2.24,11.76c-2.489,13.229-4.84,26.49-7.29,39.729c-0.279,1.53-1.42,2.99-1.489,4.53l-1.011-0.03
				c-7.49-1.069-14.979-2.13-22.8-3.239c-3.47,13.47-5.81,26.92-5.7,40.729c0.02,2.277,0.33,4.64-1.49,6.5l-0.51,0.277
				c-0.2-0.221-0.4-0.431-0.62-0.63c-2.17-1.971-3.38-4.318-4.91-6.62c-20.61-31.027-41.35-61.979-61.94-93.027
				c-27.39-41.291-54.65-82.661-82.08-123.921c-1.13-1.699-2.2-2.739-1.49-5.069c4.47-14.62,8.77-29.3,13.05-43.979
				c4.71-16.148,9.25-32.35,14.04-48.479c3.68-12.38,7.64-24.67,11.47-37l0.28-1.07c0.271,0.07,0.54,0.142,0.811,0.21
				c17.1,4.352,34.17,8.96,51.39,12.9c13.79,3.148,27.55,6.45,41.32,9.729c8.06,1.92,16.12,3.83,24.19,5.7
				c24.23,5.61,48.589,10.66,72.958,15.65C357.988,369.561,359.917,369.951,361.837,370.32z"/>
			<path fill="#CDC368" d="M327.257,38.271l-0.16,0.812c-3.17,19-6.319,38-9.5,56.988c-3.659,21.842-7.319,43.67-11.02,65.49
				c-0.29,1.7-0.98,3.34-1.48,5.01l-0.18,0.37c-0.71-0.35-1.48-0.62-2.33-0.81c-19.12-4.36-38.05-9.562-57.47-12.642
				c-7.81-1.238-15.71-3.63-23.48-2.688c-12.69,1.55-25.35,1.28-38.02,1.14c-5.52-0.068-11.23-0.16-15.68-5.22
				c-2.43-2.76-6.88-3.08-10.82-3.17c-5.7-0.13-11.39,0.04-16.99,1.06c-7.18,1.312-13.78,0.722-18.46-5.568
				c-4.73-6.38-5.28-14.062-4.27-21.432c0.52-3.76-0.85-4.97-3.3-5.96c-2.8-1.14-5.67-2.02-7.97-4.08l-2.56-0.818
				c0.52-0.062,1.04-0.12,1.56-0.182l1-1c2.24-2.26,6.18-2.938,6.59-7.358c-3.2-3.562-7.14-6.15-12.09-7.13l1-0.5
				c0.87-3.802,2.16-7.5,2.03-11.5c-0.19-5.46-3-8.54-8.53-9c-5.41-0.45-6.84-2.36-4.94-7.48c2.25-6.09,5.2-11.93,7.38-18.04
				c4.19-11.729,3.3-23.02-3.94-33.47c-0.56-0.8-1.83-1.17-1.5-2.51c1.45-3.65,4.17-1.972,5.94-0.9
				c7.06,4.229,13.89,8.82,20.98,13.04c5.09,3.03,10.17,5.01,16.07,5.438c4.32,0.32,8.53,1.73,11.97,4.472
				c5.83,4.64,6.01,9.34,1.04,14.96c-4.58,5.18-10.06,9.359-15.62,13.33c-1.89,1.358-3.17,2.608-4.21,4.88
				c7.41,3.43,14.69,2.85,21.79,0.188c4.55-1.698,4.56-6.521,5.48-10.42c1.45-6.13,3.15-11.97,8.53-16.021
				c3.26-2.45,4.08-6.061,4.03-9.97c-0.09-6.722-1.08-13.352-2-20c-0.81-5.83,1.72-8.49,7.48-7.46
				c16.42,2.948,32.4,7.698,48.5,11.97c25.24,6.688,50.51,13.27,75.96,19.14c9.708,2.23,19.39,5.19,29.09,7.021
				C327.188,38.261,327.227,38.261,327.257,38.271z"/>
			<path fill="#D9D18B" d="M312.517,178.591c2.341,8.479-1.56,15.57-5.897,22.479c-8.24,13.12-16.36,26.32-24.682,39.729
				c1.68,2.521,3,5.6,5.26,7.649c3.36,3.039,2.13,5.229,0.54,8.671c-9.95,21.479-19.34,43.18-24.71,66.408
				c-1.8,7.78-2.47,15.7-3.92,23.512l-0.19,0.778c-13.77-3.278-27.53-6.58-41.32-9.729c-17.22-3.94-34.29-8.55-51.39-12.9
				c-0.271-0.068-0.54-0.14-0.81-0.21c-15.8-4.028-31.57-8.43-47.28-12.91c-21.31-6.079-42.65-12.04-63.99-18.01
				c-8.99-2.52-17.8-5.7-26.99-7.51l-1.12,0.09c-0.02-0.35-0.06-0.71-0.09-1.07c-1.23-13.028-0.6-25.59,3.24-38
				c1.46-4.729,4.06-9.238,4.75-14.04c0.71-4.858,2.82-7.658,6.6-10.618c8.26-6.472,14.46-14.62,16.66-25.342
				c1.59-7.71,3.56-15.35,5.5-22.988c0.45-1.79,0.92-3.58,2.42-5.052c8.23-8.078,11.37-18.56,13.53-29.46
				c1.19-6.04,1.91-12.358,5.63-17.398c2.22-3.021,3.7-6.182,3.71-9.602c0.01-3.64,2.14-4.479,4.67-4.93
				c3.61-0.649,7.271-0.979,10.93-1.39l2.56,0.818c2.3,2.062,5.17,2.94,7.97,4.08c2.45,0.99,3.82,2.2,3.3,5.96
				c-1.01,7.37-0.46,15.052,4.27,21.432c4.68,6.29,11.28,6.88,18.46,5.568c5.6-1.02,11.29-1.188,16.99-1.06
				c3.94,0.09,8.39,0.41,10.82,3.17c4.45,5.06,10.16,5.15,15.68,5.22c12.67,0.142,25.33,0.41,38.02-1.14
				c7.771-0.94,15.67,1.45,23.48,2.688c19.42,3.08,38.35,8.28,57.47,12.642c0.85,0.188,1.62,0.46,2.33,0.81
				C309.447,169.081,311.217,173.921,312.517,178.591z"/>
			<path fill="#CABF5E" d="M288.127,714.98c1.24,1.92,0.93,3.312-0.48,5.051c-4.33,5.329-8.688,10.579-13.47,15.528
				c-7.479,7.75-12.58,17.07-15.5,27.45c-0.66,2.38-0.85,4.95,0.38,7.5c4,8.26,1.2,15.04-4.95,20.979c-1.02,0.979-2,2-3,3
				l-2.01,0.209c-6.9-4.789-15.33-7.25-23.49-9.709c-19.73-5.939-40.02-8.422-60.57-9.592c-1.94-13.631-3.9-27.091-8.87-39.921
				c-3.23-8.317-6.66-16.39-14.56-21.46c-1.25-0.81-2.72-2.027-3.97-1.909c-5.46,0.552-7.02-3.221-7.91-7.141
				c-0.82-3.63-2.6-6.399-5.08-9c-2.24-2.359-5.02-3.479-7.99-2.812c-1.57,0.353-2.74,0.041-3.48-0.709
				c-5.89-5.988-13.979-10.011-16.64-18.921c-0.6-1.979-3-2.811-4.92-3.487c-9.64-3.41-19.39-6.513-28.96-10.104
				c-6.9-2.59-7.45-4-5.51-10.93c5.51-19.74,1.82-37.5-10.97-53.53c-5.33-6.688-10.08-13.811-13.06-21.96
				c-2.04-5.59-2.99-11.71,0.69-16.359c6.32-7.979,4.04-15.858,1.87-24.148c-1.89-7.16-4.71-13.99-6.96-21.01
				c-0.67-2.103-1.76-4.24,1.8-6.2c4.8-2.642,5.72-10.58,3.12-16.771c-1.4-3.329-1.4-3.329-1.01-6.489
				c2.77-1.34,5.42-0.25,7.99,0.529c4.5,1.352,8.75,3.352,13.48,4.142c1.97,0.329,3.35-0.353,3.88-1.271
				c0.67-1.17,0.01-3.029-1.36-3.89c-11.07-6.88-22.14-13.88-35.99-7.54c-0.27,0.13-0.66,0.021-0.99,0.021l-0.8-0.12
				c0.74-4.959,1.47-9.931,2.32-14.88c1.52-8.881-0.16-12.87-7.57-16.391c-0.96-0.46-1.68-1.01-2.45-1.609
				c-7.07-5.551-6.85-13.591-5.78-20.961c1.58-10.84,2.89-21.607,2.24-32.528c-0.64-10.681-0.79-21.539-6.97-30.989
				c-1.34-2.04-0.38-4.062,0.61-5.44c2.89-4.029,6.07-7.88,9.43-11.54c14.06-15.318,17.03-33.948,15.35-53.43l1.12-0.09
				c9.19,1.81,18,4.989,26.99,7.51c21.34,5.97,42.68,11.93,63.99,18.01c15.71,4.48,31.48,8.881,47.28,12.91l-0.28,1.07
				c-3.83,12.33-7.79,24.62-11.47,37c-4.79,16.13-9.33,32.33-14.04,48.479c-4.28,14.682-8.58,29.359-13.05,43.979
				c-0.71,2.33,0.36,3.37,1.49,5.068c27.43,41.262,54.69,82.632,82.08,123.921c20.59,31.051,41.33,62,61.94,93.028
				c1.53,2.301,2.74,4.649,4.91,6.619c0.22,0.2,0.42,0.41,0.62,0.631c1.39,1.569,2.28,3.789,2.59,6.21
				C281.317,699.449,283.367,707.699,288.127,714.98z"/>
		</g>
	</g>
</g>
</svg>
