<?xml version="1.0" encoding="utf-8"?>
<!-- Generator: Adobe Illustrator 16.0.3, SVG Export Plug-In . SVG Version: 6.00 Build 0)  -->
<!DOCTYPE svg PUBLIC "-//W3C//DTD SVG 1.1//EN" "http://www.w3.org/Graphics/SVG/1.1/DTD/svg11.dtd">
<svg version="1.1" id="Layer_1" xmlns="http://www.w3.org/2000/svg" xmlns:xlink="http://www.w3.org/1999/xlink" x="0px" y="0px"
	 width="16px" height="16px" viewBox="0 0 16 16" enable-background="new 0 0 16 16" xml:space="preserve">
<g>
	<path fill="#7A909A" d="M15.895,8.001c-0.01,4.36-3.553,7.897-7.904,7.894c-4.363-0.006-7.914-3.562-7.896-7.917
		C0.11,3.612,3.656,0.079,8.005,0.092C12.367,0.104,15.902,3.649,15.895,8.001z M13.423,12.05c-0.013-0.011-0.024-0.021-0.037-0.032
		c-0.17,0.148-0.394,0.233-0.497,0.461c-0.023,0.059-0.062,0.11-0.108,0.149c-0.21,0.183-0.423,0.363-0.641,0.536
		c-0.282,0.229-0.59,0.408-0.96,0.451c-0.064,0.007-0.136,0.003-0.203,0.004c0.021-0.061,0.023-0.133,0.062-0.182
		c0.277-0.34,0.303-0.778,0.451-1.168c0.011-0.026,0.006-0.063-0.002-0.095c-0.053-0.171,0.021-0.296,0.131-0.42
		c0.083-0.097,0.183-0.194,0.216-0.312c0.082-0.281,0.172-0.574,0.021-0.861c-0.113-0.219-0.146-0.428,0.013-0.639
		c0.006-0.008,0.008-0.021,0.011-0.028c0.028-0.087-0.045-0.217-0.13-0.199c-0.179,0.039-0.259-0.045-0.292-0.209
		c-0.203,0.04-0.391,0.083-0.576,0.109c-0.232,0.034-0.474,0.055-0.71,0.079c-0.021,0.002-0.056,0.002-0.074-0.012
		c-0.269-0.168-0.547-0.33-0.73-0.597C9.244,8.909,9.087,8.758,9.047,8.512c-0.02-0.118-0.039-0.211,0.022-0.305
		C9.189,8.021,9.171,7.84,9.1,7.644C9.077,7.579,9.088,7.485,9.118,7.421c0.118-0.242,0.247-0.48,0.379-0.716
		C9.521,6.66,9.578,6.628,9.625,6.601C9.79,6.503,9.964,6.418,9.987,6.19c0.007-0.058,0.062-0.116,0.106-0.161
		c0.096-0.089,0.192-0.169,0.289-0.253c-0.004-0.013-0.009-0.026-0.013-0.04c-0.035-0.003-0.073-0.002-0.107-0.012
		c-0.046-0.012-0.114-0.021-0.131-0.052c-0.06-0.132-0.157-0.256-0.093-0.423c0.021-0.057,0.009-0.133-0.002-0.199
		c-0.032-0.212,0.062-0.307,0.275-0.278c0.099,0.013,0.192,0.024,0.295,0.037c0.026-0.153-0.034-0.218-0.163-0.26
		c-0.056-0.018-0.095-0.088-0.132-0.14c-0.015-0.02,0.009-0.084,0.002-0.085c-0.187-0.036-0.096-0.161-0.07-0.253
		c-0.11,0.028-0.209,0.062-0.312,0.073C9.9,4.147,9.842,4.094,9.83,4.056c-0.02-0.064-0.024-0.139-0.02-0.208
		C9.814,3.803,9.84,3.73,9.87,3.722c0.169-0.049,0.203-0.175,0.231-0.323c0.008-0.038,0.115-0.097,0.143-0.083
		c0.089,0.052,0.166,0.127,0.236,0.204c0.051,0.053,0.068,0.133,0.121,0.187c0.078,0.087,0.176,0.161,0.271,0.247
		c0.062-0.048,0.146-0.113,0.229-0.176c-0.021-0.075-0.043-0.151-0.065-0.227c-0.104-0.039-0.363-0.328-0.377-0.428
		c-0.004-0.027,0.008-0.066,0.026-0.083c0.125-0.106,0.134-0.252,0.145-0.397c0.021-0.258,0.229-0.396,0.476-0.331
		c0.248,0.066,0.501,0.121,0.753,0.18c0.004-0.017,0.012-0.033,0.016-0.049c-0.065-0.032-0.143-0.056-0.199-0.098
		c-0.157-0.115-0.298-0.26-0.465-0.354C9.646,1.011,7.8,0.825,5.876,1.416c-0.483,0.147-0.94,0.355-1.373,0.615
		c0.06,0.036,0.112,0.066,0.136,0.081c0.074-0.062,0.132-0.129,0.206-0.161c0.209-0.094,0.42-0.187,0.639-0.253
		C5.617,1.657,5.767,1.66,5.909,1.655C5.968,1.652,6.027,1.68,6.116,1.701c0.002-0.002,0.031-0.042,0.07-0.063
		c0.036-0.02,0.083-0.021,0.125-0.029C6.309,1.645,6.306,1.684,6.306,1.721C6.307,1.749,6.312,1.776,6.318,1.83
		c0.223-0.303,0.347-0.357,0.444-0.241c0.156-0.114,0.312-0.23,0.468-0.337c0.032-0.022,0.1-0.025,0.133-0.006
		c0.089,0.051,0.18,0.107,0.25,0.181c0.09,0.094,0.159,0.104,0.277,0.039c0.3-0.16,0.625-0.11,0.941-0.066
		C8.85,1.403,8.868,1.412,8.875,1.423C8.95,1.543,9.071,1.573,9.199,1.6c0.038,0.008,0.063,0.057,0.099,0.087
		c-0.03,0.032-0.057,0.069-0.092,0.095C9.186,1.799,9.152,1.801,9.124,1.81c0.133,0.351,0.009,0.626-0.325,0.757
		C8.588,2.65,8.363,2.686,8.15,2.783C7.942,2.879,7.752,2.968,7.605,3.142c-0.079,0.094-0.187,0.201-0.3,0.144
		c-0.113-0.056-0.28-0.112-0.27-0.295C7.04,2.909,7.074,2.828,7.067,2.749C7.049,2.547,7.163,2.457,7.321,2.41
		c0-0.124,0-0.239,0-0.361C7.22,1.995,7.001,2.102,7.051,1.813C6.863,1.9,6.698,1.974,6.536,2.047
		c0.044,0.151,0.229,0.235,0.082,0.38c0.148,0.22,0.148,0.221-0.083,0.335c-0.139,0.07-0.284,0.13-0.419,0.206
		C6.08,2.988,6.051,3.048,6.047,3.092C6.029,3.297,6.021,3.503,6.01,3.708c0.169,0.077,0.175,0.244,0.03,0.426
		c0.029,0.112,0.099,0.218-0.005,0.318C5.953,4.532,5.738,4.545,5.64,4.495c-0.077-0.04-0.162-0.066-0.208-0.084
		c-0.057,0.094-0.081,0.191-0.14,0.221C5.128,4.716,4.948,4.771,4.777,4.84C4.679,4.88,4.592,4.905,4.575,4.747
		C4.438,4.836,4.247,4.816,4.202,5.023C4.193,5.065,4.086,5.09,4.021,5.113C3.958,5.135,3.857,5.122,3.833,5.161
		C3.704,5.366,3.414,5.426,3.36,5.696C3.354,5.725,3.313,5.75,3.284,5.77C3.159,5.855,3.02,5.924,2.913,6.027
		C2.809,6.126,2.718,6.251,2.66,6.381C2.609,6.496,2.61,6.633,2.585,6.773C2.609,6.784,2.65,6.79,2.66,6.811
		C2.688,6.873,2.711,6.94,2.721,7.008c0.003,0.02-0.05,0.071-0.065,0.067C2.6,7.063,2.55,7.032,2.498,7.005
		c-0.025-0.012-0.049-0.047-0.07-0.044C2.266,6.982,2.262,6.883,2.271,6.767C2.277,6.694,2.27,6.62,2.278,6.549
		c0.017-0.13-0.026-0.199-0.176-0.191C2.046,6.513,1.963,6.519,1.851,6.393c-0.067-0.075-0.13-0.048-0.191,0.03
		C1.457,6.687,1.337,6.98,1.307,7.309C1.299,7.383,1.324,7.461,1.342,7.536c0.006,0.023,0.042,0.059,0.059,0.056
		C1.43,7.586,1.476,7.557,1.478,7.535c0.015-0.242,0.196-0.238,0.366-0.26C1.881,7.27,1.928,7.243,1.949,7.211
		c0.109-0.167,0.25-0.199,0.416-0.085c0.131,0.089,0.261,0.18,0.369,0.254c0.074-0.043,0.123-0.072,0.173-0.102
		c0.038,0.083,0.076,0.167,0.114,0.25c-0.01,0.015-0.02,0.03-0.03,0.045C3.233,7.63,3.474,7.688,3.716,7.745
		c0.045,0.011,0.093,0.016,0.137,0.031c0.157,0.053,0.288,0.236,0.265,0.36c-0.012,0.058-0.013,0.119-0.01,0.177
		c0.006,0.111,0.045,0.229,0.023,0.332c-0.03,0.131,0.016,0.154,0.126,0.16c0.155,0.01,0.165,0.031,0.088,0.162
		c-0.1,0.17-0.092,0.242,0.06,0.354c0.04,0.03,0.102,0.034,0.152,0.045c0.049,0.01,0.104,0.008,0.15,0.021
		c0.353,0.098,0.535,0.41,0.771,0.646c0.157,0.156,0.305,0.301,0.521,0.316c0.321,0.023,0.602,0.146,0.877,0.295
		C7.02,10.723,7.146,11,7.071,11.146c-0.084,0.162-0.204,0.305-0.302,0.461c-0.021,0.033-0.039,0.089-0.025,0.123
		c0.092,0.248,0.04,0.494-0.009,0.735c-0.017,0.065-0.07,0.138-0.126,0.177c-0.108,0.075-0.232,0.133-0.354,0.198
		c0.072,0.189,0.154,0.356,0.071,0.556c-0.057,0.136-0.146,0.271-0.064,0.438c0.01,0.021-0.03,0.062-0.034,0.096
		c-0.007,0.062-0.031,0.146-0.001,0.186c0.13,0.156,0.273,0.307,0.421,0.447c0.052,0.052,0.129,0.073,0.166,0.097
		c0.063-0.054,0.108-0.11,0.131-0.104c0.063,0.024,0.124,0.073,0.199,0.121c-0.043,0.04-0.063,0.057-0.078,0.074
		s-0.024,0.04-0.043,0.072c0.036,0.009,0.059,0.018,0.083,0.021c0.596,0.083,1.193,0.08,1.791,0
		c1.537-0.205,2.854-0.858,3.965-1.938c0.025-0.027,0.062-0.064,0.064-0.101c0.012-0.22,0.168-0.348,0.294-0.495
		C13.287,12.223,13.354,12.136,13.423,12.05z M6.418,14.711c-0.131-0.081-0.245-0.141-0.347-0.216
		c-0.274-0.201-0.564-0.388-0.812-0.618c-0.46-0.427-0.831-0.93-1.178-1.452c-0.083-0.123-0.206-0.241-0.338-0.305
		c-0.256-0.126-0.455-0.304-0.623-0.528c-0.131-0.173-0.254-0.357-0.41-0.509c-0.316-0.308-0.448-0.658-0.328-1.089
		c0.071-0.251-0.027-0.477-0.07-0.739c-0.128,0.114-0.203,0.071-0.27-0.036C2.012,9.172,1.967,9.114,1.92,9.104
		C1.75,9.066,1.743,8.92,1.696,8.799C1.661,8.708,1.638,8.605,1.581,8.53C1.483,8.403,1.363,8.293,1.235,8.158
		C1.212,8.16,1.15,8.166,1.09,8.174C1.144,11.354,3.468,14.061,6.418,14.711z M3.917,8.814c-0.033-0.195-0.075-0.41-0.102-0.626
		c-0.02-0.166-0.077-0.239-0.232-0.249C3.286,7.92,2.987,7.902,2.682,7.884c-0.02,0.023-0.044,0.065-0.08,0.091
		c-0.115,0.083-0.212,0.02-0.29-0.06C2.231,7.833,2.311,7.784,2.369,7.728c0.026-0.026,0.023-0.081,0.033-0.124
		C2.301,7.776,2.196,7.835,2.114,7.743c-0.08-0.09-0.14-0.199-0.211-0.302C1.86,7.547,1.818,7.653,1.776,7.759
		C1.769,7.778,1.76,7.798,1.756,7.817C1.74,7.89,1.717,7.958,1.822,7.991c0.181,0.059,0.254,0.175,0.245,0.36
		C2.062,8.479,2.047,8.611,2.06,8.74c0.005,0.053,0.064,0.13,0.114,0.145c0.081,0.024,0.174,0.008,0.28,0.008
		C2.473,8.711,2.639,8.645,2.79,8.566C2.904,8.506,3.109,8.577,3.214,8.66c0.08,0.061,0.189,0.096,0.291,0.117
		C3.633,8.803,3.765,8.803,3.917,8.814z M13.532,5.743c-0.068,0.019-0.153,0.018-0.196,0.06c-0.093,0.093-0.254,0.114-0.342,0.021
		c-0.088-0.095-0.173-0.193-0.264-0.286c-0.069-0.071-0.146-0.136-0.229-0.213c-0.056,0.174-0.104,0.324-0.146,0.475
		c-0.045,0.152-0.107,0.174-0.244,0.086c0.012,0.05,0.024,0.121,0.062,0.134c0.2,0.077,0.405,0.14,0.611,0.208
		c0.069-0.167,0.176-0.201,0.37-0.125c0.119,0.046,0.242,0.093,0.367,0.107c0.084,0.008,0.174-0.042,0.281-0.072
		c0-0.058,0-0.153,0-0.255C13.646,5.961,13.583,5.871,13.532,5.743z M11.773,5.08c0.027,0.076,0.048,0.127,0.067,0.175
		c0.041,0.087,0.013,0.138-0.073,0.167c-0.09,0.029-0.14,0.001-0.155-0.093c-0.021-0.11-0.05-0.219-0.071-0.316
		c-0.102,0.007-0.191,0.014-0.284,0.021c-0.012,0.042-0.011,0.104-0.035,0.116c-0.146,0.075-0.239,0.167-0.181,0.346
		c0.004,0.011-0.021,0.035-0.037,0.047c-0.084,0.07-0.171,0.139-0.271,0.218c0.43-0.155,0.863-0.227,1.293-0.172
		c-0.016-0.043-0.068-0.138-0.051-0.157c0.047-0.045,0.129-0.054,0.209-0.083C12.056,5.264,11.928,5.18,11.773,5.08z M4.415,3.531
		c0.412-0.068,0.564-0.422,0.837-0.605c-0.209-0.201-0.389-0.062-0.568,0.01C4.57,2.981,4.461,3.045,4.36,3.115
		C4.325,3.14,4.294,3.213,4.304,3.253C4.328,3.351,4.378,3.442,4.415,3.531z M13.977,11.441c0.276-0.465,0.482-0.957,0.618-1.482
		c-0.355,0.41-0.636,0.864-0.761,1.405C13.876,11.387,13.919,11.411,13.977,11.441z M13.145,4.721
		c-0.014,0.073-0.043,0.136-0.023,0.181c0.019,0.05,0.084,0.121,0.124,0.118c0.142-0.009,0.278-0.046,0.435-0.075
		c-0.086-0.052-0.224-0.178-0.266-0.152C13.287,4.87,13.241,4.773,13.145,4.721z M11.96,3.601c-0.047-0.142-0.065-0.295-0.281-0.307
		c-0.016,0.126-0.03,0.251-0.048,0.385C11.756,3.649,11.85,3.627,11.96,3.601z M5.233,4.158C5.167,4.266,5.106,4.363,5.046,4.46
		C5.058,4.464,5.069,4.468,5.08,4.472C5.184,4.415,5.288,4.357,5.391,4.3c0.011,0.011,0.022,0.022,0.033,0.033
		c0.005-0.057,0.01-0.114,0.016-0.175C5.355,4.158,5.29,4.158,5.233,4.158z M5.934,3.075c-0.075-0.086-0.14-0.163-0.216-0.251
		C5.699,2.828,5.661,2.837,5.637,2.843c0.055,0.1,0.108,0.196,0.168,0.303C5.827,3.133,5.879,3.104,5.934,3.075z"/>
	<path fill="#7A909A" d="M8.973,2.662c0.106-0.005,0.217-0.03,0.316-0.01c0.089,0.017,0.173,0.076,0.246,0.134
		C9.554,2.8,9.537,2.911,9.511,2.924c-0.159,0.078-0.31,0.157-0.513,0.093C8.836,2.965,8.882,2.805,8.782,2.735
		C8.841,2.697,8.898,2.659,8.957,2.62C8.962,2.634,8.968,2.647,8.973,2.662z"/>
	<path fill="#7A909A" d="M10.664,1.903c-0.17,0.167-0.301,0.177-0.449,0.029c-0.066-0.067-0.168-0.099-0.255-0.147
		c0.005-0.02,0.009-0.039,0.013-0.059c0.129-0.023,0.27-0.088,0.383-0.06C10.468,1.693,10.557,1.816,10.664,1.903z"/>
	<path fill="#7A909A" d="M11.49,10.268c-0.037-0.062-0.119-0.137-0.104-0.18c0.022-0.064,0.104-0.135,0.173-0.154
		c0.09-0.023,0.174,0.041,0.149,0.143c-0.019,0.07-0.093,0.132-0.144,0.195C11.541,10.27,11.518,10.27,11.49,10.268z"/>
</g>
</svg>
