<?xml version="1.0" encoding="utf-8"?>
<!-- Generator: Adobe Illustrator 16.0.3, SVG Export Plug-In . SVG Version: 6.00 Build 0)  -->
<!DOCTYPE svg PUBLIC "-//W3C//DTD SVG 1.1//EN" "http://www.w3.org/Graphics/SVG/1.1/DTD/svg11.dtd">
<svg version="1.1" id="Layer_1" xmlns="http://www.w3.org/2000/svg" xmlns:xlink="http://www.w3.org/1999/xlink" x="0px" y="0px"
	 width="476px" height="238px" viewBox="0 0 476 238" enable-background="new 0 0 476 238" xml:space="preserve">
<g id="Layer_2_1_">
</g>
<g id="Layer_1_2_">
	<g id="Layer_1_1_">
	</g>
	<g>
		<g id="Layer_2_2_">
			<path fill="#7A909A" d="M63.14,49.197v-5.125c0-0.771,0.036-1.363,0.105-1.787c0.072-0.419,0.232-0.835,0.487-1.245
				c0.257-0.409,0.662-0.687,1.227-0.849c0.566-0.154,1.321-0.234,2.261-0.234h5.118V29.701h-8.193
				c-4.74,0-8.146,1.124-10.214,3.369c-2.064,2.255-3.104,5.57-3.104,9.952v6.171H44.69v10.255h6.136v29.748h12.312V59.448h8.191
				l1.085-10.251H63.14z"/>
			<path fill="#7A909A" d="M207.293,41.033c-2.342,1.006-4.685,1.632-7.021,1.888c2.639-1.589,4.429-3.828,5.361-6.72
				c-2.426,1.429-4.998,2.414-7.746,2.946c-2.413-2.569-5.383-3.859-8.908-3.859c-3.379,0-6.246,1.188-8.635,3.564
				c-2.368,2.382-3.562,5.258-3.562,8.625c0,0.91,0.099,1.84,0.301,2.795c-4.979-0.254-9.648-1.504-14.023-3.756
				c-4.363-2.251-8.071-5.255-11.111-9.003c-1.108,1.888-1.666,3.941-1.666,6.153c0,2.093,0.489,4.025,1.475,5.812
				c0.982,1.787,2.295,3.231,3.97,4.34c-1.968-0.075-3.803-0.592-5.517-1.548v0.151c0,2.939,0.927,5.524,2.767,7.757
				c1.858,2.223,4.184,3.629,7.013,4.208c-1.062,0.271-2.135,0.415-3.212,0.415c-0.702,0-1.479-0.062-2.301-0.192
				c0.78,2.449,2.214,4.45,4.306,6.019c2.094,1.58,4.452,2.385,7.096,2.443c-4.432,3.466-9.477,5.206-15.137,5.206
				c-1.085,0-2.066-0.045-2.944-0.16c5.66,3.66,11.903,5.491,18.717,5.491c4.338,0,8.398-0.686,12.203-2.057
				c3.796-1.371,7.045-3.209,9.732-5.514c2.695-2.299,5.015-4.94,6.97-7.938c1.95-3.003,3.403-6.129,4.359-9.381
				c0.957-3.269,1.438-6.524,1.438-9.795c0-0.71-0.017-1.235-0.041-1.594C203.571,45.593,205.61,43.494,207.293,41.033z"/>
			<path fill="#FFFFFF" d="M63.14,168.188v-5.125c0-0.77,0.036-1.361,0.105-1.787c0.072-0.42,0.232-0.836,0.487-1.244
				c0.257-0.408,0.662-0.688,1.227-0.85c0.566-0.156,1.321-0.234,2.261-0.234h5.118v-10.256h-8.193
				c-4.74,0-8.146,1.125-10.214,3.369c-2.064,2.256-3.104,5.57-3.104,9.953v6.17H44.69v10.256h6.136v29.748h12.312v-29.748h8.191
				l1.085-10.252H63.14z"/>
			<path fill="#FFFFFF" d="M207.293,160.023c-2.342,1.008-4.685,1.633-7.021,1.889c2.639-1.588,4.429-3.83,5.361-6.721
				c-2.426,1.43-4.998,2.414-7.746,2.945c-2.413-2.566-5.383-3.857-8.908-3.857c-3.379,0-6.246,1.188-8.635,3.564
				c-2.368,2.381-3.562,5.256-3.562,8.625c0,0.91,0.099,1.84,0.301,2.795c-4.979-0.254-9.648-1.504-14.023-3.758
				c-4.363-2.246-8.071-5.252-11.111-9.002c-1.108,1.889-1.666,3.941-1.666,6.154c0,2.092,0.489,4.021,1.475,5.811
				c0.982,1.787,2.295,3.232,3.97,4.342c-1.968-0.076-3.803-0.594-5.517-1.547v0.148c0,2.939,0.927,5.523,2.767,7.758
				c1.858,2.225,4.184,3.629,7.013,4.209c-1.062,0.271-2.135,0.416-3.212,0.416c-0.702,0-1.479-0.062-2.301-0.193
				c0.78,2.453,2.214,4.453,4.306,6.02c2.094,1.58,4.452,2.387,7.096,2.445c-4.432,3.465-9.477,5.201-15.137,5.201
				c-1.085,0-2.066-0.041-2.944-0.16c5.66,3.662,11.903,5.494,18.717,5.494c4.338,0,8.398-0.688,12.203-2.057
				c3.796-1.369,7.045-3.209,9.732-5.514c2.695-2.299,5.015-4.939,6.97-7.939c1.95-3.002,3.403-6.129,4.359-9.379
				c0.957-3.268,1.438-6.525,1.438-9.795c0-0.709-0.017-1.234-0.041-1.592C203.571,164.586,205.61,162.486,207.293,160.023z"/>
		</g>
		<path fill="#7A909A" d="M288.279,89.484V68.284h14.135v21.201h17.67v-28.27h10.603l-35.339-31.803L260.01,61.215h10.602v28.271
			L288.279,89.484L288.279,89.484z"/>
		<path fill="#FFFFFF" d="M288.279,208.188v-21.201h14.134v21.201h17.67v-28.271h10.602l-35.339-31.803l-35.338,31.803h10.603
			v28.271H288.279z"/>
		<path fill="#7A909A" d="M409.214,71.308l4.662,4.659l16.531-16.519l-16.531-16.517l-4.662,4.657l8.531,8.556h-31.971v6.607h31.971
			L409.214,71.308z M438.673,29.719h-46.286c-3.672,0-6.61,2.972-6.61,6.605v13.212h6.61V36.325h46.286v46.248h-46.286V69.359h-6.61
			v13.213c0,3.631,2.938,6.604,6.61,6.604h46.286c3.637,0,6.611-2.972,6.611-6.604V36.325
			C445.284,32.692,442.308,29.719,438.673,29.719z"/>
		<path fill="#FFFFFF" d="M409.214,190.01l4.662,4.658l16.531-16.52l-16.531-16.516l-4.662,4.656l8.531,8.555h-31.971v6.609h31.971
			L409.214,190.01z M438.673,148.422h-46.286c-3.672,0-6.61,2.971-6.61,6.605v13.211h6.61v-13.211h46.286v46.246h-46.286v-13.213
			h-6.61v13.213c0,3.633,2.938,6.604,6.61,6.604h46.286c3.637,0,6.611-2.973,6.611-6.604v-46.246
			C445.284,151.395,442.308,148.422,438.673,148.422z"/>
	</g>
</g>
</svg>
