<?xml version="1.0" encoding="utf-8"?>
<!-- Generator: Adobe Illustrator 16.0.3, SVG Export Plug-In . SVG Version: 6.00 Build 0)  -->
<!DOCTYPE svg PUBLIC "-//W3C//DTD SVG 1.1//EN" "http://www.w3.org/Graphics/SVG/1.1/DTD/svg11.dtd">
<svg version="1.1" id="Layer_1" xmlns="http://www.w3.org/2000/svg" xmlns:xlink="http://www.w3.org/1999/xlink" x="0px" y="0px"
	 width="48px" height="48px" viewBox="0 0 48 48" enable-background="new 0 0 48 48" xml:space="preserve">
<path fill="none" d="M0,0h48v48H0V0z"/>
<path fill="#FFFFFF" d="M21.591,35.984h4.798V21.591h-4.798V35.984z M23.99,0C10.747,0,0,10.747,0,23.99
	c0,13.242,10.747,23.99,23.99,23.99s23.99-10.748,23.99-23.99C47.979,10.747,37.232,0,23.99,0z M23.99,43.181
	c-10.579,0-19.192-8.611-19.192-19.191c0-10.579,8.613-19.192,19.192-19.192c10.58,0,19.191,8.613,19.191,19.192
	C43.181,34.569,34.569,43.181,23.99,43.181z M21.591,16.793h4.798v-4.798h-4.798V16.793z"/>
</svg>
