<?xml version="1.0" encoding="utf-8"?>
<!-- Generator: Adobe Illustrator 16.0.3, SVG Export Plug-In . SVG Version: 6.00 Build 0)  -->
<!DOCTYPE svg PUBLIC "-//W3C//DTD SVG 1.1//EN" "http://www.w3.org/Graphics/SVG/1.1/DTD/svg11.dtd">
<svg version="1.1" id="Layer_1" xmlns="http://www.w3.org/2000/svg" xmlns:xlink="http://www.w3.org/1999/xlink" x="0px" y="0px"
	 width="24px" height="24px" viewBox="0 0 24 24" enable-background="new 0 0 24 24" xml:space="preserve">
<path fill="#7A909A" d="M8.722,5.509c1.265,0,2.29,1.024,2.29,2.29c0,1.266-1.023,2.29-2.29,2.29s-2.29-1.025-2.29-2.29
	C6.433,6.534,7.457,5.509,8.722,5.509 M8.722,15.322c3.239,0,6.651,1.59,6.651,2.289v1.201H2.071v-1.201
	C2.071,16.912,5.484,15.322,8.722,15.322 M8.722,3.438c-2.41,0-4.361,1.952-4.361,4.361c0,2.409,1.951,4.361,4.361,4.361
	c2.409,0,4.362-1.952,4.362-4.361C13.084,5.389,11.131,3.438,8.722,3.438z M8.722,13.25C5.812,13.25,0,14.711,0,17.611v3.271h17.444
	v-3.271C17.444,14.711,11.633,13.25,8.722,13.25z"/>
<polygon fill="#7A909A" points="15.261,7.797 15.261,9.979 18.534,9.979 18.534,13.252 20.716,13.252 20.716,9.979 23.989,9.979 
	23.989,7.797 20.716,7.797 20.716,4.523 18.534,4.523 18.534,7.797 "/>
</svg>
