<?xml version="1.0" encoding="utf-8"?>
<!-- Generator: Adobe Illustrator 16.0.3, SVG Export Plug-In . SVG Version: 6.00 Build 0)  -->
<!DOCTYPE svg PUBLIC "-//W3C//DTD SVG 1.1//EN" "http://www.w3.org/Graphics/SVG/1.1/DTD/svg11.dtd">
<svg version="1.1" id="Layer_1" xmlns="http://www.w3.org/2000/svg" xmlns:xlink="http://www.w3.org/1999/xlink" x="0px" y="0px"
	 width="24px" height="24px" viewBox="0 0 24 24" enable-background="new 0 0 24 24" xml:space="preserve">
<path fill="none" d="M0,0h24v24H0V0z"/>
<path fill="#263237" d="M0,22.818h4.363V9.728H0V22.818z M24,10.818c0-1.201-0.982-2.182-2.182-2.182h-6.885L15.97,3.65l0.033-0.35
	c0-0.447-0.187-0.861-0.479-1.156L14.367,1L7.189,8.188c-0.403,0.394-0.644,0.94-0.644,1.54v10.909c0,1.199,0.982,2.182,2.183,2.182
	h9.817c0.906,0,1.682-0.545,2.008-1.33l3.293-7.69C23.946,13.545,24,13.283,24,13v-2.084l-0.01-0.011L24,10.818z"/>
</svg>
