<?xml version="1.0" encoding="utf-8"?>
<!-- Generator: Adobe Illustrator 16.0.3, SVG Export Plug-In . SVG Version: 6.00 Build 0)  -->
<!DOCTYPE svg PUBLIC "-//W3C//DTD SVG 1.1//EN" "http://www.w3.org/Graphics/SVG/1.1/DTD/svg11.dtd">
<svg version="1.1" id="Layer_1" xmlns="http://www.w3.org/2000/svg" xmlns:xlink="http://www.w3.org/1999/xlink" x="0px" y="0px"
	 width="24px" height="24px" viewBox="0 0 24 24" enable-background="new 0 0 24 24" xml:space="preserve">
<path fill="none" d="M0,0h24v24H0V0z"/>
<path fill="#263237" d="M15.273,1H5.455C4.549,1,3.774,1.545,3.447,2.331l-3.294,7.691C0.054,10.273,0,10.535,0,10.818v2.084
	l0.011,0.01L0,13c0,1.199,0.981,2.182,2.182,2.182h6.884l-1.037,4.986l-0.033,0.35c0,0.446,0.185,0.861,0.48,1.155l1.156,1.146
	l7.189-7.188c0.392-0.392,0.633-0.938,0.633-1.537V3.182C17.455,1.981,16.473,1,15.273,1z M19.637,1v13.092H24V1H19.637z"/>
</svg>
