<?xml version="1.0" encoding="utf-8"?>
<!-- Generator: Adobe Illustrator 16.0.3, SVG Export Plug-In . SVG Version: 6.00 Build 0)  -->
<!DOCTYPE svg PUBLIC "-//W3C//DTD SVG 1.1//EN" "http://www.w3.org/Graphics/SVG/1.1/DTD/svg11.dtd">
<svg version="1.1" id="Layer_1" xmlns="http://www.w3.org/2000/svg" xmlns:xlink="http://www.w3.org/1999/xlink" x="0px" y="0px"
	 width="16px" height="16px" viewBox="0 0 16 16" enable-background="new 0 0 16 16" xml:space="preserve">
<g>
	<path fill="#7A909A" d="M0.077,6.593c0-0.007,0-0.015,0-0.021c0.075-0.139,0.158-0.273,0.22-0.417
		c0.027-0.062,0.01-0.146,0.011-0.217C0.309,5.915,0.301,5.892,0.304,5.87C0.322,5.735,0.32,5.596,0.421,5.487
		c0.009-0.01,0.014-0.022,0.021-0.033C0.6,5.202,0.699,4.926,0.794,4.646c0.021-0.063,0.052-0.124,0.08-0.192
		c-0.031-0.049-0.026-0.089,0.02-0.141C0.905,4.3,0.914,4.272,0.908,4.259c-0.03-0.066-0.032-0.066,0.039-0.098
		C0.874,3.981,0.894,3.794,0.9,3.597c0.045,0.028,0.077,0.049,0.11,0.066C1.1,3.71,1.189,3.757,1.281,3.801
		C1.32,3.82,1.357,3.817,1.383,3.772c0.008-0.013,0.026-0.02,0.047-0.036C1.428,3.801,1.395,3.86,1.465,3.902
		c0-0.124,0-0.243,0-0.364c0.018,0.003,0.041,0.007,0.064,0.013c1.062,0.272,2.14,0.515,3.229,0.668
		c0.424,0.062,0.85,0.112,1.275,0.155c0.338,0.034,0.678,0.057,1.018,0.068c0.415,0.014,0.829,0.01,1.244,0.016
		c0.051,0.001,0.07-0.017,0.064-0.066c-0.002-0.011-0.004-0.024,0-0.034C8.367,4.344,8.375,4.324,8.387,4.32
		C8.4,4.315,8.422,4.323,8.433,4.333c0.014,0.014,0.023,0.034,0.028,0.054c0.011,0.04,0.011,0.083,0.026,0.121
		c0.01,0.023,0.036,0.047,0.06,0.057C8.6,4.587,8.656,4.603,8.712,4.619C8.729,4.623,8.753,4.63,8.765,4.623
		C8.834,4.577,8.9,4.598,8.969,4.624C9.03,4.647,9.091,4.659,9.155,4.677C9.166,4.682,9.182,4.688,9.189,4.7
		c0.048,0.076,0.127,0.092,0.189,0.06c0.08-0.038,0.146-0.026,0.229-0.008C9.674,4.768,9.743,4.77,9.827,4.78
		C9.797,4.807,9.781,4.828,9.76,4.84C9.717,4.863,9.672,4.885,9.625,4.899C9.533,4.927,9.462,4.982,9.402,5.057
		C9.34,5.134,9.278,5.207,9.208,5.292c0.033,0,0.067,0.007,0.097-0.002c0.042-0.012,0.082-0.037,0.123-0.054
		C9.461,5.223,9.494,5.213,9.53,5.202c0.002,0.006,0.006,0.012,0.01,0.017C9.521,5.251,9.504,5.283,9.487,5.315
		c0.12,0.027,0.123,0.027,0.22-0.021C9.738,5.279,9.77,5.264,9.799,5.25c0.109-0.05,0.215-0.103,0.286-0.206
		c0.017-0.022,0.04-0.042,0.063-0.055c0.043-0.021,0.089-0.036,0.134-0.053c0.003,0.005,0.005,0.011,0.008,0.016
		c-0.056,0.07-0.109,0.139-0.173,0.22c0.025,0,0.031,0.001,0.036,0c0.114-0.033,0.188-0.002,0.253,0.1
		c0.009,0.014,0.031,0.024,0.049,0.026c0.1,0.011,0.188-0.028,0.277-0.062c0.086-0.033,0.172-0.06,0.257-0.09
		c0.034-0.013,0.048,0,0.052,0.035c0.008,0.073,0.025,0.086,0.1,0.066c0.045-0.012,0.088-0.025,0.135-0.039
		c0.024,0.07-0.004,0.154,0.082,0.198c-0.104,0.012-0.197,0.021-0.297,0.016c-0.086-0.004-0.164,0.016-0.235,0.054
		c-0.081,0.041-0.162,0.083-0.261,0.072c-0.01-0.001-0.021,0.01-0.026,0.019c-0.063,0.138-0.127,0.277-0.19,0.416
		c-0.005,0.012-0.006,0.025-0.01,0.038c0.007,0.004,0.018,0.008,0.021,0.012c0.062-0.081,0.121-0.163,0.183-0.244
		c0.001,0.032-0.006,0.062-0.015,0.091c-0.062,0.251-0.116,0.504-0.104,0.766c0.008,0.155,0.042,0.303,0.14,0.43
		c0.071,0.096,0.11,0.097,0.194,0.009c0.008-0.007,0.015-0.014,0.021-0.021c0.114-0.138,0.146-0.41,0.046-0.572
		c-0.057-0.085-0.051-0.165-0.046-0.252c0.002-0.026,0.008-0.053,0.012-0.079c0.019-0.136,0.047-0.268,0.132-0.38
		c0.016-0.021,0.034-0.03,0.053-0.046c0.004,0.004,0.012,0.009,0.017,0.013c-0.007,0.025-0.017,0.05-0.021,0.074
		c-0.005,0.025-0.008,0.051-0.012,0.079c0.049,0.002,0.062-0.021,0.062-0.059c-0.002-0.028-0.005-0.057-0.006-0.085
		c-0.003-0.048,0.024-0.072,0.068-0.083c0.011-0.002,0.021-0.004,0.027-0.005c-0.016-0.027-0.041-0.056-0.032-0.073
		c0.016-0.044,0.053-0.075,0.104-0.072c0.031,0.002,0.064,0.009,0.096,0.019c0.062,0.02,0.113,0.046,0.178,0.064
		c0.086,0.027,0.122,0.068,0.129,0.16c0.004,0.059,0.011,0.117,0.01,0.176c-0.001,0.077,0.004,0.159-0.083,0.201
		c-0.046,0.022-0.021,0.062-0.023,0.095c0,0.014,0.021,0.042,0.025,0.04c0.026-0.009,0.059-0.021,0.075-0.04
		c0.023-0.027,0.037-0.066,0.062-0.095c0.062-0.072,0.091-0.07,0.141-0.008c0.017,0.021,0.031,0.042,0.045,0.065
		c0.066,0.126,0.081,0.266,0.094,0.404c0.001,0.011-0.013,0.023-0.021,0.033c-0.027,0.035-0.064,0.064-0.088,0.104
		c-0.027,0.054-0.044,0.116-0.067,0.172c-0.031,0.066-0.023,0.088,0.045,0.109c0.062,0.02,0.126,0.038,0.188,0.055
		c0.012,0.003,0.023-0.001,0.034-0.007c0.312-0.15,0.604-0.331,0.834-0.597c0.065-0.078,0.066-0.077,0.017-0.166
		c-0.004-0.006-0.01-0.013-0.015-0.02c-0.032-0.064-0.026-0.087,0.039-0.101c0.118-0.024,0.237-0.041,0.356-0.059
		c0.103-0.016,0.2-0.038,0.278-0.111c0.062-0.06,0.066-0.164,0.003-0.225c-0.033-0.03-0.034-0.061-0.005-0.086
		c0.084-0.069,0.135-0.163,0.184-0.256c0.042-0.08,0.105-0.123,0.199-0.13c0.041-0.003,0.082-0.008,0.122-0.018
		c0.204-0.054,0.409-0.109,0.614-0.166c0.021-0.006,0.049-0.029,0.052-0.047c0.008-0.071,0.05-0.092,0.108-0.094
		c0.014,0,0.025-0.006,0.021-0.005c0.032-0.086,0.062-0.161,0.088-0.236c0.006-0.017,0.012-0.035,0.011-0.053
		c-0.003-0.075-0.021-0.153-0.009-0.224c0.026-0.128,0.071-0.252,0.112-0.377c0.009-0.025,0.023-0.051,0.058-0.013
		c0.04,0.052,0.062,0.059,0.11,0.01c0.056-0.062,0.104-0.075,0.179-0.029c0.026,0.017,0.059,0.02,0.067,0.058
		c0.036,0.128,0.081,0.255,0.109,0.385c0.03,0.123,0.024,0.104,0.134,0.107c0.004,0,0.007,0.004,0.011,0.006
		c0.006,0.02,0.011,0.04,0.015,0.06c0.006,0.021,0.012,0.043,0.018,0.066c0.014,0.001,0.021,0.004,0.032,0.003
		c0.104-0.004,0.146,0.056,0.106,0.15c-0.048,0.115-0.132,0.184-0.249,0.19c0.005,0.027,0.011,0.051,0.012,0.074
		c0,0.005-0.021,0.017-0.022,0.015c-0.018-0.015-0.027-0.031-0.045-0.049c-0.037,0.049-0.012,0.137-0.1,0.184
		c0.004-0.03,0.002-0.05,0.01-0.064c0.039-0.062,0.03-0.08-0.049-0.09c0.003,0.04,0.008,0.079,0.008,0.119
		c0,0.018,0,0.044-0.011,0.052c-0.067,0.049-0.141,0.093-0.21,0.141c-0.017,0.011-0.037,0.024-0.043,0.041
		c-0.058,0.183-0.056,0.372-0.054,0.546c0.039,0.031,0.069,0.053,0.101,0.079c0.024,0.023,0.039,0.058,0.067,0.075
		c0.022,0.015,0.062,0.022,0.093,0.016c0.047-0.01,0.049-0.041,0.013-0.073c-0.01-0.009-0.021-0.016-0.03-0.024
		c-0.008-0.008-0.016-0.018-0.023-0.032c0.066,0.009,0.104,0.043,0.104,0.101c0.002,0.018,0.005,0.047-0.009,0.055
		c-0.056,0.038-0.114,0.071-0.179,0.108c0-0.022,0-0.043,0-0.065c-0.005-0.002-0.01-0.004-0.016-0.007
		c-0.017,0.02-0.034,0.037-0.039,0.058c-0.01,0.044-0.036,0.069-0.073,0.087c-0.035,0.018-0.07,0.036-0.106,0.051
		c-0.112,0.047-0.22,0.089-0.326,0.136C14.584,6.674,14.5,6.745,14.448,6.85c-0.023,0.047-0.045,0.095-0.067,0.143
		c0,0,0.008,0.005,0.014,0.003c0.055-0.02,0.07,0.005,0.07,0.052c0,0.077,0.006,0.156-0.006,0.231
		c-0.02,0.124-0.077,0.229-0.174,0.321c0.004-0.02,0.008-0.039,0.011-0.056c-0.062-0.023-0.124-0.047-0.186-0.069
		c0.021,0.076,0.063,0.149,0.124,0.181c0.041,0.024,0.062,0.058,0.062,0.099c0.003,0.059,0.008,0.119-0.006,0.175
		c-0.035,0.145-0.08,0.288-0.121,0.432c-0.006,0.001-0.011,0.002-0.016,0.003c-0.011-0.026-0.024-0.054-0.024-0.08
		c0.001-0.079,0.009-0.158,0.014-0.237c0.002-0.054-0.026-0.086-0.093-0.097c0.015,0.036,0.022,0.07,0.033,0.104
		c-0.005,0.002-0.01,0.004-0.017,0.006C14.059,8.04,14.045,8.02,14.032,8c-0.021-0.027-0.034-0.061-0.062-0.079
		c-0.022-0.02-0.028-0.036-0.022-0.066c0.002-0.026-0.01-0.054-0.017-0.081c-0.002,0-0.004,0.001-0.007,0.001
		c0-0.078,0-0.156,0-0.235c-0.004-0.002-0.009-0.004-0.013-0.006c-0.019,0.025-0.038,0.05-0.045,0.078
		c-0.026,0.104-0.021,0.217,0.05,0.308c0.029,0.04,0.033,0.069,0.003,0.107c0.067,0.053,0.099,0.124,0.112,0.201
		c0.004,0.022-0.006,0.049-0.012,0.073C14.016,8.3,14.01,8.3,14.005,8.3c0.026,0.046,0.054,0.093,0.082,0.145
		c0.069-0.022,0.097,0.027,0.123,0.087c0.037,0.082,0.082,0.161,0.124,0.241c0.027,0.051,0.008,0.096-0.047,0.109
		c-0.016,0.008-0.032,0.012-0.049,0.016c0.002,0.004,0.002,0.01,0.004,0.014c0.037-0.004,0.074-0.008,0.111-0.012
		c0.008,0.104-0.06,0.148-0.22,0.162c0.021,0.057,0.017,0.104-0.04,0.146c0.049-0.003,0.092-0.005,0.141-0.007
		c-0.01,0.058-0.051,0.09-0.098,0.113C14.074,9.355,14,9.387,13.938,9.428c-0.08,0.049-0.139,0.113-0.145,0.215
		c-0.003,0.041-0.021,0.056-0.062,0.062c-0.117,0.021-0.226,0.08-0.243,0.206c-0.021,0.104-0.062,0.182-0.138,0.25
		c-0.021,0.021-0.033,0.045-0.057,0.062c-0.051,0.047-0.104,0.09-0.155,0.14c-0.013,0.011-0.021,0.021-0.03,0.032
		c-0.025,0.047-0.056,0.094-0.076,0.141c-0.033,0.059-0.075,0.113-0.098,0.178c-0.049,0.15-0.043,0.309-0.008,0.459
		c0.062,0.251,0.191,0.463,0.371,0.646c0.018,0.019,0.031,0.035,0.053,0.058c-0.062,0.037-0.035,0.074-0.013,0.113
		c0.03,0.047,0.062,0.097,0.087,0.145c0.127,0.211,0.221,0.433,0.2,0.685c0,0.005,0,0.007,0,0.009
		c0.003,0.051-0.017,0.098,0.005,0.151c0.016,0.041-0.025,0.104-0.045,0.153c-0.006,0.001-0.011,0.001-0.018,0.002
		c0.006-0.041-0.008-0.054-0.041-0.04c-0.062,0.023-0.119,0.047-0.184,0.066c-0.022-0.061-0.048-0.112-0.074-0.163
		c-0.035-0.062-0.084-0.104-0.164-0.104c-0.02,0-0.041-0.021-0.053-0.041c-0.021-0.039-0.033-0.084-0.058-0.123
		c-0.007-0.013-0.038-0.022-0.047-0.021c-0.04,0.022-0.058-0.002-0.071-0.026c-0.05-0.078-0.094-0.16-0.146-0.231
		c-0.05-0.062-0.091-0.115-0.015-0.185c0.006-0.005,0.008-0.011,0.008-0.016c0.003-0.02,0.013-0.043,0.003-0.053
		c-0.015-0.014-0.037-0.016-0.062-0.022c0,0.048,0,0.081,0,0.132c-0.059-0.055-0.062-0.107-0.062-0.169
		c-0.003-0.085,0.002-0.17,0-0.256c-0.005-0.095-0.027-0.127-0.117-0.157c-0.022-0.011-0.047-0.021-0.064-0.037
		c-0.051-0.045-0.102-0.09-0.146-0.14c-0.062-0.062-0.137-0.104-0.228-0.101c-0.018,0-0.042,0.007-0.049,0.019
		c-0.054,0.095-0.146,0.124-0.242,0.148c-0.048,0.012-0.081-0.002-0.106-0.038c-0.062-0.075-0.141-0.124-0.229-0.133
		c-0.104-0.01-0.218-0.006-0.326,0.007c-0.086,0.008-0.17,0.034-0.247,0.052c-0.008-0.036-0.013-0.07-0.021-0.104
		c-0.008-0.019-0.029-0.023-0.047-0.035c-0.012,0.014-0.027,0.027-0.028,0.043c-0.006,0.07-0.049,0.08-0.109,0.083
		c-0.094,0.005-0.188,0.013-0.277,0.032c-0.077,0.019-0.13,0.076-0.151,0.153c0.05,0.021,0.064-0.017,0.089-0.04
		c0.009-0.01,0.024-0.014,0.037-0.021c0.006,0.013,0.017,0.022,0.019,0.038c0.009,0.043-0.007,0.076-0.039,0.104
		c-0.02,0.019-0.034,0.032-0.062,0.06c0.043,0.021,0.074,0.039,0.105,0.055c0.027,0.013,0.062,0.02,0.091,0.031
		c0.018,0.009,0.023,0.025,0.039,0.043c-0.019,0.013-0.029,0.027-0.048,0.035c-0.015,0.006-0.027,0.002-0.045-0.002
		c-0.08-0.015-0.146-0.061-0.205-0.137c-0.02,0.04-0.03,0.066-0.041,0.098c-0.017,0.045-0.029,0.082-0.094,0.092
		c0.008-0.014,0.012-0.021,0.014-0.024c0.005-0.016,0.007-0.03,0.01-0.047c-0.021-0.002-0.039-0.011-0.055-0.003
		c-0.024,0.012-0.054,0.031-0.072,0.051C9.893,12.059,9.842,12.023,9.796,12c-0.033-0.016-0.089-0.021-0.06-0.084
		c0.003-0.005-0.004-0.021-0.01-0.021c-0.062-0.037-0.117-0.078-0.182-0.107c-0.04-0.021-0.082-0.02-0.116,0.035
		c0.056,0.012,0.099,0.021,0.144,0.031c-0.002,0.01-0.004,0.018-0.006,0.021c-0.033-0.002-0.067-0.002-0.104-0.006
		C9.311,11.852,9.154,11.83,9,11.822c-0.146-0.008-0.287,0.012-0.396,0.115c-0.135,0.127-0.28,0.23-0.439,0.322
		c-0.141,0.082-0.282,0.163-0.42,0.248c-0.023,0.016-0.049,0.051-0.049,0.074C7.69,12.76,7.69,12.936,7.691,13.114
		c0,0.046,0.009,0.093,0.015,0.146c-0.212-0.045-0.416-0.088-0.583-0.227c-0.087-0.073-0.148-0.166-0.142-0.278
		c0.005-0.093-0.036-0.146-0.091-0.208c-0.051-0.05-0.087-0.113-0.138-0.164c-0.041-0.04-0.062-0.081-0.075-0.134
		c-0.062-0.267-0.209-0.458-0.481-0.531c-0.166-0.045-0.229-0.02-0.312,0.132c-0.025,0.047-0.053,0.092-0.084,0.137
		C5.791,12,5.761,12.009,5.749,12.005c-0.107-0.057-0.215-0.11-0.317-0.175c-0.083-0.053-0.133-0.131-0.14-0.232
		c-0.003-0.05-0.013-0.099-0.022-0.146c-0.015-0.083-0.047-0.151-0.127-0.196c-0.052-0.025-0.098-0.07-0.137-0.115
		c-0.067-0.076-0.125-0.16-0.191-0.238c-0.02-0.021-0.054-0.039-0.083-0.047c-0.128-0.021-0.258-0.03-0.387-0.053
		c-0.134-0.021-0.105-0.021-0.127,0.104c-0.008,0.051-0.021,0.06-0.068,0.054c-0.168-0.022-0.337-0.043-0.504-0.071
		c-0.237-0.037-0.467-0.104-0.675-0.229c-0.252-0.153-0.503-0.309-0.755-0.46c-0.015-0.011-0.027-0.021-0.043-0.03
		c0.012-0.021,0.022-0.036,0.038-0.062c-0.13-0.018-0.254-0.027-0.376-0.047c-0.113-0.019-0.227-0.037-0.34-0.059
		C1.456,9.994,1.438,9.977,1.439,9.938c0.001-0.051-0.003-0.1-0.011-0.146c-0.021-0.14-0.081-0.25-0.221-0.299
		c-0.031-0.011-0.041-0.025-0.04-0.058c0-0.019-0.006-0.037-0.018-0.051C1.067,9.314,0.981,9.248,0.9,9.176
		C0.826,9.109,0.747,9.059,0.644,9.057C0.591,9.055,0.569,9.027,0.576,8.975c0.002-0.02,0.006-0.041,0.014-0.06
		c0.036-0.082,0.028-0.162-0.011-0.24c-0.028-0.056-0.058-0.11-0.086-0.166C0.454,8.43,0.416,8.35,0.382,8.269
		C0.356,8.206,0.36,8.146,0.422,8.102c0.014-0.01,0.022-0.027,0.036-0.044C0.355,7.979,0.296,7.881,0.316,7.756
		c0.012-0.075,0.021-0.141-0.034-0.205c-0.021-0.02-0.021-0.057-0.021-0.086C0.26,7.389,0.235,7.321,0.19,7.265
		c-0.082-0.102-0.085-0.21-0.051-0.33C0.16,6.869,0.166,6.798,0.167,6.729C0.168,6.668,0.142,6.615,0.077,6.593z"/>
</g>
</svg>
