<?xml version="1.0" encoding="utf-8"?>
<!-- Generator: Adobe Illustrator 16.0.3, SVG Export Plug-In . SVG Version: 6.00 Build 0)  -->
<!DOCTYPE svg PUBLIC "-//W3C//DTD SVG 1.1//EN" "http://www.w3.org/Graphics/SVG/1.1/DTD/svg11.dtd">
<svg version="1.1" id="Layer_1" xmlns="http://www.w3.org/2000/svg" xmlns:xlink="http://www.w3.org/1999/xlink" x="0px" y="0px"
	 width="88.9px" height="88.9px" viewBox="0 0 88.9 88.9" enable-background="new 0 0 88.9 88.9" xml:space="preserve">
<g>
	<rect x="0.007" fill="#D2887E" width="88.884" height="89.243"/>
	<path fill="#5A4F51" d="M57.372,71.664c0,2.83-5.809,5.121-12.975,5.121c-7.166,0-12.977-2.291-12.977-5.121
		c0-2.828,5.811-5.123,12.977-5.123C51.563,66.541,57.372,68.836,57.372,71.664"/>
	<path fill="#DCC5A1" d="M44.239,55.918v32.977h-18.34c-0.298-0.126-0.451-0.191-0.451-0.191c0-18.035,11.233-18.736,11.233-18.736
		c0.842,0,1.474-0.834,1.924-2.193c0.141-0.424,0.27-0.898,0.387-1.423c0.076-0.331,0.144-0.679,0.192-1.048
		c0.106-0.617,0.194-1.271,0.258-1.951c0.041-0.411,0.076-0.82,0.117-1.243c0.167-2.062,0.216-4.305,0.216-6.435
		C39.775,55.674,42.248,55.918,44.239,55.918"/>
	<path fill="#EDD9B4" d="M63.095,88.703c0,0-0.168,0.709-0.439,0.191l-18.417-0.641V55.919h0.041c1.993,0,4.473-0.245,4.473-0.245
		c0,2.116,0.055,4.337,0.219,6.385c0.041,0.41,0.08,0.82,0.117,1.217c0.076,0.707,0.156,1.371,0.258,2v0.014
		c0.035,0.281,0.09,0.537,0.141,0.794c0.127,0.627,0.271,1.206,0.449,1.702c0.465,1.359,1.094,2.183,1.932,2.183
		C51.868,69.968,63.095,70.669,63.095,88.703"/>
	<path fill="#BC9F82" d="M49.343,65.281v0.014c-0.451,0.716-2.004,2.755-5.081,2.755H44.24c-2.919-0.013-4.616-2.128-5.056-2.745
		c0.104-0.611,0.193-1.267,0.259-1.947c0.037-0.412,0.075-0.818,0.11-1.24c1.43,0.357,2.972,0.578,4.633,0.599h0.054
		c1.695-0.021,3.263-0.254,4.732-0.653c0.039,0.412,0.076,0.821,0.117,1.217C49.165,63.988,49.241,64.65,49.343,65.281"/>
	<rect x="39.184" y="62.062" fill="none" width="10.159" height="5.986"/>
	<path fill="#B9C98E" d="M49.733,72.143L49.54,88.895H38.776l-0.13-17.008c2.068,0.618,4.102,1.002,5.952,1.002
		C46.284,72.9,48.021,72.62,49.733,72.143"/>
	<path fill="#5A4F51" d="M63.212,89.024c0-1.781-0.105-3.396-0.311-4.859c-1.141-8.56-5.271-12.112-8.113-13.558
		c-1.609-0.821-2.803-0.963-2.803-0.963c-0.838,0-1.48-0.666-1.945-2.025c-0.09-0.167-0.166,0.014-0.242-0.343l-0.066,5.187
		l-1.43,4.488h-8.186l-1.47-4.744l-0.041-4.755c-0.449,1.36-1.082,2.192-1.924,2.192c0,0-1.133,0.134-2.665,0.897
		c-3.073,1.533-7.589,5.158-8.454,14.517c-0.112,1.232-0.113,2.529-0.113,3.966c0,0,0.151,0.067,0.45,0.192h2.749v0.025h31.003
		v-0.025h3.121C63.044,89.092,63.212,89.024,63.212,89.024"/>
	<polygon fill="#B9C98E" points="44.699,82.559 43.935,82.559 40.726,78.529 47.907,78.529 	"/>
	<path fill="#FDFDFD" d="M63.218,51.889c0,0-1.094-1.377-0.445-10.182c0.322-4.387-0.494-8.62-0.695-9.587
		c0.062,0.254-6.318,12.843-6.318,12.843c-0.219,3.518-0.398,6.953-0.443,9.339l-1.066-1.823c0,0-0.91,3.004-1.041,4.195
		c-0.006,0.062-0.006,0.136-0.012,0.201l-3.445-3.418c0,0,0.008,1.959,0.18,3.812l-2.086-2.068c0,0,0.021,5.041,0.717,6.617
		c0.785,1.775,0.076,6.689,0.076,6.689c0.951-1.188,1.627-2.448,2.107-3.646c-0.082,1.09-0.199,1.905-0.199,1.905
		c1.469-1.832,2.275-3.844,2.74-5.524c0.045,0.756,0.092,1.517,0.1,2.266c0.035,2.347-0.846,4.699-0.846,4.699
		s1.844-2.539,2.863-6.735c0.186,3.084,0.631,5.323,1.566,6.524c-0.123-0.215-0.598-1.225-0.48-3.84
		c0.051-1.177,0.158-2.453,0.301-3.729c0.729,3.318,2.877,5.167,2.877,5.167s-1.639-3.693-1.113-8.231
		c0.111-0.918,0.193-1.726,0.262-2.451c0.043,1.26,0.178,2.687,0.488,4.182c0.781,3.764,2.389,5.902,2.389,5.902
		s-1.547-3.414-0.131-12.656c0.109-0.711,0.113-1.741,0.072-2.844C62.515,51.582,63.218,51.889,63.218,51.889"/>
	<path fill="#FDFDFD" d="M25.449,51.373c0,0,1.094-1.375,0.443-10.181c-0.32-4.392,0.495-8.624,0.697-9.59
		c-0.063,0.256,6.318,12.845,6.318,12.845c0.216,3.517,0.397,6.949,0.438,9.334l1.07-1.82c0,0,0.907,3.002,1.039,4.19
		c0.008,0.067,0.008,0.142,0.014,0.208l3.446-3.421c0,0-0.012,1.959-0.184,3.812l2.085-2.067c0,0-0.018,5.04-0.714,6.617
		c-0.783,1.776-0.075,6.687-0.075,6.687c-0.954-1.185-1.627-2.443-2.112-3.643c0.087,1.087,0.204,1.906,0.204,1.906
		c-1.468-1.832-2.278-3.846-2.743-5.526c-0.044,0.757-0.088,1.517-0.1,2.267c-0.032,2.346,0.848,4.697,0.848,4.697
		s-1.845-2.538-2.86-6.732c-0.187,3.084-0.632,5.321-1.57,6.524c0.126-0.215,0.594-1.225,0.482-3.843
		c-0.05-1.176-0.161-2.452-0.299-3.727C31.143,63.229,29,65.074,29,65.074s1.638-3.691,1.108-8.23
		c-0.108-0.918-0.189-1.725-0.258-2.449c-0.044,1.258-0.178,2.689-0.49,4.18c-0.781,3.765-2.391,5.901-2.391,5.901
		s1.547-3.414,0.134-12.655c-0.11-0.707-0.113-1.736-0.075-2.841C26.151,51.066,25.449,51.373,25.449,51.373"/>
	<path fill="#CCAD8B" d="M44.292,17.368c-19.428,0-19.539,16.203-18.674,26.811c-1.334-2.515-5.273-1.735-4.952,2.223
		c0.313,3.813,5.88,5.788,5.801,5.343c1.595,8.734,10.735,13.772,17.825,13.772c0.047,0,0.1-0.006,0.146-0.006V17.37
		C44.388,17.37,44.338,17.368,44.292,17.368"/>
	<path fill="#BC9F82" d="M21.906,44.726c0.963-1.526,2.442-0.87,2.806-0.534c0.389,0.371,0.692,0.855,0.456,1.76
		c-0.138,0.508-0.672,0.547-0.541,1.322c0.143,0.868,0.547,0.926,0.775,1.12c0.228,0.198,0.515,0.349,0.655,0.718
		c0.14,0.364,0.163,0.752,0.087,1.09c-0.146,0.627-1.063,0.129-1.673-0.149c-0.404-0.185-1.685-1.263-2.012-1.628
		C21.643,47.51,21.265,45.746,21.906,44.726"/>
	<path fill="#D9BF9F" d="M44.385,17.368c19.428,0,19.54,16.203,18.676,26.811c1.332-2.515,5.275-1.735,4.949,2.223
		c-0.309,3.813-5.879,5.788-5.799,5.343c-1.596,8.734-10.736,13.772-17.827,13.772c-0.047,0-0.099-0.006-0.146-0.006V17.37
		C44.29,17.37,44.338,17.368,44.385,17.368"/>
	<path fill="#BC9F82" d="M66.771,44.726c-0.959-1.526-2.441-0.87-2.805-0.534c-0.385,0.371-0.691,0.855-0.457,1.76
		c0.139,0.508,0.674,0.547,0.545,1.322c-0.143,0.868-0.549,0.926-0.779,1.12c-0.227,0.198-0.514,0.349-0.654,0.718
		c-0.137,0.364-0.164,0.752-0.084,1.09c0.146,0.627,1.061,0.129,1.674-0.149c0.402-0.185,1.684-1.263,2.008-1.628
		C67.038,47.51,67.411,45.746,66.771,44.726"/>
	<path fill="#DCC5A1" d="M44.123,21.934c-6.395,0-11.069,1.85-13.906,5.5c-3.952,5.101-3.8,12.893-2.34,18.486
		c0.444,1.708,0.673,6.313,0.982,8.006c1.374,7.563,9.749,11.59,15.264,11.59c0.047,0,0.099-0.006,0.148-0.006V21.94
		C44.221,21.94,44.174,21.934,44.123,21.934"/>
	<path fill="#EDD9B4" d="M57.995,27.445c-2.811-3.627-7.434-5.476-13.723-5.505v43.57c6.293-0.068,13.821-4.48,15.114-11.585
		c0.307-1.688,0.535-6.296,0.982-8.005C61.821,40.342,61.966,32.562,57.995,27.445"/>
	<path fill="#FDFDFD" d="M65.499,34.293c0,0.81-0.092,2.126-0.236,3.152c-0.08,0.653-0.188,1.171-0.297,1.383
		c-0.119,0.256-0.975,2.595-1.041,3.501c-0.396,0.387-0.854,0.893-1.16,1.702c-0.629,1.649-0.883,1.373-0.883,1.373
		s0.199-1.307,0.428-2.901c0.135-1.346,0.318-3.341,0.469-5.059c0.012-0.239,0.041-0.479,0.053-0.704
		c-0.281-1.386-2.898-8.028-15.346-7.4c-2.002,0.092-4.031-0.653-5.61-1.45c-1.626-0.813-2.761-1.678-2.866-1.678
		c-0.551,0-5.528-0.919-8.453,1.25c-0.19,0.131-0.363,0.28-0.524,0.428c-3.472,2.99-3.952,8.197-3.952,9.235
		c0,0.093,0,0.199,0.012,0.319c0.098,2.141,0.989,7.96,0.989,7.96s-0.24,0.276-0.88-1.373c-0.36-0.957-0.934-1.501-1.39-1.903
		c-0.696-1.465-1.082-1.915-1.429-3.3c-0.093-0.386-0.386-0.758-0.695-1.383c-0.667-1.306-1.427-3.715-0.626-9.554
		c0.041-0.269,0.079-0.535,0.12-0.813c0.611-3.994,3.659-12.963,11.697-14.558c8.038-1.609,9.91-3.475,16.48-0.8
		c6.57,2.663,10.723,4.54,12.742,8.946c0.906,2.005,1.49,4.721,1.84,7.225C65.382,30.881,65.499,33.56,65.499,34.293"/>
	<circle cx="37.075" cy="43.789" r="1"/>
	<circle cx="51.325" cy="43.789" r="1"/>
</g>
</svg>
