<?xml version="1.0" encoding="utf-8"?>
<!-- Generator: Adobe Illustrator 16.0.3, SVG Export Plug-In . SVG Version: 6.00 Build 0)  -->
<!DOCTYPE svg PUBLIC "-//W3C//DTD SVG 1.1//EN" "http://www.w3.org/Graphics/SVG/1.1/DTD/svg11.dtd">
<svg version="1.1" id="Layer_1" xmlns="http://www.w3.org/2000/svg" xmlns:xlink="http://www.w3.org/1999/xlink" x="0px" y="0px"
	 width="88.9px" height="88.9px" viewBox="0 0 88.9 88.9" enable-background="new 0 0 88.9 88.9" xml:space="preserve">
<g>
	<rect x="0.012" y="0.004" fill="#B9C98E" width="88.875" height="88.839"/>
	<path fill="#362C1D" d="M26.379,61.312c0.008,0.017,0.015,0.038,0.022,0.052C26.484,61.467,26.463,61.435,26.379,61.312"/>
	<path fill="#DCC5A1" d="M44.02,57.293v31.603H26.776c-0.277-0.121-0.421-0.18-0.421-0.18c0-16.954,10.554-18.219,10.554-18.219
		h0.088c0.07-0.012,0.156-0.023,0.226-0.049c0.872-0.24,1.466-1.517,1.862-3.349c0.076-0.313,0.133-0.639,0.183-0.987
		c0.099-0.58,0.181-1.191,0.242-1.832c0.038-0.384,0.073-0.773,0.108-1.168c0.158-1.942,0.205-4.05,0.205-6.047
		C39.823,57.065,42.145,57.293,44.02,57.293"/>
	<path fill="#EDD9B4" d="M61.747,88.716c0,0-0.158,0.059-0.412,0.18H44.02V57.293h0.035c1.875,0,4.209-0.229,4.209-0.229
		c0,1.986,0.049,4.073,0.205,5.998c0.035,0.389,0.072,0.773,0.109,1.146c0.072,0.664,0.148,1.291,0.24,1.878v0.013
		c0.035,0.266,0.082,0.508,0.133,0.748c0.361,1.771,0.898,3.073,1.67,3.506c0.059,0.025,0.123,0.062,0.182,0.073
		c0.117,0.048,0.252,0.071,0.385,0.071C51.188,70.497,61.747,71.762,61.747,88.716"/>
	<path fill="#BC9F82" d="M48.817,66.092v0.01c-0.424,0.677-1.887,2.595-4.778,2.595h-0.022c-2.744-0.013-4.341-2.002-4.75-2.582
		c0.093-0.58,0.179-1.191,0.239-1.83c0.035-0.385,0.074-0.772,0.109-1.168c1.342,0.338,2.793,0.541,4.352,0.567h0.05
		c1.597-0.026,3.072-0.243,4.449-0.616c0.035,0.387,0.074,0.771,0.109,1.143C48.647,64.872,48.722,65.5,48.817,66.092"/>
	<rect x="39.267" y="63.067" fill="none" width="9.55" height="5.629"/>
	<path fill="#5A4F51" d="M61.79,88.716c0,0-0.154,0.048-0.412,0.18H26.823c-0.277-0.132-0.424-0.18-0.424-0.18
		c0-3.943,0.571-7.023,1.463-9.445c3.881-2.647,11.887-2.613,16.205,1.656c0,0,6.672-5.439,13.456-2.578
		c1.293,0.538,2.346,1.283,3.219,2.147C61.39,82.712,61.79,85.409,61.79,88.716"/>
	<path fill="#895A59" d="M38.252,67.26c0,0.426,2.313,0.058,1.506,6.264c-0.808,6.207-7.754,5.188-9.746,8.507
		s-1.291,6.865-1.291,6.865h-2.948l0.626-2.12c0,0-0.801-2.659,0.492-5.333c1.293-2.676-0.029-4.258,0.129-5.383
		c0.158-1.121,1.918-3.659,3.533-4.251c1.615-0.586,1.521-0.195,3.565-0.681c2.044-0.481,4.349-1.631,4.349-2.912
		C38.467,66.931,38.252,67.26,38.252,67.26"/>
	<path fill="#895A59" d="M49.806,67.087c0,0.426-2.312,0.06-1.506,6.264c0.807,6.207,7.754,5.189,9.744,8.507
		c1.992,3.318,1.205,7.039,1.205,7.039h2.889L61.79,86.65c0,0,0.67-2.704-0.623-5.381s0.025-4.257-0.129-5.384
		c-0.16-1.122-1.918-3.659-3.529-4.248c-1.619-0.592-1.58-0.062-3.629-0.547c-2.043-0.48-4.293-1.768-4.293-3.051
		S49.806,67.087,49.806,67.087"/>
	<path fill="#CCAD8B" d="M44.005,23.332c-17.998-0.033-18.101,14.374-17.299,23.775c-1.237-2.207-4.885-1.388-4.587,2.143
		c0.287,3.38,5.447,4.912,5.374,4.543c1.471,7.654,9.954,11.906,16.512,12.511c0.041,0.001,0.093,0,0.138,0.004V23.333
		C44.096,23.333,44.046,23.332,44.005,23.332"/>
	<path fill="#BC9F82" d="M23.024,47.758c0.904-1.366,2.296-0.776,2.635-0.478c0.363,0.328,0.656,0.762,0.428,1.566
		c-0.125,0.457-0.632,0.493-0.507,1.182c0.138,0.775,0.515,0.824,0.729,1.004c0.216,0.174,0.482,0.309,0.619,0.637
		c0.129,0.326,0.152,0.673,0.076,0.974c-0.137,0.56-0.996,0.115-1.574-0.134c-0.377-0.164-1.585-1.127-1.889-1.454
		C22.775,50.237,22.421,48.666,23.024,47.758"/>
	<path fill="#D9BF9F" d="M44.093,23.332c17.996-0.033,18.101,14.374,17.298,23.775c1.234-2.207,4.887-1.388,4.584,2.143
		c-0.287,3.38-5.443,4.912-5.367,4.543c-1.477,7.654-9.957,11.906-16.515,12.511c-0.047,0.001-0.095,0-0.138,0.004V23.333
		C43.999,23.333,44.046,23.332,44.093,23.332"/>
	<path fill="#BC9F82" d="M65.2,47.758c-0.9-1.366-2.295-0.776-2.639-0.478c-0.361,0.328-0.648,0.762-0.426,1.566
		c0.129,0.457,0.631,0.493,0.508,1.182c-0.133,0.775-0.514,0.824-0.73,1.004c-0.211,0.174-0.482,0.309-0.613,0.637
		c-0.129,0.326-0.156,0.673-0.082,0.974c0.139,0.56,1,0.115,1.572-0.134c0.381-0.164,1.586-1.127,1.891-1.454
		C65.446,50.237,65.804,48.666,65.2,47.758"/>
	<path fill="#DCC5A1" d="M43.909,27.411c-6.011,0-10.41,1.651-13.072,4.91c-3.715,4.552-3.574,11.505-2.203,16.497
		c0.419,1.526,0.636,5.638,0.923,7.147c1.298,6.752,9.17,10.346,14.353,10.346c0.045,0,0.096-0.004,0.137-0.004V27.416
		C43.999,27.416,43.956,27.411,43.909,27.411"/>
	<path fill="#EDD9B4" d="M56.952,32.328c-2.645-3.237-6.992-4.888-12.905-4.913v38.892c5.92-0.061,12.993-4.002,14.209-10.342
		c0.289-1.51,0.504-5.621,0.924-7.147C60.55,43.839,60.685,36.896,56.952,32.328"/>
	<path fill="#B47070" d="M47.071,60.21c0,0-1.357,1.447-3.03,1.447c-1.674,0-2.955-1.415-2.955-1.415s1.281-0.218,2.955-0.218
		C45.714,60.024,47.071,60.21,47.071,60.21"/>
	<path fill="#C17874" d="M44.901,59.543c-0.475,0-0.852,0.294-0.86,0.653c-0.009-0.359-0.386-0.653-0.856-0.653
		c-0.478,0-2.174,0.667-2.174,0.667s1.655,0.177,2.133,0.177c0.471,0,0.889,0.187,0.897-0.166c0.006,0.353,0.351,0.215,0.819,0.215
		c0.479,0,2.211-0.226,2.211-0.226S45.375,59.543,44.901,59.543"/>
	<path fill="#5A4F51" d="M67.284,16.403c-0.293-0.813,1.188,5.678-2.748,6.741c-0.754,0.205-1.377,0.438-1.904,0.678
		c-0.17-1.51-0.291-2.089,0.193-3.692c0.592-1.941,0.408-3.513-0.475-5.148c-0.883-1.633-2.988-2.177-2.988-2.177
		s2.258,1.251,1.422,3.753c-0.562,1.683-1.621,2.419-2.205,3.84c-0.275,0.656-0.439,1.284-0.539,1.777
		c0.027-0.509-0.035-1.13-0.369-1.629c-0.682-1.032-2.826-2.734-2.352-4.819c1.332-5.844-1.428-7.448-1.822-8.161
		c-0.389-0.715,1.086,1.878,0.109,4.043c-0.568,1.252-1.402,1.698-2.287,2.147c-0.541-0.802-0.934-1.725-0.703-2.741
		c1.332-5.843-1.428-7.445-1.82-8.163C48.405,2.138,49.88,4.73,48.897,6.9c-0.979,2.163-2.744,1.907-4.235,3.464
		c-0.323,0.341-0.616,0.71-0.879,1.103c-0.264-0.391-0.557-0.761-0.885-1.103c-1.486-1.557-3.252-1.298-4.231-3.466
		c-0.979-2.166,0.5-4.76,0.108-4.044c-0.398,0.716-3.156,2.317-1.822,8.161c0.23,1.018-0.161,1.939-0.705,2.741
		c-0.889-0.449-1.717-0.893-2.282-2.145c-0.983-2.166,0.492-4.76,0.101-4.045c-0.391,0.714-3.154,2.317-1.82,8.159
		c0.477,2.086-1.668,3.79-2.354,4.821c-0.327,0.498-0.389,1.122-0.366,1.631c-0.1-0.495-0.263-1.123-0.537-1.78
		c-0.582-1.42-1.645-2.154-2.207-3.839c-0.832-2.504,1.422-3.755,1.422-3.755s-2.105,0.546-2.989,2.18
		c-0.877,1.632-1.059,3.204-0.474,5.147c0.486,1.603,0.363,2.182,0.194,3.69c-0.524-0.24-1.147-0.474-1.905-0.679
		c-3.928-1.06-2.448-7.554-2.746-6.738c-0.29,0.817-1.937,4.793-0.778,8.067c0.608,1.728,1.076,2.349,3.615,4.753
		c2.545,2.406,1.471,1.171,2.837,3.62c1.352,2.419,0.037,3.946,0.006,6.933c0,0.013-0.006,0.025-0.006,0.038
		c0,0.007,0.003,0.013,0.003,0.019c0,0.019-0.003,0.038-0.003,0.055l0.006,0.001c0.129,3.127,8.079,5.648,17.878,5.648
		c9.875,0,17.884-2.562,17.884-5.723c0-0.249-0.059-0.493-0.152-0.733c-0.199-2.541-1.207-4.011,0.035-6.239
		c1.369-2.447,0.293-1.21,2.836-3.619c2.547-2.404,3.01-3.024,3.621-4.751C69.222,21.196,67.575,17.22,67.284,16.403"/>
	<path fill="#5A4F51" d="M42.113,43.974c0,2.227-2.799,4.93-5.324,4.93c-2.524,0-4.928-1.966-4.928-4.195s-0.003-4.114,2.41-4.752
		C38.471,38.847,42.113,41.743,42.113,43.974"/>
	<path fill="#5A4F51" d="M45.991,44.095c0,2.228,2.799,4.932,5.32,4.932s4.932-1.967,4.932-4.195c0-2.23,0-4.115-2.412-4.755
		C49.634,38.97,45.991,41.865,45.991,44.095"/>
	<path fill="#B9C98E" d="M40.317,44.374c0,1.484-1.863,3.287-3.545,3.287s-3.285-1.31-3.285-2.797c0-1.484,0-2.74,1.609-3.164
		C37.891,40.962,40.317,42.89,40.317,44.374"/>
	<path fill="#B9C98E" d="M47.661,44.59c0,1.487,1.863,3.286,3.547,3.286c1.678,0,3.281-1.309,3.281-2.794s0.002-2.743-1.605-3.166
		C50.091,41.181,47.661,43.104,47.661,44.59"/>
	<circle cx="36.895" cy="49.796" r="1"/>
	<circle cx="51.146" cy="49.796" r="1"/>
</g>
</svg>
