<?xml version="1.0" encoding="utf-8"?>
<!-- Generator: Adobe Illustrator 16.0.3, SVG Export Plug-In . SVG Version: 6.00 Build 0)  -->
<!DOCTYPE svg PUBLIC "-//W3C//DTD SVG 1.1//EN" "http://www.w3.org/Graphics/SVG/1.1/DTD/svg11.dtd">
<svg version="1.1" id="Layer_1" xmlns="http://www.w3.org/2000/svg" xmlns:xlink="http://www.w3.org/1999/xlink" x="0px" y="0px"
	 width="88.9px" height="88.9px" viewBox="0 0 88.9 88.9" enable-background="new 0 0 88.9 88.9" xml:space="preserve">
<g>
	<rect x="0.006" y="0.027" fill="#894A24" width="88.889" height="88.846"/>
	<path fill="#28210D" d="M35.766,45.373c-1.074,2.366-2.577,4.759-2.186,6.894c1.372,7.467,0.667,21.723,4.558,22.379
		c0.742,0.125-2.749-14.938-2.656-22.638c-0.396-2.134,0.872-3.437,1.948-5.808C37.233,45.14,37.233,45.14,35.766,45.373"/>
	<path fill="#453514" d="M35.487,43.566c-1.056,2.358-2.48,4.67-2.273,6.991c0.74,8.126-0.701,23.139,2.584,24.41
		c0.632,0.242-1.469-16.246-0.942-24.404c-0.213-2.321,0.948-3.512,2.001-5.865C36.754,43.536,36.754,43.536,35.487,43.566"/>
	<path fill="#453514" d="M38.144,43.566c-1.053,2.358-2.483,4.67-2.273,6.991c0.74,8.126-0.698,23.139,2.583,24.41
		c0.633,0.242-1.471-16.246-0.941-24.404c-0.214-2.321,0.948-3.512,2.001-5.865C39.406,43.536,39.406,43.536,38.144,43.566"/>
	<path fill="#453514" d="M39.27,43.483c-1.056,2.35-2.483,4.666-2.273,6.987c0.737,8.122-0.702,23.137,2.586,24.411
		c0.63,0.242-1.474-16.249-0.947-24.403c-0.21-2.325,0.95-3.515,2.007-5.868C40.536,43.446,40.536,43.446,39.27,43.483"/>
	<path fill="#28210D" d="M36.415,47.03c-1.267,2.254-2.905,4.47-2.905,6.726c0,7.903-2.796,22.444,0.369,23.761
		c0.607,0.254,0-15.809,1.27-23.716c0-2.256,1.267-3.384,2.533-5.644C37.682,47.03,37.682,47.03,36.415,47.03"/>
	<path fill="#28210D" d="M42.853,47.03c-1.264,2.254-2.901,4.47-2.901,6.726c0,7.903-2.797,22.444,0.368,23.761
		c0.608,0.254,0-15.809,1.27-23.716c0-2.256,1.264-3.384,2.533-5.644C44.122,47.03,44.122,47.03,42.853,47.03"/>
	<path fill="#3B2812" d="M35.096,44.523c-1.265,2.185-2.902,4.324-2.902,6.508c0,7.642-2.796,21.701,0.369,22.976
		c0.605,0.24,0-15.285,1.269-22.932c0-2.187,1.265-3.275,2.527-5.46C36.358,44.523,36.358,44.523,35.096,44.523"/>
	<path fill="#28210D" d="M54.758,45.65c1.071,2.368,2.58,4.761,2.185,6.896c-1.371,7.465-0.663,21.721-4.554,22.377
		c-0.749,0.125,2.743-14.936,2.656-22.637c0.392-2.135-0.878-3.436-1.954-5.807C53.29,45.417,53.29,45.417,54.758,45.65"/>
	<path fill="#453514" d="M56.35,44.357c1.266,2.327,2.901,4.601,2.901,6.925c0,8.135,2.799,23.09-0.369,24.446
		c-0.607,0.261,0-16.267-1.267-24.399c0-2.324-1.266-3.485-2.536-5.811C55.079,44.357,55.079,44.357,56.35,44.357"/>
	<path fill="#453514" d="M55.036,43.846c1.056,2.355,2.482,4.668,2.272,6.991c-0.737,8.123,0.702,23.139-2.586,24.412
		c-0.629,0.24,1.474-16.249,0.948-24.406c0.21-2.32-0.951-3.512-2.007-5.867C53.769,43.817,53.769,43.817,55.036,43.846"/>
	<path fill="#453514" d="M52.38,43.846c1.056,2.355,2.483,4.668,2.273,6.991c-0.737,8.123,0.701,23.139-2.587,24.412
		c-0.629,0.24,1.475-16.249,0.948-24.406c0.21-2.32-0.951-3.512-2.004-5.867C51.113,43.817,51.113,43.817,52.38,43.846"/>
	<path fill="#453514" d="M51.254,43.761c1.053,2.351,2.479,4.668,2.27,6.988c-0.737,8.125,0.702,23.139-2.583,24.412
		c-0.629,0.241,1.471-16.251,0.948-24.404c0.208-2.322-0.951-3.516-2.007-5.869C49.989,43.726,49.989,43.726,51.254,43.761"/>
	<path fill="#28210D" d="M54.108,47.306c1.267,2.26,2.902,4.475,2.902,6.732c0,7.902,2.802,22.439-0.369,23.757
		c-0.605,0.252,0-15.81-1.267-23.715c0-2.255-1.267-3.382-2.535-5.642C52.84,47.306,52.84,47.306,54.108,47.306"/>
	<path fill="#28210D" d="M47.671,47.306c1.267,2.26,2.901,4.475,2.901,6.732c0,7.902,2.799,22.439-0.369,23.757
		c-0.604,0.252,0-15.81-1.266-23.715c0-2.255-1.267-3.382-2.533-5.642C46.404,47.306,46.404,47.306,47.671,47.306"/>
	<path fill="#3B2812" d="M55.425,44.803c1.27,2.183,2.908,4.321,2.908,6.505c0,7.645,2.796,21.704-0.372,22.977
		c-0.606,0.242,0-15.285-1.267-22.931c0-2.185-1.27-3.274-2.533-5.461C54.161,44.803,54.161,44.803,55.425,44.803"/>
	<path fill="#DCC5A1" d="M44.862,55.733v33.129H26.794c-0.293-0.139-0.444-0.201-0.444-0.201c0-0.948,0.025-1.842,0.088-2.689
		c0.749-10.806,5.967-14.529,8.933-15.793c1.202-0.505,2.039-0.607,2.039-0.607H37.5c0.076-0.01,0.163-0.025,0.24-0.051
		c0.912-0.252,1.532-1.592,1.951-3.496c0.075-0.342,0.137-0.682,0.189-1.037c0.1-0.62,0.19-1.262,0.251-1.93
		c0.041-0.393,0.079-0.808,0.114-1.228c0.167-2.031,0.217-4.24,0.217-6.321C40.463,55.509,42.894,55.733,44.862,55.733"/>
	<path fill="#EDD9B4" d="M63.434,88.661c0,0-0.164,0.062-0.43,0.201H44.862V55.733h0.035c1.962,0,4.411-0.225,4.411-0.225
		c0,2.068,0.049,4.255,0.213,6.271c0.041,0.406,0.079,0.808,0.114,1.203c0.077,0.691,0.152,1.361,0.255,1.969v0.023
		c0.038,0.268,0.088,0.53,0.14,0.768c0.382,1.869,0.937,3.236,1.747,3.677c0.067,0.026,0.125,0.075,0.19,0.087
		c0.129,0.039,0.269,0.064,0.406,0.064c0,0,0.837,0.103,2.039,0.607c3.016,1.287,8.365,5.124,8.968,16.363
		C63.422,87.225,63.434,87.928,63.434,88.661"/>
	<path fill="#BC9F82" d="M49.882,64.962v0.013c-0.442,0.708-1.975,2.718-5.005,2.718h-0.023c-2.879-0.017-4.552-2.103-4.979-2.705
		c0.1-0.608,0.188-1.25,0.252-1.92c0.041-0.404,0.076-0.811,0.11-1.226c1.41,0.354,2.932,0.569,4.563,0.594h0.053
		c1.673-0.024,3.218-0.25,4.662-0.643c0.035,0.403,0.076,0.807,0.114,1.198C49.706,63.687,49.78,64.342,49.882,64.962"/>
	<rect x="39.875" y="61.792" fill="none" width="10.007" height="5.899"/>
	<path fill="#CCAD8B" d="M44.839,20.155C25.98,20.121,25.873,35.222,26.712,45.064c-1.293-2.31-5.119-1.451-4.803,2.249
		c0.299,3.545,5.704,5.146,5.631,4.758c1.542,8.021,10.428,12.479,17.299,13.111c0.047,0.003,0.096,0,0.146,0.008V20.156
		C44.935,20.156,44.886,20.155,44.839,20.155"/>
	<path fill="#BC9F82" d="M22.854,45.748c0.947-1.431,2.406-0.813,2.764-0.494c0.38,0.34,0.684,0.792,0.448,1.638
		c-0.132,0.479-0.665,0.517-0.53,1.236c0.14,0.814,0.539,0.866,0.761,1.051c0.226,0.186,0.506,0.324,0.649,0.67
		c0.135,0.342,0.158,0.707,0.082,1.021c-0.146,0.585-1.047,0.118-1.65-0.141c-0.395-0.172-1.661-1.182-1.979-1.522
		C22.596,48.353,22.222,46.699,22.854,45.748"/>
	<path fill="#D9BF9F" d="M44.93,20.155c18.861-0.035,18.966,15.066,18.13,24.909c1.293-2.31,5.119-1.451,4.806,2.249
		c-0.305,3.545-5.707,5.146-5.631,4.758C60.689,60.093,51.804,64.55,44.93,65.183c-0.044,0.003-0.096,0-0.14,0.008V20.156
		C44.836,20.156,44.886,20.155,44.93,20.155"/>
	<path fill="#BC9F82" d="M67.049,45.748c-0.941-1.431-2.403-0.813-2.764-0.494c-0.377,0.34-0.679,0.792-0.448,1.638
		c0.135,0.479,0.665,0.517,0.536,1.236c-0.144,0.814-0.542,0.866-0.767,1.051c-0.226,0.186-0.507,0.324-0.646,0.67
		c-0.135,0.342-0.161,0.707-0.085,1.021c0.149,0.585,1.047,0.118,1.65-0.141c0.4-0.172,1.664-1.182,1.979-1.522
		C67.312,48.353,67.681,46.699,67.049,45.748"/>
	<path fill="#DCC5A1" d="M44.739,24.428c-6.298,0-10.908,1.731-13.698,5.147c-3.893,4.77-3.743,12.055-2.305,17.284
		c0.439,1.601,0.661,5.91,0.965,7.491c1.36,7.076,9.606,10.842,15.038,10.842c0.047,0,0.1-0.002,0.146-0.002V24.432
		C44.835,24.432,44.789,24.428,44.739,24.428"/>
	<path fill="#EDD9B4" d="M58.405,29.581c-2.767-3.393-7.324-5.121-13.52-5.15V65.19c6.201-0.067,13.616-4.196,14.889-10.84
		c0.301-1.58,0.526-5.891,0.968-7.491C62.176,41.646,62.316,34.367,58.405,29.581"/>
	<path fill="#B47070" d="M48.057,58.798c0,0-1.425,1.516-3.181,1.516c-1.752,0-3.094-1.482-3.094-1.482s1.342-0.232,3.094-0.232
		C46.632,58.599,48.057,58.798,48.057,58.798"/>
	<path fill="#C17874" d="M45.778,58.101c-0.492,0-0.89,0.307-0.901,0.685c-0.009-0.378-0.404-0.685-0.898-0.685
		c-0.497,0-2.277,0.697-2.277,0.697s1.736,0.186,2.233,0.186c0.495,0,0.934,0.194,0.942-0.178c0.009,0.373,0.368,0.229,0.86,0.229
		c0.497,0,2.319-0.237,2.319-0.237S46.274,58.101,45.778,58.101"/>
	<path fill="#28210D" d="M54.86,25.609c1.43,3.428,3.256,6.84,3.343,10.089c0.325,11.377,3.879,32.694,0.574,34.146
		c-0.632,0.279-0.638-22.752-2.3-34.312c-0.094-3.249-1.48-5.052-2.919-8.478C53.519,25.434,53.519,25.434,54.86,25.609"/>
	<path fill="#453514" d="M60.679,27.643c1.351,3.032,3.1,5.999,3.1,9.029c0,10.604,2.993,30.118-0.391,31.884
		c-0.653,0.339,0-21.215-1.358-31.822c0-3.029-1.351-4.546-2.708-7.577C59.321,27.643,59.321,27.643,60.679,27.643"/>
	<path fill="#28210D" d="M59.859,38.219c0,11.978,2.492,34.013-0.331,36.003c-0.538,0.382,0.316-18.646-1.021-34.53
		C57.203,24.148,45.521,26.98,44.395,23.556c0-1.713,5.683,0.458,6.713,0.873C59.465,27.81,59.859,34.795,59.859,38.219"/>
	<path fill="#28210D" d="M61.685,37.956c-0.398,11.975,1.359,34.066-1.527,35.986c-0.55,0.366,0.937-18.637,0.132-34.546
		C59.503,23.82,47.729,26.333,46.715,22.879c0.058-1.712,5.668,0.615,6.683,1.057C61.641,27.543,61.799,34.537,61.685,37.956"/>
	<path fill="#453514" d="M60.462,35.346c0,11.975,2.492,34.012-0.328,36.006c-0.541,0.378,0.312-18.652-1.018-34.534
		C57.806,21.274,45.81,24.036,44.684,20.612c0-1.709,5.997,0.526,7.026,0.944C60.069,24.932,60.462,31.921,60.462,35.346"/>
	<path fill="#3B2812" d="M59.386,36.667c0,12.25,2.548,34.789-0.337,36.829c-0.556,0.392,0.322-19.075-1.044-35.325
		c-1.34-15.895-13.289-13.004-14.438-16.507c0-1.75,5.812,0.471,6.862,0.897C58.982,26.02,59.386,33.165,59.386,36.667"/>
	<path fill="#4B3018" d="M62.539,35.435c0,12.255,2.548,34.792-0.34,36.832c-0.55,0.391,0.321-19.076-1.042-35.324
		c-1.339-15.899-15.02-13.069-16.175-16.572c0-1.753,7.549,0.532,8.6,0.964C62.132,24.789,62.539,31.934,62.539,35.435"/>
	<path fill="#3B2812" d="M63.542,30.559c3.63,11.519,2.554,32.095,0.441,34.707c-0.403,0.503,1.951-12.228-1.001-30.989
		c-2.427-15.436-17.493-12.855-18.761-13.998c-1.343-1.205,5.607-0.962,6.726-0.82C60.006,20.645,62.504,27.264,63.542,30.559"/>
	<path fill="#3B2812" d="M59.315,39.823c0,12.252,2.551,34.79-0.333,36.831c-0.554,0.389,0.32-19.077-1.048-35.325
		C56.602,25.433,44.652,28.325,43.496,24.82c0-1.749,5.815,0.471,6.868,0.897C58.914,29.174,59.315,36.321,59.315,39.823"/>
	<path fill="#4B3018" d="M58.613,41.534c0,12.254,1.988,34.791-0.264,36.83c-0.433,0.39,0.251-19.078-0.818-35.324
		C56.49,27.144,45.793,29.971,44.889,26.471c0-1.75,5.902,0.532,6.725,0.962C58.297,30.888,58.613,38.033,58.613,41.534"/>
	<path fill="#28210D" d="M34.065,25.297c-1.304,3.479-3.004,6.953-2.978,10.207c0.088,11.38-2.686,32.812,0.667,34.144
		c0.638,0.258-0.188-22.764,1.059-34.37c-0.028-3.25,1.293-5.102,2.604-8.58C35.399,25.071,35.399,25.071,34.065,25.297"/>
	<path fill="#453514" d="M29.037,27.416c-1.356,3.034-3.103,6.002-3.103,9.032c0,10.609-2.996,30.117,0.394,31.883
		c0.647,0.34,0-21.215,1.353-31.822c0-3.031,1.356-4.545,2.711-7.575C30.392,27.416,30.392,27.416,29.037,27.416"/>
	<path fill="#28210D" d="M29.854,37.993c0,11.98-2.488,34.014,0.33,36.006c0.542,0.383-0.317-18.65,1.021-34.534
		C32.51,23.922,44.192,26.75,45.322,23.333c0-1.712-5.688,0.456-6.717,0.874C30.249,27.586,29.854,34.571,29.854,37.993"/>
	<path fill="#28210D" d="M28.025,37.731c0.401,11.977-1.354,34.066,1.53,35.982c0.55,0.363-0.937-18.633-0.129-34.544
		c0.784-15.574,12.555-13.064,13.569-16.515c-0.056-1.711-5.665,0.615-6.684,1.06C28.075,27.318,27.911,34.311,28.025,37.731"/>
	<path fill="#453514" d="M29.251,35.118c0,11.98-2.492,34.013,0.328,36.007c0.538,0.383-0.312-18.651,1.023-34.532
		c1.305-15.545,13.421-12.39,14.55-15.818c0-1.708-6.12,0.138-7.149,0.56C29.644,24.71,29.251,31.697,29.251,35.118"/>
	<path fill="#3B2812" d="M30.331,36.438c0,12.253-2.552,34.793,0.336,36.836c0.55,0.391-0.322-19.081,1.042-35.325
		c1.336-15.902,13.284-13.006,14.44-16.508c0-1.753-5.814,0.468-6.868,0.894C30.73,25.794,30.331,32.94,30.331,36.438"/>
	<path fill="#3B2812" d="M30.264,39.598c0,12.252-2.552,34.79,0.339,36.833c0.55,0.387-0.327-19.081,1.042-35.326
		c1.333-15.901,13.284-13.004,14.438-16.509c0-1.751-5.814,0.471-6.868,0.897C30.667,28.949,30.264,36.097,30.264,39.598"/>
	<path fill="#4B3118" d="M27.177,35.208c0,12.254-2.548,34.793,0.337,36.83c0.55,0.396-0.324-19.074,1.042-35.319
		c1.337-15.902,15.61-12.816,16.766-16.318c0-1.753-8.14,0.279-9.196,0.705C27.578,24.565,27.177,31.71,27.177,35.208"/>
	<path fill="#4B3118" d="M30.968,41.306c0,12.257-1.995,34.795,0.264,36.834c0.43,0.39-0.254-19.077,0.815-35.323
		C33.092,26.916,44.251,30,45.152,26.501c0-1.756-6.362,0.279-7.185,0.703C31.281,30.664,30.968,37.809,30.968,41.306"/>
	<path fill="#3B2812" d="M26.171,30.332c-3.627,11.522-2.548,32.097-0.441,34.712c0.403,0.5-1.948-12.228,1.001-30.994
		c2.425-15.431,17.494-12.857,18.761-13.996c1.346-1.21-5.607-0.963-6.723-0.82C29.705,20.416,27.21,27.042,26.171,30.332"/>
	<path fill="#326535" d="M54.413,70.179c-0.875,2.17-3.358,6.328-9.527,6.488h-0.023c-2.825,0.074-5.046-1.193-6.73-2.836
		c-0.076-2.483-0.17-4.4-0.17-4.4s-0.702-0.02-1.948,0.335c-0.83,0.235-1.562,0.854-1.562,0.854l0,0
		c-3.276,1.754-8.103,6.312-8.103,18.041c0,0,0.152,0.062,0.444,0.201h5.07h12.998h0.032h12.999h5.11
		c0.266-0.139,0.43-0.201,0.43-0.201C63.434,75.771,57.606,71.542,54.413,70.179"/>
	<path fill="#4F8E3A" d="M55.016,32.4c0,2.944-2.394,5.326-5.341,5.326h-19.54c-2.951,0-5.345-2.382-5.345-5.326
		c0-2.939,2.394-5.324,5.345-5.324h19.54C52.622,27.076,55.016,29.461,55.016,32.4"/>
	<path fill="#326535" d="M67.845,40.223c-1.275-4.844-4.587-11.867-6.927-15.128c-0.556-0.774-1.161-1.35-1.55-1.683
		c0.257-0.262,0.468-0.572,0.506-0.91c0.107-0.96,0.579-2.941-0.805-2.245c-1.305,0.655,0.286,1.019-0.474,2.089
		c-0.796-1.092-3.335-3.339-11.442-6.341c-11.681-4.331-14.705-0.643-18.563,1.281c-3.861,1.923-4.025,3.846-3.542,5.095
		c0.483,1.243,0.968,5.166,1.77,6.203c0.805,1.035,4.344-0.397,11.262,5.679C45,40.332,59.157,43.26,63.337,48.923
		c4.186,5.665,6.114,3.793,6.114,3.793s0.484-1.12,0.968-2.404C70.898,49.03,69.612,46.946,67.845,40.223"/>
	<circle cx="37.241" cy="44.905" r="1"/>
	<circle cx="51.491" cy="44.905" r="1"/>
</g>
</svg>
