<?xml version="1.0" encoding="utf-8"?>
<!-- Generator: Adobe Illustrator 16.0.3, SVG Export Plug-In . SVG Version: 6.00 Build 0)  -->
<!DOCTYPE svg PUBLIC "-//W3C//DTD SVG 1.1//EN" "http://www.w3.org/Graphics/SVG/1.1/DTD/svg11.dtd">
<svg version="1.1" id="Layer_1" xmlns="http://www.w3.org/2000/svg" xmlns:xlink="http://www.w3.org/1999/xlink" x="0px" y="0px"
	 width="88.9px" height="88.9px" viewBox="0 0 88.9 88.9" enable-background="new 0 0 88.9 88.9" xml:space="preserve">
<g>
	<rect x="-0.064" y="-0.04" fill="#B9C98E" width="89.028" height="88.98"/>
	<path fill="#DCC5A1" d="M43.601,55.821V88.94H25.537c-0.293-0.129-0.445-0.189-0.445-0.189c0-17.766,11.06-19.092,11.06-19.092
		h0.023c1.094-0.025,1.789-1.426,2.258-3.561c0.076-0.326,0.141-0.67,0.19-1.031c0.103-0.611,0.189-1.254,0.255-1.92
		c0.037-0.406,0.075-0.811,0.11-1.229c0.167-2.029,0.217-4.24,0.217-6.34C39.206,55.579,41.638,55.821,43.601,55.821"/>
	<path fill="#EDD9B4" d="M62.177,88.661v0.09c0,0-0.092,0.035-0.244,0.098h-0.012c-0.049,0.027-0.111,0.057-0.176,0.092H43.602
		V55.821h0.038c1.964,0,4.412-0.242,4.412-0.242c0,2.088,0.047,4.27,0.213,6.291c0.037,0.4,0.078,0.807,0.113,1.199
		c0.076,0.695,0.152,1.352,0.252,1.971v0.012c0.041,0.279,0.094,0.529,0.141,0.781c0.471,2.285,1.205,3.826,2.346,3.826
		c0,0,1.621,0.188,3.635,1.439C57.97,73.093,62.149,77.778,62.177,88.661"/>
	<path fill="#BC9F82" d="M48.636,65.04v0.014c-0.445,0.707-1.977,2.713-5.005,2.713h-0.025c-2.873-0.012-4.545-2.096-4.979-2.699
		c0.103-0.605,0.188-1.252,0.252-1.922c0.041-0.402,0.076-0.807,0.117-1.223c1.403,0.352,2.925,0.566,4.558,0.592h0.053
		c1.673-0.025,3.218-0.252,4.662-0.643c0.039,0.402,0.076,0.807,0.115,1.199C48.458,63.767,48.53,64.423,48.636,65.04"/>
	<rect x="38.625" y="61.87" fill="none" width="10.01" height="5.896"/>
	<path fill="#463E43" d="M59.946,77.134c-0.711-1.475-1.506-2.664-2.357-3.623c-0.938-1.07-1.928-1.855-2.838-2.412
		c-1.078,1.479-2.266,3.043-3.293,4.131c-0.305,0.328-0.596-1.908-0.875-1.691c-0.432,0.352-1.064,0.844-1.824,1.336
		c-0.838,1.918-2.043,4.066-3.468,5.795c-0.967,1.162-1.484,2.678-1.75,4.09c-0.059-0.291-0.123-0.588-0.205-0.887
		c0.105-2.24,0.155-4.432,0.155-4.432s-0.381,0.207-0.723,1.039c0.075-1.867,0.11-3.475,0.11-3.475s-0.433,0.234-0.793,1.223
		c0.057-0.824,0.08-1.377,0.08-1.377s-0.824,0.209-1.567,1.043c0.166-1.869,0.241-3.475,0.241-3.475s-1.178,0.293-1.985,1.605
		c-0.204-0.42-0.399-0.836-0.573-1.238c-0.673-0.568-1.164-1.199-1.381-1.857c-0.544-1.678,0.023-1.301-0.725-3.27h-0.023
		c0,0-3.42,0.406-6.447,3.824c-2.434,2.73-4.613,7.375-4.613,15.268c0,0,0.152,0.061,0.444,0.189h36.209
		c0.064-0.035,0.127-0.064,0.176-0.09h0.012c0.092-0.078,0.168-0.139,0.242-0.189C62.163,83.585,61.249,79.862,59.946,77.134
		 M34.28,82.886l-1.425,1.016l-1.221,3.551c0,0-0.865-2.334-0.713-2.486s-2.901,0.354-2.901,0.354l1.526-1.977l-1.219-0.152
		l-0.051-0.203c0.051-0.859,3.001-4.309,3.001-4.309l0.205,1.266l5.698-0.504l-5.598,2.332L34.28,82.886z M49.079,85.831
		l-0.051,0.086c-0.307,0.271-2.457,0.439-2.457,0.439l0.359-0.492l-2.08-1.732l2.66,1.086l-0.531-1.273l0.818,0.137l1.604-0.783
		c0,0-0.49,1.07-0.596,1.07c-0.1,0,1.094,0.85,1.094,0.85l-1.178,0.154L49.079,85.831z M56.509,80.911l-0.051,0.086
		c-0.309,0.273-2.457,0.443-2.457,0.443l0.359-0.494l-2.08-1.732l2.658,1.086l-0.529-1.273l0.82,0.135l1.602-0.781
		c0,0-0.492,1.072-0.596,1.072c-0.1,0,1.094,0.848,1.094,0.848l-1.18,0.154L56.509,80.911z"/>
	<path fill="#CCAD8B" d="M43.658,17.841c-19.137,0-19.248,15.966-18.394,26.413c-1.316-2.479-5.195-1.713-4.879,2.188
		c0.307,3.76,5.792,5.699,5.716,5.266c1.566,8.6,10.571,13.564,17.557,13.564c0.047,0,0.099-0.006,0.146-0.006V17.842
		C43.753,17.842,43.705,17.841,43.658,17.841"/>
	<path fill="#BC9F82" d="M21.608,44.793c0.948-1.507,2.404-0.855,2.761-0.525c0.383,0.364,0.685,0.842,0.451,1.729
		c-0.135,0.504-0.664,0.541-0.533,1.305c0.141,0.855,0.539,0.912,0.764,1.105c0.222,0.195,0.506,0.342,0.646,0.703
		c0.135,0.361,0.161,0.75,0.085,1.076c-0.146,0.615-1.047,0.127-1.653-0.148c-0.392-0.178-1.658-1.244-1.977-1.602
		C21.348,47.532,20.976,45.798,21.608,44.793"/>
	<path fill="#D9BF9F" d="M43.751,17.841c19.138,0,19.246,15.966,18.398,26.413c1.311-2.479,5.195-1.713,4.877,2.188
		c-0.309,3.76-5.795,5.699-5.721,5.266c-1.566,8.6-10.57,13.564-17.554,13.564c-0.048,0-0.1-0.006-0.146-0.006V17.842
		C43.657,17.842,43.704,17.841,43.751,17.841"/>
	<path fill="#BC9F82" d="M65.8,44.793c-0.941-1.507-2.404-0.855-2.762-0.525c-0.379,0.364-0.682,0.842-0.447,1.729
		c0.133,0.504,0.664,0.541,0.535,1.305c-0.141,0.855-0.541,0.912-0.77,1.105c-0.221,0.195-0.506,0.342-0.646,0.703
		c-0.131,0.361-0.156,0.75-0.082,1.076c0.146,0.615,1.049,0.127,1.65-0.148c0.398-0.178,1.662-1.244,1.98-1.602
		C66.063,47.532,66.433,45.798,65.8,44.793"/>
	<path fill="#DCC5A1" d="M43.491,22.341c-6.298,0-10.905,1.821-13.692,5.422c-3.896,5.022-3.75,12.697-2.311,18.205
		c0.439,1.684,0.66,6.221,0.965,7.889c1.357,7.449,9.605,11.416,15.038,11.416c0.05,0,0.103-0.006,0.149-0.006V22.345
		C43.589,22.345,43.541,22.341,43.491,22.341"/>
	<path fill="#EDD9B4" d="M57.159,27.769c-2.768-3.575-7.324-5.391-13.52-5.423v42.921c6.202-0.064,13.614-4.412,14.889-11.41
		c0.301-1.668,0.527-6.205,0.967-7.889C60.927,40.473,61.067,32.81,57.159,27.769"/>
	<path fill="#010300" d="M68.927,31.393c-1.023-8.816-9.891-10.967-12.049-11.364c-0.076-0.06-0.152-0.118-0.232-0.176
		c0.08-0.288,0.184-0.587,0.32-0.898c0.633-1.454,3.619-0.798,3.619-0.798c-0.646-1.01-2.414-1.712-4.025-1.107
		c-1.605,0.602-0.9,0.103-0.9,0.103s0.846-0.72-0.088-2.978c-0.928-2.257-2.732-2.733-2.732-2.733s1.359,1.61,1.359,3.013
		c0,1.404-1.27,3.761-1.959,3.401c-1.189-0.623-1.312-2.105-1.414-2.912c-0.102-0.798,0.828-2.784,0.828-2.784
		s-1.129,0.984-2.334,1.785c-0.41,0.27-0.66,0.587-0.824,0.893c0.188-0.608,0.369-1.34,0.211-1.917
		c-0.322-1.165-0.598-2.68,0.402-3.781c1.01-1.1,4.635-1.814,4.635-1.814s-4.076-0.039-5.396,0.242
		c-1.771,0.381-4.491,1.132-6.103,3.138c-1.61,2.006,0.237,4.941-0.066,4.746c-0.301-0.204-2.416-2.511-2.615-4.217
		c-0.199-1.698,0-2.1,0-2.1s-4.508,3.264-3.223,8.321c0.435,1.688,0.693,1.834,0.693,1.834l-2.197-0.893
		c-2.203-0.896-3.225-0.044-5.432-0.745c-2.215-0.702-2.519-3.006-2.519-3.006s-0.536,0.903-0.433,2.909
		c0.099,2.002,2.043,2.804,2.043,2.804s-0.541-0.138-2.349-0.041c-1.81,0.1-2.972,2.189-2.972,2.189s1.732-1.651,4.447-0.845
		c1.006,0.295,1.416,0.718,1.717,1.188c-0.133,0.129-0.272,0.259-0.401,0.385c-3.548,1.722-9.512,5.879-8.149,13.978
		c0,0,0.93-1.569,2.381-3.298c-1.255,9.884,7.88,17.715,7.88,17.715c-1.942-5.734-2.416-10.472-2.1-14.341l-0.158-0.138l0.187-0.236
		c0,0,1.907-9.434,3.668-4.344c0.021,0.182,0.044,0.356,0.076,0.516c0.211,1.167,1.003,2.813,2.513,4.012
		c0,0-1.57-2.163-0.267-5.334c0.747-1.809,2.235-3.159,3.754-4.03c0.022-0.013,0.049-0.026,0.073-0.038
		c0.9-0.51,1.81-0.847,2.574-1.01c-0.027,0.132-2.276,2.418,0.002,6.205c0,0-0.178-2.345,0.229-3.545
		c0.371-1.114,1.664-2.569,3.132-2.512c2.756,1.405,6.547,4.996,3.092,13.718c0,0,6.059-3.957,8.562-8.987
		c0.553-1.105,0.926-2.261,1.035-3.438c1.184,2.206,2.189,5.115,2.457,8.805c0.277,3.819-0.236,8.473-2.193,14.07
		c0,0,13.314-11.07,6.137-23.505C66.519,29.332,68.927,31.393,68.927,31.393"/>
	<path fill="#010300" d="M44.107,57.548c-0.192,2.523-4.989,2.293-7.49,2.293c1.249-1.137,4.51-3.693,7.005-3.693
		C43.622,56.147,44.142,57.185,44.107,57.548"/>
	<path fill="#010300" d="M43.756,57.548c0.196,2.523,4.997,2.293,7.495,2.293c-1.246-1.137-4.504-3.693-7.008-3.693
		C44.243,56.147,43.728,57.185,43.756,57.548"/>
	<path fill="#010300" d="M61.384,51.882c-0.709,1.205-2.527,1.432-3.92,3.125c-1.387,1.688-7.783,4.559-7.783,4.559
		s-0.133,2.498-3.955,2.512c-0.703,0.002-1.199-1.064-1.758-1.037c-0.006,0-0.009,0.002-0.015,0.002c0,0-0.008-0.002-0.018-0.002
		c-0.559-0.027-1.053,1.039-1.752,1.037c-3.826-0.014-3.958-2.512-3.958-2.512s-6.394-2.871-7.787-4.559
		c-1.389-1.693-3.208-1.92-3.916-3.125c-0.538-0.91,0.909,4.352,1.41,5.482c0.497,1.125,1.579,4.883,2.854,6.859
		c1.272,1.969,1.852,2.064,2.311,2.537c0.466,0.467,0-2.256,0-2.256s1.741,2.723,2.434,3.381c0.693,0.66,4.867,3.195,7.644,4.041
		c0.214,0.066,0.403,0.111,0.601,0.156v0.053c0.028-0.008,0.063-0.018,0.096-0.025c0.021,0.006,0.041,0.012,0.062,0.016v0.01
		c0.009-0.002,0.015-0.004,0.021-0.004s0.015,0.002,0.021,0.004v-0.01c0.019-0.004,0.041-0.01,0.058-0.016
		c0.033,0.008,0.071,0.018,0.101,0.025v-0.053c0.196-0.045,0.386-0.09,0.597-0.156c2.785-0.846,6.953-3.381,7.646-4.041
		c0.689-0.658,2.43-3.381,2.43-3.381s-0.465,2.723,0,2.256c0.461-0.473,1.039-0.568,2.314-2.537
		c1.275-1.977,2.352-5.734,2.855-6.859C60.474,56.233,61.921,50.972,61.384,51.882"/>
	<circle cx="37.078" cy="44.966" r="1"/>
	<circle cx="51.327" cy="44.966" r="1"/>
</g>
</svg>
