<?xml version="1.0" encoding="utf-8"?>
<!-- Generator: Adobe Illustrator 16.0.3, SVG Export Plug-In . SVG Version: 6.00 Build 0)  -->
<!DOCTYPE svg PUBLIC "-//W3C//DTD SVG 1.1//EN" "http://www.w3.org/Graphics/SVG/1.1/DTD/svg11.dtd">
<svg version="1.1" id="Layer_1" xmlns="http://www.w3.org/2000/svg" xmlns:xlink="http://www.w3.org/1999/xlink" x="0px" y="0px"
	 width="88.9px" height="88.9px" viewBox="0 0 88.9 88.9" enable-background="new 0 0 88.9 88.9" xml:space="preserve">
<g>
	<rect x="0.126" fill="#D2887E" width="88.648" height="89.225"/>
	<path fill="#DCC5A1" d="M46.423,55.955v33.119H28.354c-0.289-0.125-0.444-0.188-0.444-0.188c0-7.412,1.928-11.969,4.183-14.76
		c3.131-3.876,6.881-4.333,6.881-4.333h0.09c0.074-0.01,0.164-0.022,0.24-0.049c0.912-0.253,1.532-1.593,1.947-3.511
		c0.076-0.327,0.141-0.668,0.193-1.034c0.1-0.608,0.19-1.251,0.252-1.92c0.041-0.403,0.076-0.812,0.117-1.224
		c0.164-2.035,0.217-4.242,0.217-6.34C42.03,55.716,44.459,55.955,46.423,55.955"/>
	<path fill="#EDD9B4" d="M64.997,88.887c0,0-0.164,0.062-0.434,0.187H46.423V55.956h0.041c1.959,0,4.408-0.239,4.408-0.239
		c0,2.084,0.047,4.269,0.213,6.288c0.035,0.404,0.076,0.808,0.113,1.199c0.076,0.694,0.15,1.353,0.256,1.972v0.012
		c0.035,0.276,0.088,0.528,0.141,0.782c0.377,1.855,0.936,3.219,1.742,3.671c0.064,0.028,0.129,0.065,0.193,0.076
		c0.125,0.054,0.268,0.077,0.404,0.077c0,0,3.955,0.467,7.131,4.645C63.21,77.257,64.997,81.739,64.997,88.887"/>
	<path fill="#BC9F82" d="M51.454,65.183v0.01c-0.445,0.707-1.977,2.717-5.006,2.717h-0.021c-2.877-0.014-4.553-2.098-4.983-2.704
		c0.103-0.606,0.191-1.249,0.252-1.918c0.041-0.403,0.076-0.81,0.117-1.226c1.404,0.354,2.925,0.569,4.559,0.594h0.055
		c1.67-0.024,3.213-0.25,4.658-0.645c0.037,0.404,0.076,0.809,0.117,1.2C51.274,63.905,51.349,64.562,51.454,65.183"/>
	<rect x="41.444" y="62.011" fill="none" width="10.01" height="5.898"/>
	<path fill="#841720" d="M42.599,59.546c-0.032-0.429-0.664-0.876-1.372-1.251c0.006-0.039,0.012-0.06,0.012-0.06l-0.597-0.631
		c0.708-1.61,0.661-2.707,0.661-2.707l-1.43-2.877l-0.989,2.875c-0.091,0.211-0.167,0.402-0.245,0.596l-0.214-0.223
		c-0.056,0.403-0.082,0.725-0.104,1.01c-0.112,0.275-0.224,0.539-0.334,0.787c-0.217-0.963-0.556-1.877-0.556-1.877
		c-0.071,0.057-0.129,0.107-0.194,0.158c-0.127-1.188-0.707-2.73-0.707-2.73c-0.518,0.422-0.912,0.759-1.24,1.046
		c0.111-0.87,0.123-1.664,0.123-1.664c-0.207,0.067-0.403,0.129-0.586,0.192c0.369-1.154,0.398-2.982,0.398-2.982
		c-3.302,1.043-2.615,1.338-7.582,1.229c-3.437-0.076-4.358-1.006-4.358-1.006s2.246,2.754,5.552,3.809
		c-0.31-0.002-0.636-0.006-1.004-0.014c-3.431-0.078-4.361-1.006-4.361-1.006s2.866,3.51,6.89,4.121
		c-0.15,0.055-0.285,0.104-0.449,0.164c-3.223,1.169-4.422,0.639-4.422,0.639s2.984,1.685,6.368,1.545
		c-0.315,0.121-0.658,0.25-1.043,0.39c-3.228,1.169-4.43,0.644-4.43,0.644s3.979,2.246,7.957,1.336
		c-2.65,1.836-5.814,3.396-5.814,3.396s4.223-0.995,7.504-2.488c-0.022,0.042-0.043,0.075-0.069,0.12
		c-2.747,4.771-4.013,6.208-4.013,6.208s4.688-3.194,6.832-5.485c-0.176,0.579-0.41,1.287-0.723,2.196
		c-1.123,3.235-2.289,3.83-2.289,3.83S43.088,66.001,42.599,59.546"/>
	<path fill="#841720" d="M51.185,59.007c0.031-0.429,0.664-0.877,1.375-1.248c-0.012-0.039-0.018-0.064-0.018-0.064l0.596-0.628
		c-0.707-1.61-0.66-2.711-0.66-2.711l1.43-2.872l0.99,2.872c0.09,0.217,0.166,0.403,0.246,0.599l0.213-0.228
		c0.055,0.403,0.082,0.728,0.105,1.013c0.111,0.277,0.225,0.537,0.332,0.787c0.217-0.964,0.557-1.876,0.557-1.876
		c0.07,0.056,0.129,0.108,0.193,0.16c0.125-1.19,0.707-2.733,0.707-2.733c0.521,0.422,0.912,0.76,1.24,1.045
		c-0.111-0.869-0.125-1.662-0.125-1.662c0.211,0.065,0.406,0.129,0.588,0.19c-0.367-1.151-0.398-2.979-0.398-2.979
		c3.301,1.043,2.615,1.338,7.582,1.226c3.434-0.076,4.359-1.001,4.359-1.001s-2.248,2.75-5.555,3.808
		c0.309-0.005,0.637-0.012,1.006-0.018c3.434-0.077,4.361-1.005,4.361-1.005s-2.867,3.511-6.887,4.121
		c0.146,0.056,0.281,0.103,0.441,0.162c3.227,1.17,4.426,0.642,4.426,0.642s-2.982,1.685-6.371,1.549
		c0.322,0.116,0.662,0.243,1.047,0.384c3.229,1.172,4.43,0.641,4.43,0.641s-3.979,2.25-7.959,1.339
		c2.656,1.835,5.818,3.397,5.818,3.397s-4.225-0.998-7.506-2.49c0.023,0.043,0.041,0.078,0.07,0.123
		c2.746,4.77,4.016,6.207,4.016,6.207s-4.693-3.194-6.836-5.486c0.176,0.582,0.41,1.29,0.727,2.195
		c1.121,3.235,2.285,3.83,2.285,3.83S50.694,65.464,51.185,59.007"/>
	<path fill="#CCAD8B" d="M46.411,20.375c-18.856-0.033-18.966,15.066-18.127,24.909c-1.296-2.308-5.119-1.451-4.806,2.248
		c0.301,3.545,5.704,5.148,5.631,4.758c1.542,8.025,10.431,12.479,17.302,13.114c0.047,0.001,0.096,0,0.143,0.004V20.376
		C46.505,20.376,46.458,20.375,46.411,20.375"/>
	<path fill="#BC9F82" d="M24.426,45.968c0.948-1.43,2.405-0.812,2.764-0.496c0.38,0.342,0.682,0.797,0.448,1.641
		c-0.136,0.478-0.665,0.514-0.533,1.236c0.142,0.813,0.539,0.864,0.767,1.051c0.219,0.183,0.504,0.326,0.644,0.666
		c0.135,0.346,0.164,0.709,0.085,1.021c-0.146,0.588-1.044,0.121-1.653-0.138c-0.395-0.173-1.658-1.179-1.977-1.524
		C24.163,48.567,23.794,46.921,24.426,45.968"/>
	<path fill="#D9BF9F" d="M46.505,20.375c18.855-0.033,18.963,15.066,18.123,24.909c1.293-2.308,5.119-1.451,4.807,2.248
		c-0.301,3.545-5.707,5.148-5.631,4.758c-1.545,8.025-10.432,12.479-17.299,13.114c-0.047,0.001-0.1,0-0.146,0.004V20.376
		C46.405,20.376,46.458,20.375,46.505,20.375"/>
	<path fill="#BC9F82" d="M68.618,45.968c-0.945-1.43-2.404-0.812-2.76-0.496c-0.383,0.342-0.68,0.797-0.451,1.641
		c0.135,0.478,0.666,0.514,0.535,1.236c-0.141,0.813-0.541,0.864-0.764,1.051c-0.225,0.183-0.51,0.326-0.65,0.666
		c-0.131,0.346-0.16,0.709-0.08,1.021c0.143,0.588,1.047,0.121,1.648-0.138c0.398-0.173,1.662-1.179,1.979-1.524
		C68.882,48.567,69.251,46.921,68.618,45.968"/>
	<path fill="#DCC5A1" d="M46.308,24.648c-6.294,0-10.901,1.731-13.694,5.147c-3.895,4.767-3.748,12.055-2.309,17.288
		c0.439,1.596,0.661,5.905,0.965,7.489c1.36,7.072,9.609,10.841,15.038,10.841c0.051,0,0.104-0.005,0.15-0.005V24.654
		C46.405,24.654,46.358,24.648,46.308,24.648"/>
	<path fill="#EDD9B4" d="M59.978,29.803c-2.768-3.394-7.324-5.122-13.52-5.148v40.754c6.201-0.065,13.613-4.193,14.889-10.838
		c0.301-1.582,0.525-5.893,0.965-7.49C63.745,41.866,63.886,34.588,59.978,29.803"/>
	<path fill="#B47070" d="M49.626,59.019c0,0-1.424,1.518-3.178,1.518c-1.754,0-3.097-1.483-3.097-1.483s1.343-0.229,3.097-0.229
		C48.202,58.823,49.626,59.019,49.626,59.019"/>
	<path fill="#C17874" d="M47.351,58.318c-0.496,0-0.893,0.31-0.902,0.688c-0.008-0.379-0.404-0.688-0.896-0.688
		c-0.499,0-2.28,0.7-2.28,0.7s1.738,0.184,2.235,0.184c0.496,0,0.934,0.192,0.941-0.177c0.01,0.374,0.367,0.228,0.857,0.228
		c0.504,0,2.32-0.234,2.32-0.234S47.847,58.318,47.351,58.318"/>
	<path fill="#841720" d="M66.835,39.334c0,0.766-0.088,2.016-0.227,2.987c-0.078,0.621-0.178,1.113-0.279,1.315
		c-0.115,0.239-0.93,2.464-0.986,3.319c-0.383,0.369-0.814,0.848-1.107,1.619c-0.592,1.562-0.832,1.301-0.832,1.301
		s0.189-1.24,0.406-2.752c0.123-1.276,0.299-3.17,0.439-4.803c0.018-0.225,0.041-0.451,0.053-0.667
		c-0.268-1.312-2.75-7.614-14.555-7.021c-1.902,0.088-3.83-0.619-5.325-1.374c-1.545-0.772-2.621-1.591-2.724-1.591
		c-0.521,0-5.245-0.873-8.021,1.185c-0.178,0.125-0.342,0.266-0.494,0.406c-3.294,2.838-3.75,7.776-3.75,8.761
		c0,0.089,0,0.189,0.011,0.301c0.091,2.035,0.942,7.555,0.942,7.555s-0.231,0.262-0.84-1.301c-0.342-0.908-0.887-1.428-1.318-1.808
		c-0.658-1.39-1.023-1.817-1.355-3.131c-0.088-0.368-0.365-0.718-0.658-1.315c-0.635-1.236-1.356-3.521-0.597-9.062
		c0.038-0.254,0.077-0.507,0.118-0.772c0.579-3.789,3.469-12.297,11.098-13.812c7.625-1.527,9.401-3.297,15.631-0.758
		c6.236,2.525,10.174,4.305,12.09,8.485c0.863,1.906,1.418,4.481,1.746,6.857C66.724,36.098,66.835,38.635,66.835,39.334"/>
	<path fill="#FFFFFF" d="M64.997,88.887c0,0-0.164,0.062-0.434,0.187H28.354c-0.289-0.125-0.444-0.187-0.444-0.187
		c0-7.413,1.927-11.97,4.183-14.761c1.229,2.172,3.309,4.406,7.043,5.1c2.131,0.389,4.728,0.759,7.288,0.92
		c3.773,0.282,7.336-0.337,9.291-1.398c1.73-0.944,3.859-2.552,5.352-4.309C63.21,77.257,64.997,81.739,64.997,88.887"/>
	<path fill="#DCC5A1" d="M57.845,81.281c0,2.563-2.086,4.642-4.654,4.642c-2.572,0-4.656-2.078-4.656-4.642
		c0-2.561,2.084-4.639,4.656-4.639C55.759,76.643,57.845,78.721,57.845,81.281"/>
	<path fill="#841720" d="M56.091,81.281c0,1.597-1.299,2.89-2.9,2.89s-2.9-1.293-2.9-2.89c0-1.595,1.299-2.89,2.9-2.89
		S56.091,79.687,56.091,81.281"/>
	<circle cx="39.375" cy="46.34" r="1"/>
	<circle cx="53.624" cy="46.34" r="1"/>
</g>
</svg>
