<?xml version="1.0" encoding="utf-8"?>
<!-- Generator: Adobe Illustrator 16.0.3, SVG Export Plug-In . SVG Version: 6.00 Build 0)  -->
<!DOCTYPE svg PUBLIC "-//W3C//DTD SVG 1.1//EN" "http://www.w3.org/Graphics/SVG/1.1/DTD/svg11.dtd">
<svg version="1.1" id="Layer_1" xmlns="http://www.w3.org/2000/svg" xmlns:xlink="http://www.w3.org/1999/xlink" x="0px" y="0px"
	 width="88.9px" height="88.9px" viewBox="0 0 88.9 88.9" enable-background="new 0 0 88.9 88.9" xml:space="preserve">
<g>
	<rect x="0.008" y="0.026" fill="#001F3A" width="88.886" height="88.848"/>
	<path fill="#DCC5A1" d="M44.595,56.2v32.674H26.764c-0.283-0.123-0.436-0.184-0.436-0.184c0-17.529,10.912-18.838,10.912-18.838
		c0.451,0,0.826-0.223,1.15-0.645c0.465-0.611,0.828-1.611,1.104-2.869c0.072-0.322,0.137-0.658,0.187-1.021
		c0.099-0.598,0.185-1.23,0.249-1.891c0.038-0.402,0.076-0.797,0.114-1.211c0.161-2.006,0.21-4.186,0.21-6.254
		C40.254,55.962,42.657,56.2,44.595,56.2"/>
	<path fill="#EDD9B4" d="M62.919,88.692c0,0-0.164,0.059-0.422,0.182H44.595V56.2h0.035c1.937,0,4.353-0.238,4.353-0.238
		c0,2.053,0.051,4.213,0.211,6.205c0.037,0.4,0.076,0.799,0.111,1.184c0.076,0.684,0.152,1.332,0.25,1.941v0.014
		c0.035,0.275,0.088,0.521,0.139,0.775c0.363,1.779,0.9,3.113,1.66,3.586c0.203,0.125,0.414,0.188,0.652,0.188
		C52.007,69.854,62.919,71.161,62.919,88.692"/>
	<path fill="#BC9F82" d="M49.562,65.302v0.012c-0.441,0.695-1.953,2.676-4.942,2.676h-0.024c-2.837-0.012-4.487-2.066-4.908-2.666
		c0.097-0.6,0.181-1.232,0.246-1.893c0.035-0.402,0.076-0.797,0.11-1.209c1.39,0.346,2.891,0.561,4.502,0.586h0.05
		c1.65-0.025,3.173-0.25,4.599-0.635c0.041,0.395,0.076,0.795,0.113,1.184C49.384,64.04,49.46,64.687,49.562,65.302"/>
	<rect x="39.687" y="62.173" fill="none" width="9.875" height="5.816"/>
	<path fill="#B9C98E" d="M62.919,88.692c0,0-0.164,0.059-0.422,0.182H26.764c-0.284-0.123-0.436-0.182-0.436-0.182
		c0-17.531,10.912-18.838,10.912-18.838c0.451,0,0.826-0.225,1.15-0.646c1.352-0.24,2.764-0.363,4.215-0.363l1.749,2.988
		c0.041,0,0.13-0.023,0.24-0.086c0.91-0.426,3.902-2.318,4.224-2.318c0.875,0.039,1.305-0.125,2.117-0.002
		c0.199,0.123,0.832,0.428,1.07,0.428C52.007,69.854,62.919,71.161,62.919,88.692"/>
	<path fill="#536D40" d="M38.775,67.011c0,0-0.972,2.75-0.808,2.605c0.17-0.141,1.668,2.225,6.629,2.225
		c0,0-0.349-3.252-0.937-3.418C43.072,68.261,38.775,67.011,38.775,67.011"/>
	<path fill="#536D40" d="M50.417,67.011c0,0,0.971,2.75,0.803,2.605c-0.166-0.141-1.664,2.225-6.625,2.225
		c0,0,0.345-3.252,0.933-3.418C46.116,68.261,50.417,67.011,50.417,67.011"/>
	<path fill="#536D40" d="M42.197,85.497c0.567,0.438,1.077,0.91,2.065,1.148c-1.135-1.039-1.551-2.121-0.871-3.359
		c0.195,0.385,0.104,0.752,0.777,1.076c-0.217-0.469-0.328-0.9-0.305-1.316v-0.039c0.018-0.129,0.042-0.258,0.07-0.379
		c0.094-0.375,0.234-0.684,0.234-0.684c0.064,0.77,0.398,1.039,0.398,1.039c0.21-0.871,0.473-1.721,1.03-2.525
		c0,0,0.373-0.551,0.383-0.559c0.008-0.01-0.088,0.389-0.117,0.582c-0.219,1.375-0.156,2.713,1.793,3.898
		c0.131-0.609-0.029-1.088-0.334-1.555c0,0,0.629-0.221,1.266,1.146c0.186,0.363,0.279,0.742,0.209,1.148
		c-0.076,0.457-0.48,0.852-0.613,1.293c1.723-0.916,2.457-2.08,2.75-3.357c0.266-0.777,0.145-1.555-0.125-2.324
		c-0.248-0.701-0.607-1.387-1.385-2.035c0.484,3.35-1.373,2.529-1.373,2.529c0.387-0.303,0.57-0.709,0.658-1.086
		c0.041-0.172,0.059-0.334,0.064-0.48V79.63c0.004-0.039,0.006-0.076,0.006-0.115c0-0.066-0.006-0.129-0.006-0.182v-0.025
		c-0.006-0.031-0.006-0.059-0.008-0.084c-0.068-0.65-0.402-1.293-1.203-1.934c0,0,0.641,1.168-0.34,2.225
		c0,0-0.051-0.332-0.105-0.576c-0.211-0.967-0.926-1.771-1.737-2.553c-0.578-0.434-1.091-0.895-1.896-1.301
		c0.135,0.297,0.321,0.566,0.448,0.836c0.02,0.035,0.705,1.242,0.26,3.018l0.003-0.004c0,0-0.62,3.176-1.881,3.02
		c-1.062-0.221,0.069-2.238,0.085-2.26c0.066-0.16,0.107-0.32,0.05-0.486c-1.662,1.035-1.872,2.506-1.86,3.246
		c0.002,0.23,0.029,0.387,0.037,0.443c0.004,0.014,0.004,0.021,0.004,0.021C40.813,83.839,41.191,84.726,42.197,85.497"/>
	<path fill="#CCAD8B" d="M44.648,18.726c-18.884,0-18.99,15.754-18.149,26.062c-1.296-2.441-5.128-1.688-4.812,2.159
		c0.301,3.711,5.716,5.627,5.641,5.197c1.543,8.484,10.43,13.385,17.321,13.385c0.048,0,0.099-0.006,0.146-0.006V18.728
		C44.745,18.728,44.696,18.726,44.648,18.726"/>
	<path fill="#BC9F82" d="M22.891,45.322c0.936-1.485,2.372-0.845,2.726-0.521c0.377,0.359,0.672,0.831,0.442,1.709
		c-0.132,0.492-0.652,0.533-0.524,1.285c0.138,0.844,0.534,0.896,0.754,1.088c0.22,0.193,0.498,0.338,0.639,0.695
		c0.134,0.361,0.158,0.738,0.082,1.062c-0.145,0.607-1.036,0.123-1.627-0.145c-0.392-0.176-1.641-1.227-1.954-1.584
		C22.634,48.026,22.265,46.31,22.891,45.322"/>
	<path fill="#D9BF9F" d="M44.742,18.726c18.884,0,18.99,15.754,18.148,26.062c1.299-2.441,5.131-1.688,4.814,2.159
		c-0.305,3.711-5.715,5.627-5.639,5.197c-1.551,8.484-10.436,13.385-17.324,13.385c-0.047,0-0.099-0.006-0.146-0.006V18.728
		C44.649,18.728,44.695,18.726,44.742,18.726"/>
	<path fill="#BC9F82" d="M66.499,45.322c-0.936-1.485-2.375-0.845-2.729-0.521c-0.377,0.359-0.67,0.831-0.443,1.709
		c0.135,0.492,0.656,0.533,0.527,1.285c-0.139,0.844-0.531,0.896-0.754,1.088c-0.223,0.193-0.5,0.338-0.639,0.695
		c-0.135,0.361-0.158,0.738-0.082,1.062c0.145,0.607,1.035,0.123,1.627-0.145c0.395-0.176,1.639-1.227,1.953-1.584
		C66.757,48.026,67.122,46.31,66.499,45.322"/>
	<path fill="#DCC5A1" d="M44.485,23.166c-6.213,0-10.759,1.799-13.515,5.349c-3.843,4.956-3.696,12.526-2.28,17.96
		c0.435,1.664,0.657,6.141,0.959,7.787c1.34,7.35,9.477,11.264,14.836,11.264c0.047,0,0.099-0.004,0.146-0.004v-42.35
		C44.579,23.172,44.534,23.166,44.485,23.166"/>
	<path fill="#EDD9B4" d="M57.97,28.521c-2.732-3.522-7.229-5.32-13.34-5.349v42.351c6.118-0.068,13.432-4.355,14.692-11.26
		c0.299-1.645,0.52-6.123,0.953-7.785C61.687,41.056,61.825,33.495,57.97,28.521"/>
	<path fill="#536D40" d="M26.238,36.269c0,0,5.511-5.153,13.309-5.249c7.798-0.092,15.123,1.905,19.376,5.54
		c4.254,3.636,4.99,3.013,4.99,3.013s0.459-0.634,0.854-1.646c0.512-1.322,1.781-1.956,1.641-2.705
		c-0.143-0.755-0.459-2.925-0.225-3.595c0.229-0.672-0.686-4.711-4.139-7.582c-3.461-2.87-6.381-8.214-15.875-8.774
		c-9.495-0.56-8.02,1.406-10.069,1.829c-2.049,0.429-5.812,0.054-9.242,6.263c-1.492,2.698-0.948,4.631-1.258,6.085
		c-0.403,1.901-1.392,2.963-1.404,3.604C24.176,34.186,26.238,36.269,26.238,36.269"/>
	<circle cx="37.359" cy="42.922" r="1"/>
	<circle cx="51.608" cy="42.922" r="1"/>
</g>
</svg>
