<?xml version="1.0" encoding="utf-8"?>
<!-- Generator: Adobe Illustrator 16.0.3, SVG Export Plug-In . SVG Version: 6.00 Build 0)  -->
<!DOCTYPE svg PUBLIC "-//W3C//DTD SVG 1.1//EN" "http://www.w3.org/Graphics/SVG/1.1/DTD/svg11.dtd">
<svg version="1.1" id="Layer_1" xmlns="http://www.w3.org/2000/svg" xmlns:xlink="http://www.w3.org/1999/xlink" x="0px" y="0px"
	 width="88.9px" height="88.9px" viewBox="0 0 88.9 88.9" enable-background="new 0 0 88.9 88.9" xml:space="preserve">
<g>
	<rect x="0.006" y="0.027" fill="#653E59" width="88.887" height="88.846"/>
	<path fill="#D19A30" d="M46.515,46.235c-0.76,2.543-1.632,5.449-3.268,8.357c-1.635,2.906-6.604,6.645-6.777,10.633
		c-0.371,8.555,11.788,12.617,16.694,14.071c4.904,1.453,6.539,1.601,7.086,3.708c0.545,2.107,0.102,5.626,0.102,5.626
		s4.129-2.254,5.293-3.978c2.504-3.705-0.234-6.225-0.234-6.225s-1.018,0.868,0.182,2.833c1.199,1.961,1.199,3.706,0.762,4.216
		c-0.438,0.506-1.961,2.105-1.961,2.105s7.58-2.141,6.105-8.286c-0.256-1.05-0.945-0.28,0,0c2.105,0.629,1.711,4.094,1.711,4.094
		s5.139-6.63-5.271-10.384c-0.992-0.357-6.354-1.68-6.906-6.1c-0.307-2.449,1.49-2.661,1.82-5.656
		c0.424-3.874-5.143-3.057-7.283-6.709c-0.408-0.693,1.609-1.089,0-2.975c-1.945-2.275-2.66-2.1-5.436-3.444
		C46.351,46.778,46.515,46.235,46.515,46.235"/>
	<path fill="#DCC5A1" d="M44.455,55.793v33.069H26.413c-0.289-0.141-0.441-0.19-0.441-0.19c0-4.919,0.846-8.587,2.074-11.298
		c2.024-4.473,5.074-6.391,7.049-7.199c1.136-0.478,1.92-0.564,1.92-0.564h0.09c0.076-0.014,0.164-0.027,0.24-0.051
		c0.91-0.263,1.529-1.588,1.947-3.504c0.076-0.343,0.141-0.672,0.19-1.035c0.103-0.606,0.19-1.248,0.255-1.929
		c0.038-0.392,0.072-0.794,0.113-1.21c0.164-2.043,0.214-4.251,0.214-6.329C40.064,55.553,42.495,55.793,44.455,55.793"/>
	<path fill="#EDD9B4" d="M62.999,88.672c0,0-0.164,0.05-0.426,0.19H44.455V55.793h0.038c1.959,0,4.403-0.239,4.403-0.239
		c0,2.078,0.049,4.26,0.213,6.278c0.039,0.404,0.08,0.808,0.115,1.195c0.074,0.692,0.15,1.35,0.25,1.956v0.025
		c0.043,0.275,0.094,0.53,0.141,0.78c0.381,1.854,0.938,3.216,1.746,3.669c0.066,0.025,0.127,0.064,0.191,0.076
		c0.129,0.049,0.268,0.076,0.402,0.076c0,0,5.582,0.669,8.807,7.412C62.075,79.772,62.999,83.528,62.999,88.672"/>
	<path fill="#BC9F82" d="M49.474,64.993v0.014c-0.441,0.703-1.971,2.709-4.996,2.709h-0.024c-2.871-0.014-4.541-2.09-4.971-2.697
		c0.102-0.605,0.187-1.248,0.254-1.916c0.035-0.404,0.072-0.807,0.111-1.223c1.404,0.354,2.922,0.57,4.555,0.592h0.051
		c1.672-0.021,3.213-0.25,4.655-0.641c0.037,0.402,0.078,0.808,0.113,1.196C49.298,63.72,49.376,64.374,49.474,64.993"/>
	<rect x="39.483" y="61.83" fill="none" width="9.991" height="5.886"/>
	<path fill="#511E1E" d="M78.708,42.39c0,5.41-16.615,18.104-34.447,18.104C26.43,60.493,9.815,49.55,9.815,44.14
		c0-5.409,16.013-7.554,33.844-7.554C61.491,36.585,78.708,36.979,78.708,42.39"/>
	<path fill="#CCAD8B" d="M44.437,20.253C25.611,20.219,25.5,35.297,26.336,45.127c-1.286-2.306-5.106-1.452-4.794,2.245
		c0.302,3.537,5.697,5.142,5.623,4.752c1.541,8.009,10.416,12.457,17.272,13.092c0.05,0.003,0.099,0,0.146,0.004V20.256
		C44.536,20.256,44.487,20.253,44.437,20.253"/>
	<path fill="#BC9F82" d="M22.487,45.81c0.948-1.428,2.402-0.812,2.761-0.496c0.38,0.342,0.679,0.794,0.445,1.64
		c-0.132,0.474-0.661,0.511-0.529,1.233c0.143,0.812,0.538,0.863,0.763,1.048c0.222,0.185,0.503,0.325,0.644,0.669
		c0.138,0.341,0.164,0.705,0.084,1.02c-0.143,0.586-1.043,0.119-1.646-0.14c-0.397-0.172-1.661-1.177-1.977-1.521
		C22.23,48.408,21.858,46.763,22.487,45.81"/>
	<path fill="#D9BF9F" d="M44.534,20.253c18.829-0.034,18.938,15.044,18.098,24.874c1.291-2.306,5.113-1.452,4.801,2.245
		c-0.303,3.537-5.699,5.142-5.623,4.752c-1.541,8.009-10.414,12.457-17.276,13.092c-0.047,0.003-0.097,0-0.143,0.004V20.256
		C44.437,20.256,44.487,20.253,44.534,20.253"/>
	<path fill="#BC9F82" d="M66.618,45.81c-0.945-1.428-2.4-0.812-2.762-0.496c-0.379,0.342-0.676,0.794-0.447,1.64
		c0.135,0.474,0.664,0.511,0.535,1.233c-0.141,0.812-0.539,0.863-0.764,1.048s-0.506,0.325-0.646,0.669
		c-0.135,0.341-0.16,0.705-0.084,1.02c0.146,0.586,1.047,0.119,1.646-0.14c0.4-0.172,1.658-1.177,1.977-1.521
		C66.878,48.408,67.247,46.763,66.618,45.81"/>
	<path fill="#DCC5A1" d="M44.34,24.521c-6.285,0-10.89,1.729-13.675,5.138c-3.89,4.763-3.743,12.04-2.305,17.266
		c0.437,1.594,0.661,5.897,0.965,7.477c1.358,7.061,9.592,10.822,15.015,10.822c0.047,0,0.096-0.004,0.146-0.004V24.525
		C44.436,24.525,44.391,24.521,44.34,24.521"/>
	<path fill="#EDD9B4" d="M57.985,29.667c-2.764-3.391-7.312-5.115-13.498-5.141V65.22c6.191-0.062,13.591-4.186,14.867-10.818
		c0.299-1.58,0.527-5.883,0.965-7.477C61.751,41.715,61.892,34.448,57.985,29.667"/>
	<path fill="#B47070" d="M47.651,58.843c0,0-1.418,1.514-3.173,1.514c-1.749,0-3.089-1.484-3.089-1.484s1.34-0.229,3.089-0.229
		C46.233,58.644,47.651,58.843,47.651,58.843"/>
	<path fill="#C17874" d="M45.379,58.141c-0.494,0-0.89,0.31-0.901,0.688c-0.009-0.379-0.403-0.688-0.896-0.688
		c-0.496,0-2.275,0.702-2.275,0.702s1.732,0.179,2.232,0.179c0.492,0,0.93,0.195,0.938-0.17c0.009,0.37,0.366,0.228,0.857,0.228
		c0.5,0,2.316-0.236,2.316-0.236S45.876,58.141,45.379,58.141"/>
	<path fill="#111111" d="M41.88,47.161c0,2.258-3.34,4.498-7.266,4.594c-0.082,0.007-0.175,0.007-0.267,0.007
		c-0.33,0-0.651-0.007-0.941-0.019c-4.762-0.219-5.426-2.151-5.426-4.332c0-2.308-1.393-4.172,6.83-4.172
		c1.248,0,2.27,0.037,3.121,0.112c1.152,0.092,1.975,0.257,2.557,0.476C42.307,44.495,41.88,45.686,41.88,47.161"/>
	<path fill="#111111" d="M61.423,47.41c0,2.315-0.758,4.351-6.367,4.351c-0.24,0-0.48-0.006-0.703-0.026
		c-0.426-0.019-0.836-0.076-1.234-0.154c-3.158-0.581-5.598-2.496-5.598-4.419c0-2.305-1.021-3.922,7.072-3.922
		c1.205,0,2.201,0.038,3.023,0.111c2.201,0.201,3.184,0.647,3.594,1.268C61.728,45.362,61.423,46.331,61.423,47.41"/>
	<path fill="#070707" d="M43.373,43.965c-0.485-0.076-1.647-0.367-2.835-0.599c-1.044-0.203-2.115-0.348-2.699-0.408
		c-1.428-0.143-5.061-0.244-7.318-0.094c-2.678,0.183-4.724,0.4-4.829,0.557c-0.074,0.107-0.237,1.53-0.018,1.682
		c0.214,0.156,0.968,0.457,1.153,0.963c0.185,0.502,0.925,4.121,2.582,5.115c2.726,1.626,11.892,1.698,13.47-4.242
		c0.221-0.812,0.504-1.283,0.998-1.416c0.217-0.062,0.553-0.104,0.884-0.099v-1.372C44.314,44.071,43.905,44.052,43.373,43.965
		 M41.442,47.474c-1.428,4.657-8.33,4.112-9.998,3.745c-0.737-0.159-2.881-0.763-3.223-4.552c-0.24-2.631,1.49-2.791,3.942-3.016
		c1.998-0.182,3.767-0.103,4.968,0.01c1.198,0.105,3.994,0.531,4.27,1.254C41.678,45.637,41.752,46.456,41.442,47.474"/>
	<path fill="#070707" d="M44.586,44.052v1.371c0.334-0.006,0.664,0.039,0.885,0.1c0.496,0.132,0.779,0.605,0.996,1.416
		c1.582,5.939,10.744,5.869,13.475,4.243c1.654-0.995,2.396-4.615,2.58-5.117c0.186-0.506,0.939-0.805,1.152-0.961
		c0.217-0.153,0.057-1.575-0.02-1.683c-0.1-0.155-2.152-0.375-4.826-0.555c-2.266-0.152-5.889-0.051-7.318,0.092
		c-0.586,0.062-1.656,0.205-2.703,0.408c-1.186,0.232-2.346,0.522-2.832,0.598C45.437,44.052,45.035,44.07,44.586,44.052
		 M47.948,44.915c0.273-0.722,3.07-1.148,4.27-1.254c1.199-0.113,2.973-0.19,4.967-0.01c2.451,0.225,4.186,0.385,3.943,3.016
		c-0.346,3.789-2.486,4.393-3.225,4.553c-1.666,0.365-8.568,0.91-9.996-3.746C47.597,46.456,47.669,45.638,47.948,44.915"/>
	<path fill="#E3B142" d="M64.878,30.599c-0.246-0.778-0.504-1.499-0.762-2.193v-0.3c0-2.932-2.396-6.735-6.213-10.426
		c-3.816-3.693-6.217-2.934-9.377-2.827c0,0-0.008,0.024-0.023,0.062c-1.387-0.321-8.851-1.92-13.286-0.151
		c-4.908,1.956-8.924,5.313-11.758,14.33c-2.835,9.015-0.509,16.401,0.041,19.552c1.74,9.977,10.097,16.295,10.097,16.295
		s-2.112-2.666-3.054-5.324c-0.731-2.06-1.826-5.6-1.826-10.814c0-5.213,4.769-11.67,4.769-11.67s-2.2,4.049-2.633,8.504
		c-0.437,4.453,1.869,7.896,1.869,7.896s-2.919-5.783,1.747-10.101c1.482-1.375,2.726-2.81,3.726-4.118
		c0,0.003-0.003,0.005-0.003,0.01c-1.17,3.414,1.182,6.281,1.182,6.281s-0.043-4.379,2.391-5.867
		c5.932-3.621,6.877-5.119,7.709-8.035c0.115-0.4,0.18-0.764,0.223-1.121l5.424,8.435c0.25,0.366,0.666,0.985,1.146,1.789
		c1.406,2.338,3.352,6.17,3.352,9.5c0,5.215-1.094,8.758-1.826,10.816c-0.939,2.656-3.053,5.322-3.053,5.322
		s8.355-6.317,10.098-16.295C65.384,46.999,67.712,39.613,64.878,30.599"/>
	<path fill="#841720" d="M67.396,25.852H22.376c0,0-0.082-1.006,0-1.328c1.62-6.241,7.629-13.734,21.894-13.734
		c13.827,0,21.157,7.32,23.125,13.734C67.493,24.841,67.396,25.852,67.396,25.852"/>
	<path fill="#AA6568" d="M67.396,33.896H22.376v-8.044c0,0,7.629-5.581,21.894-5.581c13.827,0,23.125,5.581,23.125,5.581V33.896z"/>
	<path fill="#841720" d="M43.659,36.585c-12.53,0.4-33.533,6.323-33.533,6.323s12.987-16.063,33.138-16.089
		c17.877-0.022,35.444,14.475,35.444,14.475S51.896,36.32,43.659,36.585"/>
	<path fill="#841720" d="M58.431,71.546c-2.428-1.16-5.312-1.889-5.156-1.543c1.574,2.205,0.988,4.052,0.727,7.218
		c-0.006,0.097-0.016,0.185-0.027,0.278c-0.979-0.686-2.168-1.092-3.455-1.092c-2.799,0-5.146,1.904-5.824,4.481
		c-0.094-0.003-0.182-0.005-0.274-0.005c-0.048,0-0.092,0.002-0.139,0.002c-0.682-2.576-3.027-4.479-5.824-4.479
		c-1.339,0-2.576,0.442-3.58,1.182c-0.012-0.119-0.025-0.24-0.035-0.368c-0.263-3.166-0.848-5.013,0.727-7.218
		c0.154-0.346-2.727,0.383-5.157,1.543c-2.431,1.158-4.409,2.74-4.409,2.74s1.817,0.598,2.563,2.829
		c0.38,1.11,0.61,3.127,0.739,4.99c0.264,3.784,2.168,5.481,2.057,6.757H44.42h13.063c-0.115-1.275,1.791-2.973,2.053-6.757
		c0.131-1.863,0.361-3.88,0.74-4.99c0.746-2.231,2.564-2.829,2.564-2.829S60.864,72.704,58.431,71.546"/>
</g>
</svg>
