<?xml version="1.0" encoding="utf-8"?>
<!-- Generator: Adobe Illustrator 16.0.3, SVG Export Plug-In . SVG Version: 6.00 Build 0)  -->
<!DOCTYPE svg PUBLIC "-//W3C//DTD SVG 1.1//EN" "http://www.w3.org/Graphics/SVG/1.1/DTD/svg11.dtd">
<svg version="1.1" id="Layer_1" xmlns="http://www.w3.org/2000/svg" xmlns:xlink="http://www.w3.org/1999/xlink" x="0px" y="0px"
	 width="88.9px" height="88.9px" viewBox="0 0 88.9 88.9" enable-background="new 0 0 88.9 88.9" xml:space="preserve">
<g>
	<rect x="0.007" y="0.026" fill="#C58B8E" width="88.885" height="88.848"/>
	<path fill="#3B2B16" d="M48.044,43.42c-0.81,2.702-1.738,5.791-3.472,8.88c-1.741,3.088-7.018,7.062-7.205,11.301
		c-0.391,9.088,12.531,13.408,17.744,14.954c5.211,1.541,6.949,1.698,7.528,3.938c0.579,2.236,0.104,5.978,0.104,5.978
		s4.389-2.396,5.629-4.225c2.662-3.937-0.251-6.616-0.251-6.616s-1.079,0.925,0.192,3.01c1.275,2.084,1.275,3.94,0.813,4.48
		c-0.462,0.542-2.085,2.238-2.085,2.238s8.052-2.275,6.484-8.804c-0.267-1.118-1-0.302,0,0c2.24,0.666,1.819,4.351,1.819,4.351
		s5.464-7.047-5.603-11.034c-1.053-0.384-6.747-1.786-7.338-6.483c-0.328-2.604,1.586-2.83,1.934-6.011
		c0.453-4.118-5.464-3.25-7.74-7.127c-0.43-0.741,1.711-1.158,0-3.164c-2.062-2.421-2.822-2.228-5.777-3.659
		C47.871,43.998,48.044,43.42,48.044,43.42"/>
	<path fill="#DCC5A1" d="M45.855,53.576v35.14H26.685c-0.31-0.146-0.471-0.199-0.471-0.199c0-5.227,0.897-9.125,2.203-12.007
		c2.153-4.754,5.393-6.791,7.491-7.649c1.207-0.51,2.041-0.603,2.041-0.603h0.097c0.079-0.013,0.173-0.026,0.252-0.054
		c0.971-0.281,1.629-1.688,2.071-3.723c0.08-0.361,0.151-0.711,0.203-1.099c0.106-0.644,0.199-1.325,0.27-2.051
		c0.039-0.415,0.077-0.84,0.117-1.285c0.179-2.172,0.232-4.519,0.232-6.728C41.191,53.319,43.773,53.576,45.855,53.576"/>
	<path fill="#EDD9B4" d="M65.564,88.516c0,0-0.176,0.054-0.459,0.2h-19.25V53.575h0.041c2.082,0,4.675-0.256,4.675-0.256
		c0,2.209,0.056,4.532,0.231,6.674c0.037,0.427,0.082,0.855,0.119,1.271c0.082,0.736,0.164,1.434,0.27,2.076v0.029
		c0.041,0.291,0.094,0.56,0.146,0.828c0.404,1.971,0.998,3.418,1.861,3.899c0.063,0.026,0.129,0.065,0.198,0.08
		c0.135,0.054,0.283,0.08,0.43,0.08c0,0,5.93,0.712,9.357,7.878C64.582,79.057,65.564,83.046,65.564,88.516"/>
	<path fill="#BC9F82" d="M51.191,63.353v0.015c-0.471,0.749-2.096,2.879-5.312,2.879h-0.023c-3.053-0.011-4.826-2.224-5.282-2.869
		c0.104-0.64,0.199-1.323,0.269-2.034c0.035-0.428,0.076-0.857,0.117-1.3c1.492,0.377,3.106,0.604,4.842,0.63h0.055
		c1.773-0.025,3.41-0.266,4.947-0.682c0.037,0.429,0.082,0.857,0.119,1.271C51.004,62.001,51.084,62.695,51.191,63.353"/>
	<rect x="40.573" y="59.991" fill="none" width="10.618" height="6.256"/>
	<path fill="#CCAD8B" d="M45.838,15.807C25.83,15.772,25.713,31.793,26.606,42.242c-1.373-2.45-5.432-1.541-5.099,2.386
		c0.319,3.758,6.055,5.465,5.973,5.051c1.638,8.511,11.068,13.234,18.357,13.908c0.051,0.006,0.105,0,0.158,0.008V15.811
		C45.94,15.811,45.889,15.807,45.838,15.807"/>
	<path fill="#BC9F82" d="M22.511,42.968c1.006-1.518,2.554-0.866,2.934-0.527c0.403,0.363,0.725,0.842,0.474,1.741
		c-0.142,0.505-0.702,0.544-0.562,1.312c0.149,0.861,0.573,0.916,0.81,1.115c0.233,0.191,0.536,0.346,0.688,0.707
		c0.139,0.366,0.168,0.752,0.088,1.084c-0.16,0.625-1.113,0.127-1.757-0.146c-0.418-0.184-1.761-1.252-2.097-1.619
		C22.236,45.729,21.841,43.977,22.511,42.968"/>
	<path fill="#D9BF9F" d="M45.938,15.807c20.008-0.035,20.125,15.986,19.235,26.435c1.372-2.45,5.429-1.541,5.099,2.386
		c-0.318,3.758-6.055,5.465-5.973,5.051c-1.639,8.511-11.066,13.234-18.361,13.908c-0.05,0.006-0.104,0-0.148,0.008V15.811
		C45.836,15.811,45.888,15.807,45.938,15.807"/>
	<path fill="#BC9F82" d="M69.408,42.968c-1.002-1.518-2.553-0.866-2.934-0.527c-0.406,0.363-0.723,0.842-0.475,1.741
		c0.139,0.505,0.703,0.544,0.565,1.312c-0.149,0.861-0.571,0.916-0.813,1.115c-0.233,0.191-0.535,0.346-0.684,0.707
		c-0.141,0.366-0.171,0.752-0.089,1.084c0.153,0.625,1.109,0.127,1.75-0.146c0.425-0.184,1.761-1.252,2.101-1.619
		C69.684,45.729,70.076,43.977,69.408,42.968"/>
	<path fill="#DCC5A1" d="M45.732,20.344c-6.681,0-11.571,1.838-14.531,5.462c-4.133,5.062-3.979,12.793-2.448,18.343
		c0.462,1.697,0.702,6.271,1.026,7.948c1.439,7.506,10.191,11.504,15.953,11.504c0.054,0,0.105-0.005,0.156-0.005V20.351
		C45.835,20.351,45.789,20.344,45.732,20.344"/>
	<path fill="#EDD9B4" d="M60.235,25.812c-2.937-3.601-7.772-5.436-14.347-5.461v43.244c6.581-0.07,14.445-4.449,15.798-11.498
		c0.322-1.679,0.562-6.251,1.026-7.947C64.234,38.615,64.384,30.892,60.235,25.812"/>
	<path fill="#B47070" d="M49.252,56.816c0,0-1.51,1.608-3.373,1.608c-1.859,0-3.282-1.576-3.282-1.576s1.423-0.243,3.282-0.243
		C47.742,56.605,49.252,56.816,49.252,56.816"/>
	<path fill="#C17874" d="M46.838,56.071c-0.525,0-0.947,0.329-0.959,0.73c-0.006-0.401-0.43-0.73-0.95-0.73
		c-0.529,0-2.419,0.745-2.419,0.745s1.843,0.191,2.371,0.191c0.525,0,0.992,0.207,0.998-0.181c0.01,0.392,0.393,0.239,0.912,0.239
		c0.533,0,2.461-0.25,2.461-0.25S47.365,56.071,46.838,56.071"/>
	<path fill="#4D1913" d="M67.561,26.802c-0.264-0.826-0.535-1.592-0.813-2.33v-0.317c0-3.118-2.548-7.157-6.599-11.081
		c-4.055-3.923-6.608-3.117-9.967-3.003c0,0-0.009,0.023-0.025,0.064c-1.475-0.342-9.401-2.038-14.12-0.159
		c-5.209,2.079-9.479,5.646-12.493,15.229c-3.013,9.577-0.538,17.429,0.047,20.774c1.849,10.604,10.727,17.318,10.727,17.318
		s-2.244-2.834-3.244-5.658c-0.778-2.189-1.937-5.953-1.937-11.491c0-5.541,5.063-12.404,5.063-12.404s-2.338,4.305-2.797,9.039
		c-0.465,4.731,1.983,8.394,1.983,8.394s-3.1-6.146,1.858-10.735c1.572-1.463,2.895-2.986,3.96-4.376
		c0,0.003-0.003,0.006-0.003,0.01c-1.243,3.626,1.255,6.673,1.255,6.673s-0.046-4.65,2.542-6.231
		c6.304-3.849,7.304-5.443,8.193-8.541c0.119-0.425,0.188-0.812,0.233-1.191l5.763,8.962c0.27,0.392,0.711,1.051,1.223,1.902
		c1.492,2.484,3.557,6.556,3.557,10.096c0,5.543-1.16,9.305-1.939,11.493c-1,2.825-3.243,5.657-3.243,5.657
		s8.881-6.713,10.729-17.316C68.098,44.231,70.572,36.383,67.561,26.802"/>
	<path fill="#FDFBF8" d="M60.709,70.317c-2.582-1.233-5.646-2.008-5.481-1.643c1.673,2.344,1.047,4.309,0.772,7.67
		c-0.427,5.23-3.838,3.953-10.18,3.893c-6.341,0.061-9.752,1.338-10.179-3.893c-0.278-3.361-0.901-5.326,0.772-7.67
		c0.163-0.365-2.896,0.409-5.482,1.643c-2.582,1.227-4.687,2.91-4.687,2.91s1.935,0.636,2.728,3.006
		c0.404,1.183,0.648,3.322,0.783,5.305c0.281,4.021,2.306,5.824,2.188,7.178H45.82h13.877c-0.12-1.354,1.907-3.156,2.188-7.178
		c0.138-1.982,0.381-4.122,0.785-5.305c0.791-2.37,2.726-3.006,2.726-3.006S63.293,71.544,60.709,70.317"/>
	<path fill="#D7D8DC" d="M43.036,68.657c0.298,4.541-1.688,9.687-2.136,11.164c-0.594,1.981-2.182,4.258-2.182,4.258
		s1.715,0.154,1.969,0.145s2.494,0.566,3.062-1.134c0.57-1.706,2.734-12.729,2.553-13.011c-0.178-0.284-0.701-1.422-0.701-1.422
		H43.036z"/>
	<path fill="#434142" d="M40.029,64.7c1.236,0.424,3.609,1.262,5.935,1.174c2.325-0.091,6.052-0.845,6.052-0.845
		s1.691,1.965,0.27,2.767c-1.421,0.805-10.361,2.011-13.215-0.145C38.613,67.308,40.029,64.7,40.029,64.7"/>
	<path fill="#434142" d="M44.2,65.767c0.228-0.156,1.218,0,1.937,0c0.72,0,1.006-0.221,1.623,0c0.614,0.218,0.998,1.941,0.998,2.208
		s0.002,0.847-0.287,0.878c-0.293,0.025,0.006,1.645,0.047,2.35c0.789,12.295-1.041,15.389-1.422,15.61
		c-0.381,0.22-6.789,0.397-6.789,0.397s1.746-3.906,2.42-6.055c1.804-5.751,2.033-11.998,2.033-11.998s-0.75,0.233-0.75-0.429
		C44.01,68.064,43.586,66.187,44.2,65.767"/>
	<circle cx="38.535" cy="44.188" r="1"/>
	<circle cx="52.785" cy="44.188" r="1"/>
</g>
</svg>
