<?xml version="1.0" encoding="utf-8"?>
<!-- Generator: Adobe Illustrator 16.0.3, SVG Export Plug-In . SVG Version: 6.00 Build 0)  -->
<!DOCTYPE svg PUBLIC "-//W3C//DTD SVG 1.1//EN" "http://www.w3.org/Graphics/SVG/1.1/DTD/svg11.dtd">
<svg version="1.1" id="Layer_1" xmlns="http://www.w3.org/2000/svg" xmlns:xlink="http://www.w3.org/1999/xlink" x="0px" y="0px"
	 width="88.9px" height="88.9px" viewBox="0 0 88.9 88.9" enable-background="new 0 0 88.9 88.9" xml:space="preserve">
<g>
	<rect x="0.008" y="0.027" fill="#751819" width="88.885" height="88.846"/>
	<path fill="#DCC5A1" d="M44.439,55.744v33.118H26.374c-0.29-0.127-0.444-0.188-0.444-0.188c0-17.765,11.06-19.093,11.06-19.093
		h0.091c0.076-0.01,0.163-0.02,0.237-0.047c0.915-0.256,1.532-1.592,1.953-3.51c0.076-0.332,0.138-0.67,0.193-1.039
		c0.1-0.605,0.188-1.246,0.251-1.918c0.038-0.402,0.076-0.808,0.111-1.225c0.167-2.033,0.217-4.242,0.217-6.336
		C40.043,55.507,42.477,55.744,44.439,55.744"/>
	<path fill="#EDD9B4" d="M63.014,88.674c0,0-0.167,0.062-0.43,0.188H44.439V55.744h0.038c1.966,0,4.411-0.237,4.411-0.237
		c0,2.078,0.05,4.264,0.21,6.286c0.041,0.403,0.082,0.806,0.117,1.2c0.076,0.693,0.155,1.351,0.252,1.969v0.014
		c0.041,0.275,0.094,0.528,0.143,0.781c0.377,1.855,0.937,3.223,1.747,3.673c0.064,0.027,0.125,0.064,0.188,0.077
		c0.128,0.055,0.269,0.074,0.408,0.074C51.953,69.581,63.014,70.909,63.014,88.674"/>
	<path fill="#BC9F82" d="M49.465,64.968v0.01c-0.438,0.707-1.975,2.714-5.002,2.714h-0.026c-2.873-0.01-4.546-2.096-4.976-2.698
		c0.097-0.608,0.185-1.252,0.248-1.92c0.038-0.404,0.079-0.812,0.117-1.229c1.404,0.357,2.926,0.57,4.558,0.595h0.053
		c1.673-0.024,3.218-0.251,4.663-0.644c0.038,0.406,0.076,0.809,0.114,1.201C49.292,63.689,49.362,64.347,49.465,64.968"/>
	<rect x="39.461" y="61.796" fill="none" width="10.004" height="5.896"/>
	<path fill="#FDFBF8" d="M55.394,80.874c-2.761-1.832-2.867-4.216-2.867-5.912c-0.011-0.002-0.017-0.004-0.028-0.007
		c0.003-0.011,0.012-0.024,0.012-0.034c-0.026-0.277,1.217-4.836,1.217-4.836c-0.626-0.27-1.904-0.554-1.904-0.554
		c-1.247,0.692-1.272,4.63-1.272,4.63v0.016c-0.205,1.465-0.415,4.133-0.681,4.865c-2.883,7.833-8.068,7.991-10.848,0
		c-0.236-0.688-0.468-2.943-0.661-4.428h0.003c0,0-0.151-5.225-1.047-5.08c-0.889,0.14-2.641,0.783-2.641,0.783
		c1.205,0.994,1.638,4.181,1.693,4.643l-0.007,0.002c0,1.696-0.104,4.08-2.862,5.912c-5.31,3.518-3.777,6.768-2.905,7.98h13.824
		h13.877C59.167,87.642,60.699,84.392,55.394,80.874"/>
	<path fill="#CCAD8B" d="M44.425,20.16c-18.858-0.033-18.966,15.063-18.127,24.912c-1.295-2.312-5.119-1.453-4.807,2.244
		c0.303,3.547,5.704,5.15,5.632,4.76c1.542,8.024,10.431,12.479,17.302,13.111c0.044,0.006,0.097,0,0.143,0.008V20.163
		C44.519,20.163,44.469,20.16,44.425,20.16"/>
	<path fill="#BC9F82" d="M22.437,45.753c0.951-1.432,2.407-0.813,2.765-0.496c0.383,0.34,0.685,0.795,0.45,1.639
		c-0.138,0.479-0.663,0.516-0.532,1.238c0.141,0.815,0.539,0.863,0.764,1.05c0.222,0.183,0.506,0.327,0.646,0.67
		c0.135,0.341,0.157,0.707,0.081,1.019c-0.143,0.588-1.044,0.12-1.649-0.137c-0.393-0.175-1.658-1.184-1.978-1.525
		C22.18,48.354,21.808,46.706,22.437,45.753"/>
	<path fill="#D9BF9F" d="M44.519,20.16c18.854-0.033,18.961,15.063,18.124,24.912c1.293-2.312,5.119-1.453,4.809,2.244
		c-0.304,3.547-5.71,5.15-5.631,4.76C60.272,60.1,51.39,64.555,44.519,65.187c-0.05,0.006-0.103,0-0.146,0.008V20.163
		C44.419,20.163,44.469,20.16,44.519,20.16"/>
	<path fill="#BC9F82" d="M66.635,45.753c-0.944-1.432-2.407-0.813-2.764-0.496c-0.38,0.34-0.679,0.795-0.451,1.639
		c0.138,0.479,0.667,0.516,0.538,1.238c-0.14,0.815-0.541,0.863-0.766,1.05c-0.226,0.183-0.507,0.327-0.646,0.67
		c-0.135,0.341-0.164,0.707-0.085,1.019c0.146,0.588,1.047,0.12,1.65-0.137c0.396-0.175,1.66-1.184,1.979-1.525
		C66.895,48.354,67.264,46.706,66.635,45.753"/>
	<path fill="#DCC5A1" d="M44.325,24.435c-6.298,0-10.905,1.731-13.698,5.147c-3.896,4.769-3.747,12.052-2.308,17.282
		c0.436,1.601,0.661,5.909,0.965,7.492c1.36,7.075,9.606,10.842,15.041,10.842c0.047,0,0.099-0.003,0.143-0.003V24.438
		C44.419,24.438,44.372,24.435,44.325,24.435"/>
	<path fill="#EDD9B4" d="M57.991,29.587c-2.767-3.394-7.324-5.122-13.523-5.148v40.755C50.67,65.129,58.085,61,59.36,54.354
		c0.301-1.582,0.525-5.89,0.968-7.492C61.761,41.649,61.899,34.372,57.991,29.587"/>
	<path fill="#B47070" d="M47.64,58.804c0,0-1.422,1.518-3.177,1.518c-1.756,0-3.099-1.485-3.099-1.485s1.343-0.229,3.099-0.229
		C46.218,58.606,47.64,58.804,47.64,58.804"/>
	<path fill="#C17874" d="M45.36,58.103c-0.49,0-0.889,0.309-0.897,0.688c-0.009-0.38-0.406-0.688-0.898-0.688
		c-0.497,0-2.281,0.701-2.281,0.701s1.737,0.18,2.234,0.18s0.937,0.197,0.945-0.17c0.006,0.371,0.366,0.225,0.856,0.225
		c0.5,0,2.32-0.234,2.32-0.234S45.86,58.103,45.36,58.103"/>
	<path fill="#442C38" d="M57.43,26.98c-1.661,2.916-1.199,6.21-6.833,8.37c-5.631,2.166-8.161,2.756-14.307,5.364
		c-13.93,5.912-6.777,19.606-6.777,19.606s-3.814-3.522-5.201-7.189c-1.386-3.671-6.722-19.648,0-32.274
		c3.692-6.931,10.525-8.527,16.524-8.995c5.999-0.473,10.275,0.022,14.616,3.787c0.942,0.816,3.656,1.004,6.632,2.996
		c6.648,4.462,6.104,11.034,6.394,15.23c0.372,5.363-0.436,9.194-1.723,12.86c-1.3,3.67-9.132,14.504-9.132,14.504
		s6.096-13.236,2.709-21.837c-1.983-5.037-5.529-4.753-5.682-6.708C54.492,30.739,57.43,26.98,57.43,26.98"/>
	<circle cx="37.248" cy="45.905" r="1"/>
	<circle cx="51.498" cy="45.905" r="1"/>
</g>
</svg>
