<?xml version="1.0" encoding="utf-8"?>
<!-- Generator: Adobe Illustrator 16.0.3, SVG Export Plug-In . SVG Version: 6.00 Build 0)  -->
<!DOCTYPE svg PUBLIC "-//W3C//DTD SVG 1.1//EN" "http://www.w3.org/Graphics/SVG/1.1/DTD/svg11.dtd">
<svg version="1.1" id="Layer_1" xmlns="http://www.w3.org/2000/svg" xmlns:xlink="http://www.w3.org/1999/xlink" x="0px" y="0px"
	 width="88.9px" height="88.9px" viewBox="0 0 88.9 88.9" enable-background="new 0 0 88.9 88.9" xml:space="preserve">
<g>
	<rect x="0.008" y="0.007" fill="#895A59" width="88.886" height="88.838"/>
	<path fill="#DCC5A1" d="M46.497,56.212V88.89H28.67c-0.289-0.121-0.438-0.186-0.438-0.186c0-17.529,10.913-18.836,10.913-18.836
		c1.088,0,1.788-1.396,2.25-3.512c0.076-0.326,0.137-0.662,0.19-1.025c0.099-0.598,0.187-1.234,0.248-1.891
		c0.037-0.4,0.073-0.799,0.111-1.209c0.163-2.004,0.213-4.184,0.213-6.252C42.159,55.979,44.558,56.212,46.497,56.212"/>
	<path fill="#EDD9B4" d="M64.823,88.704c0,0-0.162,0.062-0.424,0.186H46.497V56.212h0.039c1.936,0,4.348-0.234,4.348-0.234
		c0,2.059,0.051,4.213,0.215,6.205c0.035,0.398,0.076,0.795,0.111,1.184c0.076,0.684,0.152,1.332,0.25,1.941v0.014
		c0.035,0.273,0.086,0.523,0.139,0.771c0.463,2.256,1.184,3.775,2.311,3.775C53.909,69.868,64.823,71.175,64.823,88.704"/>
	<path fill="#BC9F82" d="M51.462,65.308v0.014c-0.439,0.699-1.951,2.678-4.938,2.678h-0.027c-2.837-0.014-4.491-2.066-4.911-2.668
		c0.098-0.598,0.187-1.234,0.247-1.891c0.038-0.398,0.074-0.799,0.112-1.209c1.389,0.35,2.887,0.561,4.5,0.584h0.051
		c1.652-0.023,3.174-0.244,4.602-0.633c0.035,0.398,0.076,0.795,0.109,1.184C51.284,64.05,51.362,64.698,51.462,65.308"/>
	<rect x="41.585" y="62.183" fill="none" width="9.875" height="5.816"/>
	<path fill="#4D1913" d="M34.861,53.028c-0.342-0.256-6.573-4.088-6.573-4.088c0.428,2.385,0.746,3.361,0.123,4.979
		c-0.564,1.457-1.644,2.021-2.24,2.529c-0.597,0.514-1.813,0.898-2.234,0.898c-0.433,0-0.913-0.08-0.913-0.08
		s0.992,0.547,3.472,0.438c1.045-0.043,1.706-0.305,2.133-0.605c-0.488,0.791-0.947,1.924-0.433,2.971
		c1.875,3.814-0.626,5.062-0.626,5.062s2.217-0.223,3.486-1.336c0.007,0.025,0.004,0.064,0.012,0.088
		c0.562,1.91,2.048,2.127,2.048,2.127s-0.937-0.16-0.758-1.934c0.05-0.473,0.541-0.658,1.153-0.977
		c0.238,1.711,1.015,3.459-0.588,4.172c0,0,2.707-0.535,3.203-2.141c0.09-0.295,0.137-0.564,0.184-0.838
		c0.041,0.148,0.099,0.289,0.129,0.447c0.386,2.045-1.174,4.029-1.174,4.029s5.625-0.596,5.666-2.82
		c0.006-0.336,0.076-1.697,0.246-2.207s0.515-3.061,0.515-3.061S35.203,53.28,34.861,53.028"/>
	<path fill="#4D1913" d="M58.142,53.028c0.346-0.256,6.576-4.088,6.576-4.088c-0.428,2.385-0.748,3.361-0.123,4.979
		c0.564,1.457,1.641,2.021,2.24,2.529c0.598,0.514,1.811,0.898,2.234,0.898c0.43,0,0.914-0.08,0.914-0.08s-0.992,0.547-3.477,0.438
		c-1.041-0.043-1.701-0.305-2.133-0.605c0.492,0.791,0.951,1.924,0.434,2.971c-1.875,3.814,0.629,5.062,0.629,5.062
		s-2.217-0.223-3.49-1.336c-0.002,0.025-0.002,0.064-0.008,0.088c-0.564,1.91-2.051,2.127-2.051,2.127s0.939-0.16,0.758-1.934
		c-0.047-0.473-0.539-0.658-1.152-0.977c-0.236,1.711-1.012,3.459,0.59,4.172c0,0-2.709-0.535-3.205-2.141
		c-0.088-0.295-0.135-0.564-0.182-0.838c-0.047,0.148-0.098,0.289-0.131,0.447c-0.381,2.045,1.172,4.029,1.172,4.029
		s-5.621-0.596-5.662-2.82c-0.006-0.336-0.076-1.697-0.246-2.207c-0.172-0.51-0.514-3.061-0.514-3.061S57.804,53.28,58.142,53.028"
		/>
	<path fill="#CCAD8B" d="M46.55,18.737c-18.884,0-18.993,15.752-18.151,26.062c-1.295-2.442-5.127-1.688-4.814,2.159
		c0.304,3.711,5.717,5.625,5.641,5.193c1.549,8.486,10.433,13.385,17.325,13.385c0.045,0,0.096-0.006,0.143-0.006V18.741
		C46.644,18.741,46.595,18.737,46.55,18.737"/>
	<path fill="#BC9F82" d="M24.793,45.332c0.932-1.486,2.372-0.848,2.723-0.518c0.38,0.356,0.676,0.827,0.445,1.708
		c-0.133,0.49-0.656,0.529-0.527,1.283c0.141,0.844,0.533,0.898,0.755,1.092c0.222,0.191,0.497,0.336,0.638,0.691
		c0.135,0.361,0.158,0.742,0.082,1.064c-0.141,0.607-1.029,0.123-1.627-0.146c-0.393-0.176-1.639-1.229-1.954-1.582
		C24.533,48.036,24.17,46.321,24.793,45.332"/>
	<path fill="#D9BF9F" d="M46.64,18.737c18.885,0,18.99,15.752,18.154,26.062c1.293-2.442,5.125-1.688,4.811,2.159
		c-0.301,3.711-5.719,5.625-5.643,5.193c-1.543,8.486-10.43,13.385-17.322,13.385c-0.047,0-0.096-0.006-0.143-0.006V18.741
		C46.548,18.741,46.593,18.737,46.64,18.737"/>
	<path fill="#BC9F82" d="M68.397,45.332c-0.93-1.486-2.373-0.848-2.727-0.518c-0.375,0.356-0.672,0.827-0.441,1.708
		c0.131,0.49,0.654,0.529,0.527,1.283c-0.139,0.844-0.531,0.898-0.758,1.092c-0.221,0.191-0.498,0.336-0.637,0.691
		c-0.133,0.361-0.16,0.742-0.084,1.064c0.146,0.607,1.035,0.123,1.631-0.146c0.395-0.176,1.637-1.229,1.953-1.582
		C68.653,48.036,69.022,46.321,68.397,45.332"/>
	<path fill="#DCC5A1" d="M46.386,23.179c-6.215,0-10.76,1.796-13.517,5.348c-3.843,4.955-3.696,12.53-2.276,17.96
		c0.434,1.662,0.656,6.139,0.955,7.785c1.34,7.35,9.477,11.266,14.838,11.266c0.045,0,0.096-0.006,0.143-0.006v-42.35
		C46.479,23.182,46.437,23.179,46.386,23.179"/>
	<path fill="#EDD9B4" d="M59.87,28.535c-2.734-3.527-7.229-5.326-13.34-5.353V65.53c6.119-0.064,13.432-4.354,14.688-11.258
		c0.299-1.645,0.521-6.123,0.957-7.785C63.589,41.07,63.729,33.508,59.87,28.535"/>
	<path fill="#4D1913" d="M67.181,34.058c-0.105-0.269-0.252-0.533-0.398-0.767c-0.363-2.686-2.27-8.064-4.139-10.764
		c-1.945-2.806-6.713-5.29-12.836-6.034c-6.127-0.744-11.46,3.577-11.46,3.577s-0.944-1.407-1.758-1.818
		c-0.813-0.413-3.142,0.078-3.142,0.078s1.58,0.441,1.89,0.855c0.588,0.778,0.315,1.519,0.315,1.519s-1.845-0.796-2.655-0.816
		c-1.486-0.042-3.15,1.832-3.15,1.832s1.39-0.976,2.72-0.938c0.437,0.013,1.642,0.584,1.642,0.584s-2.194,0.229-6.306,4.718
		c-3.107,3.383-3.107,7.859-3.107,7.859l2.602-1.488c0,0-0.677,0.786-1.004,1.604c-1.917,4.751,0.707,9.516,0.707,9.516
		s0.855,0.087,1.639,1.913c1.056,2.479,1.72,5.549,1.72,5.549h0.913c0,0-1.969-7.65-0.645-11.812c0.369-1.148,1.358-3.5,2.738-3.581
		c0,0,0.907-0.793,1.314-2.366c0.4-1.577,2.512-4.208,3.646-4.702c1.139-0.496,1.784,0.248,1.784,0.248s1.788-1.403,5.032-1.98
		c3.243-0.579,5.028,2.887,5.739,4.706c0.709,1.815,0.342,2.725,0.342,2.725s1.381-2.23,1.221-4.463
		c-0.053-0.714-0.203-1.268-0.375-1.699c0.422,0.214,2.27,0.729,2.645,5.499c0.182,2.26-1.867,3.8-1.867,3.8
		s4.559-1.881,3.617-7.684c0.971,1.041,1.971,2.516,2.232,3.55c0.404,1.573,3.818,5.227,4.049,5.947
		c1.326,4.162-0.641,11.812-0.641,11.812h0.914c0,0,0.66-3.07,1.719-5.549c0.781-1.826,1.639-1.913,1.639-1.913
		S69.099,38.809,67.181,34.058 M51.71,27.26c-0.023-0.032-0.045-0.067-0.066-0.094l0.074,0.074L51.71,27.26z"/>
	<path fill="#FDFBF8" d="M64.899,88.708c0,0-0.15,0.061-0.439,0.186H28.607c-0.302-0.125-0.447-0.186-0.447-0.186
		c0-0.525,0.013-1.049,0.022-1.543c0.054-1.146,0.15-2.234,0.287-3.227c0.115-0.85,0.252-1.635,0.439-2.383
		c0.064-0.334,0.152-0.66,0.237-0.984c0.125-0.436,0.251-0.857,0.389-1.27c0.111-0.334,0.233-0.66,0.362-0.975
		c0.363-0.906,0.771-1.729,1.211-2.453c0.802-1.355,1.714-2.416,2.627-3.225c0.761-0.699,1.512-1.209,2.212-1.607
		c0.015,0,0.038-0.012,0.049-0.023c0.015-0.014,0.026-0.014,0.026-0.014c0.088,0.211,0.586,0.783,1.463,1.645
		c0.848,0.834,2.074,1.93,3.636,3.225c0.103,0.076,0.214,0.18,0.325,0.268c3.24,2.611,6.938,2.611,10.165,0
		c0.113-0.088,0.225-0.191,0.324-0.268c1.574-1.295,2.803-2.391,3.65-3.225c0.879-0.861,1.363-1.434,1.463-1.645
		c0,0,0.012,0,0.012,0.014c0.014,0.012,0.053,0.023,0.064,0.023c0.701,0.398,1.451,0.908,2.213,1.607
		c0.91,0.809,1.812,1.869,2.625,3.225c0.436,0.725,0.848,1.547,1.199,2.453c0.125,0.314,0.252,0.641,0.363,0.975
		c0.148,0.412,0.275,0.834,0.4,1.27c0.088,0.324,0.162,0.65,0.236,0.984c0.176,0.748,0.314,1.533,0.426,2.383
		c0.137,0.992,0.236,2.08,0.289,3.227C64.888,87.659,64.899,88.183,64.899,88.708"/>
	<path fill="#A1556B" d="M37.485,72.649c0.848,0.834,2.074,1.93,3.636,3.225H31.108c0.802-1.355,1.715-2.416,2.627-3.225H37.485z"/>
	<path fill="#A1556B" d="M61.962,75.874H51.935c1.574-1.293,2.803-2.391,3.65-3.225h3.75C60.249,73.458,61.149,74.519,61.962,75.874
		"/>
	<path fill="#A1556B" d="M46.237,80.028c-2.129,0-3.856,1.719-3.856,3.838c0,2.121,1.727,3.838,3.856,3.838
		c0.303,0,0.602-0.035,0.889-0.104c1.217-0.287,2.205-1.146,2.674-2.277c0.059-0.141,0.107-0.287,0.148-0.436
		c0.092-0.324,0.139-0.666,0.139-1.021C50.087,81.747,48.364,80.028,46.237,80.028"/>
	<path fill="#FFFFFF" d="M47.919,83.868c-0.33-1.33-1.564-1.457-1.564-1.457h-0.02h-0.139c-0.234,0-0.445,0.156-0.445,0.35v0.025
		c0.281,0.006,0.68,0.203,0.68,0.203c0.037,0.014,0.082,0.033,0.123,0.055c0.289,0.143,0.619,0.404,0.877,0.879
		c0,0-0.357-0.521-1.088-0.816c-0.105-0.043-0.223-0.084-0.352-0.113c-0.047-0.012-0.094-0.023-0.143-0.031l-0.004-0.002
		c-0.002,0-0.01-0.002-0.01-0.002c-0.172-0.057-0.172,0.098-0.184,0.221c-0.006,0.088-0.023,0.16-0.104,0.135
		c-0.061-0.021-0.118,0.029-0.171,0.109l-0.497,0.705c-0.041,0.055-0.072,0.107-0.094,0.156c-0.398,0.221-0.182,0.352-0.164,0.363
		v0.002c0.023,0.016,0.082,0.002,0.082,0.002c0.018,0.027,0.041,0.068,0.064,0.129c0,0.02,0,0.041-0.006,0.064
		c0,0.006-0.002,0.01-0.006,0.016c-0.035,0.137-0.07,0.289-0.006,0.385c0,0,0.003,0,0.003,0.002c0.003,0.004,0.009,0.01,0.015,0.018
		c0,0,0.006,0.004,0.006,0.006c0.006,0.006,0.012,0.012,0.018,0.016c0.012,0.01,0.023,0.018,0.038,0.025
		c0.017,0.004,0.038,0.01,0.062,0.01c0.035-0.002,0.082-0.018,0.129-0.062c0.076-0.096,0.041-0.256,0.006-0.398
		c-0.004-0.006-0.006-0.01-0.006-0.016c-0.039-0.182,0.104-0.234,0.104-0.234s0.035-0.021,0.071,0.012
		c0.017,0.018,0.035,0.045,0.025,0.096c-0.002,0.002-0.002,0.004-0.002,0.008c-0.018,0.061-0.033,0.129-0.004,0.174l0.004,0.002
		c0,0,0,0.004,0.006,0.006c0,0,0,0.004,0.002,0.004c0.004,0.004,0.004,0.006,0.01,0.01c0.006,0.002,0.011,0.006,0.017,0.01
		c0.007,0.002,0.019,0.004,0.027,0.004c0.017,0,0.038-0.008,0.058-0.029h0.004c0.034-0.043,0.017-0.117,0-0.18V84.72
		c-0.013-0.051,0.006-0.08,0.02-0.096l0.003,0.002c0,0,0,0.006,0.006,0.008v0.004c0.003,0.002,0.006,0.002,0.006,0.002
		c0.003,0.006,0.007,0.008,0.013,0.01s0.014,0.004,0.02,0.004c0.016,0,0.025-0.006,0.043-0.02v-0.002
		c0.021-0.021,0.018-0.061,0.01-0.096c0.014,0.01,0.031,0.029,0.025,0.074l-0.002,0.002c-0.012,0.047-0.023,0.096-0.004,0.127v0.002
		c0,0.002,0.006,0.004,0.006,0.004l0.004,0.004c0,0,0.002,0.006,0.006,0.008c0.002,0.002,0.01,0.004,0.012,0.008
		c0.006,0.002,0.014,0.002,0.02,0.002c0.012,0,0.027-0.006,0.041-0.021c0.029-0.031,0.018-0.084,0.004-0.133l-0.004-0.002
		c-0.002-0.031,0.004-0.047,0.012-0.061c0,0,0.059-0.053,0.094,0.016c0.004,0.014,0.006,0.033,0,0.055v0.006
		c-0.018,0.062-0.035,0.131-0.006,0.17v0.002c0.004,0.002,0.006,0.002,0.01,0.006l0.002,0.004c0,0.002,0.006,0.006,0.006,0.008
		c0.006,0.004,0.012,0.006,0.018,0.01c0.008,0.004,0.018,0.006,0.029,0.006c0.014,0,0.035-0.01,0.053-0.029
		c0.035-0.039,0.021-0.111,0.002-0.176c0-0.002,0-0.004-0.002-0.006c-0.014-0.08,0.047-0.104,0.047-0.104v-0.006v0.006
		c0,0,0.1-0.008,0.236-0.021c0.592-0.045,1.021-0.094,1.32-0.137C47.97,84.226,47.923,83.899,47.919,83.868 M45.278,84.376
		c-0.088,0.033-0.176,0.02-0.194-0.031c-0.017-0.047,0.041-0.113,0.132-0.145c0.092-0.031,0.176-0.018,0.193,0.029
		C45.426,84.28,45.368,84.345,45.278,84.376 M45.974,83.214c0.129,0.021,0.223,0.098,0.211,0.164
		c-0.012,0.07-0.129,0.107-0.252,0.086c-0.129-0.021-0.223-0.096-0.211-0.164C45.733,83.229,45.845,83.192,45.974,83.214
		 M46.026,84.118c-0.205,0.074-0.404,0.045-0.445-0.066c-0.041-0.113,0.094-0.262,0.299-0.334s0.404-0.041,0.441,0.068
		C46.362,83.897,46.231,84.048,46.026,84.118 M46.856,84.265c-0.119,0.043-0.236,0.025-0.262-0.041s0.057-0.154,0.178-0.199
		c0.123-0.041,0.24-0.025,0.266,0.045C47.062,84.132,46.979,84.224,46.856,84.265"/>
	<circle cx="39.536" cy="45.132" r="1"/>
	<circle cx="53.786" cy="45.132" r="1"/>
</g>
</svg>
