<?xml version="1.0" encoding="utf-8"?>
<!-- Generator: Adobe Illustrator 16.0.3, SVG Export Plug-In . SVG Version: 6.00 Build 0)  -->
<!DOCTYPE svg PUBLIC "-//W3C//DTD SVG 1.1//EN" "http://www.w3.org/Graphics/SVG/1.1/DTD/svg11.dtd">
<svg version="1.1" id="Layer_1" xmlns="http://www.w3.org/2000/svg" xmlns:xlink="http://www.w3.org/1999/xlink" x="0px" y="0px"
	 width="88.9px" height="88.9px" viewBox="0 0 88.9 88.9" enable-background="new 0 0 88.9 88.9" xml:space="preserve">
<g>
	<rect x="0.006" y="-0.053" fill="#7A94A4" width="88.889" height="88.851"/>
	<path fill="#DCC5A1" d="M45.567,55.698v33.115H27.502c-0.293-0.123-0.444-0.188-0.444-0.188c0-10.805,4.095-15.529,7.301-17.572
		c2.064-1.314,3.762-1.518,3.762-1.518h0.087c0.076-0.01,0.164-0.021,0.24-0.049c0.913-0.252,1.533-1.59,1.951-3.498
		c0.079-0.34,0.143-0.682,0.19-1.049c0.103-0.604,0.192-1.25,0.255-1.918c0.038-0.404,0.075-0.809,0.113-1.227
		c0.164-2.031,0.218-4.238,0.218-6.338C41.175,55.458,43.607,55.698,45.567,55.698"/>
	<path fill="#EDD9B4" d="M64.142,88.626c0,0-0.164,0.064-0.43,0.188H45.567V55.698h0.041c1.959,0,4.408-0.24,4.408-0.24
		c0,2.088,0.05,4.27,0.216,6.289c0.038,0.406,0.073,0.811,0.115,1.199c0.076,0.695,0.151,1.352,0.251,1.971v0.014
		c0.038,0.277,0.088,0.527,0.14,0.781c0.381,1.855,0.937,3.221,1.75,3.674c0.064,0.025,0.125,0.076,0.188,0.076
		c0.129,0.053,0.269,0.074,0.409,0.074c0,0,1.138,0.139,2.685,0.912C59.04,72.087,64.142,76.571,64.142,88.626"/>
	<path fill="#BC9F82" d="M50.593,64.927v0.012c-0.445,0.709-1.975,2.715-5.005,2.715h-0.026c-2.873-0.014-4.546-2.094-4.979-2.701
		c0.105-0.607,0.19-1.25,0.252-1.92c0.041-0.404,0.078-0.809,0.116-1.225c1.404,0.354,2.929,0.57,4.561,0.594h0.05
		c1.673-0.023,3.217-0.25,4.663-0.645c0.04,0.404,0.078,0.811,0.113,1.199C50.417,63.651,50.49,64.306,50.593,64.927"/>
	<rect x="40.583" y="61.757" fill="none" width="10.01" height="5.895"/>
	<path fill="#895A59" d="M64.142,88.626c0,0-0.164,0.064-0.43,0.188H27.414c-0.293-0.123-0.444-0.188-0.444-0.188
		c0-10.805,4.475-16.486,8.395-18.178c2.946,2.967,6.418,7.596,7.354,8.469c1.585,1.484,2.553,4.014,3.554,3.377
		c1.02-0.648,6.581-8.463,9.474-11.846C59.022,72.087,64.142,76.571,64.142,88.626"/>
	<path fill="#4B3118" d="M37.526,70.331c0.359,0.742,4.344,5.123,5.432,6.416c1.085,1.295,1.639,1.1,2.358,3.584
		c0.725,2.49,0.232,8.457,0.232,8.457s-0.348-5.074-1.796-6.367c-1.443-1.297-9.365-5.246-9.365-5.246l2.969-0.984l-8.038-3.195
		c0,0,2.513-1.768,4.83-2.762c2.315-0.994,4.247-1.596,4.247-1.596L37.526,70.331z"/>
	<path fill="#4B3118" d="M53.688,70.493c-0.363,0.748-4.347,5.125-5.433,6.42c-1.088,1.293-1.635,1.1-2.36,3.588
		c-0.726,2.486-0.233,8.451-0.233,8.451s0.349-5.074,1.796-6.367c1.45-1.293,9.366-5.244,9.366-5.244l-2.966-0.984l8.038-3.197
		c0,0-2.517-1.764-4.83-2.762c-2.319-0.994-4.25-1.596-4.25-1.596L53.688,70.493z"/>
	<path fill="#CCAD8B" d="M45.55,20.119c-18.858-0.036-18.966,15.064-18.13,24.91c-1.293-2.311-5.113-1.451-4.804,2.248
		c0.302,3.545,5.707,5.152,5.635,4.76c1.539,8.021,10.428,12.479,17.299,13.113c0.047,0,0.099,0,0.146,0.004V20.12
		C45.644,20.12,45.597,20.119,45.55,20.119"/>
	<path fill="#BC9F82" d="M23.564,45.716c0.948-1.433,2.404-0.814,2.765-0.499c0.38,0.342,0.682,0.795,0.447,1.641
		c-0.135,0.475-0.66,0.512-0.532,1.236c0.141,0.811,0.542,0.863,0.767,1.051c0.222,0.178,0.503,0.326,0.644,0.668
		c0.138,0.342,0.16,0.707,0.085,1.018c-0.144,0.59-1.048,0.121-1.65-0.135c-0.398-0.176-1.658-1.184-1.98-1.527
		C23.305,48.315,22.933,46.665,23.564,45.716"/>
	<path fill="#D9BF9F" d="M45.644,20.119c18.854-0.036,18.966,15.064,18.127,24.91c1.293-2.311,5.116-1.451,4.805,2.248
		c-0.304,3.545-5.706,5.152-5.63,4.76C61.4,60.058,52.515,64.515,45.644,65.149c-0.047,0-0.1,0-0.146,0.004V20.12
		C45.546,20.12,45.597,20.119,45.644,20.119"/>
	<path fill="#BC9F82" d="M67.763,45.716c-0.948-1.433-2.407-0.814-2.767-0.499c-0.38,0.342-0.68,0.795-0.448,1.641
		c0.135,0.475,0.664,0.512,0.536,1.236c-0.142,0.811-0.539,0.863-0.768,1.051c-0.222,0.178-0.506,0.326-0.646,0.668
		c-0.135,0.342-0.161,0.707-0.085,1.018c0.146,0.59,1.047,0.121,1.649-0.135c0.398-0.176,1.661-1.184,1.983-1.527
		C68.021,48.315,68.392,46.665,67.763,45.716"/>
	<path fill="#DCC5A1" d="M45.45,24.392c-6.298,0-10.905,1.734-13.695,5.149c-3.896,4.767-3.75,12.055-2.311,17.286
		c0.438,1.6,0.664,5.904,0.968,7.49c1.36,7.074,9.606,10.842,15.038,10.842c0.047,0,0.099-0.006,0.146-0.006V24.396
		C45.546,24.396,45.497,24.392,45.45,24.392"/>
	<path fill="#EDD9B4" d="M59.116,29.546c-2.77-3.392-7.324-5.121-13.52-5.15v40.757c6.2-0.064,13.613-4.191,14.889-10.836
		c0.304-1.586,0.525-5.891,0.968-7.49C62.884,41.611,63.027,34.334,59.116,29.546"/>
	<path fill="#B47070" d="M48.768,58.765c0,0-1.426,1.514-3.181,1.514c-1.752,0-3.094-1.484-3.094-1.484s1.342-0.227,3.094-0.227
		C47.342,58.567,48.768,58.765,48.768,58.765"/>
	<path fill="#C17874" d="M46.492,58.062c-0.498,0-0.896,0.309-0.904,0.689c-0.009-0.381-0.406-0.689-0.898-0.689
		c-0.497,0-2.278,0.703-2.278,0.703s1.737,0.182,2.234,0.182c0.494,0,0.934,0.195,0.942-0.174c0.009,0.371,0.366,0.23,0.86,0.23
		c0.5,0,2.319-0.238,2.319-0.238S46.985,58.062,46.492,58.062"/>
	<path fill="#FDFDFD" d="M60.339,14.997c-0.48,0-0.872,0.354-0.942,0.809H26.958h-0.301c-0.07-0.455-0.467-0.809-0.939-0.809
		c-0.533,0-0.96,0.428-0.96,0.954c0,0.525,0.427,0.953,0.96,0.953c0.473,0,0.869-0.352,0.939-0.809h0.301h32.138h0.301
		c0.07,0.457,0.462,0.809,0.942,0.809c0.527,0,0.956-0.428,0.956-0.953C61.295,15.425,60.866,14.997,60.339,14.997"/>
	<path fill="#FDFDFD" d="M65.402,31.93c-0.33-2.377-0.886-4.952-1.746-6.856c-1.398-3.047-3.879-4.818-7.532-6.536
		c0.003-0.068,0.012-0.134,0.012-0.202c0-5.265-4.694-9.532-10.483-9.532c-5.482,0-9.979,3.829-10.435,8.709
		c-7.096,1.888-9.821,9.978-10.384,13.645c-0.038,0.264-0.076,0.515-0.113,0.772c-0.762,5.54-0.038,7.825,0.594,9.063
		c0.292,0.594,0.573,0.945,0.661,1.313c0.326,1.313,0.695,1.741,1.354,3.133c0.43,0.377,0.978,0.897,1.319,1.805
		c0.608,1.562,0.837,1.303,0.837,1.303s-0.848-5.521-0.939-7.554c-0.015-0.111-0.015-0.215-0.015-0.303
		c0-0.986,0.457-5.922,3.75-8.761c0.155-0.14,0.316-0.281,0.497-0.404c2.773-2.062,7.5-1.187,8.021-1.187
		c0.101,0,1.177,0.819,2.722,1.591c1.497,0.755,3.422,1.463,5.322,1.374c11.807-0.593,14.293,5.707,14.559,7.021
		c-0.014,0.215-0.038,0.441-0.049,0.668c-0.145,1.631-0.319,3.525-0.445,4.802c-0.216,1.512-0.407,2.752-0.407,2.752
		s0.243,0.26,0.837-1.303c0.29-0.771,0.723-1.25,1.104-1.615c0.061-0.859,0.872-3.083,0.988-3.323c0.1-0.201,0.201-0.694,0.28-1.313
		c0.136-0.973,0.224-2.221,0.224-2.988C65.933,37.307,65.82,34.769,65.402,31.93"/>
	<circle cx="38.283" cy="45.3" r="1"/>
	<circle cx="52.533" cy="45.3" r="1"/>
</g>
</svg>
