<?xml version="1.0" encoding="utf-8"?>
<!-- Generator: Adobe Illustrator 16.0.3, SVG Export Plug-In . SVG Version: 6.00 Build 0)  -->
<!DOCTYPE svg PUBLIC "-//W3C//DTD SVG 1.1//EN" "http://www.w3.org/Graphics/SVG/1.1/DTD/svg11.dtd">
<svg version="1.1" id="Layer_1" xmlns="http://www.w3.org/2000/svg" xmlns:xlink="http://www.w3.org/1999/xlink" x="0px" y="0px"
	 width="88.9px" height="88.9px" viewBox="0 0 88.9 88.9" enable-background="new 0 0 88.9 88.9" xml:space="preserve">
<g>
	<rect x="0.008" y="0.026" fill="#B3B628" width="88.886" height="88.849"/>
	<path fill="#444E53" d="M51.28,27.159c-3.13,0-5.985,1.735-8.19,4.593c-2.299-3.675-5.546-5.982-9.155-5.982
		c-6.968,0-12.616,8.555-12.616,19.103c0,10.547,5.648,19.104,12.616,19.104c3.13,0,5.987-1.74,8.195-4.595
		c2.3,3.677,5.543,5.979,9.15,5.979c6.968,0,12.619-8.55,12.619-19.1C63.899,35.711,58.248,27.159,51.28,27.159"/>
	<path fill="#DCC5A1" d="M42.329,52.054v36.634H22.343c-0.325-0.141-0.489-0.209-0.489-0.209c0-19.652,12.232-21.117,12.232-21.117
		h0.101c0.081-0.014,0.181-0.026,0.266-0.055c1.009-0.281,1.696-1.762,2.156-3.884c0.043-0.167,0.073-0.335,0.099-0.503
		c0.041-0.208,0.088-0.419,0.111-0.643c0.117-0.67,0.214-1.383,0.281-2.123c0.044-0.445,0.085-0.892,0.126-1.352
		c0.184-2.255,0.237-4.697,0.237-7.016C37.463,51.787,40.156,52.054,42.329,52.054"/>
	<path fill="#EDD9B4" d="M62.875,88.479c0,0-0.181,0.068-0.477,0.209H42.329V52.054h0.041c2.174,0,4.876-0.267,4.876-0.267
		c0,2.305,0.057,4.722,0.237,6.955c0.044,0.446,0.088,0.897,0.129,1.326c0.082,0.77,0.169,1.494,0.281,2.18v0.016
		c0.012,0.154,0.041,0.294,0.066,0.432c0.032,0.141,0.059,0.295,0.085,0.434c0.421,2.053,1.038,3.562,1.937,4.066
		c0.067,0.025,0.141,0.067,0.211,0.08c0.14,0.061,0.292,0.086,0.447,0.086C50.64,67.361,62.875,68.828,62.875,88.479"/>
	<path fill="#BC9F82" d="M47.884,62.25v0.014c-0.488,0.785-2.185,3.003-5.536,3.003h-0.023c-3.183-0.015-5.032-2.317-5.509-2.985
		c0.111-0.674,0.208-1.387,0.277-2.125c0.041-0.447,0.085-0.893,0.13-1.354c1.55,0.386,3.234,0.625,5.043,0.652h0.059
		c1.848-0.027,3.556-0.279,5.154-0.709c0.04,0.442,0.087,0.894,0.128,1.326C47.691,60.84,47.771,61.563,47.884,62.25"/>
	<rect x="36.815" y="58.746" fill="none" width="11.068" height="6.521"/>
	<path fill="#7FA5AD" d="M62.916,88.51c0,0-0.182,0.058-0.479,0.211H22.38c-0.321-0.153-0.487-0.211-0.487-0.211
		c0-4.594,0.658-8.183,1.692-11.002c4.499-3.088,11.728,2.263,18.782,2.6c3.966,0.186,7.737-4.324,15.6-0.988
		c1.5,0.632,2.718-1.195,3.727-0.191C62.451,81.514,62.916,84.655,62.916,88.51"/>
	<path fill="#2B2A23" d="M63.145,88.476c0,0-0.182,0.071-0.48,0.212H22.346c-0.325-0.141-0.491-0.212-0.491-0.212
		c0-19.905,12.313-21.393,12.313-21.393h0.101c0.082-0.011,0.52,0.104,0.602,0.075c1.019-0.281-1.11-0.496-1.62,3.467
		c-0.438,3.318,1.877,6.294-0.296,7.382c0.661,0.767,6.126,5.463,8.013,5.392h1.497h1.325c1.904,0.071,7.547-4.74,8.199-5.59
		c-2.188-1.076,0.398-4.107-0.31-7.385c-0.724-3.318-1.448-3.301-1.375-3.29c0.137,0.058,0.368-0.051,0.525-0.051
		C50.829,67.083,63.145,68.57,63.145,88.476"/>
	<path fill="#FDFBF8" d="M50.32,66.993c-0.503,0.853-1.638,1.716-4.089,1.984c-1.46,0.151-2.734,0.235-3.854,0.235
		c-4.893,0.027-6.953-1.188-7.768-2.265c0.885-0.33,1.501-1.59,1.935-3.38c0.041-0.137,0.085-0.305,0.114-0.461
		c0.015-0.08,0.044-0.164,0.055-0.252c0.226,0.434,0.884,1.148,2.775,1.414h0.027c1.082,0.14,2.036,0.206,2.861,0.206
		c1.611,0,2.761-0.226,3.586-0.515c0.017-0.012,0.017-0.012,0.029-0.012c1.597-0.588,1.963-1.443,1.963-1.443
		s0.04,0.028,0.096,0.073c0.015,0.087,0.029,0.154,0.044,0.238c0.418,2.053,1.038,3.56,1.933,4.063
		c0.071,0.027,0.142,0.067,0.211,0.086C50.265,66.978,50.295,66.978,50.32,66.993"/>
	<path fill="#CCAD8B" d="M42.306,12.686C21.444,12.649,21.327,29.35,22.255,40.244c-1.431-2.56-5.661-1.611-5.314,2.483
		c0.333,3.918,6.312,5.694,6.229,5.265c1.705,8.874,11.537,13.805,19.136,14.502c0.054,0.006,0.111,0.004,0.161,0.006V12.687
		C42.414,12.687,42.359,12.686,42.306,12.686"/>
	<path fill="#BC9F82" d="M17.987,40.996c1.047-1.581,2.661-0.898,3.06-0.549c0.421,0.379,0.754,0.881,0.494,1.816
		c-0.149,0.522-0.734,0.569-0.588,1.367c0.154,0.896,0.597,0.957,0.842,1.161c0.249,0.204,0.562,0.358,0.717,0.74
		c0.149,0.378,0.178,0.781,0.091,1.129c-0.157,0.646-1.158,0.131-1.825-0.157c-0.436-0.188-1.838-1.303-2.188-1.681
		C17.7,43.877,17.288,42.049,17.987,40.996"/>
	<path fill="#D9BF9F" d="M42.411,12.686c20.856-0.036,20.979,16.664,20.048,27.559c1.435-2.56,5.664-1.611,5.318,2.483
		c-0.333,3.918-6.312,5.694-6.227,5.265c-1.709,8.874-11.54,13.805-19.14,14.502c-0.053,0.006-0.11,0.004-0.157,0.006V12.687
		C42.304,12.687,42.358,12.686,42.411,12.686"/>
	<path fill="#BC9F82" d="M66.877,40.996c-1.047-1.581-2.662-0.898-3.06-0.549c-0.419,0.379-0.752,0.881-0.495,1.816
		c0.149,0.522,0.734,0.569,0.595,1.367c-0.158,0.896-0.598,0.957-0.852,1.161c-0.243,0.204-0.559,0.358-0.714,0.74
		c-0.148,0.378-0.178,0.781-0.094,1.129c0.161,0.646,1.162,0.131,1.829-0.157c0.438-0.188,1.837-1.303,2.188-1.681
		C67.164,43.877,67.576,42.049,66.877,40.996"/>
	<path fill="#DCC5A1" d="M42.195,17.413c-6.966,0-12.063,1.915-15.152,5.694c-4.306,5.273-4.142,13.336-2.551,19.123
		c0.482,1.769,0.731,6.535,1.07,8.284c1.504,7.826,10.624,11.992,16.633,11.992c0.053,0,0.11-0.006,0.164-0.006V17.416
		C42.303,17.416,42.253,17.413,42.195,17.413"/>
	<path fill="#EDD9B4" d="M57.314,23.113c-3.062-3.754-8.1-5.666-14.955-5.698V62.5c6.858-0.07,15.061-4.636,16.468-11.986
		c0.334-1.75,0.585-6.516,1.07-8.284C61.486,36.454,61.641,28.406,57.314,23.113"/>
	<path fill="#381C16" d="M45.863,55.431c0,0-1.574,1.681-3.517,1.681c-1.936,0-3.422-1.642-3.422-1.642s1.486-0.254,3.422-0.254
		C44.289,55.216,45.863,55.431,45.863,55.431"/>
	<path fill="#611413" d="M43.348,54.66c-0.547,0-0.989,0.339-1,0.761c-0.009-0.422-0.448-0.761-0.989-0.761
		c-0.553,0-2.524,0.771-2.524,0.771s1.922,0.204,2.472,0.204s1.033,0.216,1.042-0.19c0.011,0.408,0.409,0.254,0.953,0.254
		c0.55,0,2.562-0.268,2.562-0.268S43.897,54.66,43.348,54.66"/>
	<path fill="#444E53" d="M63.361,26.95c-0.253-0.727-0.516-1.405-0.784-2.053v-0.281c0-2.746-2.479-6.308-6.418-9.769
		c-3.938-3.459-6.417-2.746-9.677-2.649c0,0-0.012,0.024-0.028,0.057c-1.431-0.298-9.136-1.798-13.716-0.14
		c-5.063,1.835-9.212,4.979-12.14,13.426c-2.925,8.447-0.523,15.364,0.044,18.316c1.796,9.346,10.422,15.264,10.422,15.264
		s-2.176-2.496-3.149-4.984c-0.755-1.93-1.884-5.25-1.884-10.132c0-4.886,4.92-10.934,4.92-10.934s-2.271,3.793-2.715,7.965
		c-0.453,4.174,1.928,7.401,1.928,7.401s-3.017-5.422,1.802-9.465c1.53-1.287,2.817-2.631,3.849-3.856
		c-0.003,0.003-0.003,0.006-0.003,0.009c-1.211,3.198,1.218,5.883,1.218,5.883s-0.045-4.1,2.469-5.495
		c6.125-3.393,7.102-4.798,7.962-7.527c0.117-0.377,0.182-0.718,0.228-1.052l5.597,7.902c0.263,0.344,0.692,0.927,1.188,1.678
		c1.454,2.189,3.46,5.778,3.46,8.901c0,4.882-1.129,8.2-1.884,10.131c-0.978,2.491-3.153,4.984-3.153,4.984
		s8.626-5.916,10.426-15.265C63.885,42.314,66.286,35.396,63.361,26.95"/>
	<ellipse cx="34.699" cy="42.171" rx="1.046" ry="1"/>
	<ellipse cx="49.607" cy="42.171" rx="1.046" ry="1"/>
</g>
</svg>
