<?xml version="1.0" encoding="utf-8"?>
<!-- Generator: Adobe Illustrator 16.0.3, SVG Export Plug-In . SVG Version: 6.00 Build 0)  -->
<!DOCTYPE svg PUBLIC "-//W3C//DTD SVG 1.1//EN" "http://www.w3.org/Graphics/SVG/1.1/DTD/svg11.dtd">
<svg version="1.1" id="Layer_1" xmlns="http://www.w3.org/2000/svg" xmlns:xlink="http://www.w3.org/1999/xlink" x="0px" y="0px"
	 width="88.9px" height="88.9px" viewBox="0 0 88.9 88.9" enable-background="new 0 0 88.9 88.9" xml:space="preserve">
<g>
	<rect x="0.007" y="0.006" fill="#8EC2EA" width="88.887" height="88.838"/>
	<path fill="#DCC5A1" d="M44.393,56.218v32.674H26.565c-0.287-0.125-0.438-0.186-0.438-0.186c0-17.527,10.916-18.834,10.916-18.834
		c0.813,0,1.397-0.775,1.849-2.031c0.149-0.436,0.291-0.936,0.401-1.482c0.073-0.322,0.138-0.66,0.187-1.021
		c0.103-0.6,0.188-1.234,0.252-1.895c0.035-0.396,0.074-0.797,0.111-1.207c0.16-2.006,0.213-4.186,0.213-6.256
		C40.055,55.979,42.455,56.218,44.393,56.218"/>
	<path fill="#EDD9B4" d="M62.72,88.706c0,0-0.164,0.061-0.428,0.186H44.393V56.218h0.038c1.937,0,4.351-0.236,4.351-0.236
		c0,2.057,0.049,4.209,0.213,6.203c0.035,0.396,0.074,0.797,0.111,1.184c0.076,0.684,0.148,1.332,0.244,1.943v0.014
		c0.041,0.271,0.092,0.523,0.143,0.768c0.215,1.102,0.502,2.006,0.877,2.656c0.375,0.713,0.848,1.123,1.436,1.123
		C51.806,69.872,62.72,71.179,62.72,88.706"/>
	<path fill="#BC9F82" d="M49.358,65.312v0.016c-0.439,0.695-1.949,2.678-4.939,2.678h-0.022c-2.838-0.014-4.49-2.07-4.914-2.666
		c0.099-0.6,0.187-1.236,0.25-1.896c0.037-0.396,0.074-0.795,0.113-1.205c1.385,0.348,2.889,0.559,4.498,0.584h0.053
		c1.649-0.025,3.17-0.246,4.598-0.635c0.035,0.398,0.076,0.799,0.111,1.186C49.183,64.054,49.259,64.704,49.358,65.312"/>
	<rect x="39.483" y="62.187" fill="none" width="9.875" height="5.818"/>
	<path fill="#5A4F51" d="M62.747,88.704c0,0-0.164,0.064-0.428,0.189H26.592c-0.287-0.125-0.439-0.189-0.439-0.189
		c0-17.633,10.916-18.945,10.916-18.945c0.814,0,1.399-0.781,1.85-2.045l5.502,0.436l5.977,0.48
		c0.375,0.715,0.848,1.129,1.436,1.129C51.833,69.759,62.747,71.071,62.747,88.704"/>
	<path fill="#14150C" d="M50.856,69.062c0,0-0.699-2.998-1.211-2.998s-5.477,2.299-5.477,2.299l1.575,3.303L50.856,69.062z"/>
	<path fill="#14150C" d="M37.618,69.062c0,0,0.699-2.998,1.211-2.998s5.479,2.299,5.479,2.299l-1.574,3.303L37.618,69.062z"/>
	<path fill="#010400" d="M60.927,75.188c-2.051-2.811-4.516-4.174-6.254-4.822L44.468,85.808l-0.108,0.17l-0.115-0.17L34.04,70.366
		c-1.737,0.648-4.203,2.012-6.254,4.822c0.605,0.613,1.185,1.549,1.627,2.961c1.293,4.137,0.55,9.184,0.287,10.678h12.787h3.739
		h12.789c-0.264-1.494-1.006-6.541,0.287-10.678C59.743,76.737,60.321,75.802,60.927,75.188"/>
	<path fill="#CCAD8B" d="M44.45,18.743c-18.885,0-18.997,15.754-18.153,26.062c-1.293-2.444-5.125-1.689-4.812,2.16
		c0.301,3.707,5.713,5.625,5.639,5.195c1.548,8.482,10.434,13.385,17.326,13.385c0.043,0,0.092-0.008,0.14-0.008V18.746
		C44.542,18.746,44.493,18.743,44.45,18.743"/>
	<path fill="#BC9F82" d="M22.689,45.337c0.933-1.488,2.372-0.846,2.729-0.521c0.375,0.36,0.673,0.832,0.439,1.71
		c-0.129,0.492-0.652,0.533-0.523,1.285c0.14,0.844,0.535,0.898,0.754,1.09c0.221,0.193,0.497,0.338,0.635,0.693
		c0.137,0.357,0.164,0.738,0.086,1.062c-0.145,0.607-1.033,0.125-1.631-0.148c-0.389-0.172-1.638-1.225-1.951-1.578
		C22.433,48.038,22.066,46.325,22.689,45.337"/>
	<path fill="#D9BF9F" d="M44.54,18.743c18.885,0,18.995,15.754,18.151,26.062c1.295-2.444,5.131-1.689,4.812,2.16
		c-0.301,3.707-5.717,5.625-5.639,5.195c-1.549,8.482-10.436,13.385-17.325,13.385c-0.047,0-0.097-0.008-0.143-0.008V18.746
		C44.443,18.746,44.493,18.743,44.54,18.743"/>
	<path fill="#BC9F82" d="M66.296,45.337c-0.932-1.488-2.371-0.846-2.725-0.521c-0.377,0.36-0.674,0.832-0.443,1.71
		c0.131,0.492,0.656,0.533,0.527,1.285c-0.141,0.844-0.533,0.898-0.758,1.09c-0.219,0.193-0.5,0.338-0.633,0.693
		c-0.137,0.357-0.162,0.738-0.086,1.062c0.143,0.607,1.031,0.125,1.629-0.148c0.393-0.172,1.639-1.225,1.955-1.578
		C66.556,48.038,66.919,46.325,66.296,45.337"/>
	<path fill="#DCC5A1" d="M44.282,23.184c-6.213,0-10.758,1.796-13.514,5.348c-3.84,4.955-3.693,12.526-2.277,17.963
		c0.432,1.66,0.654,6.139,0.953,7.783c1.343,7.35,9.479,11.266,14.838,11.266c0.048,0,0.098-0.01,0.144-0.01V23.188
		C44.379,23.188,44.333,23.184,44.282,23.184"/>
	<path fill="#EDD9B4" d="M57.767,28.537c-2.73-3.525-7.227-5.32-13.34-5.348v42.348c6.12-0.064,13.436-4.355,14.696-11.258
		c0.295-1.645,0.514-6.123,0.951-7.783C61.485,41.074,61.626,33.513,57.767,28.537"/>
	<path fill="#F8F7E0" d="M48.665,57.661c-0.287,0-0.562,0.082-0.82,0.232c1.004,0.586,1.725,2.217,1.725,4.137
		c0,0.893-0.162,1.719-0.432,2.41c-0.055,0.033-0.113,0.061-0.172,0.09c-0.52-1.115-2.553-1.953-4.985-1.953
		c-2.439,0-4.48,0.844-4.99,1.971c-0.049-0.025-0.104-0.053-0.154-0.078c-0.275-0.701-0.442-1.533-0.442-2.439
		c0-1.92,0.726-3.551,1.726-4.137c-0.258-0.15-0.532-0.232-0.818-0.232c-1.404,0-2.539,1.957-2.539,4.369
		c0,1.273,0.318,2.42,0.825,3.221c0.538,1.004,2.17,1.814,4.288,2.141c0.644,0.145,1.354,0.23,2.105,0.23
		c0.801,0,1.563-0.1,2.239-0.258c1.365-0.23,2.523-0.66,3.289-1.219c0.986-0.602,1.691-2.215,1.691-4.115
		C51.2,59.618,50.065,57.661,48.665,57.661"/>
	<path fill="#F8F7E0" d="M59.595,20.012c-4.457-3.128-11.156-6.399-15.212-5.998c-9.987-0.982-12.92,3.685-15.22,5.3
		c-7.271,5.106-4.826,23.399-4.826,23.399s1.17-0.263,1.852,0.383c0.93,0.888,1.471,1.914,1.723,2.997
		c0.252,1.078,1.299,1.559,1.299,1.559s-1.74-7.278,0.047-10.518c0.834-1.514,1.585-3.136,3.341-4.747
		c-0.015,1.363,0.386,2.497,0.685,3.234c1.119,2.713,5.721,4.368,5.721,4.368s-3.387-1.871-2.047-4.142
		c0.81-1.378,5.514-2.63,8.277-2.844c4.02-0.314,5.889-1.71,6.663-3.121c0.844,0.245,1.598,0.554,2.213,0.946
		c3.328,2.111,4.291,4.3,5.395,6.306c1.789,3.24,0.049,10.518,0.049,10.518s1.043-0.48,1.295-1.559
		c0.252-1.083,0.797-2.109,1.727-2.997c0.678-0.646,1.85-0.383,1.85-0.383S66.87,25.118,59.595,20.012"/>
	<circle cx="37.234" cy="44.131" r="1"/>
	<circle cx="51.483" cy="44.131" r="1"/>
</g>
</svg>
