<?xml version="1.0" encoding="utf-8"?>
<!-- Generator: Adobe Illustrator 16.0.3, SVG Export Plug-In . SVG Version: 6.00 Build 0)  -->
<!DOCTYPE svg PUBLIC "-//W3C//DTD SVG 1.1//EN" "http://www.w3.org/Graphics/SVG/1.1/DTD/svg11.dtd">
<svg version="1.1" id="Layer_1" xmlns="http://www.w3.org/2000/svg" xmlns:xlink="http://www.w3.org/1999/xlink" x="0px" y="0px"
	 width="88.9px" height="88.9px" viewBox="0 0 88.9 88.9" enable-background="new 0 0 88.9 88.9" xml:space="preserve">
<g>
	<rect x="0.058" y="-0.05" fill="#F4F1C5" width="88.785" height="88.838"/>
	<path fill="#5A4F51" d="M35.002,46.132c-0.619-0.845-1.523-1.236-2.479-1.377c-0.498-1.694-1.024-3.077-1.539-3.778
		c-2.089-2.844-7.33-0.613-7.33-0.613c0,3.347,1.17,5.021,0,7.705c-1.17,2.682-0.252,1.328-2.422,3.963
		c-2.177,2.629-2.574,3.307-3.095,5.195c-0.992,3.584,0.415,7.936,0.667,8.83c0.251,0.889-1.012-6.211,2.346-7.373
		c0.643-0.225,1.176-0.48,1.626-0.744c0.146,1.652,0.252,2.283-0.164,4.041c-0.503,2.121-0.348,3.842,0.404,5.629
		c0.755,1.789,2.554,2.385,2.554,2.385s-1.928-1.367-1.211-4.109c0.476-1.84,1.383-2.645,1.883-4.201
		c0.231-0.715,0.372-1.402,0.46-1.943c-0.023,0.559,0.029,1.236,0.312,1.781c0.582,1.133,2.416,2.994,2.01,5.275
		c-1.139,6.395,1.223,8.146,1.556,8.93c0.334,0.783-0.924-2.055-0.087-4.426c0.482-1.373,1.193-1.855,1.954-2.348
		c0.459,0.879,0.795,1.887,0.596,3c-1.137,6.393,1.224,8.148,1.558,8.93c0.332,0.783-0.926-2.053-0.088-4.424
		c0.836-2.369,2.346-2.09,3.617-3.795c1.732-2.324,2.504-5.783,1.373-9.129C39.329,63.021,37.094,48.976,35.002,46.132"/>
	<path fill="#5A4F51" d="M70.964,57.118c-0.521-1.889-0.92-2.57-3.09-5.199c-2.176-2.631-1.258-1.281-2.424-3.963
		c-1.17-2.681,0-4.355,0-7.707c0,0-5.244-2.228-7.334,0.614c-0.514,0.704-1.039,2.087-1.537,3.78
		c-0.961,0.141-1.861,0.534-2.48,1.378c-2.088,2.84-4.326,16.887-4.5,17.4c-1.129,3.348-0.357,6.807,1.375,9.131
		c1.271,1.703,2.779,1.422,3.619,3.795c0.836,2.367-0.426,5.205-0.092,4.424c0.336-0.783,2.695-2.537,1.557-8.932
		c-0.199-1.115,0.137-2.123,0.602-3.002c0.758,0.496,1.467,0.977,1.949,2.35c0.84,2.369-0.422,5.207-0.088,4.424
		c0.334-0.781,2.697-2.531,1.559-8.924c-0.41-2.285,1.424-4.148,2.01-5.277c0.281-0.545,0.334-1.225,0.312-1.783
		c0.086,0.543,0.227,1.23,0.459,1.947c0.498,1.553,1.406,2.357,1.885,4.199c0.713,2.742-1.215,4.111-1.215,4.111
		s1.803-0.598,2.555-2.389c0.752-1.785,0.906-3.506,0.402-5.629c-0.408-1.754-0.303-2.387-0.162-4.037
		c0.449,0.262,0.982,0.518,1.629,0.74c3.355,1.162,2.09,8.266,2.346,7.373C70.548,65.05,71.954,60.7,70.964,57.118"/>
	<path fill="#DCC5A1" d="M44.217,57.017V88.95H26.795c-0.281-0.121-0.428-0.182-0.428-0.182c0-17.129,10.662-18.41,10.662-18.41
		c1.068,0,1.749-1.361,2.203-3.432c0.072-0.318,0.134-0.646,0.181-0.996c0.099-0.586,0.187-1.207,0.246-1.854
		c0.038-0.389,0.073-0.779,0.108-1.18c0.137-1.596,0.184-3.314,0.195-4.98c0.012-0.377,0.012-0.756,0.012-1.131
		C39.975,56.786,42.322,57.017,44.217,57.017"/>
	<path fill="#EDD9B4" d="M62.13,88.769c0,0-0.16,0.061-0.414,0.182H44.217V57.017h0.035c1.895,0,4.252-0.23,4.252-0.23
		c0,0.439,0,0.875,0.012,1.316c0.012,1.59,0.076,3.223,0.197,4.746c0.035,0.391,0.072,0.781,0.107,1.158
		c0.076,0.666,0.148,1.303,0.244,1.895v0.018c0.037,0.266,0.086,0.51,0.135,0.752c0.451,2.207,1.158,3.688,2.26,3.688
		C51.46,70.358,62.13,71.64,62.13,88.769"/>
	<path fill="#BC9F82" d="M49.067,66.466v0.016c-0.428,0.678-1.902,2.615-4.824,2.615h-0.027c-2.772-0.012-4.381-2.023-4.797-2.607
		c0.097-0.582,0.183-1.203,0.24-1.85c0.038-0.389,0.075-0.779,0.11-1.18c1.358,0.34,2.823,0.547,4.4,0.572h0.046
		c1.615-0.025,3.107-0.246,4.5-0.623c0.035,0.391,0.072,0.781,0.107,1.158C48.896,65.237,48.97,65.87,49.067,66.466"/>
	<rect x="39.419" y="63.409" fill="none" width="9.648" height="5.686"/>
	<path fill="#895A59" d="M62.132,88.769c0,0-0.162,0.061-0.416,0.182H26.796c-0.28-0.121-0.427-0.182-0.427-0.182
		c0-16.727,10.162-18.334,10.65-18.41h0.012c0.811,0,1.395-0.777,1.822-2.045c0.16,0.283,0.461,0.5,0.761,0.66
		c0.62,0.34,1.804,0.668,4.639,0.668c2.833,0,4.718-0.609,5.23-1.082c0.072-0.072,0.123-0.16,0.158-0.246
		c0.414,1.219,0.977,1.986,1.727,2.045h0.092C51.46,70.358,62.132,71.64,62.132,88.769"/>
	<path fill="#403836" d="M51.583,72.161c-2.346,1.658-3.885,2.037-7.388,2.037c-3.498,0-4.703-0.49-6.488-1.377
		c-1.257-0.623-2.153-1.109-1.233-1.91c0.257-0.234,0.427-0.406,0.547-0.553h0.012c0.333-0.375,0.368-0.568,0.71-1.082
		c0.478-0.695-0.854-1.094-0.035-1.629c0.806-0.537,1.451-0.43,1.451-0.43c-0.304,1.096,0.158,1.596,0.457,1.756
		c0.62,0.34,1.804,0.668,4.64,0.668c2.833,0,4.206-0.607,4.813-0.949c0.521-0.285,0.385-0.855,0.373-1.1
		c-0.039-0.061-0.08-0.223-0.08-0.223s1.564,0.092,1.43,0.857c-0.123,0.746,0.15,1.475,0.576,2.131
		c0.072,0.098,0.133,0.197,0.205,0.285C52.136,71.358,52.968,71.188,51.583,72.161"/>
	<polygon fill="#5A4F51" points="34.692,79.599 33.372,77.323 32.05,79.599 30.731,81.876 32.05,84.153 33.372,86.433 
		34.692,84.153 36.01,81.876 	"/>
	<polygon fill="#5A4F51" points="39.971,79.599 38.649,77.323 37.331,79.599 36.01,81.876 37.331,84.153 38.649,86.433 
		39.971,84.153 41.29,81.876 	"/>
	<polygon fill="#5A4F51" points="45.248,79.599 43.932,77.323 42.609,79.599 41.29,81.876 42.609,84.153 43.932,86.433 
		45.248,84.153 46.569,81.876 	"/>
	<polygon fill="#5A4F51" points="50.53,79.599 49.208,77.323 47.89,79.599 46.571,81.876 47.89,84.153 49.208,86.433 50.53,84.153 
		51.847,81.876 	"/>
	<polygon fill="#5A4F51" points="55.808,79.599 54.489,77.323 53.169,79.599 51.847,81.876 53.169,84.153 54.489,86.433 
		55.808,84.153 57.13,81.876 	"/>
	<path fill="#CCAD8B" d="M44.27,20.391c-18.458,0-18.563,15.396-17.742,25.472c-1.265-2.388-5.006-1.652-4.702,2.109
		c0.295,3.625,5.587,5.498,5.511,5.076c1.516,8.293,10.199,13.084,16.934,13.084c0.043,0,0.092-0.008,0.14-0.008V20.391H44.27z"/>
	<path fill="#BC9F82" d="M23.004,46.382c0.913-1.451,2.32-0.826,2.665-0.506c0.369,0.35,0.662,0.809,0.433,1.668
		c-0.129,0.484-0.641,0.521-0.512,1.256c0.134,0.828,0.52,0.877,0.736,1.066c0.213,0.189,0.486,0.33,0.621,0.68
		c0.131,0.346,0.157,0.719,0.082,1.037c-0.142,0.592-1.01,0.121-1.592-0.145c-0.381-0.172-1.6-1.197-1.907-1.547
		C22.752,49.026,22.395,47.347,23.004,46.382"/>
	<path fill="#D9BF9F" d="M44.36,20.391c18.454,0,18.559,15.396,17.741,25.472c1.264-2.388,5.01-1.652,4.703,2.109
		c-0.297,3.625-5.586,5.498-5.516,5.076c-1.51,8.293-10.195,13.084-16.928,13.084c-0.047,0-0.097-0.008-0.143-0.008V20.391H44.36z"
		/>
	<path fill="#BC9F82" d="M65.622,46.382c-0.912-1.451-2.316-0.826-2.662-0.506c-0.367,0.35-0.658,0.809-0.432,1.668
		c0.129,0.484,0.637,0.521,0.514,1.256c-0.137,0.828-0.52,0.877-0.74,1.066c-0.213,0.189-0.488,0.33-0.623,0.68
		c-0.129,0.346-0.154,0.719-0.082,1.037c0.141,0.592,1.01,0.121,1.592-0.145c0.387-0.172,1.604-1.197,1.91-1.547
		C65.874,49.026,66.231,47.347,65.622,46.382"/>
	<path fill="#DCC5A1" d="M44.112,24.73c-6.076,0-10.52,1.757-13.211,5.229c-3.754,4.844-3.615,12.241-2.229,17.557
		c0.425,1.623,0.641,5.998,0.936,7.605c1.309,7.184,9.262,11.01,14.504,11.01c0.041,0,0.094-0.008,0.137-0.008V24.733
		C44.202,24.733,44.155,24.73,44.112,24.73"/>
	<path fill="#EDD9B4" d="M57.286,29.966c-2.668-3.447-7.061-5.203-13.038-5.233v41.389c5.983-0.061,13.131-4.254,14.36-11.002
		c0.291-1.605,0.508-5.98,0.934-7.604C60.923,42.214,61.06,34.825,57.286,29.966"/>
	<path fill="#5A4F51" d="M38.063,20.261c-2.019-2.459-3.365-6.198,0-8.912c3.363-2.708,6.417-2.82,7.803-2.82
		c1.387,0,5.424,0.392,6.547,2.82c1.123,2.43,4.262,3.993,1.459,6.23c-2.805,2.233-1.811,3.798-8.363,3.798
		C38.958,21.377,38.063,20.261,38.063,20.261"/>
	<path fill="#895A59" d="M25.151,33.062c0.234-2.791-2.785-1.562,0.813-5.694c3.598-4.135,6.038-6.48,8.821-7.375
		c2.785-0.894,6.156-3.125,11.26-2.68c5.109,0.448,7.895-1.34,10.566,2.458c2.668,3.798,3.6,4.136,4.643,8.38
		c1.045,4.244,4.525,7.514,0.465,6.994C57.653,34.628,25.151,33.062,25.151,33.062"/>
	<path fill="#5A4F51" d="M62.081,32.062c-1.258-0.454-4.393-1.437-7.117-2.395c-0.328-0.165-0.686-0.306-1.105-0.427
		c-4.123-1.164-4.32-3.052-10.28-2.606c-5.955,0.447-13.744,4.25-16.836,5.366c-3.095,1.116-3.896,4.021-3.668,7.26
		c0.228,3.241,1.032,5.362,1.032,5.362c3.894-2.569,7.907-5.697,12.375-6.145c4.465-0.445,6.527-0.782,10.883,0
		c4.326,0.777,6.801,0.178,10.869,2.087c2.232,1.198,4.373,2.729,6.482,4.122c0,0,0.801-2.12,1.029-5.362
		C65.974,36.083,65.175,33.179,62.081,32.062"/>
	<path fill="#5A4F51" d="M54.976,59.681c-0.277-0.979-1.363-0.682-3.357-1.371c-1.984-0.688-5.359-1.061-7.358-1.066h-0.012h-0.012
		c-1.998,0.006-5.367,0.379-7.354,1.066c-1.992,0.689-3.08,0.393-3.357,1.371c-0.144,0.514,0.16,2.818,0.455,3.283
		c0.787,1.244,3.32,2.768,5.211,3.617c1.418,0.646,2.545,0.668,5.057,0.605c2.516,0.062,3.641,0.041,5.061-0.605
		c1.887-0.85,4.426-2.373,5.209-3.617C54.813,62.499,55.118,60.194,54.976,59.681 M51.214,60.155
		c-0.25,0.334-1.812,1.445-3.674,2.289c-0.369,0.162-0.615,0.25-1.82,0.25c-0.403,0-0.847-0.01-1.36-0.021l-0.113-0.004
		l-0.117,0.004c-0.509,0.012-0.96,0.021-1.363,0.021c-1.199,0-1.451-0.088-1.816-0.25c-1.846-0.836-3.402-1.932-3.719-2.365
		c0.193-0.129,0.539-0.305,1.071-0.49c1.398-0.482,4.253-0.824,5.938-0.828h0.125c1.704,0.02,4.456,0.355,5.823,0.828
		c0.521,0.182,0.861,0.357,1.061,0.48C51.237,60.103,51.226,60.136,51.214,60.155"/>
	<circle cx="37.294" cy="46.116" r="1"/>
	<circle cx="51.544" cy="46.116" r="1"/>
</g>
</svg>
