<?xml version="1.0" encoding="utf-8"?>
<!-- Generator: Adobe Illustrator 16.0.3, SVG Export Plug-In . SVG Version: 6.00 Build 0)  -->
<!DOCTYPE svg PUBLIC "-//W3C//DTD SVG 1.1//EN" "http://www.w3.org/Graphics/SVG/1.1/DTD/svg11.dtd">
<svg version="1.1" id="Layer_1" xmlns="http://www.w3.org/2000/svg" xmlns:xlink="http://www.w3.org/1999/xlink" x="0px" y="0px"
	 width="88.9px" height="88.9px" viewBox="0 0 88.9 88.9" enable-background="new 0 0 88.9 88.9" xml:space="preserve">
<g>
	<rect x="-0.108" y="-0.19" fill="#A4BFB6" width="89.117" height="89.279"/>
	<path fill="#DCC5A1" d="M43.513,55.97v33.119H25.442C25.155,88.962,25,88.899,25,88.899c0-12.098,5.131-16.564,8.404-18.193
		c1.526-0.758,2.655-0.896,2.655-0.896h0.091c0.08-0.012,0.164-0.025,0.242-0.051c0.91-0.254,1.53-1.592,1.951-3.512
		c0.073-0.326,0.139-0.666,0.188-1.033c0.103-0.607,0.19-1.252,0.254-1.92c0.035-0.404,0.076-0.809,0.115-1.225
		c0.164-2.031,0.213-4.242,0.213-6.338C39.114,55.731,41.547,55.97,43.513,55.97"/>
	<path fill="#EDD9B4" d="M62.085,88.899c0,0-0.164,0.062-0.43,0.189H43.514V55.97h0.035c1.965,0,4.411-0.238,4.411-0.238
		c0,2.084,0.051,4.268,0.217,6.287c0.033,0.406,0.074,0.807,0.113,1.199c0.076,0.693,0.148,1.354,0.252,1.969V65.2
		c0.037,0.279,0.092,0.531,0.141,0.781c0.377,1.857,0.938,3.221,1.746,3.676c0.064,0.027,0.129,0.062,0.191,0.076
		c0.125,0.051,0.266,0.076,0.404,0.076c0,0,0.902,0.1,2.178,0.666C56.437,71.907,62.085,76.196,62.085,88.899"/>
	<path fill="#BC9F82" d="M48.538,65.192v0.01c-0.445,0.707-1.973,2.717-5.001,2.717H43.51c-2.875-0.012-4.548-2.098-4.979-2.705
		c0.103-0.605,0.188-1.248,0.252-1.918c0.037-0.402,0.076-0.809,0.113-1.225c1.404,0.354,2.929,0.568,4.561,0.592h0.053
		c1.67-0.023,3.215-0.25,4.663-0.643c0.039,0.404,0.078,0.811,0.113,1.201C48.362,63.915,48.437,64.571,48.538,65.192"/>
	<path fill="#3C4C82" d="M60.222,78.065c-0.799-1.893-1.773-3.357-2.787-4.48c-1.467-1.631-3.014-2.576-4.232-3.109
		c-1.986,3.297-6.727,7.604-9.689,10.139c-0.444,0.381-0.837,0.721-1.183,0.998c-3.035-5.4-5.861-11.158-5.938-11.854
		c0,0-1.72,0.193-2.988,0.945c-0.27,0.16-0.588,0.305-0.893,0.48c-1.252,0.77-2.671,1.945-3.926,3.748
		C26.594,77.765,25,82.146,25,88.899c0,0,0.155,0.062,0.441,0.191h10.724h6.118h0.265h4.421h0.963h13.723
		c0.266-0.129,0.43-0.191,0.43-0.191C62.085,84.253,61.337,80.731,60.222,78.065"/>
	<path fill="#CCAD8B" d="M43.496,20.385C24.641,20.349,24.53,35.449,25.369,45.294c-1.295-2.31-5.116-1.453-4.803,2.248
		c0.301,3.543,5.705,5.148,5.631,4.758c1.542,8.023,10.431,12.48,17.299,13.113c0.047,0.002,0.099,0,0.146,0.004V20.386
		C43.592,20.386,43.542,20.385,43.496,20.385"/>
	<path fill="#BC9F82" d="M21.511,45.978c0.948-1.43,2.404-0.813,2.764-0.496c0.38,0.342,0.685,0.797,0.448,1.641
		c-0.135,0.477-0.661,0.512-0.533,1.236c0.141,0.814,0.542,0.865,0.767,1.051c0.222,0.184,0.502,0.324,0.643,0.666
		c0.135,0.346,0.16,0.711,0.084,1.023c-0.143,0.586-1.043,0.119-1.649-0.139c-0.395-0.172-1.658-1.182-1.98-1.523
		C21.251,48.579,20.879,46.931,21.511,45.978"/>
	<path fill="#D9BF9F" d="M43.589,20.385c18.855-0.036,18.966,15.064,18.126,24.909c1.297-2.31,5.117-1.453,4.807,2.248
		c-0.305,3.543-5.707,5.148-5.631,4.758c-1.545,8.023-10.432,12.48-17.302,13.113c-0.047,0.002-0.099,0-0.146,0.004V20.386
		C43.493,20.386,43.542,20.385,43.589,20.385"/>
	<path fill="#BC9F82" d="M65.427,45.978c-0.947-1.43-2.406-0.813-2.768-0.496c-0.379,0.342-0.678,0.797-0.445,1.641
		c0.133,0.477,0.662,0.512,0.533,1.236c-0.141,0.814-0.539,0.865-0.766,1.051c-0.223,0.184-0.506,0.324-0.646,0.666
		c-0.133,0.346-0.162,0.711-0.086,1.023c0.146,0.586,1.047,0.119,1.65-0.139c0.398-0.172,1.662-1.182,1.98-1.523
		C65.685,48.579,66.056,46.931,65.427,45.978"/>
	<path fill="#DCC5A1" d="M43.396,24.655c-6.295,0-10.905,1.732-13.694,5.147c-3.896,4.772-3.748,12.058-2.312,17.287
		c0.438,1.602,0.661,5.91,0.968,7.494c1.357,7.07,9.606,10.838,15.038,10.838c0.048,0,0.099-0.004,0.146-0.004V24.662
		C43.493,24.662,43.444,24.655,43.396,24.655"/>
	<path fill="#EDD9B4" d="M57.062,29.812c-2.766-3.393-7.322-5.124-13.52-5.15v40.754c6.204-0.064,13.616-4.193,14.889-10.834
		c0.305-1.584,0.527-5.893,0.969-7.494C60.833,41.877,60.976,34.598,57.062,29.812"/>
	<path fill="#B47070" d="M46.714,59.03c0,0-1.425,1.514-3.177,1.514c-1.755,0-3.099-1.484-3.099-1.484s1.344-0.229,3.099-0.229
		C45.289,58.831,46.714,59.03,46.714,59.03"/>
	<path fill="#C17874" d="M44.438,58.329c-0.498,0-0.893,0.307-0.901,0.686c-0.013-0.379-0.406-0.686-0.901-0.686
		c-0.496,0-2.275,0.701-2.275,0.701s1.734,0.18,2.229,0.18c0.498,0,0.936,0.197,0.948-0.172c0.006,0.371,0.366,0.227,0.854,0.227
		c0.502,0,2.323-0.234,2.323-0.234S44.934,58.329,44.438,58.329"/>
	<path fill="#372814" d="M64.911,26.483c2.264,2.11,3.664,3.616,3.664,3.616c-3.533-19.937-22.797-16.268-22.797-16.268
		c0.068,0.019,0.135,0.046,0.201,0.064c-3.731,0.224-8.44,1.263-9.872,4.918c-3.137-1.789-8.007-0.031-10.83,1.581
		c-2.82,1.605-4.978,3.27-4.978,3.27s2.866-1.73,6.229-2.017c-0.304,0.128-0.611,0.284-0.916,0.48
		c-2.628,1.706-4.893,3.402-6.06,6.996c-1.17,3.598-1.401,7.603-1.401,7.603s0.769-1.507,1.93-3.387
		c-0.187,0.507-0.363,1.046-0.529,1.624c-4.151,14.633,6.058,20.497,6.058,20.497s-1.583-4.059-2.03-7.344
		c1.099,5.467,5.06,10.947,5.06,10.947c-7.093-18.262,6.591-22.923,12.496-24.065c0.871-0.244,1.724-0.378,2.526-0.357
		c0,0,2.325,4.339,3.821,7.651c1.498,3.316,1.637,7.5,1.637,7.5s1.148-6.428-0.074-10.568c1.738,2.409,3.285,4.747,3.809,6.089
		c1.4,3.596,1.332,6.897,1.332,6.897s1.482-6.051-0.391-11.54c0.869,1.546,1.592,3.041,1.955,4.262
		c2.953,9.885-2.08,22.403-2.08,22.403s2.383-4.402,4.367-9.549c-1.414,7.131-4.582,18.045-4.582,18.045s4.471-9.229,7.422-16.77
		l-0.438,6.186c0,0,6.453-12.143,5.986-22.475c0-0.027-0.004-0.052-0.006-0.076c0.5,2.233,0.84,3.899,0.84,3.899
		s3.629-11.666-2.742-20.349C64.657,26.324,64.788,26.403,64.911,26.483"/>
	<circle cx="36.767" cy="45.205" r="1"/>
	<circle cx="51.017" cy="45.205" r="1"/>
</g>
</svg>
