<?xml version="1.0" encoding="utf-8"?>
<!-- Generator: Adobe Illustrator 16.0.3, SVG Export Plug-In . SVG Version: 6.00 Build 0)  -->
<!DOCTYPE svg PUBLIC "-//W3C//DTD SVG 1.1//EN" "http://www.w3.org/Graphics/SVG/1.1/DTD/svg11.dtd">
<svg version="1.1" id="Layer_1" xmlns="http://www.w3.org/2000/svg" xmlns:xlink="http://www.w3.org/1999/xlink" x="0px" y="0px"
	 width="88.9px" height="88.9px" viewBox="0 0 88.9 88.9" enable-background="new 0 0 88.9 88.9" xml:space="preserve">
<g>
	<rect x="0.008" y="0.001" fill="#658F83" width="88.885" height="88.441"/>
	<path fill="#0C0E03" d="M35.008,52.96c-0.336-0.252-6.494-4.037-6.494-4.037c0.422,2.359,0.737,3.32,0.123,4.92
		c-0.559,1.439-1.626,1.996-2.214,2.5c-0.591,0.504-1.79,0.883-2.209,0.883c-0.427,0-0.9-0.074-0.9-0.074s0.979,0.535,3.429,0.43
		c1.032-0.045,1.684-0.301,2.112-0.598c-0.486,0.779-0.942,1.898-0.432,2.936c1.853,3.77-0.617,5.002-0.617,5.002
		s2.188-0.219,3.443-1.324c0.006,0.031,0.003,0.066,0.009,0.092c0.56,1.887,2.027,2.096,2.027,2.096s-0.924-0.152-0.752-1.906
		c0.053-0.465,0.536-0.65,1.141-0.965c0.234,1.691,1.001,3.416-0.582,4.121c0,0,2.676-0.531,3.168-2.113
		c0.088-0.291,0.136-0.562,0.179-0.832c0.044,0.15,0.1,0.289,0.126,0.447c0.383,2.018-1.155,3.977-1.155,3.977
		s5.555-0.586,5.595-2.785c0.006-0.33,0.076-1.676,0.246-2.18c0.17-0.506,0.503-3.025,0.503-3.025S35.347,53.21,35.008,52.96"/>
	<path fill="#0C0E03" d="M58.014,52.96c0.336-0.252,6.493-4.037,6.493-4.037c-0.421,2.359-0.736,3.32-0.119,4.92
		c0.556,1.439,1.62,1.996,2.211,2.5c0.592,0.504,1.79,0.883,2.212,0.883s0.897-0.074,0.897-0.074s-0.979,0.535-3.431,0.43
		c-1.029-0.045-1.683-0.301-2.106-0.598c0.486,0.779,0.942,1.898,0.427,2.936c-1.851,3.77,0.62,5.002,0.62,5.002
		s-2.187-0.219-3.445-1.324c-0.005,0.031-0.002,0.066-0.012,0.092c-0.556,1.887-2.023,2.096-2.023,2.096s0.927-0.152,0.748-1.906
		c-0.046-0.465-0.532-0.65-1.138-0.965c-0.236,1.691-1.001,3.416,0.582,4.121c0,0-2.677-0.531-3.165-2.113
		c-0.091-0.291-0.135-0.562-0.182-0.832c-0.043,0.15-0.099,0.289-0.128,0.447c-0.38,2.018,1.158,3.977,1.158,3.977
		s-5.555-0.586-5.6-2.785c-0.003-0.33-0.072-1.676-0.239-2.18c-0.169-0.506-0.509-3.025-0.509-3.025S57.677,53.21,58.014,52.96"/>
	<path fill="#DCC5A1" d="M46.507,56.108v32.285H28.895c-0.287-0.121-0.433-0.184-0.433-0.184c0-17.318,10.782-18.609,10.782-18.609
		c1.075,0,1.767-1.381,2.223-3.473c0.076-0.318,0.135-0.652,0.187-1.01c0.1-0.592,0.183-1.221,0.246-1.869
		c0.035-0.395,0.073-0.789,0.111-1.195c0.161-1.98,0.211-4.135,0.211-6.178C42.222,55.876,44.591,56.108,46.507,56.108"/>
	<path fill="#EDD9B4" d="M64.613,88.208c0,0-0.161,0.064-0.418,0.186H46.507V56.108h0.035c1.916,0,4.3-0.232,4.3-0.232
		c0,2.031,0.049,4.158,0.207,6.129c0.041,0.396,0.076,0.787,0.114,1.168c0.074,0.682,0.146,1.318,0.246,1.922v0.012
		c0.038,0.268,0.085,0.518,0.138,0.764c0.456,2.229,1.173,3.73,2.281,3.73C53.828,69.601,64.613,70.892,64.613,88.208"/>
	<path fill="#BC9F82" d="M51.409,65.095v0.012c-0.433,0.689-1.925,2.646-4.876,2.646h-0.026c-2.806-0.012-4.435-2.045-4.853-2.635
		c0.099-0.592,0.181-1.221,0.246-1.869c0.035-0.395,0.072-0.789,0.11-1.195c1.369,0.348,2.852,0.555,4.446,0.576h0.05
		c1.629-0.021,3.139-0.244,4.542-0.625c0.041,0.396,0.076,0.787,0.114,1.168C51.236,63.854,51.311,64.491,51.409,65.095"/>
	<rect x="41.654" y="62.005" fill="none" width="9.755" height="5.748"/>
	<path fill="#CCAD8B" d="M46.557,19.081c-18.656,0-18.762,15.564-17.935,25.75c-1.277-2.414-5.062-1.668-4.753,2.136
		c0.299,3.666,5.646,5.557,5.569,5.129c1.533,8.385,10.308,13.225,17.118,13.225c0.047,0,0.096-0.006,0.143-0.006V19.084
		C46.649,19.084,46.604,19.081,46.557,19.081"/>
	<path fill="#BC9F82" d="M25.062,45.356c0.922-1.469,2.344-0.835,2.691-0.511c0.374,0.352,0.667,0.815,0.436,1.688
		c-0.129,0.484-0.646,0.523-0.518,1.268c0.138,0.836,0.526,0.887,0.746,1.076c0.219,0.191,0.492,0.334,0.629,0.686
		c0.134,0.354,0.158,0.729,0.082,1.051c-0.141,0.598-1.018,0.123-1.609-0.143c-0.386-0.18-1.617-1.213-1.928-1.564
		C24.805,48.028,24.443,46.335,25.062,45.356"/>
	<path fill="#D9BF9F" d="M46.649,19.081c18.656,0,18.763,15.564,17.935,25.75c1.278-2.414,5.062-1.668,4.753,2.136
		c-0.298,3.666-5.646,5.557-5.572,5.129c-1.53,8.385-10.311,13.225-17.115,13.225c-0.047,0-0.099-0.006-0.143-0.006V19.084
		C46.557,19.084,46.603,19.081,46.649,19.081"/>
	<path fill="#BC9F82" d="M68.144,45.356c-0.919-1.469-2.343-0.835-2.691-0.511c-0.375,0.352-0.667,0.815-0.438,1.688
		c0.132,0.484,0.649,0.523,0.521,1.268c-0.135,0.836-0.526,0.887-0.749,1.076c-0.217,0.191-0.488,0.334-0.626,0.686
		c-0.132,0.354-0.157,0.729-0.082,1.051c0.141,0.598,1.021,0.123,1.609-0.143c0.386-0.18,1.617-1.213,1.927-1.564
		C68.4,48.028,68.764,46.335,68.144,45.356"/>
	<path fill="#DCC5A1" d="M46.396,23.468c-6.141,0-10.633,1.776-13.354,5.284c-3.797,4.895-3.652,12.378-2.252,17.747
		c0.427,1.641,0.649,6.064,0.942,7.691c1.328,7.262,9.366,11.129,14.663,11.129c0.044,0,0.097-0.006,0.143-0.006V23.472
		C46.492,23.472,46.445,23.468,46.396,23.468"/>
	<path fill="#EDD9B4" d="M59.72,28.761c-2.7-3.485-7.141-5.261-13.181-5.288v41.841c6.043-0.066,13.273-4.303,14.515-11.123
		c0.295-1.625,0.515-6.049,0.941-7.691C63.394,41.145,63.53,33.674,59.72,28.761"/>
	<path fill="#0C0E03" d="M66.94,34.218c-0.104-0.267-0.248-0.525-0.394-0.756c-0.357-2.656-2.241-7.97-4.087-10.638
		c-1.921-2.773-6.631-5.228-12.681-5.96c-6.055-0.736-11.325,3.531-11.325,3.531s-0.937-1.386-1.737-1.797
		c-0.802-0.405-3.102,0.081-3.102,0.081s1.56,0.435,1.866,0.844c0.579,0.769,0.311,1.499,0.311,1.499s-1.825-0.784-2.626-0.807
		c-1.463-0.041-3.11,1.812-3.11,1.812s1.372-0.964,2.688-0.925c0.427,0.01,1.62,0.575,1.62,0.575s-2.171,0.227-6.229,4.661
		c-3.069,3.343-3.069,7.765-3.069,7.765l2.568-1.469c0,0-0.667,0.775-0.991,1.584c-1.896,4.695,0.699,9.401,0.699,9.401
		s0.845,0.084,1.617,1.894c1.045,2.447,1.696,5.477,1.696,5.477h0.907c0,0-1.949-7.556-0.635-11.669
		c0.363-1.132,1.339-3.457,2.7-3.537c0,0,0.9-0.785,1.298-2.339c0.4-1.554,2.487-4.156,3.61-4.646
		c1.119-0.49,1.761,0.246,1.761,0.246s1.767-1.388,4.97-1.959c3.206-0.569,4.966,2.856,5.669,4.652
		c0.699,1.793,0.339,2.692,0.339,2.692s1.366-2.202,1.205-4.408c-0.05-0.705-0.199-1.251-0.371-1.679
		c0.421,0.213,2.243,0.717,2.617,5.434c0.176,2.234-1.845,3.751-1.845,3.751s4.501-1.856,3.567-7.589
		c0.967,1.028,1.948,2.485,2.213,3.506c0.396,1.554,3.77,5.166,3.994,5.875c1.312,4.113-0.632,11.669-0.632,11.669h0.904
		c0,0,0.652-3.029,1.7-5.477c0.771-1.81,1.617-1.894,1.617-1.894S68.837,38.913,66.94,34.218 M51.657,27.497
		c-0.022-0.027-0.047-0.063-0.069-0.09l0.076,0.076L51.657,27.497z"/>
	<path fill="#CD6C13" d="M69.431,38.056c-1.281-4.878-4.616-11.949-6.971-15.232c-0.559-0.778-1.17-1.358-1.562-1.693
		c0.261-0.263,0.471-0.577,0.512-0.916c0.106-0.97,0.582-2.962-0.812-2.26c-1.313,0.659,0.293,1.024-0.478,2.103
		c-0.798-1.101-3.354-3.361-11.516-6.385c-11.758-4.359-14.803-0.646-18.691,1.292c-3.885,1.936-4.048,3.871-3.562,5.128
		c0.486,1.254,0.974,5.199,1.785,6.245c0.807,1.043,4.369-0.4,11.337,5.714c6.962,6.114,21.216,9.058,25.425,14.76
		c4.212,5.703,6.154,3.82,6.154,3.82s0.485-1.127,0.972-2.42C72.508,46.919,71.215,44.82,69.431,38.056"/>
	<path fill="#FDFBF8" d="M64.756,88.214c0,0-0.146,0.061-0.433,0.182H28.9c-0.299-0.121-0.444-0.182-0.444-0.182
		c0-0.518,0.012-1.035,0.023-1.525c0.05-1.133,0.146-2.205,0.286-3.189c0.111-0.836,0.245-1.611,0.434-2.352
		c0.061-0.332,0.146-0.65,0.23-0.973c0.126-0.432,0.248-0.848,0.387-1.254c0.107-0.332,0.23-0.65,0.356-0.961
		c0.359-0.898,0.767-1.711,1.196-2.424c0.793-1.34,1.694-2.387,2.598-3.188c0.751-0.693,1.492-1.197,2.183-1.59
		c0.017,0,0.038-0.012,0.052-0.025c0.012-0.014,0.023-0.014,0.023-0.014c0.088,0.209,0.579,0.779,1.445,1.629
		c0.842,0.822,2.05,1.906,3.592,3.188c0.103,0.072,0.21,0.172,0.325,0.26c3.197,2.584,6.854,2.584,10.041,0
		c0.111-0.088,0.222-0.188,0.322-0.26c1.556-1.281,2.767-2.365,3.604-3.188c0.866-0.85,1.349-1.42,1.445-1.629
		c0,0,0.011,0,0.011,0.014c0.016,0.014,0.054,0.025,0.065,0.025c0.689,0.393,1.433,0.896,2.188,1.59
		c0.901,0.801,1.79,1.848,2.592,3.188c0.433,0.713,0.84,1.525,1.188,2.424c0.123,0.311,0.246,0.629,0.357,0.961
		c0.146,0.406,0.269,0.822,0.395,1.254c0.087,0.322,0.16,0.641,0.237,0.973c0.169,0.74,0.307,1.516,0.418,2.352
		c0.137,0.984,0.233,2.057,0.284,3.189C64.744,87.179,64.756,87.696,64.756,88.214"/>
	<path fill="#CD6C13" d="M41.14,82.12c0,1.008-0.819,1.824-1.831,1.824c-1.013,0-1.831-0.816-1.831-1.824s0.818-1.826,1.831-1.826
		C40.32,80.294,41.14,81.112,41.14,82.12"/>
	<path fill="#B3B628" d="M46.351,84.907c0,0.533-0.434,0.965-0.966,0.965c-0.535,0-0.968-0.432-0.968-0.965
		c0-0.531,0.433-0.963,0.968-0.963C45.917,83.944,46.351,84.376,46.351,84.907"/>
	<path fill="#425F6A" d="M54.718,82.729c0,1.26-1.024,2.279-2.29,2.279c-1.265,0-2.288-1.02-2.288-2.279
		c0-1.264,1.023-2.283,2.288-2.283C53.693,80.446,54.718,81.466,54.718,82.729"/>
	<path fill="#B3B628" d="M60.477,84.909c0,0.363-0.295,0.658-0.661,0.658c-0.365,0-0.661-0.295-0.661-0.658
		c0-0.365,0.296-0.66,0.661-0.66C60.182,84.249,60.477,84.544,60.477,84.909"/>
	<path fill="#856DA5" d="M57.829,77.456c0,0.393-0.315,0.709-0.711,0.709c-0.395,0-0.711-0.316-0.711-0.709
		c0-0.395,0.316-0.713,0.711-0.713C57.514,76.743,57.829,77.062,57.829,77.456"/>
	<path fill="#B3B628" d="M36.865,76.339c0,0.504-0.409,0.912-0.916,0.912c-0.506,0-0.915-0.408-0.915-0.912
		c0-0.506,0.409-0.91,0.915-0.91C36.456,75.429,36.865,75.833,36.865,76.339"/>
	<path fill="#B3B628" d="M34.017,83.944c0,0.672-0.547,1.217-1.22,1.217c-0.676,0-1.223-0.545-1.223-1.217s0.547-1.217,1.223-1.217
		C33.47,82.728,34.017,83.272,34.017,83.944"/>
	<circle cx="39.521" cy="44.422" r="1"/>
	<circle cx="53.771" cy="44.422" r="1"/>
</g>
</svg>
