<?xml version="1.0" encoding="utf-8"?>
<!-- Generator: Adobe Illustrator 16.0.3, SVG Export Plug-In . SVG Version: 6.00 Build 0)  -->
<!DOCTYPE svg PUBLIC "-//W3C//DTD SVG 1.1//EN" "http://www.w3.org/Graphics/SVG/1.1/DTD/svg11.dtd">
<svg version="1.1" id="Layer_1" xmlns="http://www.w3.org/2000/svg" xmlns:xlink="http://www.w3.org/1999/xlink" x="0px" y="0px"
	 width="88.9px" height="88.9px" viewBox="0 0 88.9 88.9" enable-background="new 0 0 88.9 88.9" xml:space="preserve">
<g>
	<rect x="0.007" y="-0.002" fill="#CD6C13" width="88.885" height="88.849"/>
	<path fill="#FDFBF8" d="M34.275,51.856c-0.363-0.27-6.974-4.336-6.974-4.336c0.45,2.531,0.789,3.568,0.129,5.283
		c-0.597,1.547-1.744,2.144-2.375,2.684c-0.637,0.545-1.925,0.952-2.375,0.952c-0.457,0-0.965-0.08-0.965-0.08
		s1.053,0.577,3.685,0.462c1.106-0.049,1.808-0.324,2.264-0.644c-0.521,0.841-1.012,2.04-0.462,3.155
		c1.989,4.047-0.664,5.369-0.664,5.369s2.352-0.234,3.7-1.418c0.006,0.027,0.003,0.069,0.012,0.096
		c0.597,2.025,2.177,2.25,2.177,2.25s-0.994-0.164-0.808-2.045c0.052-0.504,0.573-0.701,1.224-1.039
		c0.254,1.818,1.075,3.67-0.623,4.428c0,0,2.871-0.566,3.397-2.271c0.097-0.313,0.144-0.602,0.194-0.891
		c0.046,0.16,0.107,0.307,0.137,0.479c0.41,2.168-1.243,4.271-1.243,4.271s5.968-0.63,6.011-2.993
		c0.006-0.352,0.082-1.798,0.264-2.339s0.544-3.25,0.544-3.25S34.638,52.128,34.275,51.856"/>
	<path fill="#FDFBF8" d="M55.318,51.856c0.362-0.27,6.976-4.336,6.976-4.336c-0.453,2.531-0.793,3.568-0.131,5.283
		c0.6,1.547,1.743,2.144,2.375,2.684c0.637,0.545,1.926,0.952,2.375,0.952c0.456,0,0.965-0.08,0.965-0.08s-1.05,0.577-3.685,0.462
		c-1.106-0.049-1.808-0.324-2.261-0.644c0.517,0.841,1.009,2.04,0.459,3.155c-1.989,4.047,0.666,5.369,0.666,5.369
		s-2.352-0.234-3.703-1.418c-0.006,0.027,0,0.069-0.012,0.096c-0.597,2.025-2.174,2.25-2.174,2.25s0.995-0.164,0.805-2.045
		c-0.053-0.504-0.572-0.701-1.223-1.039c-0.254,1.818-1.076,3.67,0.627,4.428c0,0-2.875-0.566-3.399-2.271
		c-0.099-0.313-0.146-0.602-0.196-0.891c-0.046,0.16-0.107,0.307-0.137,0.479c-0.407,2.168,1.242,4.271,1.242,4.271
		s-5.963-0.63-6.01-2.993c-0.007-0.352-0.082-1.798-0.261-2.339c-0.185-0.541-0.547-3.25-0.547-3.25S54.955,52.128,55.318,51.856"/>
	<path fill="#DCC5A1" d="M44.262,55.931v32.972H26.272c-0.29-0.124-0.445-0.187-0.445-0.187c0-17.687,11.017-19.008,11.017-19.008
		c0.452,0,0.829-0.226,1.157-0.654c0.469-0.614,0.834-1.62,1.112-2.893c0.076-0.324,0.14-0.664,0.187-1.027
		c0.103-0.604,0.191-1.246,0.256-1.912c0.038-0.403,0.076-0.803,0.113-1.219c0.164-2.024,0.213-4.224,0.213-6.31
		C39.882,55.693,42.308,55.931,44.262,55.931"/>
	<path fill="#EDD9B4" d="M62.754,88.716c0,0-0.164,0.063-0.431,0.187H44.262V55.931h0.035c1.957,0,4.394-0.237,4.394-0.237
		c0,2.071,0.049,4.248,0.211,6.26c0.041,0.403,0.075,0.804,0.113,1.194c0.076,0.69,0.155,1.344,0.254,1.959v0.013
		c0.038,0.278,0.088,0.528,0.139,0.78c0.365,1.799,0.91,3.144,1.679,3.619c0.202,0.127,0.415,0.189,0.655,0.189
		C51.741,69.708,62.754,71.029,62.754,88.716"/>
	<path fill="#BC9F82" d="M49.272,65.11v0.013c-0.441,0.707-1.969,2.704-4.984,2.704h-0.027c-2.859-0.012-4.525-2.087-4.955-2.689
		c0.104-0.607,0.188-1.246,0.252-1.91c0.039-0.403,0.076-0.805,0.111-1.223c1.404,0.354,2.916,0.57,4.543,0.596h0.049
		c1.668-0.025,3.203-0.252,4.646-0.644c0.038,0.401,0.075,0.804,0.112,1.194C49.093,63.843,49.17,64.495,49.272,65.11"/>
	<rect x="39.307" y="61.957" fill="none" width="9.966" height="5.87"/>
	<path fill="#CCAD8B" d="M44.313,18.115C25.26,18.115,25.152,34.014,26,44.416c-1.307-2.465-5.174-1.702-4.855,2.177
		c0.304,3.746,5.765,5.682,5.689,5.246c1.562,8.56,10.53,13.502,17.479,13.502c0.047,0,0.1-0.006,0.146-0.006V18.118
		C44.413,18.118,44.36,18.115,44.313,18.115"/>
	<path fill="#BC9F82" d="M22.358,44.952c0.948-1.498,2.396-0.851,2.755-0.521c0.38,0.361,0.679,0.836,0.445,1.725
		c-0.132,0.5-0.661,0.538-0.529,1.293c0.14,0.854,0.535,0.909,0.763,1.104c0.218,0.188,0.5,0.34,0.643,0.698
		c0.135,0.361,0.157,0.746,0.082,1.072c-0.146,0.614-1.041,0.125-1.644-0.146c-0.394-0.178-1.655-1.239-1.971-1.598
		C22.101,47.682,21.732,45.952,22.358,44.952"/>
	<path fill="#D9BF9F" d="M44.407,18.115c19.058,0,19.166,15.899,18.317,26.301c1.308-2.465,5.174-1.702,4.856,2.177
		c-0.306,3.746-5.77,5.682-5.693,5.246c-1.562,8.56-10.527,13.502-17.48,13.502c-0.047,0-0.096-0.006-0.146-0.006V18.118
		C44.313,18.118,44.36,18.115,44.407,18.115"/>
	<path fill="#BC9F82" d="M66.363,44.952c-0.942-1.498-2.394-0.851-2.75-0.521c-0.38,0.361-0.678,0.836-0.45,1.725
		c0.137,0.5,0.661,0.538,0.532,1.293c-0.137,0.854-0.534,0.909-0.76,1.104c-0.224,0.188-0.503,0.34-0.642,0.698
		c-0.137,0.361-0.16,0.746-0.084,1.072c0.144,0.614,1.041,0.125,1.641-0.146c0.395-0.178,1.652-1.239,1.972-1.598
		C66.624,47.682,66.995,45.952,66.363,44.952"/>
	<path fill="#DCC5A1" d="M44.491,23.04c-6.271,0-10.857,1.816-13.637,5.397c-3.879,5.002-3.732,12.643-2.299,18.126
		c0.436,1.678,0.66,6.191,0.965,7.855c1.352,7.416,9.562,11.365,14.971,11.365c0.047,0,0.1-0.006,0.146-0.006V23.046
		C44.587,23.046,44.542,23.04,44.491,23.04"/>
	<path fill="#EDD9B4" d="M58.099,28.443c-2.755-3.556-7.295-5.366-13.461-5.397v42.732c6.172-0.067,13.555-4.395,14.824-11.36
		c0.298-1.661,0.523-6.177,0.963-7.854C61.849,41.093,61.989,33.462,58.099,28.443"/>
	<path fill="#FDFBF8" d="M28.112,47.567c-0.36,0,0.025-1.906-1.174-3.223c-1.198-1.314-3.024-5.743-3.024-10.16
		c0-4.422,1.562-8.353,5.64-12.535c4.075-4.182,10.068-6.211,10.068-6.211l-2.758,2.509c0,0,1.482-2.036,6.82-3.665
		c4.213-1.284,6.938,0.146,6.938,0.146s-2.776-0.095-3.618,1.111c-0.21,0.307-0.988,0.769-0.988,0.769s1.287-2.884,7.283-0.494
		c5.99,2.389,5.883,6.671,10.051,7.983c4.271,1.348,5.504-0.379,5.504-0.379s-1.848,3.028-5.139,3.036
		c-0.632,0-0.588-0.015-0.588-0.015s1.23,3.248,1.469,5.668c0.242,2.472-0.512,4.165-0.742,8.789
		c-0.199,3.951-1.282,1.925-2.572,4.841c-0.436,0.976-0.453,2.076-0.453,2.076c-0.48,0.116-1.732-2.371-0.831-6.695
		c0.585-2.805-2.31-13.439-9.296-11.365c-4.276,1.267-5.354,3.85-8.551,1.557c-2.752-1.979-6.606-3.114-9.482-1.549
		c-2.875,1.564-4.499,5.083-3.998,10.693C29.313,47.62,28.112,47.567,28.112,47.567"/>
	<path fill="#16160F" d="M38.386,66.841c0,0-0.977,2.773-0.812,2.629c0.17-0.144,1.682,2.243,6.688,2.243
		c0,0-0.352-3.282-0.945-3.45C42.722,68.097,38.386,66.841,38.386,66.841"/>
	<path fill="#16160F" d="M50.134,66.841c0,0,0.979,2.773,0.812,2.629c-0.17-0.144-1.679,2.243-6.686,2.243
		c0,0,0.351-3.282,0.94-3.45C45.798,68.097,50.134,66.841,50.134,66.841"/>
	<path fill="#0F0F0F" d="M62.753,88.716c0,0-0.164,0.063-0.431,0.187H26.271c-0.289-0.123-0.444-0.187-0.444-0.187
		c0-17.687,11.017-19.008,11.017-19.008c0.453,0,0.83-0.226,1.158-0.654c1.362-0.237,2.791-0.365,4.252-0.365l1.768,3.018
		c0.037,0,0.129-0.023,0.24-0.086c0.918-0.429,3.937-2.339,4.264-2.339c0.881,0.038,1.316-0.128,2.136-0.003
		c0.204,0.124,0.839,0.43,1.079,0.43C51.739,69.708,62.753,71.029,62.753,88.716"/>
	<path fill="#E3B142" d="M59.54,88.745c0,0-0.123,0.049-0.359,0.152H29.792c-0.246-0.104-0.365-0.152-0.365-0.152
		c0-0.429,0.009-0.857,0.021-1.265c0.041-0.94,0.123-1.83,0.234-2.646c0.093-0.695,0.204-1.339,0.36-1.949
		c0.049-0.276,0.125-0.541,0.192-0.808c0.103-0.358,0.207-0.704,0.317-1.044c0.095-0.273,0.193-0.54,0.3-0.794
		c0.298-0.746,0.635-1.42,0.993-2.013c0.656-1.113,1.402-1.979,2.15-2.646c0.627-0.572,1.241-0.988,1.814-1.313
		c0.012,0,0.031-0.015,0.041-0.022c0.009-0.012,0.02-0.012,0.02-0.012c0.073,0.175,0.483,0.646,1.2,1.348
		c0.696,0.686,1.699,1.588,2.979,2.646c0.086,0.062,0.174,0.144,0.268,0.215c2.655,2.145,5.689,2.145,8.33,0
		c0.094-0.071,0.188-0.153,0.27-0.215c1.287-1.059,2.293-1.961,2.989-2.646c0.72-0.701,1.117-1.173,1.199-1.348
		c0,0,0.012,0,0.012,0.012c0.009,0.008,0.041,0.022,0.05,0.022c0.576,0.325,1.19,0.741,1.813,1.313
		c0.749,0.668,1.485,1.533,2.153,2.646c0.356,0.593,0.695,1.267,0.981,2.013c0.103,0.254,0.205,0.521,0.296,0.794
		c0.123,0.34,0.229,0.686,0.33,1.044c0.071,0.267,0.133,0.531,0.197,0.808c0.141,0.61,0.254,1.254,0.345,1.949
		c0.114,0.815,0.196,1.705,0.237,2.646C59.528,87.888,59.54,88.316,59.54,88.745"/>
	<circle cx="37.481" cy="43.825" r="1"/>
	<circle cx="51.731" cy="43.825" r="1"/>
</g>
</svg>
