<?xml version="1.0" encoding="utf-8"?>
<!-- Generator: Adobe Illustrator 16.0.3, SVG Export Plug-In . SVG Version: 6.00 Build 0)  -->
<!DOCTYPE svg PUBLIC "-//W3C//DTD SVG 1.1//EN" "http://www.w3.org/Graphics/SVG/1.1/DTD/svg11.dtd">
<svg version="1.1" id="Layer_1" xmlns="http://www.w3.org/2000/svg" xmlns:xlink="http://www.w3.org/1999/xlink" x="0px" y="0px"
	 width="88.9px" height="88.9px" viewBox="0 0 88.9 88.9" enable-background="new 0 0 88.9 88.9" xml:space="preserve">
<g>
	<rect x="0.007" y="0.027" fill="#3C1C2B" width="88.885" height="88.847"/>
	<path fill="#DCC5A1" d="M42.196,54.188v34.674H23.277c-0.305-0.131-0.463-0.199-0.463-0.199c0-18.6,11.577-19.986,11.577-19.986
		c0.867,0,1.486-0.818,1.967-2.154c0.156-0.463,0.304-0.992,0.427-1.574c0.076-0.342,0.144-0.701,0.196-1.082
		c0.107-0.637,0.197-1.311,0.266-2.008c0.038-0.424,0.079-0.85,0.12-1.285c0.172-2.129,0.226-4.443,0.226-6.635
		C37.593,53.938,40.138,54.188,42.196,54.188"/>
	<path fill="#EDD9B4" d="M61.642,88.663c0,0-0.172,0.068-0.45,0.199H42.196V54.188h0.038c2.056,0,4.618-0.25,4.618-0.25
		c0,2.182,0.05,4.467,0.223,6.582c0.041,0.424,0.082,0.846,0.12,1.254c0.079,0.727,0.161,1.416,0.267,2.061v0.02
		c0.04,0.287,0.094,0.553,0.146,0.816c0.225,1.164,0.531,2.125,0.927,2.816c0.399,0.754,0.904,1.188,1.526,1.188
		C50.062,68.675,61.642,70.063,61.642,88.663"/>
	<path fill="#BC9F82" d="M47.462,63.837v0.02c-0.463,0.738-2.065,2.838-5.236,2.838h-0.026c-3.01-0.014-4.765-2.195-5.216-2.826
		c0.105-0.635,0.199-1.309,0.268-2.01c0.037-0.422,0.078-0.846,0.119-1.283c1.469,0.373,3.065,0.596,4.773,0.617h0.056
		c1.752-0.021,3.367-0.26,4.882-0.672c0.035,0.428,0.076,0.848,0.117,1.258C47.28,62.505,47.356,63.192,47.462,63.837"/>
	<rect x="36.983" y="60.521" fill="none" width="10.479" height="6.174"/>
	<polygon fill="#ECEDEF" points="29.048,71.931 28.3,72.47 27.694,70.849 27.091,69.231 28.445,70.313 29.8,71.39 	"/>
	<polygon fill="#ECEDEF" points="30.657,70.544 29.776,70.827 29.7,69.103 29.627,67.376 30.584,68.819 31.536,70.261 	"/>
	<polygon fill="#ECEDEF" points="32.821,69.528 31.9,69.563 32.292,67.88 32.687,66.198 33.216,67.845 33.745,69.487 	"/>
	<polygon fill="#ECEDEF" points="55.134,71.698 55.886,72.237 56.487,70.616 57.091,68.997 55.735,70.079 54.385,71.157 	"/>
	<polygon fill="#ECEDEF" points="53.528,70.313 54.406,70.597 54.479,68.87 54.556,67.146 53.601,68.587 52.646,70.028 	"/>
	<polygon fill="#ECEDEF" points="51.36,69.296 52.284,69.331 51.89,67.647 51.497,65.968 50.966,67.61 50.439,69.255 	"/>
	<path fill="#841720" d="M61.642,88.661c0,0-0.172,0.066-0.45,0.201H23.277c-0.305-0.135-0.463-0.201-0.463-0.201
		c0-18.709,11.577-20.104,11.577-20.104c0.867,0,1.486-0.826,1.967-2.168l5.838,10.197l6.339-9.229
		c0.399,0.76,0.904,1.199,1.526,1.199C50.062,68.558,61.642,69.952,61.642,88.661"/>
	<path fill="#362C1D" d="M42.243,80.513c-0.918,0-1.667-0.744-1.667-1.656c0,0,0.749-4.432,1.667-4.432
		c0.919,0,1.66,4.432,1.66,4.432C43.903,79.769,43.162,80.513,42.243,80.513"/>
	<path fill="#CCAD8B" d="M42.252,14.423c-20.04,0-20.151,16.716-19.262,27.655c-1.372-2.592-5.435-1.793-5.107,2.292
		c0.322,3.934,6.067,5.969,5.985,5.51c1.644,9.006,11.074,14.207,18.384,14.207c0.05,0,0.103-0.01,0.155-0.01V14.424
		C42.354,14.424,42.302,14.423,42.252,14.423"/>
	<path fill="#BC9F82" d="M19.164,42.642c0.991-1.578,2.518-0.896,2.896-0.551c0.398,0.381,0.713,0.881,0.468,1.812
		c-0.141,0.523-0.696,0.566-0.556,1.365c0.146,0.894,0.562,0.953,0.799,1.156c0.233,0.203,0.529,0.357,0.675,0.736
		c0.143,0.379,0.17,0.785,0.088,1.127c-0.152,0.646-1.094,0.133-1.726-0.156c-0.415-0.186-1.737-1.299-2.074-1.678
		C18.892,45.509,18.503,43.695,19.164,42.642"/>
	<path fill="#D9BF9F" d="M42.352,14.423c20.04,0,20.151,16.716,19.262,27.655c1.371-2.592,5.44-1.793,5.104,2.292
		c-0.319,3.934-6.064,5.969-5.982,5.51c-1.645,9.006-11.074,14.207-18.384,14.207c-0.05,0-0.104-0.01-0.152-0.01V14.424
		C42.249,14.424,42.302,14.423,42.352,14.423"/>
	<path fill="#BC9F82" d="M65.438,42.642c-0.988-1.578-2.518-0.896-2.896-0.551c-0.397,0.381-0.711,0.881-0.468,1.812
		c0.141,0.523,0.695,0.566,0.559,1.365c-0.146,0.894-0.564,0.953-0.802,1.156c-0.233,0.203-0.528,0.357-0.675,0.736
		c-0.141,0.379-0.17,0.785-0.088,1.127c0.152,0.646,1.094,0.133,1.726-0.156c0.418-0.186,1.737-1.299,2.074-1.678
		C65.711,45.509,66.101,43.695,65.438,42.642"/>
	<path fill="#DCC5A1" d="M42.079,19.136c-6.593,0-11.42,1.905-14.342,5.674c-4.078,5.257-3.922,13.292-2.419,19.061
		c0.462,1.765,0.696,6.515,1.015,8.261c1.422,7.799,10.06,11.955,15.746,11.955c0.047,0,0.103-0.012,0.152-0.012V19.139
		C42.179,19.139,42.132,19.136,42.079,19.136"/>
	<path fill="#EDD9B4" d="M56.389,24.814c-2.901-3.74-7.67-5.643-14.157-5.675v44.936c6.493-0.066,14.256-4.619,15.59-11.943
		c0.316-1.746,0.551-6.498,1.013-8.261C60.335,38.12,60.483,30.095,56.389,24.814"/>
	<path fill="#CD6C13" d="M21.224,23.832c-0.632,4.64-0.802,8.469-0.802,8.469L20.334,42.81c0,0,0.316-2.887,1.477-5.656
		c0.368-0.881,0.415-3.168,0.415-3.168s-0.857,2.442-0.681,8.824c0.105,3.8,3.217,7.117,3.217,7.117s-2.951-5.714-0.31-10.229
		c0.691-1.178,1.738-1.997,1.738-1.997l-0.161,5.403c0,0,2.843-4.798,3.525-10.073c0.456-3.56,0-4.671,0-4.671
		s-0.281,3.905,2.638,7.593c3.791,4.801,9.398,6.261,11.484,6.72c1.644,0.361,6.687,0.342,6.687,0.342s-2.712-0.205-5.915-2.688
		c-2.004-1.55-3.264-3.283-3.264-3.283s2.311,2.415,3.896,3.326c3.424,1.967,6.563,1.572,6.563,1.572s-3.206-1.604-4.426-2.914
		c-1.222-1.313-2.612-3.954-2.612-3.954s2.934,3.832,4.75,4.803c4.663,2.496,8.542,0.887,8.542,0.887s-3.517-0.241-4.858-2.965
		c-0.396-0.81-1.571-3.24-1.571-3.24s0.849,4.005,7.959,5.957c2.907,0.794,5.899,0.043,5.899,0.043s-3.369-0.379-5.186-2.686
		c-1.085-1.383-4.273-7.106-4.273-7.106s0.381,1.159,1.661,3.35c1.284,2.188,2.568,4.725,3.206,7.644
		c0.639,2.92-0.594,7.35-0.594,7.35s4.87-7.781,4.081-15.37c-0.15-1.431-0.345-7.078-1.001-10.177
		C59.585,6.303,38.841,9.379,38.841,9.379S23.181,9.399,21.224,23.832"/>
	<circle cx="35.024" cy="43.588" r="1"/>
	<circle cx="49.274" cy="43.588" r="1"/>
</g>
</svg>
