<?xml version="1.0" encoding="utf-8"?>
<!-- Generator: Adobe Illustrator 16.0.3, SVG Export Plug-In . SVG Version: 6.00 Build 0)  -->
<!DOCTYPE svg PUBLIC "-//W3C//DTD SVG 1.1//EN" "http://www.w3.org/Graphics/SVG/1.1/DTD/svg11.dtd">
<svg version="1.1" id="Layer_1" xmlns="http://www.w3.org/2000/svg" xmlns:xlink="http://www.w3.org/1999/xlink" x="0px" y="0px"
	 width="88.9px" height="88.9px" viewBox="0 0 88.9 88.9" enable-background="new 0 0 88.9 88.9" xml:space="preserve">
<g>
	<rect x="0.006" y="0.007" fill="#7FA5AD" width="88.888" height="88.839"/>
	<path fill="#DCC5A1" d="M43.756,56.217v32.677H25.93c-0.292-0.125-0.438-0.186-0.438-0.186c0-17.527,10.91-18.84,10.91-18.84
		c1.091,0,1.79-1.393,2.252-3.509c0.077-0.323,0.135-0.661,0.188-1.026c0.102-0.596,0.187-1.231,0.248-1.892
		c0.038-0.397,0.076-0.797,0.114-1.207c0.164-2.005,0.211-4.186,0.211-6.254C39.416,55.98,41.817,56.217,43.756,56.217"/>
	<path fill="#EDD9B4" d="M62.082,88.707c0,0-0.162,0.062-0.424,0.187H43.757V56.216h0.035c1.938,0,4.353-0.234,4.353-0.234
		c0,2.056,0.049,4.209,0.211,6.203c0.037,0.399,0.074,0.797,0.109,1.185c0.076,0.683,0.152,1.332,0.252,1.94v0.016
		c0.037,0.273,0.088,0.523,0.141,0.77c0.459,2.258,1.188,3.774,2.311,3.774C51.168,69.869,62.082,71.181,62.082,88.707"/>
	<path fill="#BC9F82" d="M48.717,65.311v0.015c-0.439,0.698-1.947,2.676-4.937,2.676h-0.024c-2.837-0.014-4.487-2.067-4.914-2.668
		c0.102-0.596,0.187-1.231,0.248-1.892c0.038-0.397,0.077-0.797,0.115-1.207c1.386,0.349,2.89,0.56,4.501,0.583h0.05
		c1.65-0.023,3.173-0.244,4.597-0.632c0.039,0.397,0.076,0.795,0.111,1.185C48.541,64.053,48.617,64.702,48.717,65.311"/>
	<rect x="38.842" y="62.185" fill="none" width="9.875" height="5.816"/>
	<path fill="#771819" d="M51.592,69.96c0.018,0.055-0.562-0.187-0.686-0.406c-0.348-0.57-0.77-1.131-1.279-1.728
		c-0.043-0.043-0.09-0.082-0.119-0.126l-0.188,1.07l-5.568,2.847l-5.488-2.649L37.992,67.7c-0.023,0.02-0.044,0.051-0.076,0.07
		c-0.74,0.848-2.009,2.244-1.997,2.189c-2.06,0.477-10.455,3.362-10.455,18.747c0,0,0.152,0.068,0.433,0.187h35.72
		c0.279-0.118,0.432-0.187,0.432-0.187C62.049,73.322,53.656,70.437,51.592,69.96"/>
	<path fill="#FDFDFD" d="M50.584,68.485c-0.268-0.691-0.924-1.338-1.156-1.889c-0.398-0.914-0.762-1.723-0.762-1.723
		c-0.086,0.875-1.439,4.75-1.439,4.75s-4.241,2.027-3.575,2.168c0.664,0.147,3.809,4.098,4.709,5.149
		c0.908,1.044,0.754,2.017,0.99,0.603C49.588,76.128,51.307,70.339,50.584,68.485"/>
	<path fill="#FDFDFD" d="M40.294,69.624c0,0-1.351-3.876-1.439-4.75c0,0-0.363,0.809-0.758,1.723
		c-0.237,0.551-0.892,1.198-1.164,1.889c-0.719,1.854,1.003,7.643,1.237,9.058c0.237,1.414,0.085,0.442,0.983-0.602
		c0.907-1.052,3.829-5.001,4.499-5.148C44.313,71.652,40.294,69.624,40.294,69.624"/>
	<path fill="#CCAD8B" d="M43.806,18.742c-18.881,0-18.987,15.752-18.15,26.06c-1.293-2.445-5.125-1.687-4.812,2.158
		c0.301,3.711,5.716,5.627,5.637,5.197c1.55,8.482,10.436,13.383,17.325,13.383c0.047,0,0.096-0.006,0.143-0.006V18.744
		C43.902,18.744,43.853,18.742,43.806,18.742"/>
	<path fill="#BC9F82" d="M22.052,45.333c0.93-1.485,2.369-0.845,2.726-0.518c0.374,0.357,0.673,0.831,0.439,1.709
		c-0.129,0.492-0.65,0.532-0.524,1.286c0.138,0.843,0.533,0.897,0.755,1.089c0.219,0.192,0.5,0.336,0.635,0.694
		c0.134,0.356,0.161,0.737,0.088,1.062c-0.147,0.607-1.036,0.125-1.63-0.146c-0.392-0.176-1.638-1.227-1.951-1.58
		C21.794,48.038,21.426,46.323,22.052,45.333"/>
	<path fill="#D9BF9F" d="M43.899,18.742c18.882,0,18.989,15.752,18.149,26.06c1.297-2.445,5.131-1.687,4.816,2.158
		c-0.305,3.711-5.717,5.627-5.646,5.197C59.674,60.64,50.789,65.54,43.899,65.54c-0.047,0-0.096-0.006-0.143-0.006V18.744
		C43.804,18.744,43.853,18.742,43.899,18.742"/>
	<path fill="#BC9F82" d="M65.656,45.333c-0.934-1.485-2.371-0.845-2.729-0.518c-0.375,0.357-0.67,0.831-0.439,1.709
		c0.135,0.492,0.654,0.532,0.525,1.286c-0.139,0.843-0.531,0.897-0.756,1.089c-0.219,0.192-0.498,0.336-0.635,0.694
		c-0.135,0.356-0.162,0.737-0.082,1.062c0.141,0.607,1.029,0.125,1.627-0.146c0.391-0.176,1.637-1.227,1.953-1.58
		C65.916,48.038,66.279,46.323,65.656,45.333"/>
	<path fill="#DCC5A1" d="M43.645,23.181c-6.216,0-10.761,1.796-13.517,5.349c-3.841,4.954-3.694,12.526-2.279,17.959
		c0.433,1.663,0.656,6.141,0.957,7.787c1.337,7.348,9.477,11.264,14.839,11.264c0.044,0,0.096-0.006,0.143-0.006v-42.35
		C43.738,23.185,43.692,23.181,43.645,23.181"/>
	<path fill="#EDD9B4" d="M57.127,28.535c-2.729-3.527-7.225-5.323-13.338-5.351v42.349c6.116-0.063,13.434-4.353,14.688-11.257
		c0.303-1.646,0.521-6.124,0.957-7.787C60.848,41.072,60.984,33.509,57.127,28.535"/>
	<path fill="#422E14" d="M28.148,63.705c0.006,0.019,0.012,0.035,0.018,0.052c0.003,0.005,0.005,0.006,0.005,0.012
		c0.539,1.537,1.46,2.855,2.522,4.017c1.111,1.144,2.372,2.151,3.791,2.879c-0.626-0.488-1.205-1.003-1.755-1.552
		c-0.547-0.549-1.041-1.139-1.504-1.746c-0.556-0.721-1.047-1.488-1.427-2.288c0.313,0.146,0.626,0.28,0.942,0.397
		c0.871,0.324,1.793,0.582,2.588,0.857l1.077,0.381l-0.237-1.076c-0.24-1.089-0.629-2.086-1.006-3.085
		c-0.053-0.137-0.114-0.272-0.17-0.407c0.304,0.221,0.608,0.437,0.924,0.649c1.094,0.74,2.27,1.373,3.502,1.89
		c1.231,0.512,2.512,0.928,3.843,1.11c0.84,0.108,1.691,0.128,2.525,0.058c0.836,0.07,1.683,0.051,2.527-0.058
		c1.328-0.183,2.611-0.599,3.844-1.11c1.23-0.517,2.408-1.149,3.502-1.89c0.312-0.213,0.619-0.429,0.92-0.649
		c-0.051,0.135-0.113,0.271-0.166,0.407c-0.377,0.999-0.764,1.996-1.004,3.085l-0.24,1.076l1.078-0.381
		c0.795-0.275,1.713-0.533,2.59-0.857c0.311-0.117,0.627-0.252,0.943-0.397c-0.383,0.8-0.875,1.567-1.432,2.288
		c-0.459,0.607-0.955,1.197-1.504,1.746s-1.129,1.063-1.752,1.552c1.416-0.728,2.676-1.735,3.791-2.879
		c1.061-1.161,1.98-2.479,2.52-4.017c0-0.006,0.004-0.007,0.006-0.012h-0.002c0.004-0.017,0.014-0.033,0.02-0.052l0.92-2.688
		l-1.947,2.362c-0.043,0.054-0.127,0.163-0.279,0.263c-0.145,0.103-0.322,0.197-0.504,0.289c-0.369,0.178-0.779,0.331-1.193,0.476
		c-0.477,0.165-0.957,0.303-1.451,0.444c0.529-1.576,1.234-3.156,1.916-4.705l1.393-3.162l-2.473,2.461
		c-0.414,0.418-0.9,0.843-1.381,1.242c-0.479,0.402-0.971,0.797-1.479,1.166c-1.025,0.737-2.086,1.42-3.207,2.014
		c-1.123,0.59-2.314,1.043-3.547,1.371c-0.781,0.213-1.588,0.33-2.408,0.378c-0.819-0.048-1.624-0.165-2.405-0.378
		c-1.234-0.328-2.428-0.781-3.548-1.371c-1.12-0.594-2.182-1.276-3.203-2.014c-0.509-0.369-1.003-0.764-1.483-1.166
		c-0.48-0.399-0.962-0.824-1.383-1.242l-2.469-2.461l1.392,3.162c0.682,1.549,1.387,3.129,1.916,4.705
		c-0.494-0.142-0.974-0.279-1.454-0.444c-0.415-0.145-0.822-0.298-1.19-0.476c-0.185-0.092-0.36-0.187-0.503-0.289
		c-0.155-0.1-0.237-0.209-0.278-0.263l-1.951-2.362L28.148,63.705z"/>
	<path fill="#422E14" d="M29.294,56.983c0,0,12.499,15.328,28.985,0l-4.684,5.518c0,0-11.907,8.977-22.797-2.637L29.294,56.983z"/>
	<path fill="#422E14" d="M26.826,45.492c-0.374,0,0.029-2.005-1.234-3.386c-1.258-1.383-3.177-6.037-3.177-10.683
		c0-4.649,1.644-8.782,5.926-13.174c4.285-4.395,10.583-6.53,10.583-6.53l-2.896,2.635c0,0,1.559-2.141,7.173-3.851
		c4.422-1.348,7.29,0.153,7.29,0.153s-2.916-0.098-3.803,1.167c-0.223,0.32-1.043,0.808-1.043,0.808s1.357-3.03,7.658-0.518
		c6.303,2.51,6.186,7.014,10.568,8.393c4.486,1.418,5.787-0.4,5.787-0.4s-1.945,3.185-5.404,3.192c-0.664,0-0.619-0.013-0.619-0.013
		s1.295,3.412,1.545,5.956c0.256,2.6-0.539,4.379-0.781,9.24c-0.211,4.155-1.35,2.024-2.703,5.085
		c-0.455,1.029-0.477,2.183-0.477,2.183c-0.504,0.122-1.818-2.495-0.873-7.037c0.615-2.948-2.43-14.125-9.773-11.948
		c-4.494,1.334-5.628,4.049-8.986,1.638c-2.896-2.08-6.944-3.274-9.969-1.629c-3.024,1.645-4.727,5.342-4.2,11.241
		C28.09,45.549,26.826,45.492,26.826,45.492"/>
	<circle cx="36.631" cy="43.132" r="1"/>
	<circle cx="50.881" cy="43.132" r="1"/>
</g>
</svg>
