<?xml version="1.0" encoding="utf-8"?>
<!-- Generator: Adobe Illustrator 16.0.3, SVG Export Plug-In . SVG Version: 6.00 Build 0)  -->
<!DOCTYPE svg PUBLIC "-//W3C//DTD SVG 1.1//EN" "http://www.w3.org/Graphics/SVG/1.1/DTD/svg11.dtd">
<svg version="1.1" id="Layer_1" xmlns="http://www.w3.org/2000/svg" xmlns:xlink="http://www.w3.org/1999/xlink" x="0px" y="0px"
	 width="88.9px" height="88.9px" viewBox="0 0 88.9 88.9" enable-background="new 0 0 88.9 88.9" xml:space="preserve">
<g>
	<rect x="-0.015" y="-0.014" fill="#B9C98E" width="88.887" height="88.729"/>
	<path fill="#DCC5A1" d="M42.635,57.348v31.507H24.318c-0.292-0.121-0.45-0.181-0.45-0.181c0-11.509,5.203-15.758,8.518-17.31
		c1.554-0.721,2.697-0.851,2.697-0.851h0.091c0.079-0.013,0.164-0.026,0.243-0.049c0.924-0.24,1.553-1.513,1.977-3.339
		c0.076-0.312,0.141-0.635,0.193-0.984c0.103-0.578,0.192-1.191,0.258-1.826c0.038-0.385,0.079-0.769,0.117-1.164
		c0.163-1.934,0.216-4.037,0.216-6.031C38.177,57.12,40.643,57.348,42.635,57.348"/>
	<path fill="#EDD9B4" d="M61.462,88.673c0,0-0.164,0.061-0.438,0.181H42.635V57.348h0.038c1.992,0,4.47-0.228,4.47-0.228
		c0,1.984,0.049,4.06,0.219,5.981c0.035,0.385,0.076,0.767,0.117,1.14c0.076,0.662,0.152,1.287,0.254,1.877v0.01
		c0.037,0.265,0.09,0.507,0.141,0.744c0.383,1.766,0.949,3.063,1.771,3.496c0.068,0.024,0.129,0.059,0.195,0.071
		c0.127,0.048,0.266,0.075,0.412,0.075c0,0,0.908,0.093,2.205,0.632C55.733,72.509,61.462,76.587,61.462,88.673"/>
	<path fill="#FDFDFD" d="M41.574,88.901c-0.176-0.848-0.338-1.578-0.525-2.477c-0.404-1.931-0.761-3.648-0.761-3.648
		c0.026-0.037,0.559-0.453,1.381-1.147c0.342-0.28,0.734-0.618,1.181-0.998c2.96-2.536,7.701-6.843,9.689-10.14
		c1.217,0.531,2.764,1.478,4.229,3.109c1.02,1.121,1.992,2.586,2.791,4.479c1.111,2.666,1.861,6.187,1.861,10.834"/>
	<path fill="#FDFDFD" d="M23.852,88.713c0,0,0.163,0.063,0.43,0.188h19.37c0.178-0.846,0.38-1.781,0.569-2.678
		c0.407-1.932,0.765-3.648,0.765-3.648c-0.029-0.037-0.562-0.453-1.384-1.147c-0.343-0.282-0.734-0.621-1.18-0.999
		c-2.963-2.538-7.704-6.844-9.69-10.141c-1.22,0.533-2.765,1.479-4.232,3.109c-1.015,1.12-1.989,2.588-2.788,4.48
		C24.597,80.544,23.852,84.064,23.852,88.713"/>
	<path fill="#BC9F82" d="M47.503,64.452l0.09,0.723c-0.445,0.707-1.84,2.509-4.867,2.509H42.7c-2.876-0.013-4.546-2.099-4.979-2.705
		c0.104-0.604,0.188-1.249,0.252-1.919c0.04-0.402,0.076-0.809,0.117-1.225c1.404,0.354,2.926,0.568,4.558,0.596H42.7
		c1.673-0.027,3.217-0.254,4.663-0.645c0.035,0.403,0.076,0.81,0.113,1.2C47.552,63.681,47.401,63.833,47.503,64.452"/>
	<rect x="37.721" y="61.786" fill="none" width="9.872" height="5.898"/>
	<path fill="#CCAD8B" d="M42.873,20.149c-18.855-0.035-18.965,15.065-18.128,24.911c-1.293-2.313-5.115-1.453-4.803,2.247
		c0.301,3.544,5.704,5.148,5.631,4.758c1.542,8.021,10.432,12.48,17.3,13.113c0.05,0,0.096,0,0.146,0.004V20.151
		C42.968,20.151,42.922,20.149,42.873,20.149"/>
	<path fill="#BC9F82" d="M20.89,45.743c0.947-1.431,2.404-0.813,2.761-0.496c0.381,0.34,0.685,0.797,0.451,1.639
		c-0.136,0.477-0.664,0.515-0.532,1.236c0.14,0.813,0.538,0.864,0.763,1.053c0.226,0.182,0.506,0.324,0.646,0.666
		c0.135,0.345,0.161,0.709,0.082,1.022c-0.144,0.585-1.044,0.119-1.65-0.14c-0.396-0.17-1.658-1.182-1.977-1.522
		C20.629,48.345,20.257,46.696,20.89,45.743"/>
	<path fill="#D9BF9F" d="M42.966,20.149c18.857-0.035,18.966,15.065,18.126,24.911c1.293-2.313,5.119-1.453,4.807,2.247
		c-0.303,3.544-5.707,5.148-5.629,4.758c-1.545,8.021-10.432,12.48-17.304,13.113c-0.045,0-0.098,0-0.144,0.004V20.151
		C42.869,20.151,42.921,20.149,42.966,20.149"/>
	<path fill="#BC9F82" d="M65.085,45.743c-0.945-1.431-2.404-0.813-2.764-0.496c-0.381,0.34-0.682,0.797-0.447,1.639
		c0.131,0.477,0.662,0.515,0.535,1.236c-0.141,0.813-0.543,0.864-0.77,1.053c-0.223,0.182-0.504,0.324-0.646,0.666
		c-0.135,0.345-0.16,0.709-0.082,1.022c0.146,0.585,1.045,0.119,1.65-0.14c0.398-0.17,1.66-1.182,1.98-1.522
		C65.345,48.345,65.714,46.696,65.085,45.743"/>
	<path fill="#DCC5A1" d="M42.776,24.419c-6.302,0-10.908,1.734-13.701,5.148c-3.894,4.769-3.744,12.059-2.305,17.289
		c0.438,1.598,0.66,5.908,0.965,7.49c1.356,7.07,9.605,10.84,15.041,10.84c0.047,0,0.096-0.004,0.146-0.004V24.425
		C42.869,24.425,42.823,24.419,42.776,24.419"/>
	<path fill="#EDD9B4" d="M56.442,29.578c-2.771-3.395-7.324-5.125-13.521-5.153v40.757c6.201-0.064,13.613-4.193,14.89-10.836
		c0.301-1.582,0.525-5.893,0.965-7.49C60.208,41.642,60.349,34.364,56.442,29.578"/>
	<path fill="#B47070" d="M46.089,58.794c0,0-1.424,1.517-3.176,1.517c-1.755,0-3.097-1.485-3.097-1.485s1.342-0.229,3.097-0.229
		C44.665,58.596,46.089,58.794,46.089,58.794"/>
	<path fill="#C17874" d="M43.811,58.094c-0.492,0-0.889,0.308-0.897,0.687c-0.01-0.379-0.407-0.687-0.898-0.687
		c-0.497,0-2.282,0.7-2.282,0.7s1.738,0.184,2.235,0.184s0.936,0.192,0.945-0.176c0.009,0.371,0.364,0.229,0.856,0.229
		c0.5,0,2.321-0.236,2.321-0.236S44.308,58.094,43.811,58.094"/>
	<path fill="#362C1D" d="M29.642,40.481C29.629,40.514,29.629,40.513,29.642,40.481"/>
	<path fill="#362C1D" d="M61.677,24.245c-1.691-2.593-1.812-1.862-1.812-1.862s1.701-7.076-8.869-8.643
		c-1.752-0.26-4.148-0.12-4.148-0.12l1.439,1.451c0,0-5.555-1.889-12.903-0.758c-5.341,0.825-8.985,3.443-12.007,7.713
		c-2.024,2.853-2.645,7.068-2.645,7.068l2.765-3.669c-1.413,2.161-3.54,6.524-2.765,12.394c1.636,12.329,7.374,14.616,7.374,14.616
		s-3.951-7.392-1.343-12.18c4.382-8.039,12.184-8.281,12.184-8.281s-7.292,0.651-9.293,8.469c-0.007,0.021-0.013,0.029-0.013,0.039
		c0.074-0.24,0.843-2.377,3.695-3.472c1.733-0.663,4.004-0.643,6.604-1.322c-2.439,3.121-2.765,6.398-2.765,6.398
		s2.3-3.691,7.922-5.802c0.321-0.122,0.678-0.254,1.049-0.394c-1.658,2.129-1.067,5.713-0.535,6.424c0,0-0.193-3.228,6.869-5.249
		c4.062-1.163,4.715-3.457,4.715-3.457s-0.027,2.272,0.521,3.724c0.633,1.687,2.432,2.784,2.562,4.306
		c0.232,2.829-1.295,8.135-1.295,8.135l2.285-1.789c1.186-4.125,2.293-11.035,2.293-14.217
		C63.563,30.586,62.964,26.214,61.677,24.245"/>
	<ellipse cx="35.677" cy="46.986" rx="1.046" ry="1"/>
	<ellipse cx="50.585" cy="46.986" rx="1.047" ry="1"/>
</g>
</svg>
