<?xml version="1.0" encoding="utf-8"?>
<!-- Generator: Adobe Illustrator 16.0.3, SVG Export Plug-In . SVG Version: 6.00 Build 0)  -->
<!DOCTYPE svg PUBLIC "-//W3C//DTD SVG 1.1//EN" "http://www.w3.org/Graphics/SVG/1.1/DTD/svg11.dtd">
<svg version="1.1" id="Layer_1" xmlns="http://www.w3.org/2000/svg" xmlns:xlink="http://www.w3.org/1999/xlink" x="0px" y="0px"
	 width="88.9px" height="88.9px" viewBox="0 0 88.9 88.9" enable-background="new 0 0 88.9 88.9" xml:space="preserve">
<g>
	<rect x="0.007" y="0.007" fill="#E3B142" width="88.888" height="88.849"/>
	<path fill="#DCC5A1" d="M44.701,57.206v31.676H27.42c-0.278-0.123-0.427-0.184-0.427-0.184c0-16.99,10.582-18.258,10.582-18.258
		c1.054,0,1.731-1.354,2.183-3.41c0.073-0.311,0.131-0.637,0.181-0.988c0.101-0.578,0.182-1.193,0.24-1.834
		c0.038-0.387,0.076-0.771,0.111-1.168c0.158-1.949,0.205-4.061,0.205-6.066C40.495,56.974,42.823,57.206,44.701,57.206"/>
	<path fill="#EDD9B4" d="M62.468,88.7c0,0-0.158,0.059-0.412,0.182H44.701V57.206h0.035c1.881,0,4.218-0.232,4.218-0.232
		c0,1.994,0.047,4.082,0.205,6.014c0.038,0.389,0.076,0.775,0.11,1.148c0.07,0.662,0.144,1.287,0.24,1.881v0.016
		c0.041,0.268,0.088,0.504,0.134,0.748c0.451,2.186,1.153,3.66,2.241,3.66C51.885,70.44,62.468,71.708,62.468,88.7"/>
	<path fill="#BC9F82" d="M49.51,66.017v0.016c-0.421,0.678-1.89,2.596-4.786,2.596h-0.022c-2.749-0.012-4.35-2.004-4.763-2.586
		c0.1-0.578,0.182-1.193,0.24-1.834c0.038-0.387,0.076-0.771,0.111-1.168c1.346,0.336,2.799,0.541,4.36,0.564h0.051
		c1.6-0.023,3.076-0.242,4.458-0.617c0.038,0.389,0.075,0.775,0.11,1.148C49.341,64.798,49.414,65.425,49.51,66.017"/>
	<rect x="39.938" y="62.987" fill="none" width="9.571" height="5.641"/>
	<path fill="#841720" d="M59.344,75.476c-1.802-2.768-3.972-4.105-5.499-4.742l-8.979,15.191l-0.101,0.166l-0.099-0.166
		l-8.979-15.191c-1.524,0.637-3.697,1.975-5.5,4.742c0.532,0.604,1.041,1.521,1.431,2.91c1.138,4.072,0.483,9.039,0.254,10.508
		h11.25h3.291h11.25c-0.231-1.469-0.886-6.436,0.254-10.508C58.303,76.997,58.812,76.079,59.344,75.476"/>
	<path fill="#511E1E" d="M71.494,39.619c0,4.226-12.98,14.142-26.913,14.142c-13.93,0-26.907-8.549-26.907-12.776
		c0-4.227,12.507-5.902,26.437-5.902S71.494,35.391,71.494,39.619"/>
	<path fill="#CCAD8B" d="M44.751,20.873c-18.305,0-18.408,15.273-17.594,25.267c-1.256-2.369-4.971-1.639-4.667,2.088
		c0.293,3.602,5.54,5.459,5.467,5.039c1.5,8.225,10.111,12.975,16.793,12.975c0.044,0,0.097-0.008,0.137-0.008V20.877
		C44.842,20.877,44.795,20.873,44.751,20.873"/>
	<path fill="#BC9F82" d="M23.658,46.653c0.907-1.44,2.302-0.816,2.645-0.502c0.365,0.35,0.655,0.805,0.427,1.656
		c-0.125,0.479-0.632,0.516-0.51,1.242c0.139,0.822,0.521,0.873,0.734,1.059c0.214,0.186,0.482,0.328,0.617,0.676
		c0.129,0.348,0.152,0.713,0.082,1.023c-0.14,0.596-1,0.125-1.58-0.135c-0.379-0.174-1.587-1.191-1.895-1.533
		C23.412,49.274,23.056,47.61,23.658,46.653"/>
	<path fill="#D9BF9F" d="M44.842,20.873c18.305,0,18.409,15.273,17.597,25.267c1.252-2.369,4.967-1.639,4.663,2.088
		c-0.293,3.602-5.54,5.459-5.47,5.039c-1.498,8.225-10.109,12.975-16.79,12.975c-0.048,0-0.095-0.008-0.142-0.008V20.877
		C44.747,20.877,44.794,20.873,44.842,20.873"/>
	<path fill="#BC9F82" d="M65.932,46.651c-0.904-1.436-2.3-0.816-2.645-0.5c-0.363,0.348-0.649,0.801-0.427,1.656
		c0.128,0.479,0.634,0.516,0.511,1.244c-0.137,0.82-0.517,0.873-0.733,1.059c-0.214,0.184-0.485,0.326-0.62,0.674
		c-0.126,0.346-0.152,0.713-0.079,1.027c0.141,0.592,1.004,0.121,1.577-0.139c0.383-0.172,1.591-1.191,1.895-1.535
		C66.181,49.276,66.534,47.612,65.932,46.651"/>
	<path fill="#DCC5A1" d="M44.593,25.178c-6.023,0-10.432,1.744-13.102,5.187c-3.727,4.802-3.584,12.142-2.209,17.412
		c0.418,1.609,0.636,5.949,0.925,7.543c1.302,7.127,9.188,10.922,14.386,10.922c0.044,0,0.094-0.008,0.14-0.008v-41.05
		C44.684,25.183,44.637,25.178,44.593,25.178"/>
	<path fill="#EDD9B4" d="M57.665,30.37c-2.65-3.418-7.006-5.16-12.932-5.188v41.051c5.929-0.064,13.02-4.221,14.238-10.914
		c0.29-1.592,0.507-5.934,0.929-7.543C61.27,42.518,61.403,35.188,57.665,30.37"/>
	<path fill="#841720" d="M62.854,27.187H27.683c0,0-0.064-0.787,0-1.036c1.264-4.876,5.955-10.728,17.104-10.728
		c10.802,0,16.529,5.718,18.068,10.728C62.927,26.4,62.854,27.187,62.854,27.187"/>
	<path fill="#AA6568" d="M62.655,32.982H27.484v-6.286c0,0,5.961-4.359,17.105-4.359c10.803,0,18.065,4.359,18.065,4.359V32.982z"/>
	<path fill="#841720" d="M44.11,35.083c-9.787,0.313-26.197,4.941-26.197,4.941s10.146-12.551,25.891-12.57
		c13.967-0.019,27.69,11.309,27.69,11.309S50.545,34.877,44.11,35.083"/>
	<circle cx="37.346" cy="46.21" r="1"/>
	<circle cx="51.596" cy="46.21" r="1"/>
</g>
</svg>
