<?xml version="1.0" encoding="utf-8"?>
<!-- Generator: Adobe Illustrator 16.0.3, SVG Export Plug-In . SVG Version: 6.00 Build 0)  -->
<!DOCTYPE svg PUBLIC "-//W3C//DTD SVG 1.1//EN" "http://www.w3.org/Graphics/SVG/1.1/DTD/svg11.dtd">
<svg version="1.1" id="Layer_1" xmlns="http://www.w3.org/2000/svg" xmlns:xlink="http://www.w3.org/1999/xlink" x="0px" y="0px"
	 width="88.9px" height="88.9px" viewBox="0 0 88.9 88.9" enable-background="new 0 0 88.9 88.9" xml:space="preserve">
<g>
	<rect x="0.007" y="0.026" fill="#3C4C82" width="88.885" height="88.848"/>
	<path fill="#DCC5A1" d="M44.439,52.124v36.646H24.447c-0.322-0.137-0.488-0.211-0.488-0.211c0-19.656,12.238-21.123,12.238-21.123
		c0.924,0,1.611-0.906,2.1-2.387c0.158-0.465,0.299-0.98,0.422-1.553c0.084-0.361,0.155-0.736,0.211-1.143
		c0.113-0.672,0.211-1.385,0.28-2.127c0.044-0.447,0.085-0.893,0.128-1.354c0.182-2.248,0.235-4.695,0.235-7.014
		C39.573,51.86,42.27,52.124,44.439,52.124"/>
	<path fill="#EDD9B4" d="M64.992,88.56c0,0-0.183,0.072-0.478,0.211H44.439V52.124h0.041c2.172,0,4.879-0.264,4.879-0.264
		c0,2.305,0.06,4.725,0.24,6.957c0.041,0.449,0.082,0.895,0.126,1.328c0.085,0.768,0.167,1.496,0.278,2.178v0.016
		c0.044,0.309,0.099,0.584,0.158,0.867c0.137,0.684,0.291,1.314,0.49,1.855c0.504,1.484,1.188,2.375,2.101,2.375
		C52.753,67.437,64.992,68.903,64.992,88.56"/>
	<path fill="#BC9F82" d="M50.004,62.331v0.012c-0.492,0.785-2.188,3.006-5.537,3.006h-0.029c-3.18-0.016-5.031-2.32-5.508-2.99
		c0.111-0.668,0.21-1.381,0.279-2.121c0.041-0.453,0.086-0.895,0.123-1.357c1.557,0.393,3.242,0.627,5.05,0.656h0.056
		c1.852-0.029,3.559-0.279,5.157-0.713c0.046,0.449,0.087,0.895,0.128,1.328C49.808,60.919,49.893,61.647,50.004,62.331"/>
	<rect x="38.93" y="58.823" fill="none" width="11.073" height="6.525"/>
	<path fill="#895A59" d="M50.425,70.509l-0.208,18.262H38.482l-0.142-18.537c2.256,0.672,4.474,1.088,6.491,1.088
		C46.669,71.335,48.562,71.03,50.425,70.509"/>
	<path fill="#FFFFFF" d="M65.117,88.56c0,0-0.182,0.072-0.477,0.211H44.609l5.815-18.262l0.069-5.652
		c0.086,0.389,0.17,0.191,0.271,0.373c0.503,1.482,1.205,2.207,2.116,2.207c0,0,1.3,0.152,3.055,1.051
		c3.102,1.576,7.6,5.447,8.846,14.781C65.006,84.862,65.117,86.62,65.117,88.56"/>
	<path fill="#FFFFFF" d="M44.09,88.771H24.447c-0.322-0.139-0.488-0.211-0.488-0.211c0-1.566,0.084-3.029,0.239-4.369
		c1.062-10.172,5.899-14.209,9.097-15.773c1.668-0.838,2.902-0.98,2.902-0.98c0.924,0,1.611-0.906,2.1-2.389l0.045,5.186
		L44.09,88.771z"/>
	<path fill="#444E53" d="M64.959,47.735c0,0-1.189-1.502-0.482-11.098c0.351-4.787-0.538-9.4-0.76-10.453
		c0.069,0.277-6.887,13.999-6.887,13.999c-0.236,3.836-0.433,7.579-0.479,10.176l-1.165-1.984c0,0-0.994,3.271-1.136,4.57
		c-0.008,0.07-0.008,0.15-0.014,0.225l-3.753-3.729c0,0,0.007,2.133,0.196,4.156l-2.273-2.256c0,0,0.019,5.494,0.778,7.213
		c0.854,1.936,0.085,7.291,0.085,7.291c1.035-1.291,1.77-2.666,2.296-3.973c-0.09,1.188-0.219,2.08-0.219,2.08
		c1.601-2,2.483-4.193,2.989-6.027c0.05,0.826,0.097,1.652,0.107,2.473c0.042,2.559-0.924,5.123-0.924,5.123
		s2.014-2.768,3.124-7.344c0.202,3.363,0.688,5.801,1.708,7.111c-0.134-0.234-0.648-1.332-0.523-4.184
		c0.053-1.285,0.172-2.676,0.328-4.066c0.795,3.617,3.133,5.633,3.133,5.633s-1.787-4.025-1.211-8.975
		c0.119-1.002,0.211-1.881,0.283-2.672c0.051,1.373,0.196,2.932,0.532,4.559c0.854,4.104,2.606,6.436,2.606,6.436
		s-1.685-3.719-0.144-13.795c0.12-0.775,0.123-1.896,0.079-3.1C64.195,47.399,64.959,47.735,64.959,47.735"/>
	<path fill="#444E53" d="M23.794,47.171c0,0,1.19-1.502,0.486-11.096c-0.357-4.787,0.535-9.4,0.754-10.456
		c-0.07,0.278,6.886,14.001,6.886,14.001c0.239,3.833,0.436,7.578,0.481,10.178l1.162-1.986c0,0,0.994,3.273,1.135,4.568
		c0.008,0.072,0.012,0.152,0.018,0.225l3.756-3.727c0,0-0.012,2.133-0.202,4.156l2.276-2.258c0,0-0.021,5.496-0.781,7.217
		c-0.854,1.932-0.082,7.291-0.082,7.291c-1.038-1.297-1.771-2.666-2.299-3.973c0.091,1.182,0.222,2.072,0.222,2.072
		c-1.606-1.996-2.485-4.189-2.995-6.023c-0.043,0.83-0.094,1.656-0.102,2.473c-0.039,2.557,0.921,5.123,0.921,5.123
		s-2.013-2.768-3.121-7.34c-0.202,3.361-0.688,5.801-1.711,7.107c0.138-0.232,0.651-1.334,0.526-4.186
		c-0.053-1.281-0.172-2.672-0.327-4.064c-0.796,3.621-3.136,5.631-3.136,5.631s1.789-4.02,1.211-8.971
		c-0.117-1.002-0.209-1.879-0.281-2.672c-0.051,1.375-0.196,2.934-0.535,4.557c-0.852,4.105-2.604,6.436-2.604,6.436
		s1.685-3.723,0.144-13.797c-0.12-0.77-0.123-1.893-0.082-3.095C24.556,46.837,23.794,47.171,23.794,47.171"/>
	<path fill="#CCAD8B" d="M44.332,10.104c-21.178,0-21.297,17.665-20.356,29.226c-1.451-2.742-5.747-1.896-5.396,2.424
		c0.339,4.159,6.408,6.307,6.324,5.823c1.734,9.516,11.703,15.008,19.428,15.008c0.053,0,0.107-0.004,0.16-0.004V10.104H44.332z"/>
	<path fill="#BC9F82" d="M19.934,39.927c1.047-1.667,2.659-0.95,3.057-0.582c0.424,0.399,0.755,0.931,0.494,1.915
		c-0.146,0.555-0.731,0.598-0.585,1.44c0.152,0.948,0.594,1.01,0.843,1.224c0.248,0.215,0.561,0.379,0.713,0.779
		c0.152,0.398,0.182,0.823,0.094,1.19c-0.158,0.684-1.159,0.143-1.823-0.162c-0.441-0.199-1.837-1.375-2.19-1.775
		C19.644,42.959,19.231,41.035,19.934,39.927"/>
	<path fill="#D9BF9F" d="M44.434,10.104c21.179,0,21.301,17.665,20.359,29.226c1.45-2.742,5.747-1.896,5.393,2.424
		c-0.338,4.159-6.408,6.307-6.323,5.823c-1.737,9.516-11.7,15.008-19.429,15.008c-0.049,0-0.107-0.004-0.16-0.004V10.104H44.434z"/>
	<path fill="#BC9F82" d="M68.836,39.927c-1.048-1.667-2.662-0.95-3.061-0.582c-0.421,0.399-0.755,0.931-0.494,1.915
		c0.148,0.555,0.734,0.598,0.591,1.44c-0.155,0.948-0.597,1.01-0.852,1.224c-0.242,0.215-0.556,0.379-0.71,0.779
		c-0.149,0.398-0.182,0.823-0.092,1.19c0.158,0.684,1.158,0.143,1.824-0.162c0.44-0.199,1.838-1.375,2.189-1.775
		C69.125,42.959,69.534,41.035,68.836,39.927"/>
	<path fill="#DCC5A1" d="M44.147,15.083c-6.968,0-12.069,2.016-15.155,5.998c-4.309,5.556-4.145,14.049-2.553,20.146
		c0.482,1.862,0.73,6.883,1.07,8.727c1.504,8.244,10.629,12.631,16.638,12.631c0.053,0,0.11-0.004,0.164-0.004V15.088
		C44.256,15.088,44.202,15.083,44.147,15.083"/>
	<path fill="#EDD9B4" d="M59.27,21.089c-3.062-3.955-8.104-5.97-14.959-6.001v47.493c6.862-0.074,15.064-4.887,16.475-12.627
		c0.334-1.842,0.585-6.866,1.07-8.728C63.441,35.147,63.596,26.665,59.27,21.089"/>
	<path fill="#444E53" d="M51.788,56.442l0.009,0.006c-0.009-0.02-0.015-0.037-0.023-0.057c-0.092-0.381-0.202-0.742-0.344-1.066
		c-0.096-0.211-0.203-0.408-0.314-0.588c-1.105-2.342-2.533-3.512-3.505-4.07c-0.222-0.141-0.453-0.25-0.69-0.34
		c-0.199-0.084-0.339-0.125-0.38-0.137c-0.015-0.002-0.028-0.004-0.028-0.004l0,0c-0.568-0.15-1.235-0.203-2.125-0.205
		c-0.892,0.002-1.562,0.055-2.129,0.205l0,0c0,0-0.012,0.002-0.026,0.004c-0.044,0.012-0.181,0.053-0.38,0.137
		c-0.24,0.09-0.471,0.199-0.693,0.34c-0.973,0.559-2.396,1.729-3.505,4.07c-0.114,0.18-0.22,0.377-0.313,0.588
		c-0.143,0.324-0.254,0.686-0.342,1.066c-0.011,0.02-0.014,0.037-0.023,0.057l0.01-0.006c-0.126,0.535-0.199,1.113-0.199,1.727
		c0,1.104,0.223,2.119,0.59,2.924c0.35,2.051,3.35,6.656,7.012,6.721c3.66-0.064,6.658-4.67,7.008-6.721
		c0.369-0.805,0.589-1.82,0.589-2.924C51.983,57.556,51.91,56.978,51.788,56.442 M49.77,60.718c-0.953,0.525-2.258,0.912-3.75,1.082
		c0.078-0.326,0.129-0.68,0.129-1.053v-1.262c0-0.484-0.082-0.941-0.217-1.342c-0.504-0.084-1.019-0.135-1.545-0.135
		c-0.528,0-1.047,0.051-1.547,0.135c-0.135,0.4-0.22,0.857-0.22,1.342v1.262c0,0.373,0.05,0.727,0.129,1.053
		c-1.491-0.17-2.796-0.557-3.75-1.082c-0.274-0.736-0.442-1.605-0.442-2.549c0-0.389,0.033-0.76,0.088-1.121
		c0.039-0.029,0.724-0.594,1.949-1.066c1.623-0.633,4.197-1.107,7.461,0.023c0.656,0.227,1.34,0.521,2.051,0.891
		c0.068,0.404,0.109,0.83,0.109,1.273C50.215,59.112,50.047,59.981,49.77,60.718"/>
	<circle cx="37.66" cy="38.923" r="1"/>
	<circle cx="51.91" cy="38.923" r="1"/>
</g>
</svg>
