<?xml version="1.0" encoding="utf-8"?>
<!-- Generator: Adobe Illustrator 16.0.3, SVG Export Plug-In . SVG Version: 6.00 Build 0)  -->
<!DOCTYPE svg PUBLIC "-//W3C//DTD SVG 1.1//EN" "http://www.w3.org/Graphics/SVG/1.1/DTD/svg11.dtd">
<svg version="1.1" id="Layer_1" xmlns="http://www.w3.org/2000/svg" xmlns:xlink="http://www.w3.org/1999/xlink" x="0px" y="0px"
	 width="88.9px" height="88.9px" viewBox="0 0 88.9 88.9" enable-background="new 0 0 88.9 88.9" xml:space="preserve">
<g>
	<rect x="0.008" y="0.027" fill="#3F3859" width="88.885" height="88.847"/>
	<path fill="#DCC5A1" d="M44.562,54.187v34.676H25.647c-0.311-0.133-0.468-0.199-0.468-0.199c0-18.6,11.581-19.988,11.581-19.988
		c1.154,0,1.897-1.477,2.39-3.727c0.081-0.346,0.146-0.701,0.199-1.082c0.104-0.639,0.197-1.312,0.263-2.012
		c0.041-0.422,0.082-0.848,0.123-1.281c0.169-2.129,0.222-4.445,0.222-6.637C39.957,53.937,42.505,54.187,44.562,54.187"/>
	<path fill="#EDD9B4" d="M64.007,88.663c0,0-0.17,0.066-0.449,0.199H44.562V54.187h0.041c2.054,0,4.616-0.248,4.616-0.248
		c0,2.18,0.052,4.465,0.222,6.582c0.041,0.424,0.082,0.844,0.123,1.254c0.079,0.727,0.158,1.416,0.263,2.061v0.02
		c0.041,0.285,0.094,0.553,0.147,0.816c0.49,2.391,1.26,4.004,2.454,4.004C52.428,68.675,64.007,70.063,64.007,88.663"/>
	<path fill="#BC9F82" d="M49.827,63.835v0.018c-0.463,0.738-2.068,2.838-5.239,2.838h-0.026c-3.01-0.014-4.762-2.193-5.213-2.824
		c0.106-0.639,0.199-1.312,0.263-2.01c0.041-0.426,0.082-0.85,0.123-1.283c1.47,0.371,3.063,0.594,4.774,0.619h0.053
		c1.752-0.025,3.369-0.264,4.879-0.674c0.041,0.426,0.082,0.846,0.123,1.256C49.642,62.501,49.722,63.19,49.827,63.835"/>
	<rect x="39.349" y="60.521" fill="none" width="10.479" height="6.17"/>
	<path fill="#CCAD8B" d="M44.614,14.419c-20.037,0-20.148,16.716-19.259,27.655c-1.375-2.595-5.438-1.792-5.107,2.292
		c0.322,3.933,6.067,5.968,5.985,5.511c1.644,9.002,11.07,14.203,18.381,14.203c0.053,0,0.104-0.008,0.154-0.008v-49.65
		C44.719,14.423,44.667,14.419,44.614,14.419"/>
	<path fill="#BC9F82" d="M21.529,42.638c0.991-1.574,2.515-0.896,2.893-0.547c0.401,0.377,0.718,0.877,0.472,1.809
		c-0.141,0.525-0.696,0.568-0.56,1.365c0.149,0.896,0.565,0.953,0.803,1.156c0.233,0.205,0.525,0.359,0.675,0.738
		c0.141,0.377,0.17,0.781,0.088,1.125c-0.152,0.646-1.094,0.133-1.727-0.154c-0.415-0.188-1.736-1.301-2.073-1.678
		C21.254,45.509,20.868,43.692,21.529,42.638"/>
	<path fill="#D9BF9F" d="M44.714,14.419c20.036,0,20.153,16.716,19.262,27.655c1.375-2.595,5.442-1.792,5.106,2.292
		c-0.321,3.933-6.066,5.968-5.987,5.511c-1.642,9.002-11.068,14.203-18.381,14.203c-0.048,0-0.103-0.008-0.152-0.008v-49.65
		C44.614,14.423,44.666,14.419,44.714,14.419"/>
	<path fill="#BC9F82" d="M67.801,42.638c-0.987-1.574-2.518-0.896-2.893-0.547c-0.398,0.377-0.714,0.877-0.468,1.809
		c0.14,0.525,0.692,0.568,0.559,1.365c-0.148,0.896-0.564,0.953-0.805,1.156c-0.234,0.205-0.526,0.359-0.672,0.738
		c-0.145,0.377-0.17,0.781-0.088,1.125c0.148,0.646,1.094,0.133,1.726-0.154c0.415-0.188,1.737-1.301,2.071-1.678
		C68.076,45.509,68.465,43.692,67.801,42.638"/>
	<path fill="#DCC5A1" d="M44.444,19.132c-6.596,0-11.42,1.905-14.345,5.675c-4.077,5.257-3.919,13.293-2.416,19.061
		c0.459,1.762,0.696,6.514,1.012,8.258c1.425,7.799,10.061,11.955,15.749,11.955c0.047,0,0.103-0.008,0.152-0.008V19.137
		C44.544,19.137,44.494,19.132,44.444,19.132"/>
	<path fill="#EDD9B4" d="M58.751,24.811c-2.899-3.741-7.666-5.645-14.154-5.675v44.937c6.493-0.068,14.253-4.621,15.588-11.945
		c0.318-1.746,0.553-6.498,1.015-8.261C62.697,38.116,62.846,30.09,58.751,24.811"/>
	<path fill="#442C38" d="M63.388,45.119c1.223-4.27,2.375-11.425,2.375-14.72c0-3.292-0.623-7.82-1.954-9.859
		c-1.752-2.685-1.878-1.927-1.878-1.927s1.761-7.329-9.185-8.95c-1.813-0.269-4.294-0.125-4.294-0.125l1.491,1.502
		c0,0-5.756-1.956-13.361-0.785c-5.531,0.852-9.308,3.565-12.438,7.986c-2.091,2.957-2.732,7.321-2.732,7.321l4.04-5.368
		c0,0-5.213,5.546-4.04,14.4c1.691,12.769,7.635,15.138,7.635,15.138s-4.096-7.656-1.393-12.613
		c4.54-8.324,12.616-8.574,12.616-8.574s-7.55,0.672-9.626,8.765c-0.142,0.555,0.38-2.232,3.813-3.552
		c2.375-0.909,5.722-0.576,9.536-2.313c3.489-1.587,9.623-6.005,9.623-6.005s-8.172,3.035-10.478,5.013
		c-4.224,3.635-4.7,8.561-4.7,8.561s2.378-3.823,8.199-6.007c3.19-1.2,8.938-3.295,8.938-3.295s-4.253-0.268-7.271,2.27
		c-2.429,2.042-1.74,6.457-1.136,7.267c0,0-0.198-3.342,7.114-5.433c4.206-1.206,4.882-3.582,4.882-3.582s-0.025,2.356,0.541,3.854
		c0.655,1.749,2.52,2.886,2.65,4.462c0.246,2.933-1.339,8.42-1.339,8.42L63.388,45.119z"/>
	<path fill="#FFFFFF" d="M34.376,17.151c-0.667,0.43-1.293,0.893-1.892,1.389c-0.601,0.497-1.15,1.044-1.671,1.613
		c-1.048,1.12-1.939,2.397-2.434,3.778l-0.971-0.445c0.189-0.333,0.44-0.534,0.666-0.679c0.231-0.148,0.463-0.256,0.69-0.348
		c0.456-0.184,0.909-0.321,1.357-0.44c0.896-0.235,1.825-0.394,2.633-0.592l1.1-0.271l-0.356,1.069
		c-0.356,1.081-0.849,2.049-1.334,3.022c-0.486,0.975-1.018,1.907-1.58,2.842l-0.977-0.824c1.064-0.851,2.159-1.548,3.325-2.178
		c1.155-0.635,2.379-1.151,3.643-1.541c1.263-0.387,2.564-0.675,3.89-0.716c1.316-0.023,2.647,0.135,3.861,0.602
		c-1.281-0.21-2.562-0.231-3.808-0.022c-1.246,0.201-2.464,0.533-3.627,1.014c-1.165,0.479-2.282,1.058-3.37,1.698
		c-0.538,0.319-1.065,0.664-1.58,1.025c-0.515,0.349-1.038,0.729-1.494,1.108l-2.694,2.232l1.717-3.057
		c1.029-1.835,2.115-3.711,2.853-5.603l0.743,0.8c-0.948,0.202-1.803,0.32-2.659,0.523c-0.424,0.099-0.84,0.211-1.22,0.355
		c-0.193,0.073-0.374,0.153-0.527,0.236c-0.163,0.087-0.257,0.189-0.304,0.238l-2.177,2.189l1.205-2.629
		c0.702-1.532,1.768-2.79,2.955-3.869C31.556,18.627,32.905,17.738,34.376,17.151"/>
	<path fill="#442C38" d="M52.734,55.345c0,0-0.374-0.924-1.768-1.332c0,0,1.779,1.676-0.351,2.246c0,0-0.91,0.252-1.217-1.078
		c0,0-0.547-2.09-2.708-1.9c0,0-1.241,0-2.083,0.889l-0.094,0.029l-0.094-0.029c-0.843-0.889-2.083-0.889-2.083-0.889
		c-2.159-0.189-2.708,1.9-2.708,1.9c-0.308,1.33-1.22,1.078-1.22,1.078c-2.127-0.57-0.351-2.246-0.351-2.246
		c-1.394,0.408-1.765,1.332-1.765,1.332c-1.328,2.762,2.984,3.826,2.984,3.826c2.339,0.594,4.32-0.457,5.235-1.08
		c0.912,0.623,2.896,1.674,5.235,1.08C49.75,59.171,54.06,58.106,52.734,55.345"/>
	<path fill="#82ACC6" d="M52.912,68.772c0.016,0.057-0.6-0.201-0.725-0.43c-0.372-0.609-0.819-1.203-1.358-1.836
		c-0.046-0.045-0.096-0.088-0.128-0.137l-0.198,1.139l-5.909,3.02l-5.824-2.812l-0.287-1.346c-0.025,0.023-0.046,0.059-0.081,0.078
		c-0.784,0.896-2.133,2.381-2.121,2.324c-2.185,0.502-11.095,3.568-11.095,19.891c0,0,0.164,0.072,0.462,0.199h37.904
		c0.298-0.127,0.456-0.199,0.456-0.199C64.008,72.341,55.104,69.274,52.912,68.772"/>
	<path fill="#A1556B" d="M44.714,72.628c-4.122,0-7.466,3.328-7.466,7.439c0,3.828,2.899,6.977,6.629,7.391
		c0.081,0.01,0.166,0.016,0.252,0.021c0.146,0.01,0.295,0.02,0.447,0.021c0.044,0,0.09,0.004,0.138,0.004
		c0.094,0,0.189-0.004,0.283-0.01c0.044-0.002,0.091-0.002,0.132-0.006c0.023,0,0.044,0,0.064-0.002
		c0.21-0.012,0.415-0.033,0.62-0.066c2.864-0.418,5.195-2.465,6.029-5.164c0.011-0.029,0.022-0.064,0.031-0.096
		c0.007-0.02,0.013-0.041,0.018-0.064c0.064-0.219,0.117-0.443,0.161-0.67c0.038-0.205,0.066-0.416,0.091-0.629V80.79
		c0.003-0.041,0.006-0.08,0.011-0.121c0.016-0.199,0.024-0.4,0.024-0.602C52.179,75.956,48.839,72.628,44.714,72.628"/>
	<path fill="none" d="M51.842,82.257c0.012-0.031,0.023-0.064,0.032-0.096c0.006-0.02,0.012-0.041,0.018-0.064
		c0.064-0.219,0.117-0.443,0.161-0.67c0.038-0.205,0.067-0.416,0.09-0.629v-0.006c0.004-0.041,0.007-0.08,0.013-0.123l-4.332-4.551
		l-1.624,1.869l-2.768-2.756l-0.006,0.361l-0.005,0.525l0.644,0.441l-0.69,2.266l-2.01,1.15l-0.172,2.842l4.62,4.604
		C48.677,87.003,51.008,84.956,51.842,82.257"/>
	<rect x="41.192" y="75.231" fill="none" width="10.963" height="12.189"/>
	<polygon points="42.452,79.329 42.446,79.331 42.452,79.331 	"/>
	<path fill="#303135" d="M47.782,79.438l-0.01,0.002l-0.075,0.006h0.11C47.8,79.442,47.791,79.438,47.782,79.438"/>
	<path fill="#F7F7F8" d="M48.645,79.862L48.645,79.862l-0.026-0.012l-1.023-0.627c-0.026-0.334-0.097-0.752-0.188-0.924h0.121
		c0.011-0.248-0.167-0.473-0.167-0.473h-0.384c0.132,0,0.237-0.104,0.237-0.23l-0.038-0.064h0.646v-1.414h-1.647v1.174
		c-0.304,0.02-0.503,0.047-0.558,0.047h-0.577c-0.134,0-0.24,0.104-0.24,0.23v0.027c0,0.109,0.079,0.199,0.185,0.227
		c0.003,0.004,0.009,0.006,0.015,0.01c0.053,0.031,0.097,0.066,0.135,0.102c0.14,0.121,0.216,0.254,0.254,0.389
		c0.114,0.412-0.161,0.811-0.161,0.811l-0.151,0.111h-0.623c-0.008,0-0.021,0.004-0.032,0.01l-0.155-0.689l0.135-0.1l-0.029-0.113
		l-0.09-0.344l-0.101-0.383l-0.11-0.059l-0.021-0.01c-0.005-0.002-0.014-0.006-0.014-0.006s0.076-0.502,0.126-0.947l0.175,0.035
		c0.032,0.006,0.062-0.014,0.068-0.045c0.005-0.031-0.016-0.061-0.048-0.068l-0.182-0.033V76.46l0.003-0.006
		c0.003-0.02,0.003-0.041,0.006-0.061l-0.424-0.293c-0.158-0.023-0.281-0.037-0.281-0.037v0.004c-0.015,0-0.025,0-0.041-0.002
		v-0.248c0.048,0.02,0.101,0.027,0.147,0.014c0,0,0.151-0.32-0.153-0.6c-0.131,0.031-0.207,0.195-0.163,0.361
		c0.018,0.078,0.062,0.143,0.114,0.188v0.283h-0.021v0.002c-0.007-0.002-0.013-0.002-0.013-0.002c-0.061,0-0.11,0.131-0.11,0.289
		c0,0.162,0.05,0.287,0.11,0.287c0,0,0.006,0,0.013,0l0,0h0.021h0.055l0,0c0.106-0.004,0.199-0.016,0.267-0.057
		c0,0.004-0.003,0.008-0.003,0.012c0,0.055,0.047,0.1,0.103,0.1c0.021,0,0.044-0.008,0.059-0.02l-0.026,0.15l-0.421,1.045
		l0.263-0.086l-0.597,0.193v0.129v0.15v0.09v0.072c-0.33,0.131-0.474,0.279-0.474,0.279c-0.082,0.102-0.135,0.348-0.152,0.521l0,0
		l-0.015,0.01l-1.249,0.672v2.916h1.41c0.491,0.777,1.357,1.295,2.346,1.295s1.854-0.518,2.344-1.295h1.413v-2.916L48.645,79.862z
		 M47.691,79.45h0.006l0.075-0.006l0.01-0.002c0.009,0,0.018,0.004,0.025,0.008h-0.11H47.691z M46.758,79.464
		c0.19,0,0.342,0.148,0.342,0.338c0,0.186-0.151,0.338-0.342,0.338c-0.187,0-0.339-0.152-0.339-0.338
		C46.419,79.612,46.571,79.464,46.758,79.464 M43.216,79.401c0.188,0,0.339,0.152,0.339,0.338c0,0.188-0.151,0.34-0.339,0.34
		c-0.187,0-0.339-0.152-0.339-0.34C42.877,79.554,43.029,79.401,43.216,79.401 M48.48,82.591h-1.064h-0.403
		c-0.047,0.08-0.1,0.154-0.155,0.227c-0.441,0.57-1.132,0.941-1.91,0.941c-0.777,0-1.472-0.371-1.912-0.941
		c-0.054-0.072-0.106-0.146-0.153-0.227h-0.406h-1.062v-2.463l0.032-0.021l1.001-0.547v0.109h0.169c0,0.012-0.003,0.021-0.003,0.033
		c0,0.311,0.258,0.564,0.57,0.564c0.313,0,0.567-0.254,0.567-0.564v-0.006h0.337c-0.003-0.08-0.015-0.162-0.03-0.232h0.126
		c0.035,0.07,0.054,0.115,0.054,0.115h0.031h0.059h1.646c0.038,0.062,0.104,0.137,0.19,0.182c0,0.312,0.255,0.566,0.567,0.566
		c0.316,0,0.567-0.254,0.567-0.566c0-0.064-0.011-0.125-0.029-0.182h0.092l0.411,0.053l0.01,0.002c0.003,0,0.003-0.002,0.003-0.002
		l0.684,0.484l0.012,0.012V82.591z"/>
	<path fill="#FFFFFF" d="M42.052,80.608c0.107-0.02,0.263-0.033,0.474-0.033c0.219,0,0.377,0.043,0.48,0.125
		c0.099,0.078,0.163,0.207,0.163,0.359c0,0.154-0.046,0.281-0.141,0.367c-0.12,0.109-0.298,0.164-0.509,0.164
		c-0.044,0-0.088-0.002-0.117-0.01v0.559h-0.351V80.608z M42.402,81.312c0.029,0.006,0.064,0.01,0.117,0.01
		c0.188,0,0.302-0.094,0.302-0.252c0-0.141-0.097-0.229-0.275-0.229c-0.07,0-0.12,0.008-0.144,0.014V81.312z"/>
	<rect x="43.396" y="80.587" fill="#FFFFFF" width="0.352" height="1.553"/>
	<polygon fill="#FFFFFF" points="43.956,81.95 44.699,80.886 44.699,80.878 44.022,80.878 44.022,80.587 45.152,80.587 
		45.152,80.79 44.427,81.841 44.427,81.849 45.164,81.849 45.164,82.14 43.956,82.14 	"/>
	<polygon fill="#FFFFFF" points="45.29,81.95 46.029,80.886 46.029,80.878 45.356,80.878 45.356,80.587 46.485,80.587 46.485,80.79 
		45.761,81.841 45.761,81.849 46.498,81.849 46.498,82.14 45.29,82.14 	"/>
	<path fill="#FFFFFF" d="M47.101,81.739l-0.108,0.4h-0.366l0.478-1.555h0.459l0.485,1.555h-0.38l-0.117-0.4H47.101z M47.498,81.479
		l-0.099-0.33c-0.024-0.094-0.054-0.209-0.077-0.301h-0.005c-0.021,0.094-0.047,0.211-0.071,0.301l-0.093,0.33H47.498z"/>
	<polygon fill="#F7F7F8" points="45.404,83.013 45.369,83.009 45.126,82.974 45,82.724 44.877,82.974 44.635,83.009 44.597,83.013 
		44.801,83.208 44.752,83.485 45,83.354 45.252,83.485 45.205,83.208 	"/>
	<polygon fill="#F7F7F8" points="46.021,83.05 45.998,83.046 45.854,83.026 45.778,82.874 45.702,83.026 45.559,83.046 
		45.538,83.05 45.659,83.165 45.632,83.333 45.778,83.255 45.931,83.333 45.9,83.165 	"/>
	<polygon fill="#F7F7F8" points="44.465,83.05 44.445,83.046 44.298,83.026 44.222,82.874 44.148,83.026 44.006,83.046 
		43.981,83.05 44.104,83.165 44.076,83.333 44.222,83.255 44.374,83.333 44.345,83.165 	"/>
	<circle cx="37.2" cy="42.588" r="1"/>
	<circle cx="51.45" cy="42.588" r="1"/>
</g>
</svg>
