<?xml version="1.0" encoding="utf-8"?>
<!-- Generator: Adobe Illustrator 16.0.3, SVG Export Plug-In . SVG Version: 6.00 Build 0)  -->
<!DOCTYPE svg PUBLIC "-//W3C//DTD SVG 1.1//EN" "http://www.w3.org/Graphics/SVG/1.1/DTD/svg11.dtd">
<svg version="1.1" id="Layer_1" xmlns="http://www.w3.org/2000/svg" xmlns:xlink="http://www.w3.org/1999/xlink" x="0px" y="0px"
	 width="88.9px" height="88.9px" viewBox="0 0 88.9 88.9" enable-background="new 0 0 88.9 88.9" xml:space="preserve">
<g>
	<rect x="0.008" y="0.053" fill="#F4F1C5" width="88.885" height="88.729"/>
	<path fill="#211915" d="M62.842,64.842c0,5.777-7.859,10.46-17.557,10.46c-9.693,0-17.556-4.683-17.556-10.46
		c0-5.774,7.862-10.459,17.556-10.459C54.982,54.383,62.842,59.067,62.842,64.842"/>
	<path fill="#DCC5A1" d="M45.058,55.44v33.405H26.835c-0.293-0.125-0.451-0.19-0.451-0.19c0-2.979,0.307-5.502,0.834-7.627
		c2.564-10.699,10.328-11.629,10.328-11.629h0.088c0.076-0.015,0.164-0.027,0.243-0.052c0.921-0.255,1.547-1.604,1.968-3.543
		c0.076-0.329,0.141-0.671,0.189-1.041c0.104-0.61,0.191-1.263,0.256-1.937c0.04-0.41,0.078-0.816,0.116-1.237
		c0.164-2.05,0.22-4.279,0.22-6.394C40.626,55.196,43.077,55.44,45.058,55.44"/>
	<path fill="#EDD9B4" d="M63.796,88.654c0,0-0.164,0.067-0.434,0.192H45.058V55.44h0.041c1.979,0,4.446-0.244,4.446-0.244
		c0,2.105,0.05,4.307,0.22,6.345c0.037,0.406,0.075,0.815,0.113,1.208c0.075,0.703,0.152,1.364,0.252,1.989v0.01
		c0.041,0.283,0.094,0.537,0.143,0.792c0.384,1.871,0.945,3.246,1.764,3.707c0.064,0.025,0.13,0.062,0.193,0.076
		c0.129,0.049,0.27,0.076,0.41,0.076c0,0,0.129,0.012,0.357,0.063c1.187,0.255,5.071,1.425,7.836,6.138
		C62.531,78.453,63.796,82.621,63.796,88.654"/>
	<path fill="#BC9F82" d="M50.13,64.74v0.012c-0.448,0.716-1.995,2.737-5.05,2.737h-0.022c-2.905-0.014-4.592-2.112-5.028-2.723
		c0.103-0.614,0.19-1.265,0.257-1.937c0.038-0.408,0.076-0.817,0.114-1.237c1.419,0.355,2.955,0.571,4.601,0.6h0.057
		c1.682-0.028,3.241-0.256,4.698-0.647c0.041,0.403,0.075,0.812,0.116,1.207C49.948,63.454,50.024,64.116,50.13,64.74"/>
	<rect x="40.029" y="61.545" fill="none" width="10.101" height="5.944"/>
	<path fill="#856DA5" d="M65.281,80.239c0,0-5.294-10.408-12.666-10.84c-0.192-0.014,5.482,8.267-2.074,10.188
		c-1.862,0.473-3.717,0.639-5.442,0.572h-0.021h-0.02c-1.727,0.066-3.577-0.1-5.441-0.572c-7.558-1.921-1.881-10.201-2.069-10.188
		c-7.378,0.432-12.669,10.84-12.669,10.84l2.34,0.79l3.296,1.106c0,0-1.152,2.993-1.214,6.711h15.777h15.778
		c-0.062-3.718-1.214-6.711-1.214-6.711l3.3-1.106L65.281,80.239z"/>
	<path fill="#CCAD8B" d="M45.04,19.54c-19.022-0.035-19.13,15.195-18.285,25.129c-1.307-2.33-5.162-1.467-4.849,2.268
		c0.304,3.571,5.756,5.192,5.68,4.797c1.559,8.096,10.521,12.59,17.454,13.227c0.047,0.007,0.099,0.004,0.143,0.007V19.541
		C45.139,19.541,45.087,19.54,45.04,19.54"/>
	<path fill="#BC9F82" d="M22.862,45.357c0.954-1.44,2.428-0.821,2.79-0.505c0.381,0.352,0.685,0.807,0.45,1.661
		c-0.135,0.476-0.667,0.519-0.537,1.246c0.14,0.817,0.544,0.872,0.771,1.062c0.225,0.182,0.509,0.324,0.652,0.672
		c0.135,0.347,0.161,0.715,0.085,1.028c-0.146,0.591-1.057,0.12-1.664-0.139c-0.401-0.173-1.676-1.191-1.998-1.536
		C22.599,47.982,22.227,46.315,22.862,45.357"/>
	<path fill="#D9BF9F" d="M45.134,19.54c19.021-0.035,19.133,15.195,18.287,25.129c1.305-2.33,5.163-1.467,4.844,2.268
		c-0.304,3.571-5.75,5.192-5.68,4.797c-1.557,8.096-10.52,12.59-17.451,13.227c-0.047,0.007-0.1,0.004-0.146,0.007V19.541
		C45.036,19.541,45.087,19.54,45.134,19.54"/>
	<path fill="#BC9F82" d="M67.446,45.357c-0.957-1.44-2.425-0.821-2.788-0.505c-0.383,0.352-0.688,0.807-0.453,1.661
		c0.135,0.476,0.67,0.519,0.538,1.246c-0.143,0.817-0.544,0.872-0.772,1.062c-0.222,0.182-0.509,0.324-0.649,0.672
		c-0.141,0.347-0.163,0.715-0.087,1.028c0.148,0.591,1.059,0.12,1.667-0.139c0.397-0.173,1.673-1.191,1.995-1.536
		C67.709,47.982,68.084,46.315,67.446,45.357"/>
	<path fill="#DCC5A1" d="M44.94,23.85c-6.353,0-11.001,1.745-13.818,5.192c-3.929,4.81-3.778,12.163-2.328,17.44
		c0.444,1.61,0.67,5.957,0.977,7.556c1.37,7.135,9.691,10.936,15.17,10.936c0.047,0,0.099-0.008,0.146-0.008V23.854
		C45.036,23.854,44.99,23.85,44.94,23.85"/>
	<path fill="#EDD9B4" d="M58.727,29.05c-2.793-3.424-7.39-5.167-13.641-5.195v41.112c6.257-0.067,13.737-4.226,15.021-10.928
		c0.307-1.601,0.532-5.946,0.977-7.558C62.529,41.217,62.672,33.877,58.727,29.05"/>
	<path fill="#B47070" d="M48.287,58.521c0,0-1.439,1.531-3.206,1.531c-1.772,0-3.124-1.494-3.124-1.494s1.352-0.234,3.124-0.234
		C46.848,58.323,48.287,58.521,48.287,58.521"/>
	<path fill="#C17874" d="M45.984,57.817c-0.494,0-0.895,0.311-0.904,0.693c-0.011-0.383-0.408-0.693-0.906-0.693
		c-0.503,0-2.298,0.704-2.298,0.704s1.751,0.187,2.252,0.187c0.496,0,0.941,0.195,0.952-0.176c0.007,0.374,0.369,0.229,0.866,0.229
		c0.5,0,2.34-0.239,2.34-0.239S46.49,57.817,45.984,57.817"/>
	<path fill="#211915" d="M61.786,54.812c-0.076,1.373-0.152,1.521,0.518,2.601c0.667,1.09,1.445,1.489,0.699,2.715
		c-0.743,1.227-1.96,1.377-1.887,2.455c0.076,1.094,1.41,1.595,1.188,3.045c-0.205,1.31-2.329,2.684-2.726,2.922
		c0.321-0.228,1.689-1.289,1.497-2.623c-0.229-1.519-0.401-1.592-2.03-2.453c-1.638-0.869-1.875-1.247-1.421-2.475
		c0.441-1.235,1.93-1.341,0.807-2.641c-1.111-1.3-1.761-2.193-1.465-2.988c0.301-0.804-0.194-1.387,1.12-2.92
		c0.822-0.931,0.702-3.039,0.702-3.98c0-0.946,1.328-5.49-0.819-7.484c-0.389-0.355-1.047-1.171-1.843-2.117
		c-0.646-0.775-1.392-1.645-2.135-2.413c-0.775-0.784-1.467-1.969-1.951-2.998c-0.483-1.007-0.799-1.847-0.875-2.034
		c0.022,0.221,0.164,1.194,0.263,1.96c0.03,0.284,0.065,0.534,0.073,0.722c0.141,1.89,1.325,2.919,1.694,3.202
		c-0.541-0.308-2.762-1.636-3.656-2.813c-0.369-0.482-0.635-0.954-0.819-1.403c-0.84-1.982-0.217-3.598-0.107-3.85
		c-0.174,0.252-1.35,2.089-2.662,3.291c-0.098,0.095-0.205,0.178-0.313,0.274c-1.413,1.187-3.87,2.619-4.194,2.811
		c0.192-0.176,1.433-1.288,2.296-2.958c0.108-0.177,0.195-0.367,0.283-0.567c0.281-0.649,1.41-4.048,1.41-4.048
		c-0.582,0.956-1.55,2.771-2.866,4.544c-0.871,1.194-1.907,2.367-3.06,3.276c-0.433,0.341-1.015,0.802-1.662,1.337
		c-2.34,1.921-5.587,4.815-5.876,6.401c-0.366,2.021,0.667,6.439,1.336,8.242c0.68,1.812,0.744,2.392,0,3.113
		c-0.742,0.725-2.597,2.024-2.296,2.674c0.29,0.651,1.413,1.729,1.186,2.603c-0.226,0.87-2.662,2.948-2.973,4.12
		c-0.541,2.07,2.681,3.829,3.061,4.027c-0.39-0.125-4.745-1.76-4.247-3.953c0.324-1.426,0.076-1.655-0.744-2.746
		c-0.818-1.082-2.006-2.895-0.896-3.973c1.121-1.092,2.675-2.32,2.306-3.547c-0.374-1.229-4.355-9.738-4.355-12.746
		c0-0.891,0.167-2.524,0.553-4.487c0.302-1.553,0.755-3.326,1.39-5.089c1.261-3.45,3.203-6.889,6.146-8.748
		c6.315-3.973,10.768-4.591,12.999-4.088c2.224,0.504,4.496-0.381,5.087-0.151c0.594,0.231,6.297,2.575,8.453,4.953
		c1.659,1.849,5.777,6.347,7.567,11.57c0.538,1.541,0.863,3.147,0.863,4.763c0,0.176,0,0.354-0.013,0.533
		C67.122,47.533,61.859,53.471,61.786,54.812"/>
	<circle cx="38.124" cy="47.053" r="1"/>
	<circle cx="52.374" cy="47.053" r="1"/>
</g>
</svg>
