<?xml version="1.0" encoding="utf-8"?>
<!-- Generator: Adobe Illustrator 16.0.3, SVG Export Plug-In . SVG Version: 6.00 Build 0)  -->
<!DOCTYPE svg PUBLIC "-//W3C//DTD SVG 1.1//EN" "http://www.w3.org/Graphics/SVG/1.1/DTD/svg11.dtd">
<svg version="1.1" id="Layer_1" xmlns="http://www.w3.org/2000/svg" xmlns:xlink="http://www.w3.org/1999/xlink" x="0px" y="0px"
	 width="88.9px" height="88.9px" viewBox="0 0 88.9 88.9" enable-background="new 0 0 88.9 88.9" xml:space="preserve">
<g>
	<rect x="0.006" y="0.026" fill="#A1556B" width="88.89" height="88.848"/>
	<path fill="#DCC5A1" d="M43.394,56.029v32.675H25.567c-0.286-0.125-0.438-0.186-0.438-0.186c0-17.528,10.913-18.838,10.913-18.838
		c1.092,0,1.787-1.394,2.252-3.514c0.077-0.322,0.139-0.658,0.191-1.021c0.099-0.596,0.181-1.233,0.244-1.893
		c0.039-0.399,0.076-0.797,0.115-1.205c0.164-2.009,0.211-4.188,0.211-6.26C39.056,55.788,41.457,56.029,43.394,56.029"/>
	<path fill="#EDD9B4" d="M61.722,88.519c0,0-0.164,0.061-0.428,0.186h-17.9V56.029h0.038c1.938,0,4.353-0.241,4.353-0.241
		c0,2.057,0.047,4.213,0.211,6.205c0.037,0.403,0.075,0.799,0.113,1.184c0.073,0.688,0.146,1.332,0.245,1.943v0.016
		c0.041,0.272,0.088,0.519,0.142,0.77c0.461,2.255,1.187,3.776,2.311,3.776C50.806,69.682,61.722,70.99,61.722,88.519"/>
	<path fill="#BC9F82" d="M48.354,65.12v0.015c-0.437,0.698-1.949,2.676-4.935,2.676h-0.026c-2.838-0.011-4.488-2.065-4.908-2.665
		c0.099-0.595,0.181-1.234,0.244-1.893c0.039-0.4,0.078-0.797,0.115-1.205c1.383,0.349,2.887,0.559,4.498,0.581h0.051
		c1.649-0.022,3.176-0.245,4.601-0.636c0.038,0.403,0.075,0.799,0.114,1.183C48.183,63.864,48.255,64.51,48.354,65.12"/>
	<rect x="38.485" y="61.993" fill="none" width="9.869" height="5.818"/>
	<path fill="#E6E6E6" d="M61.725,88.519c0,0-0.161,0.064-0.424,0.197H25.571c-0.288-0.133-0.437-0.197-0.437-0.197
		c0-13.006,5.823-17.227,8.963-18.534c0.836-0.364,1.474-0.515,1.772-0.563c2.615,0.25,7.465,2.242,7.465,2.242
		s2.887-0.023,5.025-1.992c0.11-0.11,2.301,0.398,2.387,0.299c0.24-0.209,0.427-0.387,0.526-0.5h0.011
		c0.34,0.078,0.803,0.215,1.363,0.436c0.012,0,0.012,0.014,0.024,0.014c0.102,0.039,0.202,0.088,0.315,0.138
		c0.635,0.3,1.387,0.71,2.15,1.284c0.113,0.074,0.213,0.148,0.312,0.234C58.425,73.909,61.725,78.728,61.725,88.519"/>
	<path fill="#5A4F51" d="M58.501,74.876c-1.863-2.852-4.102-4.233-5.675-4.893l-9.263,15.67l-0.101,0.174l-0.103-0.174l-9.264-15.67
		c-1.576,0.659-3.813,2.041-5.675,4.893c0.55,0.625,1.077,1.572,1.476,3.004c1.176,4.197,0.496,9.32,0.263,10.837h11.604h3.396
		h11.606c-0.24-1.517-0.916-6.64,0.26-10.837C57.427,76.448,57.954,75.501,58.501,74.876"/>
	<path fill="#CCAD8B" d="M43.104,18.549c-18.884,0-18.99,15.758-18.153,26.065c-1.293-2.443-5.125-1.688-4.809,2.155
		c0.301,3.714,5.715,5.63,5.639,5.195c1.548,8.487,10.432,13.386,17.322,13.386c0.047,0,0.098-0.006,0.144-0.006v-46.79
		C43.198,18.555,43.151,18.549,43.104,18.549"/>
	<path fill="#BC9F82" d="M21.348,45.145c0.936-1.485,2.372-0.845,2.726-0.518c0.374,0.358,0.676,0.825,0.445,1.708
		c-0.135,0.494-0.656,0.533-0.527,1.283c0.141,0.846,0.532,0.899,0.755,1.095c0.219,0.185,0.497,0.334,0.637,0.692
		c0.135,0.355,0.16,0.736,0.083,1.059c-0.145,0.611-1.03,0.129-1.63-0.141c-0.389-0.179-1.635-1.229-1.951-1.586
		C21.09,47.849,20.726,46.134,21.348,45.145"/>
	<path fill="#D9BF9F" d="M43.198,18.549c18.885,0,18.99,15.758,18.15,26.065c1.296-2.443,5.128-1.688,4.812,2.155
		c-0.305,3.714-5.717,5.63-5.641,5.195c-1.547,8.487-10.433,13.386-17.322,13.386c-0.047,0-0.099-0.006-0.146-0.006v-46.79
		C43.104,18.555,43.151,18.549,43.198,18.549"/>
	<path fill="#BC9F82" d="M64.956,45.145c-0.934-1.485-2.375-0.845-2.727-0.518c-0.378,0.358-0.673,0.825-0.445,1.708
		c0.135,0.494,0.655,0.533,0.53,1.283c-0.138,0.846-0.536,0.899-0.758,1.095c-0.22,0.185-0.497,0.334-0.638,0.692
		c-0.131,0.355-0.158,0.736-0.082,1.059c0.144,0.611,1.029,0.129,1.627-0.141c0.395-0.179,1.641-1.229,1.953-1.586
		C65.212,47.849,65.579,46.134,64.956,45.145"/>
	<path fill="#DCC5A1" d="M42.941,22.992c-6.213,0-10.761,1.799-13.515,5.348c-3.844,4.955-3.696,12.528-2.278,17.961
		c0.433,1.661,0.653,6.14,0.957,7.784c1.34,7.352,9.478,11.266,14.836,11.266c0.047,0,0.097-0.006,0.146-0.006V22.996
		C43.034,22.996,42.988,22.992,42.941,22.992"/>
	<path fill="#EDD9B4" d="M56.426,28.347c-2.731-3.527-7.226-5.324-13.338-5.351v42.349c6.119-0.068,13.433-4.355,14.688-11.26
		c0.299-1.645,0.521-6.123,0.955-7.784C60.147,40.881,60.286,33.319,56.426,28.347"/>
	<path fill="#FDFBF8" d="M25.927,47.593c-0.378,0,0.025-2.006-1.235-3.387c-1.258-1.381-3.18-6.038-3.18-10.685
		c0-4.645,1.644-8.779,5.928-13.172c4.285-4.395,10.584-6.532,10.584-6.532l-2.899,2.637c0,0,1.562-2.138,7.173-3.85
		c4.426-1.351,7.292,0.155,7.292,0.155s-2.916-0.102-3.806,1.164c-0.223,0.32-1.038,0.808-1.038,0.808s1.354-3.031,7.658-0.517
		c6.298,2.51,6.184,7.012,10.567,8.39c4.482,1.418,5.786-0.398,5.786-0.398s-1.948,3.184-5.405,3.192
		c-0.662,0-0.617-0.014-0.617-0.014s1.296,3.412,1.545,5.96c0.254,2.596-0.538,4.375-0.781,9.236
		c-0.211,4.153-1.35,2.024-2.703,5.084c-0.456,1.033-0.477,2.184-0.477,2.184c-0.504,0.122-1.819-2.491-0.875-7.036
		c0.615-2.948-2.428-14.126-9.775-11.946c-4.492,1.332-5.625,4.047-8.982,1.634c-2.896-2.078-6.947-3.272-9.973-1.627
		c-3.021,1.645-4.727,5.343-4.199,11.241C27.187,47.647,25.927,47.593,25.927,47.593"/>
	<path fill="#FDFBF8" d="M50.046,58.966c-0.117,3.934-4.346,4.494-6.59,4.602c-0.135,0.004-0.264,0-0.393,0s-0.252,0.004-0.385,0
		c-2.244-0.107-6.477-0.668-6.594-4.602c-0.018-0.543-1.094,1.211-0.717,4.366c0.359,2.996,5.814,4.808,7.684,5.2v0.009
		c0.006-0.002,0.01-0.002,0.012-0.005c0.007,0.003,0.01,0.003,0.016,0.005v-0.009c1.869-0.393,7.321-2.204,7.684-5.2
		C51.144,60.177,50.062,58.423,50.046,58.966"/>
	<circle cx="35.631" cy="44.188" r="1"/>
	<circle cx="49.881" cy="44.188" r="1"/>
</g>
</svg>
