<?xml version="1.0" encoding="utf-8"?>
<!-- Generator: Adobe Illustrator 16.0.3, SVG Export Plug-In . SVG Version: 6.00 Build 0)  -->
<!DOCTYPE svg PUBLIC "-//W3C//DTD SVG 1.1//EN" "http://www.w3.org/Graphics/SVG/1.1/DTD/svg11.dtd">
<svg version="1.1" id="Layer_1" xmlns="http://www.w3.org/2000/svg" xmlns:xlink="http://www.w3.org/1999/xlink" x="0px" y="0px"
	 width="88.9px" height="88.9px" viewBox="0 0 88.9 88.9" enable-background="new 0 0 88.9 88.9" xml:space="preserve">
<g>
	<rect x="0.008" y="0.027" fill="#94432A" width="88.886" height="88.846"/>
	<path fill="#DCC5A1" d="M42.248,58.731v30.012H25.873c-0.264-0.116-0.404-0.168-0.404-0.168c0-16.102,10.028-17.307,10.028-17.307
		h0.082c0.063-0.01,0.146-0.021,0.216-0.041c0.035-0.012,0.069-0.025,0.091-0.036c0.722-0.274,1.228-1.304,1.585-2.771
		c0.035-0.113,0.067-0.251,0.091-0.379c0.011-0.066,0.035-0.135,0.047-0.201c0.047-0.231,0.091-0.474,0.125-0.723
		c0.091-0.549,0.173-1.134,0.232-1.74c0.032-0.367,0.067-0.732,0.102-1.109v-0.01c0.149-1.844,0.196-3.844,0.196-5.744
		C38.264,58.515,40.469,58.731,42.248,58.731"/>
	<path fill="#EDD9B4" d="M59.078,88.575c0,0-0.146,0.051-0.389,0.168H42.247V58.73h0.035c1.779,0,3.996-0.216,3.996-0.216
		c0,1.889,0.047,3.864,0.193,5.695v0.013c0.035,0.365,0.069,0.733,0.104,1.09c0.07,0.625,0.139,1.222,0.229,1.781v0.015
		c0.022,0.168,0.058,0.34,0.093,0.5c0.012,0.071,0.023,0.129,0.032,0.196c0.345,1.683,0.851,2.916,1.588,3.331
		c0.044,0.02,0.088,0.045,0.135,0.055c0.012,0,0.024,0.012,0.035,0.012c0.024,0.014,0.047,0.014,0.07,0.024
		c0.091,0.033,0.193,0.043,0.296,0.043C49.055,71.27,59.078,72.474,59.078,88.575"/>
	<path fill="#BC9F82" d="M46.805,67.093v0.012c-0.4,0.64-1.79,2.46-4.534,2.46h-0.022c-2.607-0.013-4.122-1.9-4.511-2.45
		c0.088-0.55,0.17-1.134,0.228-1.738c0.032-0.367,0.07-0.733,0.104-1.111c1.271,0.32,2.652,0.517,4.133,0.537h0.047
		c1.515-0.021,2.916-0.226,4.226-0.58c0.033,0.363,0.071,0.731,0.104,1.086C46.646,65.936,46.714,66.529,46.805,67.093"/>
	<rect x="37.737" y="64.222" fill="none" width="9.068" height="5.343"/>
	<path fill="#FCFCFC" d="M59.078,88.575c0,0-0.146,0.051-0.389,0.168H25.872c-0.263-0.117-0.402-0.168-0.402-0.168
		c0-16.102,10.026-17.306,10.026-17.306h0.082c0.064-0.01,0.146-0.022,0.217-0.043c0.034-0.011,0.069-0.024,0.091-0.036
		c-0.986,1.854-7.36,8.686,0,10.186c2.354,0.478,4.478,0.697,6.361,0.742c3.984,0.104,6.846-0.569,8.418-1.168
		c3.157-1.179-0.44-7.605-2.012-9.76c0.012,0,0.024,0.012,0.035,0.012c0.024,0.014,0.047,0.014,0.07,0.024
		c0.091,0.033,0.193,0.043,0.296,0.043C49.055,71.27,59.078,72.474,59.078,88.575"/>
	<path fill="#CCAD8B" d="M42.236,26.485c-17.09-0.03-17.188,13.654-16.431,22.576c-1.173-2.094-4.637-1.315-4.35,2.038
		c0.269,3.211,5.166,4.665,5.101,4.312c1.396,7.271,9.451,11.308,15.68,11.882c0.041,0.003,0.088,0,0.132,0.006V26.487
		C42.324,26.487,42.277,26.485,42.236,26.485"/>
	<path fill="#BC9F82" d="M22.373,49.65c0.856-1.296,2.179-0.737,2.504-0.452c0.348,0.311,0.619,0.723,0.406,1.49
		c-0.119,0.432-0.6,0.463-0.482,1.12c0.131,0.735,0.489,0.782,0.692,0.948c0.205,0.168,0.457,0.299,0.585,0.606
		c0.123,0.313,0.147,0.644,0.076,0.927c-0.128,0.53-0.947,0.108-1.495-0.125c-0.358-0.158-1.503-1.072-1.792-1.382
		C22.136,52.009,21.803,50.515,22.373,49.65"/>
	<path fill="#D9BF9F" d="M42.32,26.485c17.088-0.03,17.188,13.654,16.428,22.576c1.173-2.094,4.636-1.315,4.355,2.038
		c-0.274,3.211-5.172,4.665-5.102,4.312c-1.401,7.271-9.454,11.308-15.682,11.882c-0.044,0.003-0.091,0-0.131,0.006V26.487
		C42.232,26.487,42.276,26.485,42.32,26.485"/>
	<path fill="#BC9F82" d="M62.175,49.65c-0.854-1.296-2.18-0.737-2.505-0.452c-0.345,0.311-0.616,0.723-0.406,1.49
		c0.121,0.432,0.6,0.463,0.485,1.12c-0.131,0.735-0.487,0.782-0.695,0.948c-0.202,0.168-0.459,0.299-0.585,0.606
		c-0.123,0.313-0.146,0.644-0.079,0.927c0.135,0.53,0.951,0.108,1.501-0.125c0.356-0.158,1.5-1.072,1.79-1.382
		C62.408,52.009,62.747,50.515,62.175,49.65"/>
	<path fill="#DCC5A1" d="M42.146,30.358c-5.707,0-9.885,1.568-12.414,4.666c-3.531,4.321-3.396,10.922-2.093,15.663
		c0.398,1.45,0.604,5.357,0.879,6.789c1.229,6.411,8.705,9.826,13.628,9.826c0.041,0,0.091-0.003,0.132-0.003V30.362
		C42.233,30.362,42.189,30.358,42.146,30.358"/>
	<path fill="#EDD9B4" d="M54.533,35.029c-2.51-3.076-6.641-4.642-12.257-4.667V67.3c5.622-0.061,12.342-3.803,13.496-9.824
		c0.272-1.432,0.478-5.338,0.875-6.788C57.947,45.962,58.076,39.367,54.533,35.029"/>
	<path fill="#751819" d="M45.149,61.507c0,0-1.287,1.377-2.878,1.377c-1.592,0-2.809-1.348-2.809-1.348s1.217-0.207,2.809-0.207
		C43.862,61.329,45.149,61.507,45.149,61.507"/>
	<path fill="#94432A" d="M43.084,60.874c-0.444,0-0.805,0.277-0.812,0.621c-0.01-0.344-0.369-0.621-0.813-0.621
		c-0.451,0-2.067,0.633-2.067,0.633s1.575,0.164,2.026,0.164c0.447,0,0.845,0.179,0.854-0.154c0.006,0.336,0.33,0.205,0.777,0.205
		c0.453,0,2.101-0.215,2.101-0.215S43.537,60.874,43.084,60.874"/>
	<path fill="#FFFFFF" d="M59.348,45.65V35.356c0,0,14.994,0.762,14.994-13.035c0,0-1.995-17.632-21.248-9.199
		c0,0-1.743-9.199-12.742-8.687c0,0-6.499-1.02-11.244,6.645c0,0-14.244,0.766-15.746,13.796c0,0-1.496,8.943,12.248,12.265
		l-0.242,8.257c4.907-3.046,10.646-4.817,16.793-4.817C48.472,40.581,54.352,42.446,59.348,45.65"/>
	<ellipse cx="34.824" cy="48.905" rx="1.046" ry="1"/>
	<ellipse cx="49.732" cy="48.905" rx="1.046" ry="1"/>
</g>
</svg>
