<?xml version="1.0" encoding="utf-8"?>
<!-- Generator: Adobe Illustrator 16.0.3, SVG Export Plug-In . SVG Version: 6.00 Build 0)  -->
<!DOCTYPE svg PUBLIC "-//W3C//DTD SVG 1.1//EN" "http://www.w3.org/Graphics/SVG/1.1/DTD/svg11.dtd">
<svg version="1.1" id="Layer_1" xmlns="http://www.w3.org/2000/svg" xmlns:xlink="http://www.w3.org/1999/xlink" x="0px" y="0px"
	 width="88.9px" height="88.9px" viewBox="0 0 88.9 88.9" enable-background="new 0 0 88.9 88.9" xml:space="preserve">
<g>
	<rect x="0.008" y="0.025" fill="#856EA6" width="88.885" height="88.849"/>
	<path fill="#DCC5A1" d="M44.659,55.657v33.119H26.594c-0.293-0.141-0.445-0.191-0.445-0.191c0-4.152,0.595-7.398,1.533-9.949
		c2.129-5.871,5.955-8.02,8.055-8.762c0.891-0.318,1.472-0.393,1.472-0.393h0.088c0.079-0.01,0.167-0.025,0.243-0.051
		c0.608-0.164,1.088-0.82,1.468-1.814c0.188-0.482,0.343-1.051,0.483-1.682c0.072-0.34,0.138-0.684,0.189-1.037
		c0.101-0.615,0.188-1.248,0.252-1.928c0.041-0.395,0.079-0.799,0.117-1.215c0.164-2.045,0.214-4.254,0.214-6.34
		C40.263,55.415,42.693,55.657,44.659,55.657"/>
	<path fill="#EDD9B4" d="M63.233,88.585c0,0-0.164,0.051-0.434,0.191H44.659V55.657h0.038c1.962,0,4.407-0.242,4.407-0.242
		c0,2.074,0.053,4.254,0.217,6.277c0.038,0.402,0.075,0.807,0.11,1.211c0.08,0.684,0.156,1.35,0.258,1.959v0.023
		c0.041,0.268,0.089,0.531,0.141,0.77c0.176,0.875,0.392,1.631,0.644,2.238h0.013c0.292,0.703,0.66,1.199,1.091,1.438
		c0.063,0.023,0.125,0.078,0.189,0.088c0.125,0.037,0.267,0.064,0.403,0.064c0,0,0.331,0.037,0.887,0.188
		c2.003,0.592,6.883,2.744,9.073,10.252c0.56,1.881,0.939,4.104,1.05,6.73C63.221,87.274,63.233,87.917,63.233,88.585"/>
	<path fill="#BC9F82" d="M49.678,64.874v0.01c-0.438,0.707-1.971,2.713-5.002,2.713h-0.022c-2.878-0.012-4.553-2.094-4.979-2.701
		c0.1-0.607,0.188-1.25,0.252-1.918c0.035-0.402,0.076-0.809,0.111-1.225c1.407,0.354,2.931,0.57,4.562,0.592h0.054
		c1.673-0.021,3.217-0.25,4.661-0.643c0.036,0.404,0.076,0.809,0.111,1.199C49.503,63.595,49.579,64.251,49.678,64.874"/>
	<rect x="39.675" y="61.702" fill="none" width="10.004" height="5.895"/>
	<path fill="#841720" d="M58.734,80.022c-2.588-4.443-4.404-7.586-5.203-10.352c-0.888-0.32-1.474-0.396-1.474-0.396H51.97
		c-0.073-0.012-0.164-0.025-0.239-0.051c-0.609-0.166-1.09-0.83-1.471-1.834c-0.315,0.162-0.738,0.328-1.259,0.467
		c-1.608,0.465-4.322,1.15-4.322,1.15s1.283,2.654,2.623,6.572c1.066,3.127-0.632,5.475-2.699,5.564
		c-2.066-0.09-3.766-2.438-2.699-5.564c1.341-3.918,2.624-6.572,2.624-6.572s-2.712-0.686-4.325-1.15
		c-0.519-0.139-0.94-0.305-1.256-0.467c-0.381,1.004-0.861,1.668-1.471,1.834c-0.075,0.025-0.164,0.039-0.242,0.051h-0.089
		c0,0-0.583,0.076-1.473,0.396c-0.796,2.766-2.612,5.908-5.198,10.352c-1.431,2.461-0.438,6.885,0.396,8.754h13.732h13.736
		C59.171,87.065,60.166,82.483,58.734,80.022"/>
	<path fill="#CCAD8B" d="M44.639,20.066c-18.858-0.038-18.967,15.063-18.128,24.91c-1.296-2.309-5.118-1.452-4.803,2.246
		c0.299,3.543,5.704,5.15,5.628,4.76c1.545,8.021,10.432,12.477,17.303,13.111c0.047,0.004,0.096,0,0.143,0.004v-45.03
		C44.734,20.067,44.686,20.066,44.639,20.066"/>
	<path fill="#BC9F82" d="M22.653,45.659c0.948-1.428,2.407-0.814,2.764-0.498c0.38,0.343,0.685,0.796,0.448,1.644
		c-0.132,0.475-0.664,0.51-0.53,1.234c0.139,0.812,0.539,0.865,0.762,1.051c0.225,0.178,0.506,0.324,0.646,0.666
		c0.139,0.344,0.161,0.711,0.085,1.02c-0.146,0.59-1.047,0.123-1.649-0.137c-0.398-0.17-1.661-1.18-1.98-1.523
		C22.394,48.261,22.024,46.612,22.653,45.659"/>
	<path fill="#D9BF9F" d="M44.731,20.066c18.855-0.038,18.964,15.063,18.127,24.91c1.294-2.309,5.116-1.452,4.804,2.246
		c-0.301,3.543-5.704,5.15-5.628,4.76c-1.545,8.021-10.432,12.477-17.303,13.111c-0.047,0.004-0.099,0-0.143,0.004v-45.03
		C44.635,20.067,44.685,20.066,44.731,20.066"/>
	<path fill="#BC9F82" d="M66.849,45.659c-0.945-1.428-2.405-0.814-2.764-0.498c-0.381,0.343-0.683,0.796-0.448,1.644
		c0.135,0.475,0.664,0.51,0.535,1.234c-0.141,0.812-0.541,0.865-0.77,1.051c-0.222,0.178-0.503,0.324-0.643,0.666
		c-0.135,0.344-0.164,0.711-0.085,1.02c0.148,0.59,1.047,0.123,1.649-0.137c0.4-0.17,1.661-1.18,1.98-1.523
		C67.108,48.261,67.48,46.612,66.849,45.659"/>
	<path fill="#DCC5A1" d="M44.539,24.34c-6.298,0-10.908,1.728-13.698,5.144c-3.893,4.772-3.744,12.055-2.308,17.286
		c0.436,1.604,0.664,5.908,0.968,7.494c1.356,7.07,9.605,10.84,15.038,10.84c0.047,0,0.099-0.008,0.146-0.008V24.343
		C44.635,24.343,44.589,24.34,44.539,24.34"/>
	<path fill="#EDD9B4" d="M58.205,29.492c-2.771-3.392-7.324-5.121-13.521-5.148v40.753c6.202-0.062,13.614-4.189,14.89-10.834
		c0.301-1.584,0.528-5.889,0.968-7.492C61.975,41.556,62.115,34.278,58.205,29.492"/>
	<path fill="#B47070" d="M47.854,58.71c0,0-1.423,1.514-3.178,1.514c-1.752,0-3.095-1.484-3.095-1.484s1.343-0.225,3.095-0.225
		C46.431,58.515,47.854,58.71,47.854,58.71"/>
	<path fill="#C17874" d="M45.577,58.007c-0.494,0-0.889,0.311-0.901,0.689c-0.009-0.379-0.405-0.689-0.897-0.689
		c-0.497,0-2.279,0.703-2.279,0.703s1.738,0.182,2.235,0.182c0.494,0,0.933,0.193,0.941-0.174c0.01,0.373,0.369,0.23,0.86,0.23
		c0.497,0,2.317-0.238,2.317-0.238S46.074,58.007,45.577,58.007"/>
	<path fill="#895A59" d="M69.495,34.041c0,0-2.149-0.535-3.472-3.549c-1.316-3.004-0.842-4.182-1.34-6.006
		c-0.479-1.756-1.503-2.999-2.334-3.737c0.047,0.025,0.091,0.05,0.141,0.075c3.558,1.858,3.721,3.5,3.727,3.705
		c-0.003-0.227-0.073-3.676-3.288-5.768c-0.767-0.499-1.77-0.978-2.819-1.408c4.602,0.146,7.704-2.214,7.704-2.214
		s-5.16,2.047-10.39,0c-3.06-1.199-6.625-3.324-8.526-3.324c-1.899,0-4.359,0.525-6.31,1.564c-1.592,0.839-3.147,2.145-3.803,2.145
		c-0.652,0-0.498,0.233-3.47,0.769c-2.971,0.543-4.329,0.391-8.119,4.168c-3.797,3.785-3.771,13.657-3.771,13.657
		s0.02-1.958,1.372-3.723c0.638-0.835,0.913-1.244,1.026-1.437c-0.378,0.737-1.87,3.87-1.799,7.243c0.149,6.8-1.498,7.73-1.498,7.73
		s1-0.159,2.41-1.652c-0.152,0.84-0.229,1.625-0.14,2.176c1.176,7.21-1.279,9.656-1.279,9.656s2.431-1.459,3.847-4.25
		c0.562-1.104,0.872-2.178,1.047-3.139c0.033,0.559,0.079,1.186,0.149,1.896c0.348,3.525-2.266,6.168-2.266,6.168
		s3.155-1.174,4.469-3.627c0.082,0.988,0.126,1.973,0.094,2.875c-0.077,2.311-1.051,2.916-1.051,2.916
		c1.384-0.777,2.206-2.346,2.738-4.561c0.271-1.131,0.469-2.432,0.626-3.883c0.037-0.375,0.078-0.764,0.114-1.16l0.059-0.07
		c-0.013-0.029-0.029-0.061-0.044-0.092c0.012-0.139,0.023-0.27,0.038-0.41c0.154-1.828,0.198-4.543,0.198-7.327
		c0-1.02-0.006-2.048-0.021-3.043c0.284,0.694,0.583,1.374,0.869,2.042c0.541,1.267,0.737,2.928,0.737,2.928s1.699-2.73,0.808-6.933
		c-0.176-0.816-0.311-1.57-0.416-2.263c1.305,2.835,4.169,3.241,4.169,3.241s-1.314-1.082-1.396-3.78
		c-0.046-1.379,0.296-2.5,0.847-3.585c0.161,0.826,0.395,1.706,0.736,2.652c1.01,2.806,3.372,4.702,4.952,5.709
		c0.006,0.004,0.016,0.011,0.024,0.016c0.046,0.031,0.09,0.058,0.134,0.087c0.81,0.501,1.375,0.75,1.375,0.75
		s-0.655-0.516-1.375-1.481c-0.044-0.061-0.088-0.128-0.134-0.192c-0.009-0.014-0.019-0.025-0.024-0.037
		c-0.866-1.232-1.749-3.093-1.661-5.493c0.005-0.097,0.005-0.194,0.009-0.285c0.207,0.63,0.447,1.194,0.72,1.607
		c0.366,0.556,0.661,0.991,0.933,1.348c0.006,0.012,0.016,0.024,0.024,0.034c0.046,0.059,0.09,0.12,0.134,0.174
		c0.696,0.87,1.269,1.247,2.507,1.903c2.825,1.49,5.695,1.537,5.695,1.537s-2.533-0.756-3.938-3.962
		c-0.269-0.618-0.553-1.246-0.837-1.855c0.737,0.863,1.697,1.707,2.94,2.401c2.884,1.608,4.63,4.37,5.844,7.57
		c0.05,0.135,0.097,0.27,0.147,0.403c0.481,1.329,0.877,2.724,1.225,4.142c0.009,0.027,0.015,0.058,0.021,0.084
		c1.025,4.332-1.098,8.289-1.672,9.255c0,0.014,0.004,0.029,0.007,0.049c0.274,1.916,0.807,3.336,1.772,4.154
		c-0.152-0.176-0.723-0.979-0.585-3.068c0.062-0.941,0.199-1.965,0.363-2.986c0.889,2.654,3.492,4.131,3.492,4.131
		s-1.989-2.953-1.349-6.57c0.131-0.742,0.231-1.383,0.313-1.965c0.058,1.012,0.219,2.15,0.596,3.346
		c0.948,3.008,2.896,4.711,2.896,4.711s-1.872-2.729-0.158-10.115c0.129-0.562,0.14-1.383,0.088-2.263
		c0.233,0.361,0.456,0.659,0.664,0.896c-0.108,1.111-0.594,2.058-0.535,1.966c0.061-0.08,0.511-0.596,1.015-1.466
		c0.471,0.421,0.775,0.513,0.775,0.513s-0.258-0.215-0.48-1.058c0.836-1.656,1.647-4.255,0.939-7.531
		c-0.249-1.15-0.629-2.349-1.05-3.473c-0.009-0.072-0.019-0.141-0.027-0.21C67.334,34.095,69.495,34.041,69.495,34.041"/>
	<path fill="#FDFDFD" d="M36.621,15.018c-0.797-0.157-3.835,3.011-5.116,4.996c-0.319-0.125-0.688-0.15-1.041-0.031
		c-0.354,0.117-0.629,0.354-0.812,0.65c-2.223-0.818-6.565-1.525-7.107-0.924c-0.708,0.802,1.363,4.053,1.363,4.053
		s0.31,3.835,1.357,4.049c0.795,0.16,3.837-3.009,5.119-4.998c0.321,0.129,0.687,0.156,1.044,0.038
		c0.354-0.117,0.629-0.357,0.81-0.653c2.224,0.818,6.564,1.525,7.103,0.92c0.711-0.8-1.357-4.049-1.357-4.049
		S37.674,15.232,36.621,15.018"/>
	<circle cx="37.642" cy="45.212" r="1"/>
	<circle cx="51.892" cy="45.212" r="1"/>
</g>
</svg>
