<?xml version="1.0" encoding="utf-8"?>
<!-- Generator: Adobe Illustrator 16.0.3, SVG Export Plug-In . SVG Version: 6.00 Build 0)  -->
<!DOCTYPE svg PUBLIC "-//W3C//DTD SVG 1.1//EN" "http://www.w3.org/Graphics/SVG/1.1/DTD/svg11.dtd">
<svg version="1.1" id="Layer_1" xmlns="http://www.w3.org/2000/svg" xmlns:xlink="http://www.w3.org/1999/xlink" x="0px" y="0px"
	 width="88.9px" height="88.9px" viewBox="0 0 88.9 88.9" enable-background="new 0 0 88.9 88.9" xml:space="preserve">
<g>
	<rect x="0.005" y="0.026" fill="#7491C6" width="88.89" height="88.848"/>
	<path fill="#DCC5A1" d="M43.247,53.647V88.81H24.063c-0.307-0.137-0.468-0.203-0.468-0.203c0-18.859,11.742-20.268,11.742-20.268
		c1.173,0,1.924-1.5,2.422-3.777c0.082-0.352,0.146-0.713,0.202-1.1c0.107-0.646,0.201-1.328,0.266-2.039
		c0.047-0.428,0.082-0.857,0.123-1.301c0.148-1.754,0.198-3.646,0.217-5.48c0.012-0.418,0.012-0.836,0.012-1.244
		C38.579,53.397,41.161,53.647,43.247,53.647"/>
	<path fill="#EDD9B4" d="M62.968,88.606c0,0-0.176,0.066-0.457,0.203H43.247V53.647h0.041c2.086,0,4.68-0.25,4.68-0.25
		c0,0.48,0,0.963,0.012,1.445c0.018,1.754,0.082,3.549,0.217,5.227c0.041,0.43,0.082,0.855,0.123,1.273
		c0.082,0.736,0.162,1.436,0.268,2.09v0.016c0.039,0.295,0.094,0.564,0.148,0.83c0.496,2.428,1.277,4.061,2.488,4.061
		C51.224,68.339,62.968,69.747,62.968,88.606"/>
	<path fill="#BC9F82" d="M48.587,63.435v0.016c-0.471,0.75-2.094,2.879-5.311,2.879h-0.023c-3.057-0.006-4.833-2.225-5.289-2.865
		c0.105-0.643,0.199-1.326,0.266-2.041c0.045-0.426,0.086-0.854,0.123-1.297c1.495,0.373,3.11,0.604,4.842,0.627h0.059
		c1.771-0.023,3.411-0.266,4.95-0.684c0.035,0.43,0.082,0.857,0.117,1.273C48.401,62.083,48.483,62.78,48.587,63.435"/>
	<rect x="37.963" y="60.069" fill="none" width="10.624" height="6.262"/>
	<path fill="#272B41" d="M62.968,88.606c0,0-0.176,0.066-0.457,0.203H24.063c-0.307-0.137-0.468-0.203-0.468-0.203
		c0-18.416,11.188-20.186,11.729-20.268h0.013c0.889,0,1.532-0.857,2.004-2.252c0.178,0.311,0.511,0.549,0.836,0.727
		c0.687,0.375,1.985,0.734,5.11,0.734c3.118,0,5.194-0.67,5.76-1.191c0.078-0.08,0.131-0.174,0.172-0.27
		c0.455,1.342,1.076,2.188,1.896,2.252h0.107C51.224,68.339,62.968,69.747,62.968,88.606"/>
	<path fill="#202331" d="M51.36,70.323c-2.586,1.824-4.281,2.24-8.14,2.24c-3.847,0-5.178-0.537-7.14-1.518
		c-1.387-0.686-2.37-1.217-1.361-2.102c0.281-0.256,0.469-0.445,0.605-0.605h0.012c0.365-0.416,0.404-0.631,0.779-1.191
		c0.525-0.766-0.937-1.207-0.035-1.795c0.883-0.592,1.597-0.473,1.597-0.473c-0.337,1.207,0.175,1.756,0.5,1.934
		c0.687,0.375,1.986,0.734,5.11,0.734c3.118,0,4.627-0.67,5.299-1.045c0.574-0.314,0.422-0.943,0.408-1.209
		c-0.039-0.068-0.086-0.248-0.086-0.248s1.723,0.104,1.574,0.947c-0.135,0.82,0.164,1.623,0.631,2.346
		c0.082,0.105,0.15,0.215,0.229,0.311C51.964,69.438,52.878,69.251,51.36,70.323"/>
	<path fill="#CCAD8B" d="M43.305,13.327c-20.318,0-20.436,16.949-19.531,28.042c-1.392-2.631-5.514-1.818-5.177,2.324
		c0.324,3.99,6.151,6.052,6.066,5.587c1.671,9.131,11.23,14.402,18.642,14.402c0.05,0,0.104-0.006,0.154-0.006V13.329
		C43.407,13.329,43.355,13.327,43.305,13.327"/>
	<path fill="#BC9F82" d="M19.893,41.942c1.006-1.602,2.553-0.91,2.937-0.559c0.403,0.385,0.725,0.891,0.473,1.838
		c-0.14,0.531-0.701,0.573-0.561,1.383c0.146,0.907,0.573,0.963,0.81,1.172c0.237,0.207,0.536,0.365,0.685,0.748
		c0.143,0.381,0.172,0.791,0.09,1.141c-0.155,0.654-1.111,0.135-1.752-0.154c-0.421-0.191-1.764-1.32-2.103-1.703
		C19.618,44.85,19.223,43.004,19.893,41.942"/>
	<path fill="#D9BF9F" d="M43.405,13.327c20.317,0,20.434,16.949,19.532,28.042c1.391-2.631,5.52-1.818,5.176,2.324
		c-0.324,3.99-6.15,6.052-6.07,5.587c-1.664,9.131-11.225,14.402-18.637,14.402c-0.051,0-0.105-0.006-0.152-0.006V13.329
		C43.305,13.329,43.354,13.327,43.405,13.327"/>
	<path fill="#BC9F82" d="M66.817,41.942c-1.006-1.602-2.557-0.91-2.938-0.559c-0.404,0.385-0.723,0.891-0.475,1.838
		c0.143,0.531,0.703,0.573,0.568,1.383c-0.152,0.907-0.572,0.963-0.816,1.172c-0.232,0.207-0.535,0.365-0.684,0.748
		c-0.145,0.381-0.172,0.791-0.092,1.141c0.158,0.654,1.111,0.135,1.754-0.154c0.424-0.191,1.762-1.32,2.102-1.703
		C67.093,44.85,67.487,43.004,66.817,41.942"/>
	<path fill="#DCC5A1" d="M43.129,18.104c-6.688,0-11.578,1.934-14.544,5.751c-4.133,5.333-3.975,13.484-2.448,19.331
		c0.465,1.789,0.702,6.608,1.027,8.377c1.439,7.906,10.197,12.119,15.965,12.119c0.047,0,0.105-0.008,0.152-0.008V18.109
		C43.231,18.109,43.182,18.104,43.129,18.104"/>
	<path fill="#EDD9B4" d="M57.638,23.867c-2.939-3.797-7.775-5.727-14.356-5.758v45.568c6.586-0.07,14.456-4.688,15.811-12.113
		c0.32-1.77,0.559-6.589,1.025-8.378C61.64,37.355,61.792,29.219,57.638,23.867"/>
	<path fill="#FFFFFF" d="M51.911,55.562c-0.076-1.123-0.404-2.135-0.918-2.896c-0.006-0.002-0.199-0.156-0.539-0.4
		c-0.357-0.256-0.877-0.605-1.539-0.99c-0.77-0.445-1.686-1.082-2.801-1.465c-0.322-0.115-0.662-0.207-1.019-0.268
		c-0.519-0.082-1.278-0.125-2.062-0.133l0,0c-0.006,0-0.016,0-0.021,0c-0.012,0-0.018,0-0.025,0l0,0
		c-0.785,0.008-1.545,0.051-2.061,0.133c-0.355,0.061-0.696,0.152-1.02,0.268c-1.113,0.383-2.031,1.02-2.797,1.465
		c-0.668,0.385-1.188,0.734-1.541,0.99c-0.344,0.244-0.533,0.398-0.535,0.4c-0.519,0.762-0.85,1.773-0.92,2.896
		c-0.009,0.146-0.031,0.291-0.031,0.445c0,1.148,0.283,2.207,0.757,3.029c0.12,0.324,0.36,0.633,0.704,0.92
		c0.322,0.311,0.683,0.537,1.068,0.668c1.51,0.725,3.797,1.195,6.375,1.225v0.002c0.008,0,0.014-0.002,0.025-0.002
		c0.006,0,0.016,0.002,0.021,0.002v-0.002c2.581-0.029,4.864-0.5,6.374-1.225c0.385-0.131,0.748-0.357,1.07-0.668
		c0.346-0.287,0.584-0.596,0.707-0.92c0.469-0.822,0.752-1.881,0.752-3.029C51.937,55.853,51.917,55.708,51.911,55.562
		 M49.302,58.558c-0.545,0.252-1.186,0.469-1.895,0.646c0.027-0.109,0.051-0.225,0.051-0.346c0-0.711-0.578-1.289-1.293-1.289
		h-6.309c-0.714,0-1.296,0.578-1.296,1.289c0,0.121,0.024,0.236,0.06,0.346c-0.715-0.178-1.355-0.395-1.899-0.646
		c-0.325-0.74-0.526-1.607-0.526-2.551c0-0.26,0.014-0.51,0.045-0.756c1.26-1.273,3.217-2.188,5.496-2.471
		c0.411-0.051,0.838-0.078,1.277-0.086c0.434,0.008,0.859,0.035,1.275,0.086c2.276,0.283,4.235,1.197,5.497,2.471
		c0.025,0.246,0.045,0.496,0.045,0.756C49.829,56.95,49.63,57.817,49.302,58.558"/>
	<path fill="#FFFFFF" d="M61.341,16.492c-1.959-1.822-4.441-2.475-4.441-2.475s-5.488-2.734-9.67-4.688
		c-4.182-1.952-10.981-0.391-14.507,0.522c-3.528,0.909-7.728,5.909-9.036,8.642c-1.304,2.739-4.554,8.677-5.598,12.973
		c-1.045,4.296,2.466,8.466,4.659,9.353c1.425,0.581,1.515,3.918,1.515,3.918l1.557,0.688c0,0-0.191-5.281,2.217-9.421
		c16.854,6.964,21.967-10.392,22.196-11.205c0.023-0.017,0.041-0.035,0.059-0.053c1.188,0.275,3.146,0.974,5.582,2.772
		c2.475,1.829,5.514,4.36,5.514,9.837c0,1.831-0.822,7.158-0.822,7.158l0.822-0.58c0,0,0-2.064,2.346-3.356
		c1.869-1.035,2.342-4.544,2.342-5.996C66.073,24.884,63.304,18.317,61.341,16.492"/>
	<circle cx="36.755" cy="40.922" r="1"/>
	<circle cx="50.005" cy="40.922" r="1"/>
</g>
</svg>
