<?xml version="1.0" encoding="utf-8"?>
<!-- Generator: Adobe Illustrator 16.0.3, SVG Export Plug-In . SVG Version: 6.00 Build 0)  -->
<!DOCTYPE svg PUBLIC "-//W3C//DTD SVG 1.1//EN" "http://www.w3.org/Graphics/SVG/1.1/DTD/svg11.dtd">
<svg version="1.1" id="Layer_1" xmlns="http://www.w3.org/2000/svg" xmlns:xlink="http://www.w3.org/1999/xlink" x="0px" y="0px"
	 width="2000px" height="2000px" viewBox="0 0 2000 2000" enable-background="new 0 0 2000 2000" xml:space="preserve">
<rect x="-0.5" y="0.5" fill="#442C38" stroke="#000000" stroke-miterlimit="10" width="2000" height="2000"/>
<g>
	<path fill="#303F9F" d="M252.775,1233.791c-8.127-27.33-21.621-57.262-26.838-85.273c-2.811-15.102-7.557-30.522-9.35-45.782
		c-2.146-18.275-3.467-36.607-3.969-54.988c-1.25-46.047,2.596-91.664,12.277-136.728c20.924-97.341,65.172-182.683,132.348-256.086
		c45.482-49.697,98.34-89.814,158.326-120.492c8.393-4.292,16.982-8.201,25.498-12.257c1.262-0.601,2.527-1.358,3.996-1.125
		c0.477,1.286-0.053,2.352-0.287,3.414c-6.557,29.453-9.422,59.309-9.877,89.434c-0.244,16.158,0.283,32.29,1.471,48.394
		c0.826,11.161,2.053,22.286,3.434,33.398c3.014,24.329,7.687,48.345,13.258,72.188c3.092,13.234,6.672,26.352,10.521,39.396
		c3.172,10.74,6.523,21.418,10.07,32.031c4.764,14.252,9.943,28.362,15.484,42.328c9.256,23.334,19.341,46.302,30.236,68.918
		c21.461,44.55,45.852,87.449,72.397,129.148c12.449,19.553,25.666,38.596,38.433,57.934
		c36.396,55.125,70.387,111.664,100.562,170.457c16.871,32.863,32.42,66.334,46.416,100.521
		c6.905,16.863,13.359,33.908,19.316,51.133c4.284,12.388,8.308,24.863,12.098,37.42c8.463,28.058-26.33,29.72-24.501,45.3
		C885.608,1555.338,256.699,1246.977,252.775,1233.791z"/>
	<path fill="#FFC107" d="M1518.479,585.978c-1.941,1.056-3.588,0.908-5.153,1.087c-29.812,3.446-58.812,10.464-87.288,19.785
		c-15.961,5.228-31.629,11.246-47.034,17.927c-10.999,4.768-21.848,9.876-32.555,15.299c-16.567,8.389-32.886,17.224-48.679,26.977
		c-14.021,8.655-27.811,17.662-41.301,27.14c-11.521,8.094-22.863,16.417-33.968,25.06c-17.408,13.551-34.283,27.756-50.688,42.516
		c-56.755,51.052-107.252,107.811-153.414,168.495c-20.611,27.096-41.271,54.149-62.854,80.485
		c-34.566,42.176-70.759,82.885-109.391,121.396c-22.192,22.127-45.098,43.478-68.95,63.812
		c-12.164,10.373-24.511,20.529-37.144,30.324c-10.865,8.426-21.959,16.549-33.158,24.53c-23.215,16.562-47.346,31.636-72.147,45.66
		c-13.373,7.562-27.08,14.465-40.932,21.111c-16.597,7.963-33.502,15.164-50.73,21.602c-43.145,16.132-87.537,27.295-133.307,32.761
		c-98.863,11.807-195.713-295.512-195.713-295.512s5.811-4.293,14.699-11.092c11.938-9.133,23.598-18.608,35.012-28.385
		c19.066-16.328,37.516-33.32,55.371-50.965c35.174-34.758,67.84-71.753,98.662-110.397c14.455-18.12,28.178-36.8,42.326-55.153
		c40.326-52.313,82.775-102.816,128.59-150.438c25.611-26.624,52.225-52.192,80.014-76.526
		c13.711-12.005,27.74-23.644,42.096-34.866c10.33-8.073,20.822-15.931,31.472-23.591c23.789-17.107,48.307-33.081,73.813-47.5
		c13.644-7.708,27.529-14.983,41.669-21.772c11.684-5.606,23.475-10.965,35.455-15.872c25.171-10.312,50.893-19.019,77.238-25.849
		c58.199-15.083,117.277-21.064,177.294-16.992c72.764,4.933,141.75,23.935,207.059,56.288
		c59.332,29.386,111.816,68.125,157.554,116.009C1514.366,581.398,1516.256,583.546,1518.479,585.978z"/>
	<path fill="#C5CAE9" d="M1838.61,1559.748c-2.182-0.35-3.396-1.473-4.742-2.287c-25.708-15.479-52.95-27.641-81.194-37.652
		c-15.831-5.614-31.911-10.42-48.188-14.541c-11.625-2.94-23.334-5.526-35.123-7.772c-18.239-3.478-36.555-6.449-55.021-8.377
		c-16.387-1.711-32.808-3.002-49.276-3.74c-14.062-0.627-28.131-0.971-42.197-0.907c-22.062,0.1-44.1,1.034-66.105,2.696
		c-76.119,5.752-150.772,19.847-224.392,39.689c-32.871,8.862-65.753,17.668-98.927,25.332
		c-53.133,12.272-106.654,22.401-160.765,29.297c-31.088,3.959-62.268,6.871-93.571,8.404c-15.973,0.776-31.945,1.28-47.933,1.317
		c-13.748,0.037-27.494-0.315-41.237-0.832c-28.49-1.069-56.812-3.875-85.017-7.922c-15.207-2.182-30.274-5.09-45.301-8.287
		c-18.002-3.832-35.789-8.461-53.361-13.885c-44.014-13.584-85.982-31.865-125.557-55.496
		c-85.484-51.043-152.117-120.332-200.09-207.512c-32.479-59.02-53.516-121.953-63.328-188.611
		c-1.371-9.326-3.211-32.229-3.211-32.229s1.85,1.173,2.777,1.736c25.793,15.656,53.51,27.584,81.898,37.68
		c15.227,5.412,30.678,10.091,46.311,14.132c10.832,2.799,21.764,5.206,32.73,7.469c24.01,4.951,48.256,8.227,72.625,10.598
		c13.529,1.316,27.102,2.137,40.691,2.676c11.189,0.443,22.379,0.691,33.568,0.738c15.029,0.062,30.053-0.318,45.062-1.086
		c25.065-1.279,50.057-3.465,74.973-6.527c49.078-6.037,97.539-15.371,145.549-27.137c22.515-5.52,44.787-11.926,67.201-17.814
		c63.882-16.786,128.342-30.84,193.709-40.559c36.536-5.434,73.228-9.422,110.093-11.715c18.19-1.129,36.406-1.775,54.631-1.891
		c13.106-0.082,26.217,0.104,39.323,0.551c29.287,0.983,58.456,3.311,87.455,7.479c15.517,2.229,30.95,4.951,46.295,8.215
		c12.675,2.697,25.283,5.658,37.769,9.093c26.229,7.209,51.908,16.028,76.94,26.717c55.293,23.608,105.722,54.963,150.752,94.848
		c54.595,48.355,97.609,105.541,129.558,171.045c29.022,59.511,46.912,122.244,53.871,188.093
		C1838.158,1553.609,1838.339,1556.463,1838.61,1559.748z"/>
</g>
</svg>
